<svg width="4167" height="1836" viewBox="0 0 4167 1836" fill="none" xmlns="http://www.w3.org/2000/svg">
<path d="M753.986 479.555C532.385 479.555 489.334 459.292 489.334 378.238C489.334 297.183 520.992 240.221 566.563 240.221C600.742 240.221 610.874 273.138 610.874 360.542C610.874 373.195 615.964 380.806 628.617 380.806H751.465C762.857 380.806 770.468 374.456 770.468 361.803C770.468 219.958 690.671 130.032 562.781 130.032C384.184 130.032 258.815 322.536 258.815 597.355C258.815 644.605 264.792 684.619 276.745 718.236C310.737 703.715 349.445 695.638 393.522 695.638C472.058 695.638 581.085 727.761 621.427 872.174H755.293C766.686 872.174 774.25 864.563 774.25 853.171V498.558C774.25 487.166 766.686 479.555 753.986 479.555Z" fill="#121212"/>
<path d="M1138.87 142.125C909.658 142.125 858.997 451.121 858.997 647.407C858.997 690.642 865.86 737.145 887.946 777.813C937.58 732.663 995.291 708.384 1059.21 708.384C1155.31 708.384 1235.24 763.479 1294.17 863.863C1393.95 818.947 1416.27 727.574 1416.27 647.407C1416.27 451.121 1365.61 142.125 1138.87 142.125ZM1141.44 486.606C1098.34 486.606 1070.51 458.732 1070.51 415.683C1070.51 329.54 1097.08 252.314 1141.44 252.314C1175.62 252.314 1206.01 338.411 1206.01 415.683C1206.01 457.471 1179.4 486.606 1141.44 486.606Z" fill="#121212"/>
<path d="M2062.54 183.213C1996.7 183.213 1955.24 203.476 1928.44 236.393C1891.83 200.955 1836.97 183.213 1782.1 183.213C1673.59 183.213 1634.6 275.659 1634.6 275.659V207.305C1634.6 195.912 1627.27 188.302 1617.51 188.302H1528.52C1517.54 188.302 1511.43 195.912 1511.43 207.305V730.655H1712.62V593.526C1712.62 517.561 1722.38 484.645 1757.73 484.645C1793.07 484.645 1801.62 517.561 1801.62 593.526V730.655H1816.05C1819.97 730.655 1823.75 731.729 1826.97 733.69C1830.24 735.651 1832.95 738.453 1834.77 741.908L1889.31 844.206L1940.81 747.511C1946.36 737.145 1957.15 730.655 1968.92 730.655H1990.58V593.526C1990.58 517.561 2001.56 484.645 2035.69 484.645C2069.82 484.645 2080.84 517.561 2080.84 593.526V730.655H2281.99V471.992C2281.99 275.659 2200.32 183.213 2062.54 183.213Z" fill="#121212"/>
<path d="M2627.51 202.636H2443.87C2432.48 202.636 2424.87 210.199 2424.87 221.592V738.78C2426.5 738.453 2428.28 738.266 2430.1 738.266H2646.51V221.592C2646.51 210.199 2638.9 202.636 2627.51 202.636ZM2627.51 55.7014H2443.87C2432.48 55.7014 2424.87 63.312 2424.87 74.7044V143.106C2424.87 154.498 2432.48 162.109 2443.87 162.109H2627.51C2638.9 162.109 2646.51 154.498 2646.51 143.106V74.7044C2646.51 63.312 2638.9 55.7014 2627.51 55.7014Z" fill="#121212"/>
<path d="M3206.26 0H3009.97C2998.53 0 2990.96 7.61054 2990.96 19.003V130.453C2990.96 141.845 2984.61 148.148 2973.22 149.455C2792.1 167.151 2690.78 301.385 2690.78 524.285C2690.78 608.374 2702.17 676.775 2725.94 730.609C2729.25 729.348 2733.08 728.695 2737.28 728.695H3004.97C3094.25 728.695 3166.76 745.923 3225.26 775.945V19.003C3225.26 7.61054 3217.65 0 3206.26 0ZM2990.96 468.583C2990.96 483.757 2983.35 491.368 2966.87 491.368C2917.47 491.368 2887.12 431.838 2887.12 362.176C2887.12 292.514 2945.34 255.816 2974.48 255.816C2984.61 255.816 2990.96 260.858 2990.96 269.729V468.583ZM3068.85 882.072C3062.03 882.072 3055.87 883.566 3051.15 886.507H3093.22C3084.44 883.519 3076.13 882.072 3068.85 882.072Z" fill="#121212"/>
<path d="M3776.09 143.713H3597.54C3576.02 143.713 3570.93 166.497 3570.93 181.718C3570.93 166.497 3555.75 141.191 3496.22 141.191C3336.63 141.191 3270.79 360.262 3270.79 523.631C3270.79 813.671 3393.64 883.333 3503.83 883.333C3516.34 883.333 3527.55 881.932 3537.54 879.551L3560.94 756.335C3563.88 742.655 3574.29 735.091 3587.69 735.091H3803.97V162.715C3803.97 151.323 3792.57 143.713 3776.09 143.713ZM3570.93 467.93C3570.93 483.104 3563.32 490.714 3545.62 490.714C3503.83 490.714 3465.82 462.84 3465.82 374.222C3465.82 307.082 3525.36 252.641 3553.18 252.641C3564.62 252.641 3570.93 257.683 3570.93 266.555V467.93Z" fill="#121212"/>
<path d="M0 1382.31C0 1149.98 40.1553 733.877 356.869 733.877C455.016 733.877 600.742 783.976 600.742 1040.63V1042.17C600.742 1055.85 591.824 1064.96 578.423 1064.96H435.685C422.284 1064.96 413.366 1055.85 413.366 1042.17C413.366 932.824 399.966 896.406 361.304 896.406C306.301 896.406 258.722 975.359 258.722 1093.81C258.722 1195.55 288.464 1239.58 343.468 1239.58C373.211 1239.58 405.942 1227.44 405.942 1168.19V1166.65C405.942 1152.97 414.86 1143.86 428.261 1143.86H582.906C596.306 1143.86 605.224 1152.97 605.224 1166.65V1781.7C605.224 1795.38 593.318 1804.48 571.046 1804.48H401.553C169.586 1804.48 0.0933688 1772.59 0.0933688 1382.31H0Z" fill="#121212"/>
<path d="M690.111 1471.54C690.111 1043.29 835.837 759.323 1054.4 759.323C1272.97 759.323 1402.35 1032.65 1402.35 1471.54C1402.35 1708.44 1277.45 1836 1046.98 1836C816.507 1836 690.111 1705.41 690.111 1471.54ZM1134.71 1123.79C1134.71 1006.87 1099.04 918.77 1054.4 918.77C997.906 918.77 960.739 1003.79 960.739 1123.79C960.739 1186.07 997.906 1227.07 1054.4 1227.07C1100.49 1227.07 1134.71 1186.07 1134.71 1123.79Z" fill="#121212"/>
<path d="M1461.79 1807.15V789.672C1461.79 775.992 1470.71 766.887 1484.11 766.887H1759.18C1772.58 766.887 1780 774.498 1782.99 786.637L1882.63 1176.92C1885.62 1187.57 1891.55 1193.64 1896.03 1193.64C1901.96 1193.64 1906.44 1187.57 1909.43 1176.92L2013.51 786.637C2016.5 774.498 2023.92 766.887 2037.32 766.887H2313.88C2327.28 766.887 2336.2 775.992 2336.2 789.672V1807.15C2336.2 1820.83 2327.28 1829.93 2313.88 1829.93H2117.59C2104.18 1829.93 2095.27 1820.83 2095.27 1807.15V1369.8C2095.27 1360.69 2089.34 1354.62 2083.36 1354.62C2078.88 1354.62 2072.95 1359.2 2071.45 1366.76L1953.98 1810.18C1950.99 1822.32 1943.56 1829.93 1930.16 1829.93H1826.09C1812.69 1829.93 1805.26 1822.32 1802.27 1810.18L1686.29 1368.26C1684.8 1360.65 1678.87 1356.12 1674.38 1356.12C1668.45 1356.12 1662.48 1362.19 1662.48 1371.29V1807.15C1662.48 1820.83 1653.56 1829.93 1640.16 1829.93H1484.02C1470.62 1829.93 1461.7 1820.83 1461.7 1807.15H1461.79Z" fill="#121212"/>
<path d="M2425.29 1807.15V789.672C2425.29 775.992 2434.21 766.887 2447.61 766.887H2681.07C2694.47 766.887 2703.39 775.992 2703.39 789.672V1807.15C2703.39 1820.83 2694.47 1829.93 2681.07 1829.93H2447.61C2434.21 1829.93 2425.29 1820.83 2425.29 1807.15Z" fill="#121212"/>
<path d="M2792.57 1807.15V789.672C2792.57 775.992 2801.49 766.887 2814.89 766.887H3045.36C3353.15 766.887 3428.98 1043.25 3428.98 1309.01C3428.98 1548.95 3399.24 1829.88 3042.37 1829.88H2814.89C2801.49 1829.88 2792.57 1820.78 2792.57 1807.1V1807.15ZM3205.93 1075.18C3205.93 971.904 3137.53 920.265 3100.36 920.265C3086.96 920.265 3076.6 927.875 3076.6 943.049V1204.23C3076.6 1228.51 3085.51 1237.66 3104.85 1237.66C3174.74 1236.12 3205.98 1138.96 3205.98 1075.18H3205.93Z" fill="#121212"/>
<path d="M3404.24 1805.65L3597.54 788.178C3600.53 774.498 3610.94 766.934 3624.3 766.934H3941.01C3955.86 766.934 3964.82 773.003 3967.76 786.684L4167 1805.65V1811.72C4167 1823.86 4158.08 1829.93 4144.68 1829.93H3914.21C3899.36 1829.93 3890.44 1823.86 3888.95 1808.69L3851.78 1583.92C3848.79 1568.75 3839.87 1562.68 3826.52 1562.68H3695.69C3680.84 1562.68 3673.37 1570.29 3670.43 1583.92L3621.35 1808.69C3618.37 1822.37 3610.94 1829.93 3596.09 1829.93H3426.6C3410.26 1829.93 3401.34 1822.32 3404.28 1805.65H3404.24ZM3813.12 1280.2L3787.86 1064.54C3784.87 1044.79 3777.45 1035.68 3768.53 1035.68C3761.1 1035.68 3752.19 1044.79 3749.2 1064.54L3719.46 1280.2V1283.23C3719.46 1298.41 3731.36 1304.48 3752.19 1304.48H3777.45C3801.26 1304.48 3816.11 1295.37 3813.12 1280.2Z" fill="#121212"/>
</svg>
