<svg width="4059" height="1789" viewBox="0 0 4059 1789" fill="none" xmlns="http://www.w3.org/2000/svg">
<path d="M734.446 467.279C518.589 467.279 476.654 447.534 476.654 368.555C476.654 289.576 507.491 234.072 551.881 234.072C585.174 234.072 595.044 266.146 595.044 351.312C595.044 363.642 600.001 371.057 612.327 371.057H731.99C743.088 371.057 750.502 364.87 750.502 352.541C750.502 214.327 672.773 126.704 548.197 126.704C374.228 126.704 252.109 314.28 252.109 582.063C252.109 628.104 257.931 667.093 269.574 699.85C302.685 685.701 340.39 677.83 383.325 677.83C459.826 677.83 566.026 709.131 605.323 849.847H735.72C746.818 849.847 754.186 842.431 754.186 831.33V485.796C754.186 474.695 746.818 467.279 734.446 467.279Z" fill="#FD8B74"/>
<path d="M1109.36 138.487C886.084 138.487 836.736 439.573 836.736 630.834C836.736 672.962 843.421 718.275 864.934 757.901C913.282 713.908 969.498 690.25 1031.76 690.25C1125.36 690.25 1203.23 743.934 1260.63 841.749C1357.82 797.982 1379.56 708.949 1379.56 630.834C1379.56 439.573 1330.22 138.487 1109.36 138.487ZM1111.86 474.149C1069.88 474.149 1042.77 446.988 1042.77 405.042C1042.77 321.104 1068.65 245.855 1111.86 245.855C1145.15 245.855 1174.76 329.748 1174.76 405.042C1174.76 445.76 1148.83 474.149 1111.86 474.149Z" fill="#FD8B74"/>
<path d="M2009.08 178.522C1944.95 178.522 1904.56 198.267 1878.46 230.341C1842.8 195.811 1789.36 178.522 1735.92 178.522C1630.22 178.522 1592.24 268.603 1592.24 268.603V201.998C1592.24 190.897 1585.1 183.481 1575.59 183.481H1488.9C1478.21 183.481 1472.26 190.897 1472.26 201.998V711.951H1668.24V578.333C1668.24 504.312 1677.74 472.238 1712.17 472.238C1746.6 472.238 1754.93 504.312 1754.93 578.333V711.951H1768.98C1772.8 711.951 1776.49 712.998 1779.62 714.909C1782.81 716.819 1785.45 719.549 1787.22 722.916L1840.34 822.595L1890.51 728.375C1895.92 718.275 1906.43 711.951 1917.89 711.951H1938.99V578.333C1938.99 504.312 1949.68 472.238 1982.93 472.238C2016.18 472.238 2026.91 504.312 2026.91 578.333V711.951H2222.85V459.909C2222.85 268.603 2143.3 178.522 2009.08 178.522Z" fill="#FD8B74"/>
<path d="M2559.41 197.448H2380.53C2369.44 197.448 2362.02 204.819 2362.02 215.919V719.868C2363.61 719.549 2365.34 719.367 2367.12 719.367H2577.93V215.919C2577.93 204.819 2570.51 197.448 2559.41 197.448ZM2559.41 54.2755H2380.53C2369.44 54.2755 2362.02 61.6912 2362.02 72.792V139.442C2362.02 150.543 2369.44 157.959 2380.53 157.959H2559.41C2570.51 157.959 2577.93 150.543 2577.93 139.442V72.792C2577.93 61.6912 2570.51 54.2755 2559.41 54.2755Z" fill="#FD8B74"/>
<path d="M3123.16 0H2931.96C2920.81 0 2913.45 7.41572 2913.45 18.5165V127.113C2913.45 138.214 2907.26 144.356 2896.16 145.63C2719.74 162.872 2621.04 293.67 2621.04 510.864C2621.04 592.8 2632.14 659.45 2655.29 711.906C2658.52 710.678 2662.25 710.041 2666.34 710.041H2927.09C3014.05 710.041 3084.69 726.828 3141.68 756.082V18.5165C3141.68 7.41572 3134.26 0 3123.16 0ZM2913.45 456.588C2913.45 471.374 2906.03 478.789 2889.98 478.789C2841.86 478.789 2812.29 420.783 2812.29 352.905C2812.29 285.026 2869.01 249.267 2897.39 249.267C2907.26 249.267 2913.45 254.181 2913.45 262.825V456.588ZM2989.31 859.492C2982.67 859.492 2976.67 860.948 2972.07 863.814H3013.05C3004.5 860.902 2996.41 859.492 2989.31 859.492Z" fill="#FD8B74"/>
<path d="M3678.23 140.034H3504.3C3483.34 140.034 3478.38 162.235 3478.38 177.067C3478.38 162.235 3463.6 137.577 3405.61 137.577C3250.15 137.577 3186.02 351.039 3186.02 510.226C3186.02 792.841 3305.69 860.72 3413.02 860.72C3425.21 860.72 3436.13 859.355 3445.86 857.035L3468.65 736.974C3471.51 723.644 3481.65 716.273 3494.71 716.273H3705.38V158.55C3705.38 147.449 3694.28 140.034 3678.23 140.034ZM3478.38 455.951C3478.38 470.737 3470.97 478.153 3453.73 478.153C3413.02 478.153 3376 450.992 3376 364.642C3376 299.221 3433.99 246.173 3461.1 246.173C3472.24 246.173 3478.38 251.087 3478.38 259.731V455.951Z" fill="#FD8B74"/>
<path d="M0 1346.92C0 1120.54 39.115 715.09 347.622 715.09C443.225 715.09 585.175 763.906 585.175 1013.99V1015.49C585.175 1028.82 576.487 1037.7 563.434 1037.7H424.396C411.342 1037.7 402.655 1028.82 402.655 1015.49C402.655 908.945 389.602 873.458 351.943 873.458C298.365 873.458 252.018 950.39 252.018 1065.81C252.018 1164.94 280.991 1207.85 334.568 1207.85C363.541 1207.85 395.423 1196.02 395.423 1138.28V1136.78C395.423 1123.45 404.111 1114.58 417.164 1114.58H567.8C580.854 1114.58 589.541 1123.45 589.541 1136.78V1736.09C589.541 1749.42 577.943 1758.29 556.248 1758.29H391.148C165.193 1758.29 0.0914 1727.22 0.0914 1346.92H0Z" fill="#FE5F3F"/>
<path d="M672.223 1433.87C672.223 1016.59 814.172 739.885 1027.07 739.885C1239.98 739.885 1366.01 1006.21 1366.01 1433.87C1366.01 1664.71 1244.34 1789 1019.84 1789C795.343 1789 672.223 1661.75 672.223 1433.87ZM1105.3 1095.02C1105.3 981.1 1070.55 895.251 1027.07 895.251C972.041 895.251 935.837 978.097 935.837 1095.02C935.837 1155.71 972.041 1195.65 1027.07 1195.65C1071.96 1195.65 1105.3 1155.71 1105.3 1095.02Z" fill="#FE5F3F"/>
<path d="M1423.91 1760.88V769.457C1423.91 756.127 1432.59 747.255 1445.65 747.255H1713.58C1726.63 747.255 1733.87 754.671 1736.78 766.5L1833.83 1146.79C1836.75 1157.17 1842.52 1163.08 1846.89 1163.08C1852.66 1163.08 1857.03 1157.17 1859.94 1146.79L1961.32 766.5C1964.23 754.671 1971.46 747.255 1984.52 747.255H2253.91C2266.96 747.255 2275.65 756.127 2275.65 769.457V1760.88C2275.65 1774.21 2266.96 1783.09 2253.91 1783.09H2062.7C2049.65 1783.09 2040.96 1774.21 2040.96 1760.88V1334.73C2040.96 1325.86 2035.18 1319.95 2029.36 1319.95C2025 1319.95 2019.22 1324.4 2017.76 1331.78L1903.33 1763.84C1900.42 1775.67 1893.19 1783.09 1880.14 1783.09H1778.76C1765.7 1783.09 1758.47 1775.67 1755.56 1763.84L1642.58 1333.23C1641.13 1325.82 1635.35 1321.4 1630.98 1321.4C1625.21 1321.4 1619.39 1327.32 1619.39 1336.19V1760.88C1619.39 1774.21 1610.7 1783.09 1597.65 1783.09H1445.55C1432.5 1783.09 1423.81 1774.21 1423.81 1760.88H1423.91Z" fill="#FE5F3F"/>
<path d="M2362.43 1760.88V769.457C2362.43 756.127 2371.11 747.255 2384.17 747.255H2611.58C2624.63 747.255 2633.32 756.127 2633.32 769.457V1760.88C2633.32 1774.21 2624.63 1783.09 2611.58 1783.09H2384.17C2371.11 1783.09 2362.43 1774.21 2362.43 1760.88Z" fill="#FE5F3F"/>
<path d="M2720.19 1760.88V769.457C2720.19 756.127 2728.88 747.255 2741.93 747.255H2966.43C3266.25 747.255 3340.11 1016.54 3340.11 1275.5C3340.11 1509.3 3311.14 1783.04 2963.52 1783.04H2741.93C2728.88 1783.04 2720.19 1774.17 2720.19 1760.84V1760.88ZM3122.85 1047.66C3122.85 947.024 3056.22 896.706 3020.01 896.706C3006.96 896.706 2996.86 904.122 2996.86 918.908V1173.41C2996.86 1197.06 3005.55 1205.98 3024.38 1205.98C3092.46 1204.48 3122.89 1109.81 3122.89 1047.66H3122.85Z" fill="#FE5F3F"/>
<path d="M3316 1759.43L3504.3 768.001C3507.21 754.671 3517.35 747.301 3530.36 747.301H3838.87C3853.33 747.301 3862.06 753.215 3864.93 766.545L4059 1759.43V1765.34C4059 1777.17 4050.31 1783.09 4037.26 1783.09H3812.76C3798.3 1783.09 3789.61 1777.17 3788.15 1762.39L3751.95 1543.37C3749.04 1528.59 3740.35 1522.67 3727.34 1522.67H3599.9C3585.44 1522.67 3578.16 1530.09 3575.3 1543.37L3527.5 1762.39C3524.59 1775.72 3517.35 1783.09 3502.89 1783.09H3337.79C3321.87 1783.09 3313.18 1775.67 3316.05 1759.43H3316ZM3714.29 1247.43L3689.69 1037.29C3686.77 1018.04 3679.54 1009.17 3670.86 1009.17C3663.62 1009.17 3654.94 1018.04 3652.03 1037.29L3623.05 1247.43V1250.38C3623.05 1265.17 3634.65 1271.08 3654.94 1271.08H3679.54C3702.74 1271.08 3717.2 1262.21 3714.29 1247.43Z" fill="#FE5F3F"/>
</svg>
