<svg width="1097" height="880" viewBox="0 0 1097 880" fill="none" xmlns="http://www.w3.org/2000/svg">
<g filter="url(#filter0_d_29_8419)">
<path d="M548.27 870.52C846.101 870.52 1087.54 677.662 1087.54 439.76C1087.54 201.858 846.101 9 548.27 9C250.439 9 9 201.858 9 439.76C9 677.662 250.439 870.52 548.27 870.52Z" fill="#FF6B00"/>
<path d="M548.27 870.52C846.101 870.52 1087.54 677.662 1087.54 439.76C1087.54 201.858 846.101 9 548.27 9C250.439 9 9 201.858 9 439.76C9 677.662 250.439 870.52 548.27 870.52Z" stroke="#231F20"/>
</g>
<path d="M252.73 307.21C205.27 307.21 196.05 302.87 196.05 285.51C196.05 268.15 202.83 255.95 212.59 255.95C219.91 255.95 222.08 263 222.08 281.72C222.08 284.43 223.17 286.06 225.88 286.06H252.19C254.63 286.06 256.26 284.7 256.26 281.99C256.26 251.61 239.17 232.35 211.78 232.35C173.53 232.35 146.68 273.58 146.68 332.44C146.68 342.56 147.96 351.13 150.52 358.33C157.8 355.22 166.09 353.49 175.53 353.49C192.35 353.49 215.7 360.37 224.34 391.3H253.01C255.45 391.3 257.07 389.67 257.07 387.23V311.28C257.07 308.84 255.45 307.21 252.73 307.21Z" fill="#FCFCFC"/>
<path d="M335.16 234.94C286.07 234.94 275.22 301.12 275.22 343.16C275.22 352.42 276.69 362.38 281.42 371.09C292.05 361.42 304.41 356.22 318.1 356.22C338.68 356.22 355.8 368.02 368.42 389.52C389.79 379.9 394.57 360.33 394.57 343.16C394.57 301.12 383.72 234.94 335.16 234.94ZM335.71 308.72C326.48 308.72 320.52 302.75 320.52 293.53C320.52 275.08 326.21 258.54 335.71 258.54C343.03 258.54 349.54 276.98 349.54 293.53C349.54 302.48 343.84 308.72 335.71 308.72Z" fill="#FCFCFC"/>
<path d="M532.979 243.74C518.879 243.74 509.999 248.08 504.259 255.13C496.419 247.54 484.669 243.74 472.919 243.74C449.679 243.74 441.329 263.54 441.329 263.54V248.9C441.329 246.46 439.759 244.83 437.669 244.83H418.609C416.259 244.83 414.949 246.46 414.949 248.9V360.99H458.039V331.62C458.039 315.35 460.129 308.3 467.699 308.3C475.269 308.3 477.099 315.35 477.099 331.62V360.99H480.189C481.029 360.99 481.839 361.22 482.529 361.64C483.229 362.06 483.809 362.66 484.199 363.4L495.879 385.31L506.909 364.6C508.099 362.38 510.409 360.99 512.929 360.99H517.569V331.62C517.569 315.35 519.919 308.3 527.229 308.3C534.539 308.3 536.899 315.35 536.899 331.62V360.99H579.979V305.59C579.979 263.54 562.489 243.74 532.979 243.74Z" fill="#FCFCFC"/>
<path d="M653.98 247.9H614.65C612.21 247.9 610.58 249.52 610.58 251.96V362.73C610.93 362.66 611.31 362.62 611.7 362.62H658.05V251.96C658.05 249.52 656.42 247.9 653.98 247.9ZM653.98 216.43H614.65C612.21 216.43 610.58 218.06 610.58 220.5V235.15C610.58 237.59 612.21 239.22 614.65 239.22H653.98C656.42 239.22 658.05 237.59 658.05 235.15V220.5C658.05 218.06 656.42 216.43 653.98 216.43Z" fill="#FCFCFC"/>
<path d="M777.929 204.5H735.889C733.439 204.5 731.819 206.13 731.819 208.57V232.44C731.819 234.88 730.459 236.23 728.019 236.51C689.229 240.3 667.529 269.05 667.529 316.79C667.529 334.8 669.969 349.45 675.059 360.98C675.769 360.71 676.589 360.57 677.489 360.57H734.819C753.939 360.57 769.469 364.26 781.999 370.69V208.57C781.999 206.13 780.369 204.5 777.929 204.5ZM731.819 304.86C731.819 308.11 730.189 309.74 726.659 309.74C716.079 309.74 709.579 296.99 709.579 282.07C709.579 267.15 722.049 259.29 728.289 259.29C730.459 259.29 731.819 260.37 731.819 262.27V304.86ZM748.499 393.42C747.039 393.42 745.719 393.74 744.709 394.37H753.719C751.839 393.73 750.059 393.42 748.499 393.42Z" fill="#FCFCFC"/>
<path d="M899.97 235.28H861.73C857.12 235.28 856.03 240.16 856.03 243.42C856.03 240.16 852.78 234.74 840.03 234.74C805.85 234.74 791.75 281.66 791.75 316.65C791.75 378.77 818.06 393.69 841.66 393.69C844.34 393.69 846.74 393.39 848.88 392.88L853.89 366.49C854.52 363.56 856.75 361.94 859.62 361.94H905.94V239.35C905.94 236.91 903.5 235.28 899.97 235.28ZM856.03 304.72C856.03 307.97 854.4 309.6 850.61 309.6C841.66 309.6 833.52 303.63 833.52 284.65C833.52 270.27 846.27 258.61 852.23 258.61C854.68 258.61 856.03 259.69 856.03 261.59V304.72Z" fill="#FCFCFC"/>
<path d="M91.25 500.56C91.25 450.8 99.85 361.68 167.68 361.68C188.7 361.68 219.91 372.41 219.91 427.38V427.71C219.91 430.64 218 432.59 215.13 432.59H184.56C181.69 432.59 179.78 430.64 179.78 427.71C179.78 404.29 176.91 396.49 168.63 396.49C156.85 396.49 146.66 413.4 146.66 438.77C146.66 460.56 153.03 469.99 164.81 469.99C171.18 469.99 178.19 467.39 178.19 454.7V454.37C178.19 451.44 180.1 449.49 182.97 449.49H216.09C218.96 449.49 220.87 451.44 220.87 454.37V586.1C220.87 589.03 218.32 590.98 213.55 590.98H177.25C127.57 590.98 91.27 584.15 91.27 500.56H91.25Z" fill="white"/>
<path d="M239.05 519.67C239.05 427.95 270.26 367.13 317.07 367.13C363.88 367.13 391.59 425.67 391.59 519.67C391.59 570.41 364.84 597.73 315.48 597.73C266.12 597.73 239.05 569.76 239.05 519.67ZM334.27 445.19C334.27 420.15 326.63 401.28 317.07 401.28C304.97 401.28 297.01 419.49 297.01 445.19C297.01 458.53 304.97 467.31 317.07 467.31C326.94 467.31 334.27 458.53 334.27 445.19Z" fill="white"/>
<path d="M404.32 591.55V373.63C404.32 370.7 406.23 368.75 409.1 368.75H468.01C470.88 368.75 472.47 370.38 473.11 372.98L494.45 456.57C495.09 458.85 496.36 460.15 497.32 460.15C498.59 460.15 499.55 458.85 500.19 456.57L522.48 372.98C523.12 370.38 524.71 368.75 527.58 368.75H586.81C589.68 368.75 591.59 370.7 591.59 373.63V591.55C591.59 594.48 589.68 596.43 586.81 596.43H544.77C541.9 596.43 539.99 594.48 539.99 591.55V497.88C539.99 495.93 538.72 494.63 537.44 494.63C536.48 494.63 535.21 495.61 534.89 497.23L509.73 592.2C509.09 594.8 507.5 596.43 504.63 596.43H482.34C479.47 596.43 477.88 594.8 477.24 592.2L452.4 497.55C452.08 495.92 450.81 494.95 449.85 494.95C448.58 494.95 447.3 496.25 447.3 498.2V591.55C447.3 594.48 445.39 596.43 442.52 596.43H409.08C406.21 596.43 404.3 594.48 404.3 591.55H404.32Z" fill="white"/>
<path d="M610.67 591.55V373.63C610.67 370.7 612.58 368.75 615.45 368.75H665.45C668.32 368.75 670.23 370.7 670.23 373.63V591.55C670.23 594.48 668.32 596.43 665.45 596.43H615.45C612.58 596.43 610.67 594.48 610.67 591.55Z" fill="white"/>
<path d="M689.33 591.55V373.63C689.33 370.7 691.24 368.75 694.11 368.75H743.47C809.39 368.75 825.63 427.94 825.63 484.86C825.63 536.25 819.26 596.42 742.83 596.42H694.11C691.24 596.42 689.33 594.47 689.33 591.54V591.55ZM777.86 434.78C777.86 412.66 763.21 401.6 755.25 401.6C752.38 401.6 750.16 403.23 750.16 406.48V462.42C750.16 467.62 752.07 469.58 756.21 469.58C771.18 469.25 777.87 448.44 777.87 434.78H777.86Z" fill="white"/>
<path d="M820.33 591.23L861.73 373.31C862.37 370.38 864.6 368.76 867.46 368.76H935.29C938.47 368.76 940.39 370.06 941.02 372.99L983.69 591.23V592.53C983.69 595.13 981.78 596.43 978.91 596.43H929.55C926.37 596.43 924.46 595.13 924.14 591.88L916.18 543.74C915.54 540.49 913.63 539.19 910.77 539.19H882.75C879.57 539.19 877.97 540.82 877.34 543.74L866.83 591.88C866.19 594.81 864.6 596.43 861.42 596.43H825.12C821.62 596.43 819.71 594.8 820.34 591.23H820.33ZM907.9 478.69L902.49 432.5C901.85 428.27 900.26 426.32 898.35 426.32C896.76 426.32 894.85 428.27 894.21 432.5L887.84 478.69V479.34C887.84 482.59 890.39 483.89 894.85 483.89H900.26C905.36 483.89 908.54 481.94 907.9 478.69Z" fill="white"/>
<defs>
<filter id="filter0_d_29_8419" x="0.5" y="0.5" width="1095.54" height="878.52" filterUnits="userSpaceOnUse" color-interpolation-filters="sRGB">
<feFlood flood-opacity="0" result="BackgroundImageFix"/>
<feColorMatrix in="SourceAlpha" type="matrix" values="0 0 0 0 0 0 0 0 0 0 0 0 0 0 0 0 0 0 127 0" result="hardAlpha"/>
<feOffset/>
<feGaussianBlur stdDeviation="4"/>
<feColorMatrix type="matrix" values="0 0 0 0 1 0 0 0 0 1 0 0 0 0 1 0 0 0 0.3 0"/>
<feBlend mode="normal" in2="BackgroundImageFix" result="effect1_dropShadow_29_8419"/>
<feBlend mode="normal" in="SourceGraphic" in2="effect1_dropShadow_29_8419" result="shape"/>
</filter>
</defs>
</svg>
