<svg width="1093" height="876" viewBox="0 0 1093 876" fill="none" xmlns="http://www.w3.org/2000/svg">
<g filter="url(#filter0_d_29_8417)">
<path d="M546.5 867C843.353 867 1084 674.93 1084 438C1084 201.07 843.353 9 546.5 9C249.647 9 9 201.07 9 438C9 674.93 249.647 867 546.5 867Z" fill="black"/>
<path d="M546.5 867C843.353 867 1084 674.93 1084 438C1084 201.07 843.353 9 546.5 9C249.647 9 9 201.07 9 438C9 674.93 249.647 867 546.5 867Z" stroke="#231F20"/>
</g>
<path d="M251.291 305.21C203.831 305.21 194.611 300.87 194.611 283.51C194.611 266.15 201.391 253.95 211.151 253.95C218.471 253.95 220.641 261 220.641 279.72C220.641 282.43 221.731 284.06 224.441 284.06H250.751C253.191 284.06 254.821 282.7 254.821 279.99C254.821 249.61 237.731 230.35 210.341 230.35C172.091 230.35 145.241 271.58 145.241 330.44C145.241 340.56 146.521 349.13 149.081 356.33C156.361 353.22 164.651 351.49 174.091 351.49C190.911 351.49 214.261 358.37 222.901 389.3H251.571C254.011 389.3 255.631 387.67 255.631 385.23V309.28C255.631 306.84 254.011 305.21 251.291 305.21Z" fill="#6DA624"/>
<path d="M333.721 232.94C284.631 232.94 273.781 299.12 273.781 341.16C273.781 350.42 275.251 360.38 279.981 369.09C290.611 359.42 302.971 354.22 316.661 354.22C337.241 354.22 354.361 366.02 366.981 387.52C388.351 377.9 393.131 358.33 393.131 341.16C393.131 299.12 382.281 232.94 333.721 232.94ZM334.271 306.72C325.041 306.72 319.081 300.75 319.081 291.53C319.081 273.08 324.771 256.54 334.271 256.54C341.591 256.54 348.101 274.98 348.101 291.53C348.101 300.48 342.401 306.72 334.271 306.72Z" fill="#6DA624"/>
<path d="M531.541 241.74C517.441 241.74 508.561 246.08 502.821 253.13C494.981 245.54 483.231 241.74 471.481 241.74C448.241 241.74 439.891 261.54 439.891 261.54V246.9C439.891 244.46 438.321 242.83 436.231 242.83H417.171C414.821 242.83 413.511 244.46 413.511 246.9V358.99H456.601V329.62C456.601 313.35 458.691 306.3 466.261 306.3C473.831 306.3 475.661 313.35 475.661 329.62V358.99H478.751C479.591 358.99 480.401 359.22 481.091 359.64C481.791 360.06 482.371 360.66 482.761 361.4L494.441 383.31L505.471 362.6C506.661 360.38 508.971 358.99 511.491 358.99H516.131V329.62C516.131 313.35 518.481 306.3 525.791 306.3C533.101 306.3 535.461 313.35 535.461 329.62V358.99H578.541V303.59C578.541 261.54 561.051 241.74 531.541 241.74Z" fill="#6DA624"/>
<path d="M652.541 245.9H613.211C610.771 245.9 609.141 247.52 609.141 249.96V360.73C609.491 360.66 609.871 360.62 610.261 360.62H656.611V249.96C656.611 247.52 654.981 245.9 652.541 245.9ZM652.541 214.43H613.211C610.771 214.43 609.141 216.06 609.141 218.5V233.15C609.141 235.59 610.771 237.22 613.211 237.22H652.541C654.981 237.22 656.611 235.59 656.611 233.15V218.5C656.611 216.06 654.981 214.43 652.541 214.43Z" fill="#6DA624"/>
<path d="M776.491 202.5H734.451C732.001 202.5 730.381 204.13 730.381 206.57V230.44C730.381 232.88 729.021 234.23 726.581 234.51C687.791 238.3 666.091 267.05 666.091 314.79C666.091 332.8 668.531 347.45 673.621 358.98C674.331 358.71 675.151 358.57 676.051 358.57H733.381C752.501 358.57 768.031 362.26 780.561 368.69V206.57C780.561 204.13 778.931 202.5 776.491 202.5ZM730.381 302.86C730.381 306.11 728.751 307.74 725.221 307.74C714.641 307.74 708.141 294.99 708.141 280.07C708.141 265.15 720.611 257.29 726.851 257.29C729.021 257.29 730.381 258.37 730.381 260.27V302.86ZM747.061 391.42C745.601 391.42 744.281 391.74 743.271 392.37H752.281C750.401 391.73 748.621 391.42 747.061 391.42Z" fill="#6DA624"/>
<path d="M898.531 233.28H860.291C855.681 233.28 854.591 238.16 854.591 241.42C854.591 238.16 851.341 232.74 838.591 232.74C804.411 232.74 790.311 279.66 790.311 314.65C790.311 376.77 816.621 391.69 840.221 391.69C842.901 391.69 845.301 391.39 847.441 390.88L852.451 364.49C853.081 361.56 855.311 359.94 858.181 359.94H904.501V237.35C904.501 234.91 902.061 233.28 898.531 233.28ZM854.591 302.72C854.591 305.97 852.961 307.6 849.171 307.6C840.221 307.6 832.081 301.63 832.081 282.65C832.081 268.27 844.831 256.61 850.791 256.61C853.241 256.61 854.591 257.69 854.591 259.59V302.72Z" fill="#6DA624"/>
<path d="M89.8105 498.56C89.8105 448.8 98.4106 359.68 166.241 359.68C187.261 359.68 218.471 370.41 218.471 425.38V425.71C218.471 428.64 216.561 430.59 213.691 430.59H183.121C180.251 430.59 178.341 428.64 178.341 425.71C178.341 402.29 175.471 394.49 167.191 394.49C155.411 394.49 145.221 411.4 145.221 436.77C145.221 458.56 151.591 467.99 163.371 467.99C169.741 467.99 176.751 465.39 176.751 452.7V452.37C176.751 449.44 178.661 447.49 181.531 447.49H214.651C217.521 447.49 219.431 449.44 219.431 452.37V584.1C219.431 587.03 216.881 588.98 212.111 588.98H175.811C126.131 588.98 89.8306 582.15 89.8306 498.56H89.8105Z" fill="#ED5D2F"/>
<path d="M237.61 517.67C237.61 425.95 268.82 365.13 315.63 365.13C362.44 365.13 390.15 423.67 390.15 517.67C390.15 568.41 363.4 595.73 314.04 595.73C264.68 595.73 237.61 567.76 237.61 517.67ZM332.83 443.19C332.83 418.15 325.19 399.28 315.63 399.28C303.53 399.28 295.57 417.49 295.57 443.19C295.57 456.53 303.53 465.31 315.63 465.31C325.5 465.31 332.83 456.53 332.83 443.19Z" fill="#ED5D2F"/>
<path d="M402.88 589.55V371.63C402.88 368.7 404.79 366.75 407.66 366.75H466.57C469.44 366.75 471.03 368.38 471.67 370.98L493.01 454.57C493.65 456.85 494.92 458.15 495.88 458.15C497.15 458.15 498.11 456.85 498.75 454.57L521.04 370.98C521.68 368.38 523.27 366.75 526.14 366.75H585.37C588.24 366.75 590.15 368.7 590.15 371.63V589.55C590.15 592.48 588.24 594.43 585.37 594.43H543.33C540.46 594.43 538.55 592.48 538.55 589.55V495.88C538.55 493.93 537.28 492.63 536 492.63C535.04 492.63 533.77 493.61 533.45 495.23L508.29 590.2C507.65 592.8 506.06 594.43 503.19 594.43H480.9C478.03 594.43 476.44 592.8 475.8 590.2L450.96 495.55C450.64 493.92 449.37 492.95 448.41 492.95C447.14 492.95 445.86 494.25 445.86 496.2V589.55C445.86 592.48 443.95 594.43 441.08 594.43H407.64C404.77 594.43 402.86 592.48 402.86 589.55H402.88Z" fill="#ED5D2F"/>
<path d="M609.23 589.55V371.63C609.23 368.7 611.14 366.75 614.01 366.75H664.01C666.88 366.75 668.79 368.7 668.79 371.63V589.55C668.79 592.48 666.88 594.43 664.01 594.43H614.01C611.14 594.43 609.23 592.48 609.23 589.55Z" fill="#ED5D2F"/>
<path d="M687.891 589.55V371.63C687.891 368.7 689.801 366.75 692.671 366.75H742.031C807.951 366.75 824.191 425.94 824.191 482.86C824.191 534.25 817.821 594.42 741.391 594.42H692.671C689.801 594.42 687.891 592.47 687.891 589.54V589.55ZM776.421 432.78C776.421 410.66 761.771 399.6 753.811 399.6C750.941 399.6 748.721 401.23 748.721 404.48V460.42C748.721 465.62 750.631 467.58 754.771 467.58C769.741 467.25 776.431 446.44 776.431 432.78H776.421Z" fill="#ED5D2F"/>
<path d="M818.89 589.23L860.29 371.31C860.93 368.38 863.16 366.76 866.02 366.76H933.85C937.03 366.76 938.95 368.06 939.58 370.99L982.25 589.23V590.53C982.25 593.13 980.34 594.43 977.47 594.43H928.11C924.93 594.43 923.02 593.13 922.7 589.88L914.74 541.74C914.1 538.49 912.19 537.19 909.33 537.19H881.31C878.13 537.19 876.53 538.82 875.9 541.74L865.39 589.88C864.75 592.81 863.16 594.43 859.98 594.43H823.68C820.18 594.43 818.27 592.8 818.9 589.23H818.89ZM906.46 476.69L901.05 430.5C900.41 426.27 898.82 424.32 896.91 424.32C895.32 424.32 893.41 426.27 892.77 430.5L886.4 476.69V477.34C886.4 480.59 888.95 481.89 893.41 481.89H898.82C903.92 481.89 907.1 479.94 906.46 476.69Z" fill="#ED5D2F"/>
<defs>
<filter id="filter0_d_29_8417" x="0.5" y="0.5" width="1092" height="875" filterUnits="userSpaceOnUse" color-interpolation-filters="sRGB">
<feFlood flood-opacity="0" result="BackgroundImageFix"/>
<feColorMatrix in="SourceAlpha" type="matrix" values="0 0 0 0 0 0 0 0 0 0 0 0 0 0 0 0 0 0 127 0" result="hardAlpha"/>
<feOffset/>
<feGaussianBlur stdDeviation="4"/>
<feColorMatrix type="matrix" values="0 0 0 0 1 0 0 0 0 1 0 0 0 0 1 0 0 0 0.3 0"/>
<feBlend mode="normal" in2="BackgroundImageFix" result="effect1_dropShadow_29_8417"/>
<feBlend mode="normal" in="SourceGraphic" in2="effect1_dropShadow_29_8417" result="shape"/>
</filter>
</defs>
</svg>
