<svg width="1931" height="851" viewBox="0 0 1931 851" fill="none" xmlns="http://www.w3.org/2000/svg">
<path d="M349.368 222.218C246.686 222.218 226.738 212.828 226.738 175.269C226.738 137.71 241.407 111.314 262.523 111.314C278.36 111.314 283.055 126.567 283.055 167.069C283.055 172.932 285.414 176.459 291.277 176.459H348.199C353.478 176.459 357.005 173.516 357.005 167.653C357.005 101.925 320.03 60.2549 260.771 60.2549C178.015 60.2549 119.924 149.458 119.924 276.804C119.924 298.699 122.694 317.24 128.232 332.818C143.983 326.089 161.919 322.346 182.342 322.346C218.733 322.346 269.252 337.231 287.945 404.15H349.974C355.253 404.15 358.758 400.623 358.758 395.344V231.023C358.758 225.744 355.253 222.218 349.368 222.218Z" fill="#6DA624"/>
<path d="M527.708 65.8579C421.5 65.8579 398.026 209.041 398.026 299.996C398.026 320.031 401.206 341.579 411.44 360.424C434.438 339.502 461.18 328.252 490.799 328.252C535.324 328.252 572.364 353.782 599.668 400.298C645.903 379.485 656.244 337.144 656.244 299.996C656.244 209.041 632.77 65.8579 527.708 65.8579ZM528.898 225.484C508.929 225.484 496.034 212.568 496.034 192.62C496.034 152.702 508.345 116.917 528.898 116.917C544.736 116.917 558.82 156.813 558.82 192.62C558.82 211.983 546.488 225.484 528.898 225.484Z" fill="#6DA624"/>
<path d="M955.699 84.8979C925.193 84.8979 905.98 94.2877 893.562 109.541C876.6 93.1194 851.178 84.8979 825.756 84.8979C775.476 84.8979 757.41 127.736 757.41 127.736V96.0618C757.41 90.7828 754.013 87.2562 749.492 87.2562H708.255C703.17 87.2562 700.336 90.7828 700.336 96.0618V338.573H793.563V275.03C793.563 239.829 798.085 224.576 814.463 224.576C830.841 224.576 834.8 239.829 834.8 275.03V338.573H841.485C843.303 338.573 845.055 339.071 846.548 339.979C848.062 340.888 849.317 342.186 850.161 343.787L875.431 391.19L899.295 346.383C901.87 341.58 906.867 338.573 912.32 338.573H922.358V275.03C922.358 239.829 927.443 224.576 943.258 224.576C959.074 224.576 964.18 239.829 964.18 275.03V338.573H1057.38V218.713C1057.38 127.736 1019.54 84.8979 955.699 84.8979Z" fill="#6DA624"/>
<path d="M1217.49 93.8981H1132.4C1127.12 93.8981 1123.59 97.4031 1123.59 102.682V342.337C1124.35 342.186 1125.17 342.099 1126.01 342.099H1226.29V102.682C1226.29 97.4031 1222.77 93.8981 1217.49 93.8981ZM1217.49 25.8115H1132.4C1127.12 25.8115 1123.59 29.3381 1123.59 34.6171V66.313C1123.59 71.592 1127.12 75.1186 1132.4 75.1186H1217.49C1222.77 75.1186 1226.29 71.592 1226.29 66.313V34.6171C1226.29 29.3381 1222.77 25.8115 1217.49 25.8115Z" fill="#6DA624"/>
<path d="M1485.66 0H1394.7C1389.4 0 1385.9 3.52655 1385.9 8.80559V60.4493C1385.9 65.7283 1382.96 68.6491 1377.68 69.2549C1293.75 77.4547 1246.8 139.657 1246.8 242.944C1246.8 281.909 1252.08 313.605 1263.1 338.551C1264.63 337.967 1266.41 337.664 1268.35 337.664H1392.39C1433.76 337.664 1467.35 345.647 1494.46 359.559V8.80559C1494.46 3.52655 1490.94 0 1485.66 0ZM1385.9 217.133C1385.9 224.164 1382.37 227.691 1374.73 227.691C1351.84 227.691 1337.78 200.106 1337.78 167.826C1337.78 135.546 1364.76 118.54 1378.26 118.54C1382.96 118.54 1385.9 120.877 1385.9 124.988V217.133ZM1421.99 408.736C1418.83 408.736 1415.97 409.428 1413.79 410.791H1433.28C1429.21 409.407 1425.36 408.736 1421.99 408.736Z" fill="#6DA624"/>
<path d="M1749.7 66.5946H1666.97C1656.99 66.5946 1654.63 77.1527 1654.63 84.2058C1654.63 77.1527 1647.6 65.4263 1620.02 65.4263C1546.07 65.4263 1515.56 166.94 1515.56 242.642C1515.56 377.041 1572.48 409.321 1623.54 409.321C1629.34 409.321 1634.53 408.672 1639.16 407.569L1650 350.473C1651.37 344.134 1656.19 340.629 1662.4 340.629H1762.62V75.4002C1762.62 70.1212 1757.34 66.5946 1749.7 66.5946ZM1654.63 216.831C1654.63 223.862 1651.11 227.389 1642.91 227.389C1623.54 227.389 1605.93 214.473 1605.93 173.409C1605.93 142.297 1633.52 117.07 1646.41 117.07C1651.71 117.07 1654.63 119.407 1654.63 123.517V216.831Z" fill="#6DA624"/>
<path d="M0 640.538C0 532.88 18.6065 340.065 165.359 340.065C210.837 340.065 278.361 363.28 278.361 482.21V482.924C278.361 489.263 274.229 493.482 268.019 493.482H201.88C195.671 493.482 191.538 489.263 191.538 482.924C191.538 432.254 185.329 415.378 167.415 415.378C141.928 415.378 119.882 451.964 119.882 506.853C119.882 553.996 133.664 574.398 159.15 574.398C172.932 574.398 188.098 568.773 188.098 541.318V540.604C188.098 534.265 192.231 530.046 198.44 530.046H270.096C276.306 530.046 280.438 534.265 280.438 540.604V825.607C280.438 831.946 274.921 836.165 264.601 836.165H186.064C78.5798 836.165 0.0432801 821.388 0.0432801 640.538H0Z" fill="#ED5D2F"/>
<path d="M319.771 681.884C319.771 483.444 387.295 351.857 488.57 351.857C589.845 351.857 649.797 478.511 649.797 681.884C649.797 791.662 591.922 850.77 485.13 850.77C378.338 850.77 319.771 790.256 319.771 681.884ZM525.783 520.743C525.783 466.568 509.253 425.742 488.57 425.742C462.391 425.742 445.169 465.14 445.169 520.743C445.169 549.605 462.391 568.601 488.57 568.601C509.924 568.601 525.783 549.605 525.783 520.743Z" fill="#ED5D2F"/>
<path d="M677.339 837.398V365.919C677.339 359.58 681.472 355.361 687.681 355.361H815.135C821.344 355.361 824.785 358.888 826.169 364.513L872.339 545.363C873.724 550.296 876.471 553.109 878.548 553.109C881.296 553.109 883.373 550.296 884.758 545.363L932.983 364.513C934.368 358.888 937.808 355.361 944.017 355.361H1072.16C1078.37 355.361 1082.51 359.58 1082.51 365.919V837.398C1082.51 843.737 1078.37 847.956 1072.16 847.956H981.209C974.999 847.956 970.867 843.737 970.867 837.398V634.739C970.867 630.52 968.119 627.708 965.35 627.708C963.273 627.708 960.525 629.828 959.833 633.333L905.398 838.804C904.013 844.43 900.573 847.956 894.364 847.956H846.139C839.929 847.956 836.489 844.43 835.105 838.804L781.362 634.025C780.67 630.499 777.922 628.4 775.845 628.4C773.098 628.4 770.328 631.213 770.328 635.432V837.398C770.328 843.737 766.196 847.956 759.986 847.956H687.638C681.428 847.956 677.296 843.737 677.296 837.398H677.339Z" fill="#ED5D2F"/>
<path d="M1123.79 837.398V365.919C1123.79 359.58 1127.92 355.361 1134.13 355.361H1242.3C1248.51 355.361 1252.65 359.58 1252.65 365.919V837.398C1252.65 843.737 1248.51 847.956 1242.3 847.956H1134.13C1127.92 847.956 1123.79 843.737 1123.79 837.398Z" fill="#ED5D2F"/>
<path d="M1293.97 837.398V365.919C1293.97 359.58 1298.1 355.361 1304.31 355.361H1411.1C1553.73 355.361 1588.86 483.421 1588.86 606.57C1588.86 717.754 1575.08 847.935 1409.72 847.935H1304.31C1298.1 847.935 1293.97 843.716 1293.97 837.377V837.398ZM1485.51 498.22C1485.51 450.362 1453.81 426.434 1436.59 426.434C1430.38 426.434 1425.58 429.96 1425.58 436.992V558.02C1425.58 569.271 1429.71 573.511 1438.67 573.511C1471.06 572.797 1485.53 527.774 1485.53 498.22H1485.51Z" fill="#ED5D2F"/>
<path d="M1577.39 836.707L1666.96 365.228C1668.35 358.889 1673.17 355.384 1679.36 355.384H1826.11C1832.99 355.384 1837.15 358.196 1838.51 364.536L1930.83 836.707V839.519C1930.83 845.144 1926.7 847.957 1920.49 847.957H1813.7C1806.82 847.957 1802.68 845.144 1801.99 838.113L1784.77 733.96C1783.38 726.929 1779.25 724.116 1773.06 724.116H1712.44C1705.56 724.116 1702.1 727.643 1700.74 733.96L1678 838.113C1676.61 844.452 1673.17 847.957 1666.29 847.957H1587.76C1580.19 847.957 1576.05 844.43 1577.42 836.707H1577.39ZM1766.86 593.222L1755.15 493.288C1753.77 484.136 1750.33 479.917 1746.19 479.917C1742.75 479.917 1738.62 484.136 1737.24 493.288L1723.45 593.222V594.628C1723.45 601.66 1728.97 604.472 1738.62 604.472H1750.33C1761.36 604.472 1768.24 600.253 1766.86 593.222Z" fill="#ED5D2F"/>
</svg>
