<svg width="1097" height="880" xmlns="http://www.w3.org/2000/svg">

 <g>
  <title>background</title>
  <rect fill="none" id="canvas_background" height="602" width="802" y="-1" x="-1"/>
 </g>
 <g>
  <title>Layer 1</title>
  <path id="svg_4" fill="#121212" d="m252.7,307.2c-47.4,0 -56.6,-4.3 -56.6,-21.7c0,-17.4 6.7,-29.6 16.5,-29.6c7.3,0 9.5,7.1 9.5,25.8c0,2.7 1.1,4.4 3.8,4.4l26.3,0c2.4,0 4.1,-1.4 4.1,-4.1c0,-30.4 -17.1,-49.7 -44.5,-49.7c-38.3,0 -65.1,41.3 -65.1,100.1c0,10.2 1.3,18.7 3.8,25.9c7.3,-3.1 15.6,-4.8 25,-4.8c16.8,0 40.2,6.9 48.8,37.8l28.7,0c2.4,0 4.1,-1.6 4.1,-4.1l0,-75.9c0,-2.5 -1.7,-4.1 -4.4,-4.1z"/>
  <path id="svg_5" fill="#121212" d="m335.2,234.9c-49.1,0 -60,66.2 -60,108.3c0,9.2 1.5,19.2 6.2,27.9c10.7,-9.7 23,-14.9 36.7,-14.9c20.6,0 37.7,11.8 50.3,33.3c21.4,-9.6 26.2,-29.2 26.2,-46.3c0,-42.1 -10.9,-108.3 -59.4,-108.3zm0.5,73.8c-9.2,0 -15.2,-5.9 -15.2,-15.2c0,-18.4 5.7,-35 15.2,-35c7.3,0 13.8,18.5 13.8,35c0,9 -5.7,15.2 -13.8,15.2z"/>
  <path id="svg_6" fill="#121212" d="m533,243.7c-14.1,0 -23,4.4 -28.7,11.4c-7.9,-7.6 -19.6,-11.4 -31.4,-11.4c-23.2,0 -31.6,19.8 -31.6,19.8l0,-14.6c0,-2.4 -1.5,-4.1 -3.6,-4.1l-19.1,0c-2.3,0 -3.7,1.7 -3.7,4.1l0,112.1l43.1,0l0,-29.4c0,-16.2 2.1,-23.3 9.7,-23.3c7.6,0 9.4,7.1 9.4,23.3l0,29.4l3.1,0c0.8,0 1.6,0.2 2.3,0.6c0.7,0.5 1.3,1.1 1.7,1.8l11.7,21.9l11,-20.7c1.2,-2.2 3.5,-3.6 6,-3.6l4.7,0l0,-29.4c0,-16.2 2.3,-23.3 9.6,-23.3c7.3,0 9.7,7.1 9.7,23.3l0,29.4l43.1,0l0,-55.4c0,-42.1 -17.5,-61.9 -47,-61.9z"/>
  <path id="svg_7" fill="#121212" d="m654,247.9l-39.4,0c-2.4,0 -4,1.6 -4,4.1l0,110.7c0.3,0 0.7,-0.1 1.1,-0.1l46.3,0l0,-110.6c0,-2.5 -1.6,-4.1 -4,-4.1zm0,-31.5l-39.4,0c-2.4,0 -4,1.7 -4,4.1l0,14.7c0,2.4 1.6,4 4,4l39.4,0c2.4,0 4,-1.6 4,-4l0,-14.7c0,-2.4 -1.6,-4.1 -4,-4.1z"/>
  <path id="svg_8" fill="#121212" d="m777.9,204.5l-42,0c-2.5,0 -4.1,1.6 -4.1,4.1l0,23.8c0,2.5 -1.3,3.8 -3.8,4.1c-38.8,3.8 -60.5,32.6 -60.5,80.3c0,18 2.5,32.6 7.6,44.2c0.7,-0.3 1.5,-0.4 2.4,-0.4l57.3,0c19.1,0 34.7,3.7 47.2,10.1l0,-162.1c0,-2.5 -1.6,-4.1 -4.1,-4.1zm-46.1,100.4c0,3.2 -1.6,4.8 -5.1,4.8c-10.6,0 -17.1,-12.7 -17.1,-27.6c0,-15 12.4,-22.8 18.7,-22.8c2.2,0 3.5,1.1 3.5,3l0,42.6zm16.7,88.5c-1.5,0 -2.8,0.3 -3.8,1l9,0c-1.9,-0.7 -3.6,-1 -5.2,-1z"/>
  <path id="svg_9" fill="#121212" d="m900,235.3l-38.3,0c-4.6,0 -5.7,4.9 -5.7,8.1c0,-3.2 -3.2,-8.7 -16,-8.7c-34.1,0 -48.2,47 -48.2,81.9c0,62.2 26.3,77.1 49.9,77.1c2.6,0 5,-0.3 7.2,-0.8l5,-26.4c0.6,-2.9 2.9,-4.6 5.7,-4.6l46.3,0l0,-122.6c0,-2.4 -2.4,-4 -5.9,-4zm-44,69.4c0,3.3 -1.6,4.9 -5.4,4.9c-8.9,0 -17.1,-6 -17.1,-25c0,-14.3 12.8,-26 18.7,-26c2.5,0 3.8,1.1 3.8,3l0,43.1z"/>
  <path id="svg_10" fill="#121212" d="m91.3,500.6c0,-49.8 8.5,-138.9 76.4,-138.9c21,0 52.2,10.7 52.2,65.7l0,0.3c0,2.9 -1.9,4.9 -4.8,4.9l-30.5,0c-2.9,0 -4.8,-2 -4.8,-4.9c0,-23.4 -2.9,-31.2 -11.2,-31.2c-11.8,0 -21.9,16.9 -21.9,42.3c0,21.8 6.3,31.2 18.1,31.2c6.4,0 13.4,-2.6 13.4,-15.3l0,-0.3c0,-3 1.9,-4.9 4.8,-4.9l33.1,0c2.9,0 4.8,1.9 4.8,4.9l0,131.7c0,2.9 -2.6,4.9 -7.3,4.9l-36.3,0c-49.7,0 -86,-6.9 -86,-90.4l0,0z"/>
  <path id="svg_11" fill="#121212" d="m239.1,519.7c0,-91.8 31.2,-152.6 78,-152.6c46.8,0 74.5,58.6 74.5,152.6c0,50.7 -26.8,78 -76.1,78c-49.4,0 -76.4,-27.9 -76.4,-78zm95.2,-74.5c0,-25.1 -7.7,-43.9 -17.2,-43.9c-12.1,0 -20.1,18.2 -20.1,43.9c0,13.3 8,22.1 20.1,22.1c9.8,0 17.2,-8.8 17.2,-22.1z"/>
  <path id="svg_12" fill="#121212" d="m404.3,591.5l0,-217.9c0,-2.9 1.9,-4.8 4.8,-4.8l58.9,0c2.9,0 4.5,1.6 5.1,4.2l21.3,83.6c0.7,2.3 2,3.5 2.9,3.5c1.3,0 2.3,-1.2 2.9,-3.5l22.3,-83.6c0.6,-2.6 2.2,-4.2 5.1,-4.2l59.2,0c2.9,0 4.8,1.9 4.8,4.8l0,217.9c0,3 -1.9,4.9 -4.8,4.9l-42,0c-2.9,0 -4.8,-1.9 -4.8,-4.9l0,-93.6c0,-2 -1.3,-3.3 -2.6,-3.3c-0.9,0 -2.2,1 -2.5,2.6l-25.2,95c-0.6,2.6 -2.2,4.2 -5.1,4.2l-22.3,0c-2.8,0 -4.4,-1.6 -5.1,-4.2l-24.8,-94.6c-0.3,-1.7 -1.6,-2.7 -2.5,-2.7c-1.3,0 -2.6,1.4 -2.6,3.3l0,93.3c0,3 -1.9,4.9 -4.8,4.9l-33.4,0c-2.9,0 -4.8,-1.9 -4.8,-4.9l0,0z"/>
  <path id="svg_13" fill="#121212" d="m610.7,591.5l0,-217.9c0,-2.9 1.9,-4.8 4.8,-4.8l50,0c2.8,0 4.7,1.9 4.7,4.8l0,217.9c0,3 -1.9,4.9 -4.7,4.9l-50,0c-2.9,0 -4.8,-1.9 -4.8,-4.9z"/>
  <path id="svg_14" fill="#121212" d="m689.3,591.5l0,-217.9c0,-2.9 1.9,-4.8 4.8,-4.8l49.4,0c65.9,0 82.1,59.1 82.1,116.1c0,51.4 -6.3,111.5 -82.8,111.5l-48.7,0c-2.9,0 -4.8,-1.9 -4.8,-4.9l0,0zm88.6,-156.7c0,-22.1 -14.7,-33.2 -22.6,-33.2c-2.9,0 -5.1,1.6 -5.1,4.9l0,55.9c0,5.2 1.9,7.2 6,7.2c15,-0.3 21.7,-21.2 21.7,-34.8l0,0z"/>
  <path id="svg_15" fill="#121212" d="m820.3,591.2l41.4,-217.9c0.7,-2.9 2.9,-4.5 5.8,-4.5l67.8,0c3.2,0 5.1,1.3 5.7,4.2l42.7,218.2l0,1.3c0,2.6 -1.9,3.9 -4.8,3.9l-49.4,0c-3.1,0 -5,-1.3 -5.4,-4.5l-7.9,-48.2c-0.7,-3.2 -2.6,-4.5 -5.4,-4.5l-28,0c-3.2,0 -4.8,1.6 -5.5,4.5l-10.5,48.2c-0.6,2.9 -2.2,4.5 -5.4,4.5l-36.3,0c-3.5,0 -5.4,-1.6 -4.8,-5.2l0,0zm87.6,-112.5l-5.4,-46.2c-0.6,-4.2 -2.2,-6.2 -4.1,-6.2c-1.6,0 -3.5,2 -4.2,6.2l-6.4,46.2l0,0.6c0,3.3 2.6,4.6 7.1,4.6l5.4,0c5.1,0 8.2,-2 7.6,-5.2z"/>
 </g>
</svg>