<svg width="4309" height="2686" viewBox="0 0 4309 2686" fill="none" xmlns="http://www.w3.org/2000/svg">
<path d="M1290 724.5C1290 836.407 1225.43 937.769 1120.92 1011.18C1016.42 1084.58 872.02 1130 712.5 1130C552.98 1130 408.583 1084.58 304.08 1011.18C199.575 937.769 135 836.407 135 724.5C135 612.593 199.575 511.231 304.08 437.824C408.583 364.418 552.98 319 712.5 319C872.02 319 1016.42 364.418 1120.92 437.824C1225.43 511.231 1290 612.593 1290 724.5Z" fill="white" stroke="black"/>
<path d="M427.981 614.21C380.521 614.21 371.301 609.87 371.301 592.51C371.301 575.15 378.081 562.95 387.841 562.95C395.161 562.95 397.331 570 397.331 588.72C397.331 591.43 398.421 593.06 401.131 593.06H427.441C429.881 593.06 431.511 591.7 431.511 588.99C431.511 558.61 414.421 539.35 387.031 539.35C348.781 539.35 321.931 580.58 321.931 639.44C321.931 649.56 323.211 658.13 325.771 665.33C333.051 662.22 341.341 660.49 350.781 660.49C367.601 660.49 390.951 667.37 399.591 698.3H428.261C430.701 698.3 432.321 696.67 432.321 694.23V618.28C432.321 615.84 430.701 614.21 427.981 614.21Z" fill="#61A950"/>
<path d="M510.411 541.94C461.321 541.94 450.471 608.12 450.471 650.16C450.471 659.42 451.941 669.38 456.671 678.09C467.301 668.42 479.661 663.22 493.351 663.22C513.931 663.22 531.051 675.02 543.671 696.52C565.041 686.9 569.821 667.33 569.821 650.16C569.821 608.12 558.971 541.94 510.411 541.94ZM510.961 615.72C501.731 615.72 495.771 609.75 495.771 600.53C495.771 582.08 501.461 565.54 510.961 565.54C518.281 565.54 524.791 583.98 524.791 600.53C524.791 609.48 519.091 615.72 510.961 615.72Z" fill="#61A950"/>
<path d="M708.231 550.74C694.131 550.74 685.251 555.08 679.511 562.13C671.671 554.54 659.921 550.74 648.171 550.74C624.931 550.74 616.581 570.54 616.581 570.54V555.9C616.581 553.46 615.011 551.83 612.921 551.83H593.861C591.511 551.83 590.201 553.46 590.201 555.9V667.99H633.291V638.62C633.291 622.35 635.381 615.3 642.951 615.3C650.521 615.3 652.351 622.35 652.351 638.62V667.99H655.441C656.281 667.99 657.091 668.22 657.781 668.64C658.481 669.06 659.061 669.66 659.451 670.4L671.131 692.31L682.161 671.6C683.351 669.38 685.661 667.99 688.181 667.99H692.821V638.62C692.821 622.35 695.171 615.3 702.481 615.3C709.791 615.3 712.151 622.35 712.151 638.62V667.99H755.231V612.59C755.231 570.54 737.741 550.74 708.231 550.74Z" fill="#61A950"/>
<path d="M829.231 554.9H789.901C787.461 554.9 785.831 556.52 785.831 558.96V669.73C786.181 669.66 786.561 669.62 786.951 669.62H833.301V558.96C833.301 556.52 831.671 554.9 829.231 554.9ZM829.231 523.43H789.901C787.461 523.43 785.831 525.06 785.831 527.5V542.15C785.831 544.59 787.461 546.22 789.901 546.22H829.231C831.671 546.22 833.301 544.59 833.301 542.15V527.5C833.301 525.06 831.671 523.43 829.231 523.43Z" fill="#61A950"/>
<path d="M953.181 511.5H911.141C908.691 511.5 907.071 513.13 907.071 515.57V539.44C907.071 541.88 905.711 543.23 903.271 543.51C864.481 547.3 842.781 576.05 842.781 623.79C842.781 641.8 845.221 656.45 850.311 667.98C851.021 667.71 851.841 667.57 852.741 667.57H910.071C929.191 667.57 944.721 671.26 957.251 677.69V515.57C957.251 513.13 955.621 511.5 953.181 511.5ZM907.071 611.86C907.071 615.11 905.441 616.74 901.911 616.74C891.331 616.74 884.831 603.99 884.831 589.07C884.831 574.15 897.301 566.29 903.541 566.29C905.711 566.29 907.071 567.37 907.071 569.27V611.86ZM923.751 700.42C922.291 700.42 920.971 700.74 919.961 701.37H928.971C927.091 700.73 925.311 700.42 923.751 700.42Z" fill="#61A950"/>
<path d="M1075.22 542.28H1036.98C1032.37 542.28 1031.28 547.16 1031.28 550.42C1031.28 547.16 1028.03 541.74 1015.28 541.74C981.101 541.74 967.001 588.66 967.001 623.65C967.001 685.77 993.311 700.69 1016.91 700.69C1019.59 700.69 1021.99 700.39 1024.13 699.88L1029.14 673.49C1029.77 670.56 1032 668.94 1034.87 668.94H1081.19V546.35C1081.19 543.91 1078.75 542.28 1075.22 542.28ZM1031.28 611.72C1031.28 614.97 1029.65 616.6 1025.86 616.6C1016.91 616.6 1008.77 610.63 1008.77 591.65C1008.77 577.27 1021.52 565.61 1027.48 565.61C1029.93 565.61 1031.28 566.69 1031.28 568.59V611.72Z" fill="#61A950"/>
<path d="M266.5 807.56C266.5 757.8 275.1 668.68 342.93 668.68C363.95 668.68 395.16 679.41 395.16 734.38V734.71C395.16 737.64 393.25 739.59 390.38 739.59H359.811C356.941 739.59 355.031 737.64 355.031 734.71C355.031 711.29 352.16 703.49 343.88 703.49C332.1 703.49 321.91 720.4 321.91 745.77C321.91 767.56 328.281 776.99 340.061 776.99C346.431 776.99 353.441 774.39 353.441 761.7V761.37C353.441 758.44 355.351 756.49 358.221 756.49H391.34C394.21 756.49 396.12 758.44 396.12 761.37V893.1C396.12 896.03 393.57 897.98 388.8 897.98H352.501C302.821 897.98 266.52 891.15 266.52 807.56H266.5Z" fill="#FE5F3F"/>
<path d="M414.299 826.67C414.299 734.95 445.51 674.13 492.32 674.13C539.13 674.13 566.839 732.67 566.839 826.67C566.839 877.41 540.09 904.73 490.73 904.73C441.37 904.73 414.299 876.76 414.299 826.67ZM509.519 752.19C509.519 727.15 501.88 708.28 492.32 708.28C480.22 708.28 472.26 726.49 472.26 752.19C472.26 765.53 480.22 774.31 492.32 774.31C502.19 774.31 509.519 765.53 509.519 752.19Z" fill="#FE5F3F"/>
<path d="M579.57 898.55V680.63C579.57 677.7 581.479 675.75 584.349 675.75H643.26C646.13 675.75 647.719 677.38 648.359 679.98L669.7 763.57C670.34 765.85 671.61 767.15 672.57 767.15C673.84 767.15 674.8 765.85 675.44 763.57L697.729 679.98C698.369 677.38 699.96 675.75 702.83 675.75H762.06C764.93 675.75 766.84 677.7 766.84 680.63V898.55C766.84 901.48 764.93 903.43 762.06 903.43H720.02C717.15 903.43 715.24 901.48 715.24 898.55V804.88C715.24 802.93 713.97 801.63 712.69 801.63C711.73 801.63 710.46 802.61 710.14 804.23L684.979 899.2C684.339 901.8 682.75 903.43 679.88 903.43H657.589C654.719 903.43 653.13 901.8 652.49 899.2L627.649 804.55C627.329 802.92 626.059 801.95 625.099 801.95C623.829 801.95 622.549 803.25 622.549 805.2V898.55C622.549 901.48 620.639 903.43 617.769 903.43H584.33C581.46 903.43 579.549 901.48 579.549 898.55H579.57Z" fill="#FE5F3F"/>
<path d="M785.919 898.55V680.63C785.919 677.7 787.83 675.75 790.7 675.75H840.7C843.57 675.75 845.479 677.7 845.479 680.63V898.55C845.479 901.48 843.57 903.43 840.7 903.43H790.7C787.83 903.43 785.919 901.48 785.919 898.55Z" fill="#FE5F3F"/>
<path d="M864.581 898.55V680.63C864.581 677.7 866.491 675.75 869.361 675.75H918.721C984.641 675.75 1000.88 734.94 1000.88 791.86C1000.88 843.25 994.511 903.42 918.081 903.42H869.361C866.491 903.42 864.581 901.47 864.581 898.54V898.55ZM953.111 741.78C953.111 719.66 938.46 708.6 930.5 708.6C927.63 708.6 925.411 710.23 925.411 713.48V769.42C925.411 774.62 927.321 776.58 931.461 776.58C946.431 776.25 953.121 755.44 953.121 741.78H953.111Z" fill="#FE5F3F"/>
<path d="M995.58 898.23L1036.98 680.31C1037.62 677.38 1039.85 675.76 1042.71 675.76H1110.54C1113.72 675.76 1115.64 677.06 1116.27 679.99L1158.94 898.23V899.53C1158.94 902.13 1157.03 903.43 1154.16 903.43H1104.8C1101.62 903.43 1099.71 902.13 1099.39 898.88L1091.43 850.74C1090.79 847.49 1088.88 846.19 1086.02 846.19H1058C1054.82 846.19 1053.22 847.82 1052.59 850.74L1042.08 898.88C1041.44 901.81 1039.85 903.43 1036.67 903.43H1000.37C996.87 903.43 994.96 901.8 995.59 898.23H995.58ZM1083.15 785.69L1077.74 739.5C1077.1 735.27 1075.51 733.32 1073.6 733.32C1072.01 733.32 1070.1 735.27 1069.46 739.5L1063.09 785.69V786.34C1063.09 789.59 1065.64 790.89 1070.1 790.89H1075.51C1080.61 790.89 1083.79 788.94 1083.15 785.69Z" fill="#FE5F3F"/>
<path d="M2732 724.5C2732 836.407 2667.43 937.769 2562.92 1011.18C2458.42 1084.58 2314.02 1130 2154.5 1130C1994.98 1130 1850.58 1084.58 1746.08 1011.18C1641.57 937.769 1577 836.407 1577 724.5C1577 612.593 1641.57 511.231 1746.08 437.824C1850.58 364.418 1994.98 319 2154.5 319C2314.02 319 2458.42 364.418 2562.92 437.824C2667.43 511.231 2732 612.593 2732 724.5Z" fill="white" stroke="black"/>
<path d="M1869.98 614.21C1822.52 614.21 1813.3 609.87 1813.3 592.51C1813.3 575.15 1820.08 562.95 1829.84 562.95C1837.16 562.95 1839.33 570 1839.33 588.72C1839.33 591.43 1840.42 593.06 1843.13 593.06H1869.44C1871.88 593.06 1873.51 591.7 1873.51 588.99C1873.51 558.61 1856.42 539.35 1829.03 539.35C1790.78 539.35 1763.93 580.58 1763.93 639.44C1763.93 649.56 1765.21 658.13 1767.77 665.33C1775.05 662.22 1783.34 660.49 1792.78 660.49C1809.6 660.49 1832.95 667.37 1841.59 698.3H1870.26C1872.7 698.3 1874.32 696.67 1874.32 694.23V618.28C1874.32 615.84 1872.7 614.21 1869.98 614.21Z" fill="#FE5F3F"/>
<path d="M1952.41 541.94C1903.32 541.94 1892.47 608.12 1892.47 650.16C1892.47 659.42 1893.94 669.38 1898.67 678.09C1909.3 668.42 1921.66 663.22 1935.35 663.22C1955.93 663.22 1973.05 675.02 1985.67 696.52C2007.04 686.9 2011.82 667.33 2011.82 650.16C2011.82 608.12 2000.97 541.94 1952.41 541.94ZM1952.96 615.72C1943.73 615.72 1937.77 609.75 1937.77 600.53C1937.77 582.08 1943.46 565.54 1952.96 565.54C1960.28 565.54 1966.79 583.98 1966.79 600.53C1966.79 609.48 1961.09 615.72 1952.96 615.72Z" fill="#FE5F3F"/>
<path d="M2150.23 550.74C2136.13 550.74 2127.25 555.08 2121.51 562.13C2113.67 554.54 2101.92 550.74 2090.17 550.74C2066.93 550.74 2058.58 570.54 2058.58 570.54V555.9C2058.58 553.46 2057.01 551.83 2054.92 551.83H2035.86C2033.51 551.83 2032.2 553.46 2032.2 555.9V667.99H2075.29V638.62C2075.29 622.35 2077.38 615.3 2084.95 615.3C2092.52 615.3 2094.35 622.35 2094.35 638.62V667.99H2097.44C2098.28 667.99 2099.09 668.22 2099.78 668.64C2100.48 669.06 2101.06 669.66 2101.45 670.4L2113.13 692.31L2124.16 671.6C2125.35 669.38 2127.66 667.99 2130.18 667.99H2134.82V638.62C2134.82 622.35 2137.17 615.3 2144.48 615.3C2151.79 615.3 2154.15 622.35 2154.15 638.62V667.99H2197.23V612.59C2197.23 570.54 2179.74 550.74 2150.23 550.74Z" fill="#FE5F3F"/>
<path d="M2271.23 554.9H2231.9C2229.46 554.9 2227.83 556.52 2227.83 558.96V669.73C2228.18 669.66 2228.56 669.62 2228.95 669.62H2275.3V558.96C2275.3 556.52 2273.67 554.9 2271.23 554.9ZM2271.23 523.43H2231.9C2229.46 523.43 2227.83 525.06 2227.83 527.5V542.15C2227.83 544.59 2229.46 546.22 2231.9 546.22H2271.23C2273.67 546.22 2275.3 544.59 2275.3 542.15V527.5C2275.3 525.06 2273.67 523.43 2271.23 523.43Z" fill="#FE5F3F"/>
<path d="M2395.18 511.5H2353.14C2350.69 511.5 2349.07 513.13 2349.07 515.57V539.44C2349.07 541.88 2347.71 543.23 2345.27 543.51C2306.48 547.3 2284.78 576.05 2284.78 623.79C2284.78 641.8 2287.22 656.45 2292.31 667.98C2293.02 667.71 2293.84 667.57 2294.74 667.57H2352.07C2371.19 667.57 2386.72 671.26 2399.25 677.69V515.57C2399.25 513.13 2397.62 511.5 2395.18 511.5ZM2349.07 611.86C2349.07 615.11 2347.44 616.74 2343.91 616.74C2333.33 616.74 2326.83 603.99 2326.83 589.07C2326.83 574.15 2339.3 566.29 2345.54 566.29C2347.71 566.29 2349.07 567.37 2349.07 569.27V611.86ZM2365.75 700.42C2364.29 700.42 2362.97 700.74 2361.96 701.37H2370.97C2369.09 700.73 2367.31 700.42 2365.75 700.42Z" fill="#FE5F3F"/>
<path d="M2517.22 542.28H2478.98C2474.37 542.28 2473.28 547.16 2473.28 550.42C2473.28 547.16 2470.03 541.74 2457.28 541.74C2423.1 541.74 2409 588.66 2409 623.65C2409 685.77 2435.31 700.69 2458.91 700.69C2461.59 700.69 2463.99 700.39 2466.13 699.88L2471.14 673.49C2471.77 670.56 2474 668.94 2476.87 668.94H2523.19V546.35C2523.19 543.91 2520.75 542.28 2517.22 542.28ZM2473.28 611.72C2473.28 614.97 2471.65 616.6 2467.86 616.6C2458.91 616.6 2450.77 610.63 2450.77 591.65C2450.77 577.27 2463.52 565.61 2469.48 565.61C2471.93 565.61 2473.28 566.69 2473.28 568.59V611.72Z" fill="#FE5F3F"/>
<path d="M1708.5 807.56C1708.5 757.8 1717.1 668.68 1784.93 668.68C1805.95 668.68 1837.16 679.41 1837.16 734.38V734.71C1837.16 737.64 1835.25 739.59 1832.38 739.59H1801.81C1798.94 739.59 1797.03 737.64 1797.03 734.71C1797.03 711.29 1794.16 703.49 1785.88 703.49C1774.1 703.49 1763.91 720.4 1763.91 745.77C1763.91 767.56 1770.28 776.99 1782.06 776.99C1788.43 776.99 1795.44 774.39 1795.44 761.7V761.37C1795.44 758.44 1797.35 756.49 1800.22 756.49H1833.34C1836.21 756.49 1838.12 758.44 1838.12 761.37V893.1C1838.12 896.03 1835.57 897.98 1830.8 897.98H1794.5C1744.82 897.98 1708.52 891.15 1708.52 807.56H1708.5Z" fill="#C646BA"/>
<path d="M1856.3 826.67C1856.3 734.95 1887.51 674.13 1934.32 674.13C1981.13 674.13 2008.84 732.67 2008.84 826.67C2008.84 877.41 1982.09 904.73 1932.73 904.73C1883.37 904.73 1856.3 876.76 1856.3 826.67ZM1951.52 752.19C1951.52 727.15 1943.88 708.28 1934.32 708.28C1922.22 708.28 1914.26 726.49 1914.26 752.19C1914.26 765.53 1922.22 774.31 1934.32 774.31C1944.19 774.31 1951.52 765.53 1951.52 752.19Z" fill="#C646BA"/>
<path d="M2021.57 898.55V680.63C2021.57 677.7 2023.48 675.75 2026.35 675.75H2085.26C2088.13 675.75 2089.72 677.38 2090.36 679.98L2111.7 763.57C2112.34 765.85 2113.61 767.15 2114.57 767.15C2115.84 767.15 2116.8 765.85 2117.44 763.57L2139.73 679.98C2140.37 677.38 2141.96 675.75 2144.83 675.75H2204.06C2206.93 675.75 2208.84 677.7 2208.84 680.63V898.55C2208.84 901.48 2206.93 903.43 2204.06 903.43H2162.02C2159.15 903.43 2157.24 901.48 2157.24 898.55V804.88C2157.24 802.93 2155.97 801.63 2154.69 801.63C2153.73 801.63 2152.46 802.61 2152.14 804.23L2126.98 899.2C2126.34 901.8 2124.75 903.43 2121.88 903.43H2099.59C2096.72 903.43 2095.13 901.8 2094.49 899.2L2069.65 804.55C2069.33 802.92 2068.06 801.95 2067.1 801.95C2065.83 801.95 2064.55 803.25 2064.55 805.2V898.55C2064.55 901.48 2062.64 903.43 2059.77 903.43H2026.33C2023.46 903.43 2021.55 901.48 2021.55 898.55H2021.57Z" fill="#C646BA"/>
<path d="M2227.92 898.55V680.63C2227.92 677.7 2229.83 675.75 2232.7 675.75H2282.7C2285.57 675.75 2287.48 677.7 2287.48 680.63V898.55C2287.48 901.48 2285.57 903.43 2282.7 903.43H2232.7C2229.83 903.43 2227.92 901.48 2227.92 898.55Z" fill="#C646BA"/>
<path d="M2306.58 898.55V680.63C2306.58 677.7 2308.49 675.75 2311.36 675.75H2360.72C2426.64 675.75 2442.88 734.94 2442.88 791.86C2442.88 843.25 2436.51 903.42 2360.08 903.42H2311.36C2308.49 903.42 2306.58 901.47 2306.58 898.54V898.55ZM2395.11 741.78C2395.11 719.66 2380.46 708.6 2372.5 708.6C2369.63 708.6 2367.41 710.23 2367.41 713.48V769.42C2367.41 774.62 2369.32 776.58 2373.46 776.58C2388.43 776.25 2395.12 755.44 2395.12 741.78H2395.11Z" fill="#C646BA"/>
<path d="M2437.58 898.23L2478.98 680.31C2479.62 677.38 2481.85 675.76 2484.71 675.76H2552.54C2555.72 675.76 2557.64 677.06 2558.27 679.99L2600.94 898.23V899.53C2600.94 902.13 2599.03 903.43 2596.16 903.43H2546.8C2543.62 903.43 2541.71 902.13 2541.39 898.88L2533.43 850.74C2532.79 847.49 2530.88 846.19 2528.02 846.19H2500C2496.82 846.19 2495.22 847.82 2494.59 850.74L2484.08 898.88C2483.44 901.81 2481.85 903.43 2478.67 903.43H2442.37C2438.87 903.43 2436.96 901.8 2437.59 898.23H2437.58ZM2525.15 785.69L2519.74 739.5C2519.1 735.27 2517.51 733.32 2515.6 733.32C2514.01 733.32 2512.1 735.27 2511.46 739.5L2505.09 785.69V786.34C2505.09 789.59 2507.64 790.89 2512.1 790.89H2517.51C2522.61 790.89 2525.79 788.94 2525.15 785.69Z" fill="#C646BA"/>
<path d="M4174 724.5C4174 836.407 4109.43 937.769 4004.92 1011.18C3900.42 1084.58 3756.02 1130 3596.5 1130C3436.98 1130 3292.58 1084.58 3188.08 1011.18C3083.57 937.769 3019 836.407 3019 724.5C3019 612.593 3083.57 511.231 3188.08 437.824C3292.58 364.418 3436.98 319 3596.5 319C3756.02 319 3900.42 364.418 4004.92 437.824C4109.43 511.231 4174 612.593 4174 724.5Z" fill="white" stroke="black"/>
<path d="M3311.98 614.21C3264.52 614.21 3255.3 609.87 3255.3 592.51C3255.3 575.15 3262.08 562.95 3271.84 562.95C3279.16 562.95 3281.33 570 3281.33 588.72C3281.33 591.43 3282.42 593.06 3285.13 593.06H3311.44C3313.88 593.06 3315.51 591.7 3315.51 588.99C3315.51 558.61 3298.42 539.35 3271.03 539.35C3232.78 539.35 3205.93 580.58 3205.93 639.44C3205.93 649.56 3207.21 658.13 3209.77 665.33C3217.05 662.22 3225.34 660.49 3234.78 660.49C3251.6 660.49 3274.95 667.37 3283.59 698.3H3312.26C3314.7 698.3 3316.32 696.67 3316.32 694.23V618.28C3316.32 615.84 3314.7 614.21 3311.98 614.21Z" fill="#42664F"/>
<path d="M3394.41 541.94C3345.32 541.94 3334.47 608.12 3334.47 650.16C3334.47 659.42 3335.94 669.38 3340.67 678.09C3351.3 668.42 3363.66 663.22 3377.35 663.22C3397.93 663.22 3415.05 675.02 3427.67 696.52C3449.04 686.9 3453.82 667.33 3453.82 650.16C3453.82 608.12 3442.97 541.94 3394.41 541.94ZM3394.96 615.72C3385.73 615.72 3379.77 609.75 3379.77 600.53C3379.77 582.08 3385.46 565.54 3394.96 565.54C3402.28 565.54 3408.79 583.98 3408.79 600.53C3408.79 609.48 3403.09 615.72 3394.96 615.72Z" fill="#42664F"/>
<path d="M3592.23 550.74C3578.13 550.74 3569.25 555.08 3563.51 562.13C3555.67 554.54 3543.92 550.74 3532.17 550.74C3508.93 550.74 3500.58 570.54 3500.58 570.54V555.9C3500.58 553.46 3499.01 551.83 3496.92 551.83H3477.86C3475.51 551.83 3474.2 553.46 3474.2 555.9V667.99H3517.29V638.62C3517.29 622.35 3519.38 615.3 3526.95 615.3C3534.52 615.3 3536.35 622.35 3536.35 638.62V667.99H3539.44C3540.28 667.99 3541.09 668.22 3541.78 668.64C3542.48 669.06 3543.06 669.66 3543.45 670.4L3555.13 692.31L3566.16 671.6C3567.35 669.38 3569.66 667.99 3572.18 667.99H3576.82V638.62C3576.82 622.35 3579.17 615.3 3586.48 615.3C3593.79 615.3 3596.15 622.35 3596.15 638.62V667.99H3639.23V612.59C3639.23 570.54 3621.74 550.74 3592.23 550.74Z" fill="#42664F"/>
<path d="M3713.23 554.9H3673.9C3671.46 554.9 3669.83 556.52 3669.83 558.96V669.73C3670.18 669.66 3670.56 669.62 3670.95 669.62H3717.3V558.96C3717.3 556.52 3715.67 554.9 3713.23 554.9ZM3713.23 523.43H3673.9C3671.46 523.43 3669.83 525.06 3669.83 527.5V542.15C3669.83 544.59 3671.46 546.22 3673.9 546.22H3713.23C3715.67 546.22 3717.3 544.59 3717.3 542.15V527.5C3717.3 525.06 3715.67 523.43 3713.23 523.43Z" fill="#42664F"/>
<path d="M3837.18 511.5H3795.14C3792.69 511.5 3791.07 513.13 3791.07 515.57V539.44C3791.07 541.88 3789.71 543.23 3787.27 543.51C3748.48 547.3 3726.78 576.05 3726.78 623.79C3726.78 641.8 3729.22 656.45 3734.31 667.98C3735.02 667.71 3735.84 667.57 3736.74 667.57H3794.07C3813.19 667.57 3828.72 671.26 3841.25 677.69V515.57C3841.25 513.13 3839.62 511.5 3837.18 511.5ZM3791.07 611.86C3791.07 615.11 3789.44 616.74 3785.91 616.74C3775.33 616.74 3768.83 603.99 3768.83 589.07C3768.83 574.15 3781.3 566.29 3787.54 566.29C3789.71 566.29 3791.07 567.37 3791.07 569.27V611.86ZM3807.75 700.42C3806.29 700.42 3804.97 700.74 3803.96 701.37H3812.97C3811.09 700.73 3809.31 700.42 3807.75 700.42Z" fill="#42664F"/>
<path d="M3959.22 542.28H3920.98C3916.37 542.28 3915.28 547.16 3915.28 550.42C3915.28 547.16 3912.03 541.74 3899.28 541.74C3865.1 541.74 3851 588.66 3851 623.65C3851 685.77 3877.31 700.69 3900.91 700.69C3903.59 700.69 3905.99 700.39 3908.13 699.88L3913.14 673.49C3913.77 670.56 3916 668.94 3918.87 668.94H3965.19V546.35C3965.19 543.91 3962.75 542.28 3959.22 542.28ZM3915.28 611.72C3915.28 614.97 3913.65 616.6 3909.86 616.6C3900.91 616.6 3892.77 610.63 3892.77 591.65C3892.77 577.27 3905.52 565.61 3911.48 565.61C3913.93 565.61 3915.28 566.69 3915.28 568.59V611.72Z" fill="#42664F"/>
<path d="M3150.5 807.56C3150.5 757.8 3159.1 668.68 3226.93 668.68C3247.95 668.68 3279.16 679.41 3279.16 734.38V734.71C3279.16 737.64 3277.25 739.59 3274.38 739.59H3243.81C3240.94 739.59 3239.03 737.64 3239.03 734.71C3239.03 711.29 3236.16 703.49 3227.88 703.49C3216.1 703.49 3205.91 720.4 3205.91 745.77C3205.91 767.56 3212.28 776.99 3224.06 776.99C3230.43 776.99 3237.44 774.39 3237.44 761.7V761.37C3237.44 758.44 3239.35 756.49 3242.22 756.49H3275.34C3278.21 756.49 3280.12 758.44 3280.12 761.37V893.1C3280.12 896.03 3277.57 897.98 3272.8 897.98H3236.5C3186.82 897.98 3150.52 891.15 3150.52 807.56H3150.5Z" fill="#87A123"/>
<path d="M3298.3 826.67C3298.3 734.95 3329.51 674.13 3376.32 674.13C3423.13 674.13 3450.84 732.67 3450.84 826.67C3450.84 877.41 3424.09 904.73 3374.73 904.73C3325.37 904.73 3298.3 876.76 3298.3 826.67ZM3393.52 752.19C3393.52 727.15 3385.88 708.28 3376.32 708.28C3364.22 708.28 3356.26 726.49 3356.26 752.19C3356.26 765.53 3364.22 774.31 3376.32 774.31C3386.19 774.31 3393.52 765.53 3393.52 752.19Z" fill="#87A123"/>
<path d="M3463.57 898.55V680.63C3463.57 677.7 3465.48 675.75 3468.35 675.75H3527.26C3530.13 675.75 3531.72 677.38 3532.36 679.98L3553.7 763.57C3554.34 765.85 3555.61 767.15 3556.57 767.15C3557.84 767.15 3558.8 765.85 3559.44 763.57L3581.73 679.98C3582.37 677.38 3583.96 675.75 3586.83 675.75H3646.06C3648.93 675.75 3650.84 677.7 3650.84 680.63V898.55C3650.84 901.48 3648.93 903.43 3646.06 903.43H3604.02C3601.15 903.43 3599.24 901.48 3599.24 898.55V804.88C3599.24 802.93 3597.97 801.63 3596.69 801.63C3595.73 801.63 3594.46 802.61 3594.14 804.23L3568.98 899.2C3568.34 901.8 3566.75 903.43 3563.88 903.43H3541.59C3538.72 903.43 3537.13 901.8 3536.49 899.2L3511.65 804.55C3511.33 802.92 3510.06 801.95 3509.1 801.95C3507.83 801.95 3506.55 803.25 3506.55 805.2V898.55C3506.55 901.48 3504.64 903.43 3501.77 903.43H3468.33C3465.46 903.43 3463.55 901.48 3463.55 898.55H3463.57Z" fill="#87A123"/>
<path d="M3669.92 898.55V680.63C3669.92 677.7 3671.83 675.75 3674.7 675.75H3724.7C3727.57 675.75 3729.48 677.7 3729.48 680.63V898.55C3729.48 901.48 3727.57 903.43 3724.7 903.43H3674.7C3671.83 903.43 3669.92 901.48 3669.92 898.55Z" fill="#87A123"/>
<path d="M3748.58 898.55V680.63C3748.58 677.7 3750.49 675.75 3753.36 675.75H3802.72C3868.64 675.75 3884.88 734.94 3884.88 791.86C3884.88 843.25 3878.51 903.42 3802.08 903.42H3753.36C3750.49 903.42 3748.58 901.47 3748.58 898.54V898.55ZM3837.11 741.78C3837.11 719.66 3822.46 708.6 3814.5 708.6C3811.63 708.6 3809.41 710.23 3809.41 713.48V769.42C3809.41 774.62 3811.32 776.58 3815.46 776.58C3830.43 776.25 3837.12 755.44 3837.12 741.78H3837.11Z" fill="#87A123"/>
<path d="M3879.58 898.23L3920.98 680.31C3921.62 677.38 3923.85 675.76 3926.71 675.76H3994.54C3997.72 675.76 3999.64 677.06 4000.27 679.99L4042.94 898.23V899.53C4042.94 902.13 4041.03 903.43 4038.16 903.43H3988.8C3985.62 903.43 3983.71 902.13 3983.39 898.88L3975.43 850.74C3974.79 847.49 3972.88 846.19 3970.02 846.19H3942C3938.82 846.19 3937.22 847.82 3936.59 850.74L3926.08 898.88C3925.44 901.81 3923.85 903.43 3920.67 903.43H3884.37C3880.87 903.43 3878.96 901.8 3879.59 898.23H3879.58ZM3967.15 785.69L3961.74 739.5C3961.1 735.27 3959.51 733.32 3957.6 733.32C3956.01 733.32 3954.1 735.27 3953.46 739.5L3947.09 785.69V786.34C3947.09 789.59 3949.64 790.89 3954.1 790.89H3959.51C3964.61 790.89 3967.79 788.94 3967.15 785.69Z" fill="#87A123"/>
<path d="M1290 1961.5C1290 2073.41 1225.43 2174.77 1120.92 2248.18C1016.42 2321.58 872.02 2367 712.5 2367C552.98 2367 408.583 2321.58 304.08 2248.18C199.575 2174.77 135 2073.41 135 1961.5C135 1849.59 199.575 1748.23 304.08 1674.82C408.583 1601.42 552.98 1556 712.5 1556C872.02 1556 1016.42 1601.42 1120.92 1674.82C1225.43 1748.23 1290 1849.59 1290 1961.5Z" fill="black" stroke="black"/>
<path d="M427.981 1851.21C380.521 1851.21 371.301 1846.87 371.301 1829.51C371.301 1812.15 378.081 1799.95 387.841 1799.95C395.161 1799.95 397.331 1807 397.331 1825.72C397.331 1828.43 398.421 1830.06 401.131 1830.06H427.441C429.881 1830.06 431.511 1828.7 431.511 1825.99C431.511 1795.61 414.421 1776.35 387.031 1776.35C348.781 1776.35 321.931 1817.58 321.931 1876.44C321.931 1886.56 323.211 1895.13 325.771 1902.33C333.051 1899.22 341.341 1897.49 350.781 1897.49C367.601 1897.49 390.951 1904.37 399.591 1935.3H428.261C430.701 1935.3 432.321 1933.67 432.321 1931.23V1855.28C432.321 1852.84 430.701 1851.21 427.981 1851.21Z" fill="#61A950"/>
<path d="M510.411 1778.94C461.321 1778.94 450.471 1845.12 450.471 1887.16C450.471 1896.42 451.941 1906.38 456.671 1915.09C467.301 1905.42 479.661 1900.22 493.351 1900.22C513.931 1900.22 531.051 1912.02 543.671 1933.52C565.041 1923.9 569.821 1904.33 569.821 1887.16C569.821 1845.12 558.971 1778.94 510.411 1778.94ZM510.961 1852.72C501.731 1852.72 495.771 1846.75 495.771 1837.53C495.771 1819.08 501.461 1802.54 510.961 1802.54C518.281 1802.54 524.791 1820.98 524.791 1837.53C524.791 1846.48 519.091 1852.72 510.961 1852.72Z" fill="#61A950"/>
<path d="M708.231 1787.74C694.131 1787.74 685.251 1792.08 679.511 1799.13C671.671 1791.54 659.921 1787.74 648.171 1787.74C624.931 1787.74 616.581 1807.54 616.581 1807.54V1792.9C616.581 1790.46 615.011 1788.83 612.921 1788.83H593.861C591.511 1788.83 590.201 1790.46 590.201 1792.9V1904.99H633.291V1875.62C633.291 1859.35 635.381 1852.3 642.951 1852.3C650.521 1852.3 652.351 1859.35 652.351 1875.62V1904.99H655.441C656.281 1904.99 657.091 1905.22 657.781 1905.64C658.481 1906.06 659.061 1906.66 659.451 1907.4L671.131 1929.31L682.161 1908.6C683.351 1906.38 685.661 1904.99 688.181 1904.99H692.821V1875.62C692.821 1859.35 695.171 1852.3 702.481 1852.3C709.791 1852.3 712.151 1859.35 712.151 1875.62V1904.99H755.231V1849.59C755.231 1807.54 737.741 1787.74 708.231 1787.74Z" fill="#61A950"/>
<path d="M829.231 1791.9H789.901C787.461 1791.9 785.831 1793.52 785.831 1795.96V1906.73C786.181 1906.66 786.561 1906.62 786.951 1906.62H833.301V1795.96C833.301 1793.52 831.671 1791.9 829.231 1791.9ZM829.231 1760.43H789.901C787.461 1760.43 785.831 1762.06 785.831 1764.5V1779.15C785.831 1781.59 787.461 1783.22 789.901 1783.22H829.231C831.671 1783.22 833.301 1781.59 833.301 1779.15V1764.5C833.301 1762.06 831.671 1760.43 829.231 1760.43Z" fill="#61A950"/>
<path d="M953.181 1748.5H911.141C908.691 1748.5 907.071 1750.13 907.071 1752.57V1776.44C907.071 1778.88 905.711 1780.23 903.271 1780.51C864.481 1784.3 842.781 1813.05 842.781 1860.79C842.781 1878.8 845.221 1893.45 850.311 1904.98C851.021 1904.71 851.841 1904.57 852.741 1904.57H910.071C929.191 1904.57 944.721 1908.26 957.251 1914.69V1752.57C957.251 1750.13 955.621 1748.5 953.181 1748.5ZM907.071 1848.86C907.071 1852.11 905.441 1853.74 901.911 1853.74C891.331 1853.74 884.831 1840.99 884.831 1826.07C884.831 1811.15 897.301 1803.29 903.541 1803.29C905.711 1803.29 907.071 1804.37 907.071 1806.27V1848.86ZM923.751 1937.42C922.291 1937.42 920.971 1937.74 919.961 1938.37H928.971C927.091 1937.73 925.311 1937.42 923.751 1937.42Z" fill="#61A950"/>
<path d="M1075.22 1779.28H1036.98C1032.37 1779.28 1031.28 1784.16 1031.28 1787.42C1031.28 1784.16 1028.03 1778.74 1015.28 1778.74C981.101 1778.74 967.001 1825.66 967.001 1860.65C967.001 1922.77 993.311 1937.69 1016.91 1937.69C1019.59 1937.69 1021.99 1937.39 1024.13 1936.88L1029.14 1910.49C1029.77 1907.56 1032 1905.94 1034.87 1905.94H1081.19V1783.35C1081.19 1780.91 1078.75 1779.28 1075.22 1779.28ZM1031.28 1848.72C1031.28 1851.97 1029.65 1853.6 1025.86 1853.6C1016.91 1853.6 1008.77 1847.63 1008.77 1828.65C1008.77 1814.27 1021.52 1802.61 1027.48 1802.61C1029.93 1802.61 1031.28 1803.69 1031.28 1805.59V1848.72Z" fill="#61A950"/>
<path d="M266.5 2044.56C266.5 1994.8 275.1 1905.68 342.93 1905.68C363.95 1905.68 395.16 1916.41 395.16 1971.38V1971.71C395.16 1974.64 393.25 1976.59 390.38 1976.59H359.811C356.941 1976.59 355.031 1974.64 355.031 1971.71C355.031 1948.29 352.16 1940.49 343.88 1940.49C332.1 1940.49 321.91 1957.4 321.91 1982.77C321.91 2004.56 328.281 2013.99 340.061 2013.99C346.431 2013.99 353.441 2011.39 353.441 1998.7V1998.37C353.441 1995.44 355.351 1993.49 358.221 1993.49H391.34C394.21 1993.49 396.12 1995.44 396.12 1998.37V2130.1C396.12 2133.03 393.57 2134.98 388.8 2134.98H352.501C302.821 2134.98 266.52 2128.15 266.52 2044.56H266.5Z" fill="#FE5F3F"/>
<path d="M414.299 2063.67C414.299 1971.95 445.51 1911.13 492.32 1911.13C539.13 1911.13 566.839 1969.67 566.839 2063.67C566.839 2114.41 540.09 2141.73 490.73 2141.73C441.37 2141.73 414.299 2113.76 414.299 2063.67ZM509.519 1989.19C509.519 1964.15 501.88 1945.28 492.32 1945.28C480.22 1945.28 472.26 1963.49 472.26 1989.19C472.26 2002.53 480.22 2011.31 492.32 2011.31C502.19 2011.31 509.519 2002.53 509.519 1989.19Z" fill="#FE5F3F"/>
<path d="M579.57 2135.55V1917.63C579.57 1914.7 581.479 1912.75 584.349 1912.75H643.26C646.13 1912.75 647.719 1914.38 648.359 1916.98L669.7 2000.57C670.34 2002.85 671.61 2004.15 672.57 2004.15C673.84 2004.15 674.8 2002.85 675.44 2000.57L697.729 1916.98C698.369 1914.38 699.96 1912.75 702.83 1912.75H762.06C764.93 1912.75 766.84 1914.7 766.84 1917.63V2135.55C766.84 2138.48 764.93 2140.43 762.06 2140.43H720.02C717.15 2140.43 715.24 2138.48 715.24 2135.55V2041.88C715.24 2039.93 713.97 2038.63 712.69 2038.63C711.73 2038.63 710.46 2039.61 710.14 2041.23L684.979 2136.2C684.339 2138.8 682.75 2140.43 679.88 2140.43H657.589C654.719 2140.43 653.13 2138.8 652.49 2136.2L627.649 2041.55C627.329 2039.92 626.059 2038.95 625.099 2038.95C623.829 2038.95 622.549 2040.25 622.549 2042.2V2135.55C622.549 2138.48 620.639 2140.43 617.769 2140.43H584.33C581.46 2140.43 579.549 2138.48 579.549 2135.55H579.57Z" fill="#FE5F3F"/>
<path d="M785.919 2135.55V1917.63C785.919 1914.7 787.83 1912.75 790.7 1912.75H840.7C843.57 1912.75 845.479 1914.7 845.479 1917.63V2135.55C845.479 2138.48 843.57 2140.43 840.7 2140.43H790.7C787.83 2140.43 785.919 2138.48 785.919 2135.55Z" fill="#FE5F3F"/>
<path d="M864.581 2135.55V1917.63C864.581 1914.7 866.491 1912.75 869.361 1912.75H918.721C984.641 1912.75 1000.88 1971.94 1000.88 2028.86C1000.88 2080.25 994.511 2140.42 918.081 2140.42H869.361C866.491 2140.42 864.581 2138.47 864.581 2135.54V2135.55ZM953.111 1978.78C953.111 1956.66 938.46 1945.6 930.5 1945.6C927.63 1945.6 925.411 1947.23 925.411 1950.48V2006.42C925.411 2011.62 927.321 2013.58 931.461 2013.58C946.431 2013.25 953.121 1992.44 953.121 1978.78H953.111Z" fill="#FE5F3F"/>
<path d="M995.58 2135.23L1036.98 1917.31C1037.62 1914.38 1039.85 1912.76 1042.71 1912.76H1110.54C1113.72 1912.76 1115.64 1914.06 1116.27 1916.99L1158.94 2135.23V2136.53C1158.94 2139.13 1157.03 2140.43 1154.16 2140.43H1104.8C1101.62 2140.43 1099.71 2139.13 1099.39 2135.88L1091.43 2087.74C1090.79 2084.49 1088.88 2083.19 1086.02 2083.19H1058C1054.82 2083.19 1053.22 2084.82 1052.59 2087.74L1042.08 2135.88C1041.44 2138.81 1039.85 2140.43 1036.67 2140.43H1000.37C996.87 2140.43 994.96 2138.8 995.59 2135.23H995.58ZM1083.15 2022.69L1077.74 1976.5C1077.1 1972.27 1075.51 1970.32 1073.6 1970.32C1072.01 1970.32 1070.1 1972.27 1069.46 1976.5L1063.09 2022.69V2023.34C1063.09 2026.59 1065.64 2027.89 1070.1 2027.89H1075.51C1080.61 2027.89 1083.79 2025.94 1083.15 2022.69Z" fill="#FE5F3F"/>
<path d="M2732 1961.5C2732 2073.41 2667.43 2174.77 2562.92 2248.18C2458.42 2321.58 2314.02 2367 2154.5 2367C1994.98 2367 1850.58 2321.58 1746.08 2248.18C1641.57 2174.77 1577 2073.41 1577 1961.5C1577 1849.59 1641.57 1748.23 1746.08 1674.82C1850.58 1601.42 1994.98 1556 2154.5 1556C2314.02 1556 2458.42 1601.42 2562.92 1674.82C2667.43 1748.23 2732 1849.59 2732 1961.5Z" fill="black" stroke="black"/>
<path d="M1869.98 1851.21C1822.52 1851.21 1813.3 1846.87 1813.3 1829.51C1813.3 1812.15 1820.08 1799.95 1829.84 1799.95C1837.16 1799.95 1839.33 1807 1839.33 1825.72C1839.33 1828.43 1840.42 1830.06 1843.13 1830.06H1869.44C1871.88 1830.06 1873.51 1828.7 1873.51 1825.99C1873.51 1795.61 1856.42 1776.35 1829.03 1776.35C1790.78 1776.35 1763.93 1817.58 1763.93 1876.44C1763.93 1886.56 1765.21 1895.13 1767.77 1902.33C1775.05 1899.22 1783.34 1897.49 1792.78 1897.49C1809.6 1897.49 1832.95 1904.37 1841.59 1935.3H1870.26C1872.7 1935.3 1874.32 1933.67 1874.32 1931.23V1855.28C1874.32 1852.84 1872.7 1851.21 1869.98 1851.21Z" fill="#FE5F3F"/>
<path d="M1952.41 1778.94C1903.32 1778.94 1892.47 1845.12 1892.47 1887.16C1892.47 1896.42 1893.94 1906.38 1898.67 1915.09C1909.3 1905.42 1921.66 1900.22 1935.35 1900.22C1955.93 1900.22 1973.05 1912.02 1985.67 1933.52C2007.04 1923.9 2011.82 1904.33 2011.82 1887.16C2011.82 1845.12 2000.97 1778.94 1952.41 1778.94ZM1952.96 1852.72C1943.73 1852.72 1937.77 1846.75 1937.77 1837.53C1937.77 1819.08 1943.46 1802.54 1952.96 1802.54C1960.28 1802.54 1966.79 1820.98 1966.79 1837.53C1966.79 1846.48 1961.09 1852.72 1952.96 1852.72Z" fill="#FE5F3F"/>
<path d="M2150.23 1787.74C2136.13 1787.74 2127.25 1792.08 2121.51 1799.13C2113.67 1791.54 2101.92 1787.74 2090.17 1787.74C2066.93 1787.74 2058.58 1807.54 2058.58 1807.54V1792.9C2058.58 1790.46 2057.01 1788.83 2054.92 1788.83H2035.86C2033.51 1788.83 2032.2 1790.46 2032.2 1792.9V1904.99H2075.29V1875.62C2075.29 1859.35 2077.38 1852.3 2084.95 1852.3C2092.52 1852.3 2094.35 1859.35 2094.35 1875.62V1904.99H2097.44C2098.28 1904.99 2099.09 1905.22 2099.78 1905.64C2100.48 1906.06 2101.06 1906.66 2101.45 1907.4L2113.13 1929.31L2124.16 1908.6C2125.35 1906.38 2127.66 1904.99 2130.18 1904.99H2134.82V1875.62C2134.82 1859.35 2137.17 1852.3 2144.48 1852.3C2151.79 1852.3 2154.15 1859.35 2154.15 1875.62V1904.99H2197.23V1849.59C2197.23 1807.54 2179.74 1787.74 2150.23 1787.74Z" fill="#FE5F3F"/>
<path d="M2271.23 1791.9H2231.9C2229.46 1791.9 2227.83 1793.52 2227.83 1795.96V1906.73C2228.18 1906.66 2228.56 1906.62 2228.95 1906.62H2275.3V1795.96C2275.3 1793.52 2273.67 1791.9 2271.23 1791.9ZM2271.23 1760.43H2231.9C2229.46 1760.43 2227.83 1762.06 2227.83 1764.5V1779.15C2227.83 1781.59 2229.46 1783.22 2231.9 1783.22H2271.23C2273.67 1783.22 2275.3 1781.59 2275.3 1779.15V1764.5C2275.3 1762.06 2273.67 1760.43 2271.23 1760.43Z" fill="#FE5F3F"/>
<path d="M2395.18 1748.5H2353.14C2350.69 1748.5 2349.07 1750.13 2349.07 1752.57V1776.44C2349.07 1778.88 2347.71 1780.23 2345.27 1780.51C2306.48 1784.3 2284.78 1813.05 2284.78 1860.79C2284.78 1878.8 2287.22 1893.45 2292.31 1904.98C2293.02 1904.71 2293.84 1904.57 2294.74 1904.57H2352.07C2371.19 1904.57 2386.72 1908.26 2399.25 1914.69V1752.57C2399.25 1750.13 2397.62 1748.5 2395.18 1748.5ZM2349.07 1848.86C2349.07 1852.11 2347.44 1853.74 2343.91 1853.74C2333.33 1853.74 2326.83 1840.99 2326.83 1826.07C2326.83 1811.15 2339.3 1803.29 2345.54 1803.29C2347.71 1803.29 2349.07 1804.37 2349.07 1806.27V1848.86ZM2365.75 1937.42C2364.29 1937.42 2362.97 1937.74 2361.96 1938.37H2370.97C2369.09 1937.73 2367.31 1937.42 2365.75 1937.42Z" fill="#FE5F3F"/>
<path d="M2517.22 1779.28H2478.98C2474.37 1779.28 2473.28 1784.16 2473.28 1787.42C2473.28 1784.16 2470.03 1778.74 2457.28 1778.74C2423.1 1778.74 2409 1825.66 2409 1860.65C2409 1922.77 2435.31 1937.69 2458.91 1937.69C2461.59 1937.69 2463.99 1937.39 2466.13 1936.88L2471.14 1910.49C2471.77 1907.56 2474 1905.94 2476.87 1905.94H2523.19V1783.35C2523.19 1780.91 2520.75 1779.28 2517.22 1779.28ZM2473.28 1848.72C2473.28 1851.97 2471.65 1853.6 2467.86 1853.6C2458.91 1853.6 2450.77 1847.63 2450.77 1828.65C2450.77 1814.27 2463.52 1802.61 2469.48 1802.61C2471.93 1802.61 2473.28 1803.69 2473.28 1805.59V1848.72Z" fill="#FE5F3F"/>
<path d="M1708.5 2044.56C1708.5 1994.8 1717.1 1905.68 1784.93 1905.68C1805.95 1905.68 1837.16 1916.41 1837.16 1971.38V1971.71C1837.16 1974.64 1835.25 1976.59 1832.38 1976.59H1801.81C1798.94 1976.59 1797.03 1974.64 1797.03 1971.71C1797.03 1948.29 1794.16 1940.49 1785.88 1940.49C1774.1 1940.49 1763.91 1957.4 1763.91 1982.77C1763.91 2004.56 1770.28 2013.99 1782.06 2013.99C1788.43 2013.99 1795.44 2011.39 1795.44 1998.7V1998.37C1795.44 1995.44 1797.35 1993.49 1800.22 1993.49H1833.34C1836.21 1993.49 1838.12 1995.44 1838.12 1998.37V2130.1C1838.12 2133.03 1835.57 2134.98 1830.8 2134.98H1794.5C1744.82 2134.98 1708.52 2128.15 1708.52 2044.56H1708.5Z" fill="#C646BA"/>
<path d="M1856.3 2063.67C1856.3 1971.95 1887.51 1911.13 1934.32 1911.13C1981.13 1911.13 2008.84 1969.67 2008.84 2063.67C2008.84 2114.41 1982.09 2141.73 1932.73 2141.73C1883.37 2141.73 1856.3 2113.76 1856.3 2063.67ZM1951.52 1989.19C1951.52 1964.15 1943.88 1945.28 1934.32 1945.28C1922.22 1945.28 1914.26 1963.49 1914.26 1989.19C1914.26 2002.53 1922.22 2011.31 1934.32 2011.31C1944.19 2011.31 1951.52 2002.53 1951.52 1989.19Z" fill="#C646BA"/>
<path d="M2021.57 2135.55V1917.63C2021.57 1914.7 2023.48 1912.75 2026.35 1912.75H2085.26C2088.13 1912.75 2089.72 1914.38 2090.36 1916.98L2111.7 2000.57C2112.34 2002.85 2113.61 2004.15 2114.57 2004.15C2115.84 2004.15 2116.8 2002.85 2117.44 2000.57L2139.73 1916.98C2140.37 1914.38 2141.96 1912.75 2144.83 1912.75H2204.06C2206.93 1912.75 2208.84 1914.7 2208.84 1917.63V2135.55C2208.84 2138.48 2206.93 2140.43 2204.06 2140.43H2162.02C2159.15 2140.43 2157.24 2138.48 2157.24 2135.55V2041.88C2157.24 2039.93 2155.97 2038.63 2154.69 2038.63C2153.73 2038.63 2152.46 2039.61 2152.14 2041.23L2126.98 2136.2C2126.34 2138.8 2124.75 2140.43 2121.88 2140.43H2099.59C2096.72 2140.43 2095.13 2138.8 2094.49 2136.2L2069.65 2041.55C2069.33 2039.92 2068.06 2038.95 2067.1 2038.95C2065.83 2038.95 2064.55 2040.25 2064.55 2042.2V2135.55C2064.55 2138.48 2062.64 2140.43 2059.77 2140.43H2026.33C2023.46 2140.43 2021.55 2138.48 2021.55 2135.55H2021.57Z" fill="#C646BA"/>
<path d="M2227.92 2135.55V1917.63C2227.92 1914.7 2229.83 1912.75 2232.7 1912.75H2282.7C2285.57 1912.75 2287.48 1914.7 2287.48 1917.63V2135.55C2287.48 2138.48 2285.57 2140.43 2282.7 2140.43H2232.7C2229.83 2140.43 2227.92 2138.48 2227.92 2135.55Z" fill="#C646BA"/>
<path d="M2306.58 2135.55V1917.63C2306.58 1914.7 2308.49 1912.75 2311.36 1912.75H2360.72C2426.64 1912.75 2442.88 1971.94 2442.88 2028.86C2442.88 2080.25 2436.51 2140.42 2360.08 2140.42H2311.36C2308.49 2140.42 2306.58 2138.47 2306.58 2135.54V2135.55ZM2395.11 1978.78C2395.11 1956.66 2380.46 1945.6 2372.5 1945.6C2369.63 1945.6 2367.41 1947.23 2367.41 1950.48V2006.42C2367.41 2011.62 2369.32 2013.58 2373.46 2013.58C2388.43 2013.25 2395.12 1992.44 2395.12 1978.78H2395.11Z" fill="#C646BA"/>
<path d="M2437.58 2135.23L2478.98 1917.31C2479.62 1914.38 2481.85 1912.76 2484.71 1912.76H2552.54C2555.72 1912.76 2557.64 1914.06 2558.27 1916.99L2600.94 2135.23V2136.53C2600.94 2139.13 2599.03 2140.43 2596.16 2140.43H2546.8C2543.62 2140.43 2541.71 2139.13 2541.39 2135.88L2533.43 2087.74C2532.79 2084.49 2530.88 2083.19 2528.02 2083.19H2500C2496.82 2083.19 2495.22 2084.82 2494.59 2087.74L2484.08 2135.88C2483.44 2138.81 2481.85 2140.43 2478.67 2140.43H2442.37C2438.87 2140.43 2436.96 2138.8 2437.59 2135.23H2437.58ZM2525.15 2022.69L2519.74 1976.5C2519.1 1972.27 2517.51 1970.32 2515.6 1970.32C2514.01 1970.32 2512.1 1972.27 2511.46 1976.5L2505.09 2022.69V2023.34C2505.09 2026.59 2507.64 2027.89 2512.1 2027.89H2517.51C2522.61 2027.89 2525.79 2025.94 2525.15 2022.69Z" fill="#C646BA"/>
<path d="M4174 1961.5C4174 2073.41 4109.43 2174.77 4004.92 2248.18C3900.42 2321.58 3756.02 2367 3596.5 2367C3436.98 2367 3292.58 2321.58 3188.08 2248.18C3083.57 2174.77 3019 2073.41 3019 1961.5C3019 1849.59 3083.57 1748.23 3188.08 1674.82C3292.58 1601.42 3436.98 1556 3596.5 1556C3756.02 1556 3900.42 1601.42 4004.92 1674.82C4109.43 1748.23 4174 1849.59 4174 1961.5Z" fill="black" stroke="black"/>
<path d="M3311.98 1851.21C3264.52 1851.21 3255.3 1846.87 3255.3 1829.51C3255.3 1812.15 3262.08 1799.95 3271.84 1799.95C3279.16 1799.95 3281.33 1807 3281.33 1825.72C3281.33 1828.43 3282.42 1830.06 3285.13 1830.06H3311.44C3313.88 1830.06 3315.51 1828.7 3315.51 1825.99C3315.51 1795.61 3298.42 1776.35 3271.03 1776.35C3232.78 1776.35 3205.93 1817.58 3205.93 1876.44C3205.93 1886.56 3207.21 1895.13 3209.77 1902.33C3217.05 1899.22 3225.34 1897.49 3234.78 1897.49C3251.6 1897.49 3274.95 1904.37 3283.59 1935.3H3312.26C3314.7 1935.3 3316.32 1933.67 3316.32 1931.23V1855.28C3316.32 1852.84 3314.7 1851.21 3311.98 1851.21Z" fill="#42664F"/>
<path d="M3394.41 1778.94C3345.32 1778.94 3334.47 1845.12 3334.47 1887.16C3334.47 1896.42 3335.94 1906.38 3340.67 1915.09C3351.3 1905.42 3363.66 1900.22 3377.35 1900.22C3397.93 1900.22 3415.05 1912.02 3427.67 1933.52C3449.04 1923.9 3453.82 1904.33 3453.82 1887.16C3453.82 1845.12 3442.97 1778.94 3394.41 1778.94ZM3394.96 1852.72C3385.73 1852.72 3379.77 1846.75 3379.77 1837.53C3379.77 1819.08 3385.46 1802.54 3394.96 1802.54C3402.28 1802.54 3408.79 1820.98 3408.79 1837.53C3408.79 1846.48 3403.09 1852.72 3394.96 1852.72Z" fill="#42664F"/>
<path d="M3592.23 1787.74C3578.13 1787.74 3569.25 1792.08 3563.51 1799.13C3555.67 1791.54 3543.92 1787.74 3532.17 1787.74C3508.93 1787.74 3500.58 1807.54 3500.58 1807.54V1792.9C3500.58 1790.46 3499.01 1788.83 3496.92 1788.83H3477.86C3475.51 1788.83 3474.2 1790.46 3474.2 1792.9V1904.99H3517.29V1875.62C3517.29 1859.35 3519.38 1852.3 3526.95 1852.3C3534.52 1852.3 3536.35 1859.35 3536.35 1875.62V1904.99H3539.44C3540.28 1904.99 3541.09 1905.22 3541.78 1905.64C3542.48 1906.06 3543.06 1906.66 3543.45 1907.4L3555.13 1929.31L3566.16 1908.6C3567.35 1906.38 3569.66 1904.99 3572.18 1904.99H3576.82V1875.62C3576.82 1859.35 3579.17 1852.3 3586.48 1852.3C3593.79 1852.3 3596.15 1859.35 3596.15 1875.62V1904.99H3639.23V1849.59C3639.23 1807.54 3621.74 1787.74 3592.23 1787.74Z" fill="#42664F"/>
<path d="M3713.23 1791.9H3673.9C3671.46 1791.9 3669.83 1793.52 3669.83 1795.96V1906.73C3670.18 1906.66 3670.56 1906.62 3670.95 1906.62H3717.3V1795.96C3717.3 1793.52 3715.67 1791.9 3713.23 1791.9ZM3713.23 1760.43H3673.9C3671.46 1760.43 3669.83 1762.06 3669.83 1764.5V1779.15C3669.83 1781.59 3671.46 1783.22 3673.9 1783.22H3713.23C3715.67 1783.22 3717.3 1781.59 3717.3 1779.15V1764.5C3717.3 1762.06 3715.67 1760.43 3713.23 1760.43Z" fill="#42664F"/>
<path d="M3837.18 1748.5H3795.14C3792.69 1748.5 3791.07 1750.13 3791.07 1752.57V1776.44C3791.07 1778.88 3789.71 1780.23 3787.27 1780.51C3748.48 1784.3 3726.78 1813.05 3726.78 1860.79C3726.78 1878.8 3729.22 1893.45 3734.31 1904.98C3735.02 1904.71 3735.84 1904.57 3736.74 1904.57H3794.07C3813.19 1904.57 3828.72 1908.26 3841.25 1914.69V1752.57C3841.25 1750.13 3839.62 1748.5 3837.18 1748.5ZM3791.07 1848.86C3791.07 1852.11 3789.44 1853.74 3785.91 1853.74C3775.33 1853.74 3768.83 1840.99 3768.83 1826.07C3768.83 1811.15 3781.3 1803.29 3787.54 1803.29C3789.71 1803.29 3791.07 1804.37 3791.07 1806.27V1848.86ZM3807.75 1937.42C3806.29 1937.42 3804.97 1937.74 3803.96 1938.37H3812.97C3811.09 1937.73 3809.31 1937.42 3807.75 1937.42Z" fill="#42664F"/>
<path d="M3959.22 1779.28H3920.98C3916.37 1779.28 3915.28 1784.16 3915.28 1787.42C3915.28 1784.16 3912.03 1778.74 3899.28 1778.74C3865.1 1778.74 3851 1825.66 3851 1860.65C3851 1922.77 3877.31 1937.69 3900.91 1937.69C3903.59 1937.69 3905.99 1937.39 3908.13 1936.88L3913.14 1910.49C3913.77 1907.56 3916 1905.94 3918.87 1905.94H3965.19V1783.35C3965.19 1780.91 3962.75 1779.28 3959.22 1779.28ZM3915.28 1848.72C3915.28 1851.97 3913.65 1853.6 3909.86 1853.6C3900.91 1853.6 3892.77 1847.63 3892.77 1828.65C3892.77 1814.27 3905.52 1802.61 3911.48 1802.61C3913.93 1802.61 3915.28 1803.69 3915.28 1805.59V1848.72Z" fill="#42664F"/>
<path d="M3150.5 2044.56C3150.5 1994.8 3159.1 1905.68 3226.93 1905.68C3247.95 1905.68 3279.16 1916.41 3279.16 1971.38V1971.71C3279.16 1974.64 3277.25 1976.59 3274.38 1976.59H3243.81C3240.94 1976.59 3239.03 1974.64 3239.03 1971.71C3239.03 1948.29 3236.16 1940.49 3227.88 1940.49C3216.1 1940.49 3205.91 1957.4 3205.91 1982.77C3205.91 2004.56 3212.28 2013.99 3224.06 2013.99C3230.43 2013.99 3237.44 2011.39 3237.44 1998.7V1998.37C3237.44 1995.44 3239.35 1993.49 3242.22 1993.49H3275.34C3278.21 1993.49 3280.12 1995.44 3280.12 1998.37V2130.1C3280.12 2133.03 3277.57 2134.98 3272.8 2134.98H3236.5C3186.82 2134.98 3150.52 2128.15 3150.52 2044.56H3150.5Z" fill="#87A123"/>
<path d="M3298.3 2063.67C3298.3 1971.95 3329.51 1911.13 3376.32 1911.13C3423.13 1911.13 3450.84 1969.67 3450.84 2063.67C3450.84 2114.41 3424.09 2141.73 3374.73 2141.73C3325.37 2141.73 3298.3 2113.76 3298.3 2063.67ZM3393.52 1989.19C3393.52 1964.15 3385.88 1945.28 3376.32 1945.28C3364.22 1945.28 3356.26 1963.49 3356.26 1989.19C3356.26 2002.53 3364.22 2011.31 3376.32 2011.31C3386.19 2011.31 3393.52 2002.53 3393.52 1989.19Z" fill="#87A123"/>
<path d="M3463.57 2135.55V1917.63C3463.57 1914.7 3465.48 1912.75 3468.35 1912.75H3527.26C3530.13 1912.75 3531.72 1914.38 3532.36 1916.98L3553.7 2000.57C3554.34 2002.85 3555.61 2004.15 3556.57 2004.15C3557.84 2004.15 3558.8 2002.85 3559.44 2000.57L3581.73 1916.98C3582.37 1914.38 3583.96 1912.75 3586.83 1912.75H3646.06C3648.93 1912.75 3650.84 1914.7 3650.84 1917.63V2135.55C3650.84 2138.48 3648.93 2140.43 3646.06 2140.43H3604.02C3601.15 2140.43 3599.24 2138.48 3599.24 2135.55V2041.88C3599.24 2039.93 3597.97 2038.63 3596.69 2038.63C3595.73 2038.63 3594.46 2039.61 3594.14 2041.23L3568.98 2136.2C3568.34 2138.8 3566.75 2140.43 3563.88 2140.43H3541.59C3538.72 2140.43 3537.13 2138.8 3536.49 2136.2L3511.65 2041.55C3511.33 2039.92 3510.06 2038.95 3509.1 2038.95C3507.83 2038.95 3506.55 2040.25 3506.55 2042.2V2135.55C3506.55 2138.48 3504.64 2140.43 3501.77 2140.43H3468.33C3465.46 2140.43 3463.55 2138.48 3463.55 2135.55H3463.57Z" fill="#87A123"/>
<path d="M3669.92 2135.55V1917.63C3669.92 1914.7 3671.83 1912.75 3674.7 1912.75H3724.7C3727.57 1912.75 3729.48 1914.7 3729.48 1917.63V2135.55C3729.48 2138.48 3727.57 2140.43 3724.7 2140.43H3674.7C3671.83 2140.43 3669.92 2138.48 3669.92 2135.55Z" fill="#87A123"/>
<path d="M3748.58 2135.55V1917.63C3748.58 1914.7 3750.49 1912.75 3753.36 1912.75H3802.72C3868.64 1912.75 3884.88 1971.94 3884.88 2028.86C3884.88 2080.25 3878.51 2140.42 3802.08 2140.42H3753.36C3750.49 2140.42 3748.58 2138.47 3748.58 2135.54V2135.55ZM3837.11 1978.78C3837.11 1956.66 3822.46 1945.6 3814.5 1945.6C3811.63 1945.6 3809.41 1947.23 3809.41 1950.48V2006.42C3809.41 2011.62 3811.32 2013.58 3815.46 2013.58C3830.43 2013.25 3837.12 1992.44 3837.12 1978.78H3837.11Z" fill="#87A123"/>
<path d="M3879.58 2135.23L3920.98 1917.31C3921.62 1914.38 3923.85 1912.76 3926.71 1912.76H3994.54C3997.72 1912.76 3999.64 1914.06 4000.27 1916.99L4042.94 2135.23V2136.53C4042.94 2139.13 4041.03 2140.43 4038.16 2140.43H3988.8C3985.62 2140.43 3983.71 2139.13 3983.39 2135.88L3975.43 2087.74C3974.79 2084.49 3972.88 2083.19 3970.02 2083.19H3942C3938.82 2083.19 3937.22 2084.82 3936.59 2087.74L3926.08 2135.88C3925.44 2138.81 3923.85 2140.43 3920.67 2140.43H3884.37C3880.87 2140.43 3878.96 2138.8 3879.59 2135.23H3879.58ZM3967.15 2022.69L3961.74 1976.5C3961.1 1972.27 3959.51 1970.32 3957.6 1970.32C3956.01 1970.32 3954.1 1972.27 3953.46 1976.5L3947.09 2022.69V2023.34C3947.09 2026.59 3949.64 2027.89 3954.1 2027.89H3959.51C3964.61 2027.89 3967.79 2025.94 3967.15 2022.69Z" fill="#87A123"/>
</svg>
