<svg width="403" height="181" viewBox="0 0 403 181" fill="none" xmlns="http://www.w3.org/2000/svg">
<path d="M5.59034 23.5129L0.828199 6.05628V5.93111C0.828199 5.68076 1.03026 5.51708 1.39583 5.51708H6.35997C6.68707 5.51708 6.92757 5.67114 7.01415 5.93111L9.37118 14.0288C9.40966 14.1539 9.69828 14.1539 9.73676 14.0288L12.0938 5.93111C12.1708 5.68076 12.3824 5.51708 12.748 5.51708H17.7121C18.0777 5.51708 18.2797 5.73854 18.2028 6.05628L12.9115 23.5129C12.8345 23.7633 12.6229 23.9173 12.2573 23.9173H6.2349C5.86932 23.9173 5.6673 23.7633 5.58071 23.5129H5.59034Z" fill="#C83A8E"/>
<path d="M17.3081 18.092C17.3081 13.2103 18.934 5.51708 26.3032 5.51708C33.6725 5.51708 35.2117 13.2103 35.2117 18.092C35.2117 20.8651 33.8264 24.1773 26.3032 24.1773C18.78 24.1773 17.3081 20.8651 17.3081 18.092ZM28.4582 12.3245C28.4582 10.3988 27.4769 8.26123 26.3802 8.26123C24.9563 8.26123 24.1001 10.1869 24.1001 12.3245C24.1001 13.3933 24.9948 14.0865 26.3802 14.0865C27.602 14.0865 28.4582 13.3644 28.4582 12.3245Z" fill="#C83A8E"/>
<path d="M36.472 17.081C36.472 10.2447 40.503 5.44968 46.2368 5.44968C50.3448 5.44968 52.9134 7.68351 52.9134 11.2172C52.9134 11.535 52.6729 11.689 52.3073 11.689H48.363C47.9589 11.689 47.7953 11.4964 47.7953 11.1883C47.7953 9.01226 47.4683 8.19383 46.3715 8.19383C44.9092 8.19383 43.8894 9.64775 43.8894 11.6312C43.8894 13.6147 45.2748 14.1539 52.3939 14.1539C52.798 14.1539 53.0481 14.3465 53.0481 14.6257V23.4552C53.0481 23.7344 52.8076 23.927 52.442 23.927H47.4778C40.1567 23.927 36.4913 22.2227 36.4913 17.0907L36.472 17.081Z" fill="#C83A8E"/>
<path d="M54.6644 17.081C54.6644 13.3644 57.0694 5.39191 64.4291 5.39191C69.8839 5.39191 71.1057 7.62574 71.1057 11.2172C71.1057 11.535 70.8653 11.689 70.4997 11.689H62.7648C62.3992 11.689 62.1106 11.8142 62.1106 12.103C62.1106 13.5858 64.1886 14.1539 70.5766 14.1539C70.9807 14.1539 71.2308 14.3465 71.2308 14.6257V23.4552C71.2308 23.7344 70.9903 23.927 70.6247 23.927H65.6606C59.311 23.927 54.674 22.2612 54.674 17.0907L54.6644 17.081ZM64.179 3.14844C64.0155 3.14844 63.8519 3.17733 63.6498 3.24473L59.3399 4.91048C59.2148 4.93936 59.1379 4.97788 59.0513 4.97788C58.7627 4.97788 58.5991 4.82382 58.5991 4.57348V2.5611C58.5991 2.31076 58.7627 2.11818 59.0513 1.99301L63.5633 0.134693C63.7653 0.0384073 63.9288 0.00952148 64.1309 0.00952148C64.2944 0.00952148 64.4965 0.0384073 64.66 0.134693L69.1721 1.99301C69.4607 2.11818 69.6242 2.31076 69.6242 2.5611V4.61199C69.6242 4.86233 69.4607 5.02602 69.2201 5.02602C69.1432 5.02602 69.0181 5.02602 68.893 4.95862L64.6215 3.25436C64.458 3.18696 64.2945 3.15807 64.179 3.15807V3.14844ZM65.7279 8.88709C65.5259 8.48269 65.1603 8.19383 64.5446 8.19383C63.8134 8.19383 63.3228 8.44417 62.9572 8.8582C62.8802 8.95449 62.8321 9.05077 62.8321 9.10855C62.8321 9.30112 63.0342 9.42629 63.3612 9.42629H65.2373C65.6413 9.42629 65.8915 9.20483 65.7279 8.88709Z" fill="#C83A8E"/>
<path d="M81.4285 17.081C81.4285 10.2447 85.4595 5.44968 91.1933 5.44968C95.3012 5.44968 97.8699 7.68351 97.8699 11.2172C97.8699 11.535 97.6293 11.689 97.2638 11.689H93.3194C92.9153 11.689 92.7518 11.4964 92.7518 11.1883C92.7518 9.01226 92.4247 8.19383 91.3279 8.19383C89.8656 8.19383 88.8459 9.64775 88.8459 11.6312C88.8459 13.6147 90.2312 14.1539 97.3504 14.1539C97.7544 14.1539 98.0046 14.3465 98.0046 14.6257V23.4552C98.0046 23.7344 97.764 23.927 97.3985 23.927H92.4343C85.1132 23.927 81.4477 22.2227 81.4477 17.0907L81.4285 17.081Z" fill="#C83A8E"/>
<path d="M106.903 5.44968C108.818 5.44968 109.309 6.07554 109.309 6.46068C109.309 6.08517 109.472 5.51708 110.165 5.51708H115.899C116.428 5.51708 116.793 5.70965 116.793 5.98888V23.4455C116.793 23.7248 116.428 23.9173 115.899 23.9173H111.011C110.444 23.9173 110.078 23.7248 110.078 23.4455V22.8774C109.674 23.3781 108.731 23.9173 107.154 23.9173C103.613 23.9173 99.6689 22.1842 99.6689 14.9724C99.6689 10.9091 101.785 5.45931 106.913 5.45931L106.903 5.44968ZM109.299 13.5858V8.57897C109.299 8.35752 109.097 8.23234 108.731 8.23234C107.837 8.23234 105.922 9.58997 105.922 11.2557C105.922 13.4607 107.144 14.1539 108.491 14.1539C109.059 14.1539 109.309 13.9614 109.309 13.5858H109.299Z" fill="#C83A8E"/>
<path d="M118.737 23.4455V5.98888C118.737 5.70965 118.977 5.51708 119.343 5.51708H122.517C122.883 5.51708 123.124 5.70965 123.124 5.98888V8.00126C123.124 7.11543 125.279 5.47856 128.376 5.47856C133.013 5.47856 136.188 7.75091 136.188 12.5652V23.4359C136.188 23.7151 135.948 23.9077 135.582 23.9077H129.685C129.319 23.9077 129.079 23.7151 129.079 23.4359V15.5886C129.079 13.7014 128.713 12.883 127.491 12.883C126.27 12.883 125.904 13.7014 125.904 15.5886V23.4359C125.904 23.7151 125.663 23.9077 125.298 23.9077H119.352C118.987 23.9077 118.746 23.7151 118.746 23.4359L118.737 23.4455Z" fill="#C83A8E"/>
<path d="M138.43 23.4455V14.5583C138.43 14.2791 138.67 14.0865 139.036 14.0865C141.845 14.0865 143.182 13.9325 143.182 13.5184C143.182 13.2392 142.49 12.8252 141.191 12.2571C138.997 11.3135 138.055 10.4277 138.055 9.04115C138.055 7.46206 139.719 5.35339 145.828 5.35339C151.562 5.35339 153.765 7.15394 153.967 10.5817C153.967 10.8321 153.726 10.9958 153.361 10.9958H149.214C148.849 10.9958 148.608 10.8417 148.608 10.5817C148.608 9.41666 148.368 8.03014 146.29 8.03014C144.5 8.03014 144.212 9.07003 144.212 9.57072C144.212 12.44 155.073 11.5253 155.073 18.5542C155.073 21.2598 152.918 23.9077 144.741 23.9077H139.046C138.68 23.9077 138.439 23.7151 138.439 23.4359L138.43 23.4455Z" fill="#C83A8E"/>
<path d="M156.256 18.092C156.256 13.2103 157.882 5.51708 165.252 5.51708C172.621 5.51708 174.16 13.2103 174.16 18.092C174.16 20.8651 172.775 24.1773 165.252 24.1773C157.728 24.1773 156.256 20.8651 156.256 18.092ZM167.407 12.3245C167.407 10.3988 166.425 8.26123 165.329 8.26123C163.905 8.26123 163.049 10.1869 163.049 12.3245C163.049 13.3933 163.943 14.0865 165.329 14.0865C166.55 14.0865 167.407 13.3644 167.407 12.3245Z" fill="#C83A8E"/>
<path d="M175.699 17.9957V5.98888C175.699 5.70965 175.901 5.51708 176.267 5.51708H181.837C182.164 5.51708 182.405 5.70965 182.405 5.98888V12.0068C182.405 13.3933 182.405 14.1154 183.867 14.1154C185.33 14.1154 185.378 13.3933 185.378 12.0068V5.98888C185.378 5.70965 185.618 5.51708 185.945 5.51708H191.516C191.843 5.51708 192.083 5.70965 192.083 5.98888V23.4455C192.083 23.7248 191.843 23.9173 191.516 23.9173H189.688C189.322 23.9173 189.12 23.7248 189.12 23.4455V23.1663C187.898 23.7055 186.234 24.0521 183.954 24.0521C176.835 24.0521 175.69 20.8073 175.69 18.0054L175.699 17.9957Z" fill="#C83A8E"/>
<path d="M202.271 14.905C202.271 9.35889 205.523 6.01777 211.343 5.57485C211.709 5.54597 211.911 5.38228 211.911 5.10305V2.33001C211.911 2.05078 212.151 1.85821 212.517 1.85821H218.828C219.194 1.85821 219.434 2.05078 219.434 2.33001V23.4455C219.434 23.7248 219.194 23.9173 218.828 23.9173H212.844C205.523 23.9173 202.262 21.1443 202.262 14.905H202.271ZM211.911 13.5184V8.56934C211.911 8.34789 211.709 8.22272 211.382 8.22272C210.449 8.22272 208.573 9.1952 208.573 10.8706C208.573 12.546 209.554 14.0865 211.141 14.0865C211.67 14.0865 211.911 13.894 211.911 13.5184Z" fill="#C83A8E"/>
<path d="M221.07 17.081C221.07 13.3644 223.475 5.39191 230.834 5.39191C236.289 5.39191 237.511 7.62574 237.511 11.2172C237.511 11.535 237.27 11.689 236.905 11.689H229.17C228.804 11.689 228.516 11.8142 228.516 12.103C228.516 13.5858 230.594 14.1539 236.982 14.1539C237.386 14.1539 237.636 14.3465 237.636 14.6257V23.4552C237.636 23.7344 237.396 23.927 237.03 23.927H232.066C225.716 23.927 221.079 22.2612 221.079 17.0907L221.07 17.081ZM232.133 8.88709C231.931 8.48269 231.566 8.19383 230.95 8.19383C230.219 8.19383 229.728 8.44417 229.362 8.8582C229.285 8.95449 229.237 9.05077 229.237 9.10855C229.237 9.30112 229.439 9.42629 229.767 9.42629H231.643C232.047 9.42629 232.297 9.20483 232.133 8.88709Z" fill="#C83A8E"/>
<path d="M248.122 29.7523V5.98888C248.122 5.70965 248.363 5.51708 248.728 5.51708H254.991C263.207 5.51708 265.487 10.3121 265.487 14.905C265.487 18.8142 264.756 23.3492 256.492 23.8499C256.088 23.8788 255.886 24.0714 255.886 24.3506V29.7426C255.886 30.0219 255.646 30.2144 255.28 30.2144H248.728C248.363 30.2144 248.122 30.0219 248.122 29.7426V29.7523ZM259.186 10.8706C259.186 9.23372 257.31 8.2516 256.377 8.2516C255.925 8.2516 255.886 8.47306 255.886 8.7234V13.451C255.886 13.6436 255.886 13.8266 256.05 13.9517C256.213 14.048 256.377 14.0769 256.617 14.0769C258.57 14.0769 259.186 12.6326 259.186 10.8609V10.8706Z" fill="#C83A8E"/>
<path d="M267.123 4.03428V2.33001C267.123 2.05078 267.363 1.85821 267.729 1.85821H273.626C273.992 1.85821 274.232 2.05078 274.232 2.33001V4.03428C274.232 4.3135 273.992 4.50608 273.626 4.50608H267.729C267.363 4.50608 267.123 4.3135 267.123 4.03428ZM267.123 23.4455V5.98888C267.123 5.70965 267.363 5.51708 267.729 5.51708H273.626C273.992 5.51708 274.232 5.70965 274.232 5.98888V23.4455C274.232 23.7248 273.992 23.9173 273.626 23.9173H267.729C267.363 23.9173 267.123 23.7248 267.123 23.4455Z" fill="#C83A8E"/>
<path d="M276.031 17.8417V15.0012C276.031 14.7798 276.108 14.5968 276.358 14.4043L282.583 9.67663C282.66 9.60923 282.708 9.55146 282.708 9.48406C282.708 9.33 282.381 9.23372 281.89 9.23372H276.724C276.358 9.23372 276.118 9.04115 276.118 8.76192V5.98888C276.118 5.70965 276.358 5.51708 276.724 5.51708H291.126C291.491 5.51708 291.732 5.70965 291.732 5.98888V7.25023C291.732 7.47168 291.655 7.69314 291.443 7.8472L285.017 13.6147C284.94 13.6821 284.892 13.7688 284.892 13.8362C284.892 13.9902 285.18 14.0865 285.661 14.0865H291.03C291.395 14.0865 291.636 14.2791 291.636 14.5583V23.4455C291.636 23.7248 291.395 23.9173 291.03 23.9173H285.411C277.234 23.9173 276.012 20.6725 276.012 17.8321L276.031 17.8417Z" fill="#C83A8E"/>
<path d="M293.367 17.8417V15.0012C293.367 14.7798 293.444 14.5968 293.695 14.4043L299.919 9.67663C299.996 9.60923 300.044 9.55146 300.044 9.48406C300.044 9.33 299.717 9.23372 299.226 9.23372H294.06C293.694 9.23372 293.454 9.04115 293.454 8.76192V5.98888C293.454 5.70965 293.694 5.51708 294.06 5.51708H308.462C308.828 5.51708 309.068 5.70965 309.068 5.98888V7.25023C309.068 7.47168 308.991 7.69314 308.779 7.8472L302.353 13.6147C302.276 13.6821 302.228 13.7688 302.228 13.8362C302.228 13.9902 302.517 14.0865 302.998 14.0865H308.366C308.731 14.0865 308.972 14.2791 308.972 14.5583V23.4455C308.972 23.7248 308.731 23.9173 308.366 23.9173H302.747C294.57 23.9173 293.348 20.6725 293.348 17.8321L293.367 17.8417Z" fill="#C83A8E"/>
<path d="M317.813 5.44968C319.727 5.44968 320.218 6.07554 320.218 6.46068C320.218 6.08517 320.382 5.51708 321.074 5.51708H326.808C327.337 5.51708 327.703 5.70965 327.703 5.98888V23.4455C327.703 23.7248 327.337 23.9173 326.808 23.9173H321.921C321.353 23.9173 320.988 23.7248 320.988 23.4455V22.8774C320.584 23.3781 319.641 23.9173 318.063 23.9173C314.523 23.9173 310.578 22.1842 310.578 14.9724C310.578 10.9091 312.695 5.45931 317.823 5.45931L317.813 5.44968ZM320.218 13.5858V8.57897C320.218 8.35752 320.016 8.23234 319.651 8.23234C318.756 8.23234 316.841 9.58997 316.841 11.2557C316.841 13.4607 318.063 14.1539 319.41 14.1539C319.978 14.1539 320.228 13.9614 320.228 13.5858H320.218Z" fill="#C83A8E"/>
<path d="M1.15532 54.8925C1.15532 51.1759 3.5604 43.2034 10.9201 43.2034C16.3749 43.2034 17.5967 45.4372 17.5967 49.0287C17.5967 49.3465 17.3562 49.5005 16.9906 49.5005H9.25574C8.89016 49.5005 8.60155 49.6257 8.60155 49.9049C8.60155 51.3877 10.6796 51.9558 17.0676 51.9558C17.4716 51.9558 17.7217 52.1484 17.7217 52.4276V61.2474C17.7217 61.5266 17.4812 61.7192 17.1156 61.7192H12.1515C5.802 61.7192 1.16495 60.0438 1.16495 54.8829L1.15532 54.8925ZM12.2285 46.6986C12.0265 46.2846 11.6608 46.0053 11.0451 46.0053C10.314 46.0053 9.82337 46.2557 9.45779 46.6697C9.38083 46.766 9.33272 46.8623 9.33272 46.9201C9.33272 47.1126 9.53474 47.2378 9.86183 47.2378H11.7378C12.1419 47.2378 12.392 47.0163 12.2285 46.6986Z" fill="#C83A8E"/>
<path d="M28.2177 61.2667V40.1511C28.2177 39.8719 28.4582 39.6793 28.8238 39.6793H35.1348C35.5004 39.6793 35.7409 39.8719 35.7409 40.1511V42.9242C35.7409 43.2034 35.9429 43.3671 36.3085 43.396C42.1289 43.8389 45.3806 47.18 45.3806 52.7261C45.3806 58.9654 42.1289 61.7385 34.7981 61.7385H28.8142C28.4486 61.7385 28.2081 61.5459 28.2081 61.2667H28.2177ZM39.0792 48.6917C39.0792 46.8912 37.3283 46.015 36.3566 46.015C35.991 46.015 35.7505 46.1401 35.7505 46.3905V51.3396C35.7505 51.744 36.0392 51.9077 36.5202 51.9077C38.4731 51.9077 39.0888 50.1745 39.0888 48.6917H39.0792Z" fill="#C83A8E"/>
<path d="M53.9717 43.2708C55.8861 43.2708 56.3768 43.8967 56.3768 44.2818C56.3768 43.9063 56.5403 43.3382 57.233 43.3382H62.9668C63.496 43.3382 63.8615 43.5308 63.8615 43.81V61.2667C63.8615 61.5459 63.496 61.7385 62.9668 61.7385H58.0796C57.512 61.7385 57.1465 61.5459 57.1465 61.2667V60.6986C56.7424 61.1993 55.7995 61.7385 54.2122 61.7385C50.6718 61.7385 46.7275 60.0053 46.7275 52.7839C46.7275 48.7206 48.8439 43.2708 53.9717 43.2708ZM56.3672 51.3973V46.3905C56.3672 46.169 56.1651 46.0438 55.7996 46.0438C54.9049 46.0438 52.9904 47.4015 52.9904 49.0672C52.9904 51.2722 54.2122 51.9654 55.5494 51.9654C56.117 51.9654 56.3672 51.7729 56.3672 51.3973Z" fill="#C83A8E"/>
<path d="M67.3922 58.3685V47.3726C67.3922 47.0934 67.1517 46.9008 66.7861 46.9008H65.6894C65.3239 46.9008 65.0833 46.7082 65.0833 46.429V43.81C65.0833 43.5308 65.3239 43.3382 65.6894 43.3382H66.7861C67.1517 43.3382 67.3922 43.1456 67.3922 42.8664V40.1608C67.3922 39.8815 67.6327 39.689 67.9983 39.689H73.7321C74.0977 39.689 74.3382 39.8815 74.3382 40.1608V42.8664C74.3382 43.1456 74.5787 43.3382 74.9443 43.3382H78.2441C78.6097 43.3382 78.8502 43.5308 78.8502 43.81V46.429C78.8502 46.7082 78.6097 46.9008 78.2441 46.9008H74.9443C74.5787 46.9008 74.3382 47.0934 74.3382 47.3726V50.4923C74.3382 51.5033 75.3965 51.9077 78.2441 51.9077C78.6097 51.9077 78.8502 52.1002 78.8502 52.3795V58.561C78.8502 60.8911 76.6086 61.8733 72.9913 61.8733C69.374 61.8733 67.373 60.6408 67.373 58.3781L67.3922 58.3685Z" fill="#C83A8E"/>
<path d="M80.4568 54.8925C80.4568 51.1759 82.862 43.2034 90.2216 43.2034C95.6764 43.2034 96.8982 45.4372 96.8982 49.0287C96.8982 49.3465 96.6577 49.5005 96.2922 49.5005H88.5573C88.1917 49.5005 87.9031 49.6257 87.9031 49.9049C87.9031 51.3877 89.9811 51.9558 96.3691 51.9558C96.7731 51.9558 97.0233 52.1484 97.0233 52.4276V61.2474C97.0233 61.5266 96.7827 61.7192 96.4172 61.7192H91.453C85.1035 61.7192 80.4665 60.0438 80.4665 54.8829L80.4568 54.8925ZM91.5204 46.6986C91.3183 46.2846 90.9528 46.0053 90.3371 46.0053C89.6059 46.0053 89.1153 46.2557 88.7497 46.6697C88.6727 46.766 88.6246 46.8623 88.6246 46.9201C88.6246 47.1126 88.8266 47.2378 89.1537 47.2378H91.0297C91.4338 47.2378 91.6839 47.0163 91.5204 46.6986Z" fill="#C83A8E"/>
<path d="M98.9666 55.8072V43.8004C98.9666 43.5212 99.1687 43.3286 99.5342 43.3286H105.104C105.432 43.3286 105.672 43.5212 105.672 43.8004V49.8183C105.672 51.2048 105.672 51.9269 107.134 51.9269C108.597 51.9269 108.645 51.2048 108.645 49.8183V43.8004C108.645 43.5212 108.885 43.3286 109.212 43.3286H114.783C115.11 43.3286 115.35 43.5212 115.35 43.8004V61.257C115.35 61.5363 115.11 61.7288 114.783 61.7288H112.955C112.589 61.7288 112.387 61.5363 112.387 61.257V60.9778C111.165 61.517 109.501 61.8636 107.221 61.8636C100.102 61.8636 98.957 58.6188 98.957 55.8169L98.9666 55.8072Z" fill="#C83A8E"/>
<path d="M126.144 61.2667V52.3795C126.144 52.1002 126.385 51.9077 126.751 51.9077C129.56 51.9077 130.897 51.7536 130.897 51.3396C130.897 51.0603 130.204 50.6463 128.906 50.0782C126.712 49.1346 125.769 48.2488 125.769 46.8623C125.769 45.2832 127.434 43.1745 133.543 43.1745C139.276 43.1745 141.479 44.9751 141.682 48.4029C141.682 48.6532 141.441 48.8073 141.075 48.8073H136.929C136.563 48.8073 136.323 48.6532 136.323 48.4029C136.323 47.2378 136.082 45.8513 134.004 45.8513C132.215 45.8513 131.926 46.8912 131.926 47.3919C131.926 50.2612 142.788 49.3465 142.788 56.3753C142.788 59.081 140.633 61.7288 132.455 61.7288H126.76C126.395 61.7288 126.154 61.5363 126.154 61.257L126.144 61.2667Z" fill="#C83A8E"/>
<path d="M151.331 43.2708C153.245 43.2708 153.736 43.8967 153.736 44.2818C153.736 43.9063 153.899 43.3382 154.592 43.3382H160.326C160.855 43.3382 161.221 43.5308 161.221 43.81V61.2667C161.221 61.5459 160.855 61.7385 160.326 61.7385H155.439C154.871 61.7385 154.506 61.5459 154.506 61.2667V60.6986C154.101 61.1993 153.159 61.7385 151.571 61.7385C148.031 61.7385 144.087 60.0053 144.087 52.7839C144.087 48.7206 146.203 43.2708 151.331 43.2708ZM153.726 51.3973V46.3905C153.726 46.169 153.524 46.0438 153.159 46.0438C152.264 46.0438 150.35 47.4015 150.35 49.0672C150.35 51.2722 151.571 51.9654 152.918 51.9654C153.486 51.9654 153.736 51.7729 153.736 51.3973H153.726Z" fill="#C83A8E"/>
<path d="M163.174 55.8072V43.8004C163.174 43.5212 163.376 43.3286 163.741 43.3286H169.311C169.639 43.3286 169.879 43.5212 169.879 43.8004V49.8183C169.879 51.2048 169.879 51.9269 171.341 51.9269C172.804 51.9269 172.852 51.2048 172.852 49.8183V43.8004C172.852 43.5212 173.092 43.3286 173.419 43.3286H178.99C179.317 43.3286 179.557 43.5212 179.557 43.8004V61.257C179.557 61.5363 179.317 61.7288 178.99 61.7288H177.162C176.796 61.7288 176.594 61.5363 176.594 61.257V60.9778C175.372 61.517 173.708 61.8636 171.428 61.8636C164.309 61.8636 163.164 58.6188 163.164 55.8169L163.174 55.8072Z" fill="#C83A8E"/>
<path d="M181.193 52.7261C181.193 47.18 184.444 43.8389 190.265 43.396C190.63 43.3671 190.832 43.2034 190.832 42.9242V40.1511C190.832 39.8719 191.073 39.6793 191.439 39.6793H197.75C198.115 39.6793 198.356 39.8719 198.356 40.1511V61.2667C198.356 61.5459 198.115 61.7385 197.75 61.7385H191.766C184.444 61.7385 181.183 58.9654 181.183 52.7261H181.193ZM190.832 51.3396V46.3905C190.832 46.169 190.63 46.0438 190.303 46.0438C189.37 46.0438 187.494 47.0163 187.494 48.6917C187.494 50.3671 188.475 51.9077 190.063 51.9077C190.592 51.9077 190.832 51.7151 190.832 51.3396Z" fill="#C83A8E"/>
<path d="M207.274 43.2708C209.188 43.2708 209.679 43.8967 209.679 44.2818C209.679 43.9063 209.843 43.3382 210.535 43.3382H216.269C216.798 43.3382 217.164 43.5308 217.164 43.81V61.2667C217.164 61.5459 216.798 61.7385 216.269 61.7385H211.382C210.814 61.7385 210.449 61.5459 210.449 61.2667V60.6986C210.045 61.1993 209.102 61.7385 207.524 61.7385C203.984 61.7385 200.039 60.0053 200.039 52.7839C200.039 48.7206 202.156 43.2708 207.283 43.2708H207.274ZM209.669 51.3973V46.3905C209.669 46.169 209.467 46.0438 209.102 46.0438C208.207 46.0438 206.293 47.4015 206.293 49.0672C206.293 51.2722 207.514 51.9654 208.861 51.9654C209.429 51.9654 209.679 51.7729 209.679 51.3973H209.669Z" fill="#C83A8E"/>
<path d="M218.79 52.7261C218.79 47.18 222.041 43.8389 227.862 43.396C228.227 43.3671 228.429 43.2034 228.429 42.9242V40.1511C228.429 39.8719 228.67 39.6793 229.035 39.6793H235.346C235.712 39.6793 235.952 39.8719 235.952 40.1511V61.2667C235.952 61.5459 235.712 61.7385 235.346 61.7385H229.362C222.041 61.7385 218.78 58.9654 218.78 52.7261H218.79ZM228.429 51.3396V46.3905C228.429 46.169 228.227 46.0438 227.9 46.0438C226.967 46.0438 225.091 47.0163 225.091 48.6917C225.091 50.3671 226.072 51.9077 227.66 51.9077C228.189 51.9077 228.429 51.7151 228.429 51.3396Z" fill="#C83A8E"/>
<path d="M237.578 54.8925C237.578 51.1759 239.983 43.2034 247.343 43.2034C252.798 43.2034 254.02 45.4372 254.02 49.0287C254.02 49.3465 253.779 49.5005 253.414 49.5005H245.679C245.313 49.5005 245.025 49.6257 245.025 49.9049C245.025 51.3877 247.103 51.9558 253.491 51.9558C253.895 51.9558 254.145 52.1484 254.145 52.4276V61.2474C254.145 61.5266 253.904 61.7192 253.539 61.7192H248.575C242.225 61.7192 237.588 60.0438 237.588 54.8829L237.578 54.8925ZM248.652 46.6986C248.449 46.2846 248.084 46.0053 247.468 46.0053C246.737 46.0053 246.246 46.2557 245.881 46.6697C245.804 46.766 245.756 46.8623 245.756 46.9201C245.756 47.1126 245.958 47.2378 246.285 47.2378H248.161C248.565 47.2378 248.815 47.0163 248.652 46.6986Z" fill="#C83A8E"/>
<path d="M264.314 52.7261C264.314 47.18 267.565 43.8389 273.386 43.396C273.751 43.3671 273.953 43.2034 273.953 42.9242V40.1511C273.953 39.8719 274.194 39.6793 274.559 39.6793H280.87C281.236 39.6793 281.477 39.8719 281.477 40.1511V61.2667C281.477 61.5459 281.236 61.7385 280.87 61.7385H274.887C267.565 61.7385 264.304 58.9654 264.304 52.7261H264.314ZM273.953 51.3396V46.3905C273.953 46.169 273.751 46.0438 273.424 46.0438C272.491 46.0438 270.615 47.0163 270.615 48.6917C270.615 50.3671 271.596 51.9077 273.184 51.9077C273.713 51.9077 273.953 51.7151 273.953 51.3396Z" fill="#C83A8E"/>
<path d="M283.112 54.8925C283.112 51.1759 285.517 43.2034 292.877 43.2034C298.332 43.2034 299.553 45.4372 299.553 49.0287C299.553 49.3465 299.313 49.5005 298.947 49.5005H291.212C290.847 49.5005 290.558 49.6257 290.558 49.9049C290.558 51.3877 292.636 51.9558 299.024 51.9558C299.428 51.9558 299.678 52.1484 299.678 52.4276V61.2474C299.678 61.5266 299.438 61.7192 299.072 61.7192H294.108C287.759 61.7192 283.122 60.0438 283.122 54.8829L283.112 54.8925ZM294.176 46.6986C293.974 46.2846 293.608 46.0053 292.992 46.0053C292.261 46.0053 291.77 46.2557 291.405 46.6697C291.328 46.766 291.28 46.8623 291.28 46.9201C291.28 47.1126 291.482 47.2378 291.809 47.2378H293.685C294.089 47.2378 294.339 47.0163 294.176 46.6986Z" fill="#C83A8E"/>
<path d="M1.48238 99.0781V77.9626C1.48238 77.6834 1.7229 77.4908 2.08848 77.4908H8.3995C8.76508 77.4908 9.0056 77.6834 9.0056 77.9626V80.7357C9.0056 81.0149 9.20765 81.1786 9.57323 81.2075C15.3936 81.6504 18.6453 84.9915 18.6453 90.5376C18.6453 96.7769 15.3936 99.5499 8.06281 99.5499H2.07885C1.71327 99.5499 1.47281 99.3574 1.47281 99.0781H1.48238ZM12.3439 86.5032C12.3439 84.7026 10.593 83.8264 9.62132 83.8264C9.25574 83.8264 9.01523 83.9516 9.01523 84.202V89.1511C9.01523 89.5555 9.30383 89.7192 9.78485 89.7192C11.7378 89.7192 12.3439 87.986 12.3439 86.5032Z" fill="#C83A8E"/>
<path d="M27.2364 81.0823C29.1509 81.0823 29.6415 81.7082 29.6415 82.0933C29.6415 81.7178 29.8051 81.1497 30.4978 81.1497H36.2315C36.7606 81.1497 37.1263 81.3423 37.1263 81.6215V99.0782C37.1263 99.3574 36.7606 99.55 36.2315 99.55H31.3444C30.7767 99.55 30.4111 99.3574 30.4111 99.0782V98.5101C30.0071 99.0108 29.0643 99.55 27.4769 99.55C23.9366 99.55 19.9922 97.8168 19.9922 90.5954C19.9922 86.5321 22.1087 81.0823 27.2364 81.0823ZM29.6415 89.2185V84.2116C29.6415 83.9901 29.4395 83.865 29.0739 83.865C28.1792 83.865 26.2647 85.2226 26.2647 86.8884C26.2647 89.0933 27.4866 89.7866 28.8238 89.7866C29.3914 89.7866 29.6415 89.594 29.6415 89.2185Z" fill="#C83A8E"/>
<path d="M39.0792 79.6669V77.9626C39.0792 77.6834 39.3197 77.4908 39.6853 77.4908H45.5826C45.9482 77.4908 46.1887 77.6834 46.1887 77.9626V79.6669C46.1887 79.9461 45.9482 80.1387 45.5826 80.1387H39.6853C39.3197 80.1387 39.0792 79.9461 39.0792 79.6669ZM39.0792 99.0781V81.6215C39.0792 81.3423 39.3197 81.1497 39.6853 81.1497H45.5826C45.9482 81.1497 46.1887 81.3423 46.1887 81.6215V99.0781C46.1887 99.3574 45.9482 99.5499 45.5826 99.5499H39.6853C39.3197 99.5499 39.0792 99.3574 39.0792 99.0781Z" fill="#C83A8E"/>
<path d="M55.1069 81.0823C57.0214 81.0823 57.512 81.7082 57.512 82.0933C57.512 81.7178 57.6755 81.1497 58.3682 81.1497H64.102C64.6312 81.1497 64.9967 81.3423 64.9967 81.6215V99.0782C64.9967 99.3574 64.6312 99.55 64.102 99.55H59.2148C58.6472 99.55 58.2817 99.3574 58.2817 99.0782V98.5101C57.8776 99.0108 56.9348 99.55 55.357 99.55C51.8167 99.55 47.8723 97.8168 47.8723 90.5954C47.8723 86.5321 49.9888 81.0823 55.1165 81.0823H55.1069ZM52.2208 79.9846C52.1823 79.7921 52.1823 79.638 52.1823 79.484C52.1823 78.0012 53.7312 76.8072 55.7226 76.8072C57.8391 76.8072 59.9171 78.2226 60.9273 78.2226C61.3314 78.2226 61.5815 78.0012 61.5815 77.3753V77.279C61.5815 76.9998 61.9086 76.8072 62.3992 76.8072H62.7648C63.2554 76.8072 63.5344 76.9324 63.6595 77.2212C63.698 77.5005 63.7845 77.7604 63.7845 78.0108C63.7845 79.3395 62.7648 80.3409 60.6483 80.3409C58.4067 80.3409 57.6756 78.9544 56.2902 78.9544C55.3955 78.9544 54.8664 79.5514 54.6259 79.9943C54.4624 80.2735 54.2603 80.3987 53.7697 80.3987H53.077C52.5863 80.3987 52.2593 80.2735 52.2208 79.9943V79.9846ZM57.512 89.2185V84.2116C57.512 83.9901 57.31 83.865 56.9444 83.865C56.0497 83.865 54.1353 85.2226 54.1353 86.8883C54.1353 89.0933 55.357 89.7866 56.7039 89.7866C57.2715 89.7866 57.5216 89.594 57.5216 89.2185H57.512Z" fill="#C83A8E"/>
<path d="M66.536 93.7246C66.536 88.8429 68.1619 81.1497 75.5312 81.1497C82.9004 81.1497 84.4397 88.8429 84.4397 93.7246C84.4397 96.4977 83.0544 99.8099 75.5312 99.8099C68.008 99.8099 66.536 96.4977 66.536 93.7246ZM77.6861 87.9571C77.6861 86.0314 76.7049 83.8939 75.6081 83.8939C74.1843 83.8939 73.328 85.8196 73.328 87.9571C73.328 89.0259 74.2228 89.7192 75.6081 89.7192C76.8299 89.7192 77.6861 88.997 77.6861 87.9571Z" fill="#C83A8E"/>
<path d="M94.2045 90.5376C94.2045 84.9915 97.4562 81.6504 103.277 81.2075C103.642 81.1786 103.844 81.0149 103.844 80.7357V77.9626C103.844 77.6834 104.085 77.4908 104.45 77.4908H110.761C111.127 77.4908 111.367 77.6834 111.367 77.9626V99.0781C111.367 99.3574 111.127 99.5499 110.761 99.5499H104.777C97.4562 99.5499 94.1948 96.7769 94.1948 90.5376H94.2045ZM103.854 89.1511V84.202C103.854 83.9805 103.652 83.8553 103.325 83.8553C102.392 83.8553 100.515 84.8278 100.515 86.5032C100.515 88.1786 101.497 89.7192 103.084 89.7192C103.613 89.7192 103.854 89.5266 103.854 89.1511Z" fill="#C83A8E"/>
<path d="M113.003 92.7137C113.003 88.997 115.408 81.0245 122.768 81.0245C128.222 81.0245 129.444 83.2584 129.444 86.8498C129.444 87.1676 129.204 87.3216 128.838 87.3216H121.103C120.738 87.3216 120.449 87.4468 120.449 87.726C120.449 89.2088 122.527 89.7769 128.915 89.7769C129.319 89.7769 129.569 89.9695 129.569 90.2487V99.0685C129.569 99.3478 129.329 99.5403 128.963 99.5403H123.999C117.65 99.5403 113.012 97.8649 113.012 92.704L113.003 92.7137ZM124.066 84.5197C123.864 84.1057 123.499 83.8265 122.883 83.8265C122.152 83.8265 121.661 84.0768 121.296 84.4908C121.219 84.5871 121.171 84.6834 121.171 84.7412C121.171 84.9337 121.373 85.0589 121.7 85.0589H123.576C123.98 85.0589 124.23 84.8375 124.066 84.5197Z" fill="#C83A8E"/>
<path d="M140.258 99.0782V92.8677C140.258 84.9915 150.513 85.8388 150.513 81.6504C150.513 81.0534 150.186 80.235 148.435 80.235C146.357 80.235 146.117 81.4963 146.117 82.9406C146.117 83.2199 145.876 83.4124 145.51 83.4124H141.364C140.998 83.4124 140.758 83.2199 140.758 82.9406V82.9117C140.758 78.6848 143.115 77.2116 148.858 77.2116C154.958 77.2116 156.391 79.4454 156.391 81.4386C156.391 82.4111 155.699 83.8072 153.505 85.0011C151.879 85.887 151.061 86.5128 151.061 86.9557C151.061 87.5527 152.61 87.8031 155.949 87.8031C156.314 87.8031 156.555 87.9956 156.555 88.2749V99.0878C156.555 99.367 156.314 99.5596 155.949 99.5596H140.893C140.527 99.5596 140.287 99.367 140.287 99.0878L140.258 99.0782Z" fill="#C83A8E"/>
<path d="M162.798 88.0149V87.9475C162.798 84.953 168.58 84.4138 168.58 81.8622C168.58 81.1016 168.09 80.572 166.627 80.572C165.165 80.572 164.511 81.0727 164.511 82.5266C164.511 82.8058 164.27 82.9984 163.905 82.9984H159.547C159.181 82.9984 158.941 82.8058 158.941 82.5266V82.4977C158.941 79.1566 162.077 77.3945 166.589 77.3945C170.533 77.3945 174.805 78.9736 174.805 81.7756C174.805 84.7701 170.61 85.7811 170.61 87.986V88.0149C170.61 88.2941 170.37 88.4867 170.004 88.4867H163.414C163.049 88.4867 162.808 88.2941 162.808 88.0149H162.798ZM162.798 99.0782V89.9695C162.798 89.6903 163.039 89.4977 163.405 89.4977H169.995C170.36 89.4977 170.601 89.6903 170.601 89.9695V99.0782C170.601 99.3574 170.36 99.5499 169.995 99.5499H163.405C163.039 99.5499 162.798 99.3574 162.798 99.0782Z" fill="#C83A8E"/>
<path d="M183.348 99.0493L188.639 77.9338C188.716 77.6545 189.005 77.4908 189.37 77.4908H198.038C198.442 77.4908 198.692 77.616 198.769 77.9049L204.224 99.0493V99.1744C204.224 99.4248 203.984 99.5499 203.618 99.5499H197.307C196.903 99.5499 196.653 99.4248 196.614 99.107L195.595 94.4468C195.518 94.129 195.268 94.0039 194.902 94.0039H191.323C190.919 94.0039 190.717 94.1579 190.63 94.4468L189.284 99.107C189.207 99.3863 188.995 99.5499 188.591 99.5499H183.954C183.511 99.5499 183.261 99.3959 183.348 99.0493ZM194.536 88.1401L193.844 83.6628C193.767 83.2487 193.555 83.0658 193.315 83.0658C193.112 83.0658 192.872 83.2584 192.785 83.6628L191.968 88.1401V88.2075C191.968 88.5252 192.295 88.6504 192.862 88.6504H193.555C194.209 88.6504 194.613 88.4578 194.527 88.1497L194.536 88.1401Z" fill="#C83A8E"/>
<path d="M213.046 90.1332C213.046 83.7687 215.49 77.3368 223.542 77.3368C228.872 77.3368 231.604 80.0809 231.604 82.6036C231.604 83.0754 231.238 83.0754 230.709 83.0754H227.294C226.726 83.0754 226.361 83.0754 226.361 82.6036C226.361 81.4097 225.139 80.7164 223.677 80.7164C220.954 80.7164 220.338 83.2391 220.338 85.0686C220.338 87.9956 221.685 88.8815 223.792 88.8815C224.85 88.8815 226.438 88.7852 226.438 87.3409C226.438 87.0617 226.072 86.8691 225.505 86.8691H223.629C223.061 86.8691 223.023 86.8017 223.023 86.3973V84.8567C223.023 84.5775 223.388 84.3849 223.917 84.3849H230.998C231.566 84.3849 231.931 84.5775 231.931 84.8567V99.0974C231.931 99.3766 231.566 99.5692 230.998 99.5692H228.92C228.391 99.5692 228.025 99.3766 228.025 99.0974V98.876C228.025 98.2501 226.438 99.6366 221.926 99.6366C215.499 99.6366 213.056 96.7962 213.056 90.1524L213.046 90.1332Z" fill="#C83A8E"/>
<path d="M246.044 99.5499H239.983C236.443 99.5499 234.365 98.0671 234.365 95.2941V77.9626C234.365 77.6834 234.731 77.4908 235.298 77.4908H245.717C246.285 77.4908 246.65 77.6834 246.65 77.9626V80.2639C246.65 80.5431 246.285 80.7357 245.717 80.7357H243.033C242.504 80.7357 242.138 80.9282 242.138 81.2075V82.5266C242.138 82.8058 242.504 82.9984 243.033 82.9984H244.823C245.352 82.9984 245.717 83.191 245.717 83.4702V85.7714C245.717 86.0507 245.352 86.2432 244.823 86.2432H243.033C242.504 86.2432 242.138 86.3684 242.138 86.3973V87.3698C242.138 87.649 242.504 87.8416 243.033 87.8416H246.044C246.573 87.8416 246.939 88.0341 246.939 88.3134V99.0589C246.939 99.3381 246.573 99.5307 246.044 99.5307V99.5499Z" fill="#C83A8E"/>
<path d="M249.383 77.9626C249.383 77.6834 249.623 77.4908 249.989 77.4908H255.848C256.175 77.4908 256.415 77.5871 256.54 77.8663L260.408 86.1277C260.485 86.3203 260.648 86.4069 260.773 86.4069C260.937 86.4069 261.1 86.2817 261.1 86.0314V77.9626C261.1 77.6834 261.341 77.4908 261.707 77.4908H265.978C266.344 77.4908 266.584 77.6834 266.584 77.9626V99.0781C266.584 99.3574 266.344 99.5499 265.978 99.5499H260.119C259.792 99.5499 259.551 99.4537 259.426 99.1744L255.559 90.1332C255.482 89.9406 255.318 89.854 255.193 89.854C255.03 89.854 254.866 89.9791 254.866 90.2006V99.0878C254.866 99.367 254.626 99.5596 254.26 99.5596H249.989C249.623 99.5596 249.383 99.367 249.383 99.0878V77.9626Z" fill="#C83A8E"/>
<path d="M279.004 86.1566C279.004 87.6683 280.303 87.8608 282.506 87.8608C282.91 87.8608 283.112 88.0534 283.112 88.3326V95.3615C283.112 98.202 280.87 99.7714 277.292 99.7714C273.713 99.7714 271.673 98.2308 271.673 95.4578V81.3712H269.355C268.989 81.3712 268.749 81.1786 268.749 80.8994V77.9723C268.749 77.6931 268.989 77.5005 269.355 77.5005H282.535C282.9 77.5005 283.141 77.6931 283.141 77.9723V80.8994C283.141 81.1786 282.9 81.3712 282.535 81.3712H278.994V86.1662L279.004 86.1566Z" fill="#C83A8E"/>
<path d="M297.273 99.5499H291.212C287.672 99.5499 285.594 98.0671 285.594 95.2941V77.9626C285.594 77.6834 285.96 77.4908 286.527 77.4908H296.946C297.514 77.4908 297.879 77.6834 297.879 77.9626V80.2639C297.879 80.5431 297.514 80.7357 296.946 80.7357H294.262C293.733 80.7357 293.367 80.9282 293.367 81.2075V82.5266C293.367 82.8058 293.733 82.9984 294.262 82.9984H296.052C296.581 82.9984 296.946 83.191 296.946 83.4702V85.7714C296.946 86.0507 296.581 86.2432 296.052 86.2432H294.262C293.733 86.2432 293.367 86.3684 293.367 86.3973V87.3698C293.367 87.649 293.733 87.8416 294.262 87.8416H297.273C297.802 87.8416 298.168 88.0341 298.168 88.3134V99.0589C298.168 99.3381 297.802 99.5307 297.273 99.5307V99.5499Z" fill="#C83A8E"/>
<path d="M309.395 99.0782V88.2652C309.395 87.986 309.636 87.7934 310.001 87.7934C313.667 87.7934 314.888 87.6009 314.888 86.9461C314.888 85.4633 309.03 85.6559 309.03 81.7467C309.03 80.0135 310.982 77.2116 317.091 77.2116C322.825 77.2116 325.23 78.627 325.23 82.9117V82.9406C325.23 83.2199 324.99 83.4124 324.624 83.4124H320.478C320.112 83.4124 319.872 83.2199 319.872 82.9406C319.872 81.4867 319.67 80.235 317.553 80.235C315.841 80.235 315.475 81.2075 315.475 81.9681C315.475 86.0025 326.337 84.5197 326.337 92.8677C326.337 97.6628 322.719 99.55 316.004 99.55H310.02C309.655 99.55 309.414 99.3574 309.414 99.0782H309.395Z" fill="#C83A8E"/>
<path d="M328.145 92.4248V77.9626C328.145 77.6834 328.386 77.4908 328.751 77.4908H335.303C335.669 77.4908 335.909 77.6834 335.909 77.9626V85.6848C335.909 87.3216 335.909 88.1401 337.497 88.1401C339.084 88.1401 339.084 87.3216 339.084 85.6848V77.9626C339.084 77.6834 339.324 77.4908 339.69 77.4908H346.203C346.569 77.4908 346.809 77.6834 346.809 77.9626V92.4248C346.809 95.7948 345.712 99.704 337.535 99.704C329.358 99.704 328.136 95.7948 328.136 92.4248H328.145Z" fill="#C83A8E"/>
<path d="M349.262 99.0781V77.9626C349.262 77.6834 349.503 77.4908 349.868 77.4908H357.19C362.847 77.4908 366.993 79.5995 366.993 83.3835C366.993 88.3326 361.827 90.3835 357.834 90.3835C357.228 90.3835 356.94 90.5761 356.94 90.8553V99.0781C356.94 99.3574 356.699 99.5499 356.333 99.5499H349.859C349.493 99.5499 349.253 99.3574 349.253 99.0781H349.262ZM357.324 86.4069C358.257 86.4069 360.624 85.5211 360.624 83.4124C360.624 81.7082 358.469 80.6683 357.449 80.6683C357.161 80.6683 356.959 80.7646 356.959 80.9475V86.2432C356.959 86.3395 357.122 86.3973 357.324 86.3973V86.4069Z" fill="#C83A8E"/>
<path d="M380.471 99.5499H374.41C370.87 99.5499 368.792 98.0671 368.792 95.2941V77.9626C368.792 77.6834 369.157 77.4908 369.725 77.4908H380.144C380.712 77.4908 381.077 77.6834 381.077 77.9626V80.2639C381.077 80.5431 380.712 80.7357 380.144 80.7357H377.46C376.931 80.7357 376.565 80.9282 376.565 81.2075V82.5266C376.565 82.8058 376.931 82.9984 377.46 82.9984H379.249C379.778 82.9984 380.144 83.191 380.144 83.4702V85.7714C380.144 86.0507 379.778 86.2432 379.249 86.2432H377.46C376.931 86.2432 376.565 86.3684 376.565 86.3973V87.3698C376.565 87.649 376.931 87.8416 377.46 87.8416H380.471C381 87.8416 381.366 88.0341 381.366 88.3134V99.0589C381.366 99.3381 381 99.5307 380.471 99.5307V99.5499Z" fill="#C83A8E"/>
<path d="M383.809 99.0782V77.9338C383.809 77.6545 384.05 77.462 384.415 77.462H391.823C399.674 77.462 402.569 79.5706 402.569 82.6614C402.569 85.7522 399.683 87.2639 397.48 87.7068C397.153 87.7742 397.038 87.8608 397.038 87.9282C397.038 87.9956 397.201 88.0534 397.567 88.1208C400.78 88.7178 402.088 89.3533 402.088 91.1442V99.0878C402.088 99.367 401.848 99.5596 401.482 99.5596H395.133C394.767 99.5596 394.527 99.367 394.527 99.0878V90.9613C394.527 89.9888 393.468 89.7288 392.574 89.7288C391.968 89.7288 391.592 89.854 391.592 90.1717V99.0878C391.592 99.367 391.352 99.5596 390.986 99.5596H384.435C384.069 99.5596 383.829 99.367 383.829 99.0878L383.809 99.0782ZM392.073 85.5885C393.132 85.5885 395.412 84.9241 395.412 83.008C395.412 81.3423 393.382 80.8031 392.275 80.8031C391.871 80.8031 391.583 80.8705 391.583 80.9957V85.4441C391.583 85.5403 391.785 85.5981 392.073 85.5981V85.5885Z" fill="#C83A8E"/>
<path d="M11.6993 123.978C11.6993 125.489 12.9981 125.682 15.2012 125.682C15.6052 125.682 15.8073 125.875 15.8073 126.154V133.183C15.8073 136.023 13.5657 137.593 9.9869 137.593C6.40809 137.593 4.36852 136.052 4.36852 133.279V119.192H2.05002C1.68444 119.192 1.44392 119 1.44392 118.72V115.793C1.44392 115.514 1.68444 115.322 2.05002 115.322H15.2301C15.5956 115.322 15.8362 115.514 15.8362 115.793V118.72C15.8362 119 15.5956 119.192 15.2301 119.192H11.6897V123.978H11.6993Z" fill="#C83A8E"/>
<path d="M29.9686 137.371H23.9077C20.3674 137.371 18.2894 135.888 18.2894 133.115V115.784C18.2894 115.505 18.6549 115.312 19.2225 115.312H29.6415C30.2091 115.312 30.5747 115.505 30.5747 115.784V118.085C30.5747 118.364 30.2091 118.557 29.6415 118.557H26.9574C26.4283 118.557 26.0627 118.749 26.0627 119.029V120.357C26.0627 120.637 26.4283 120.829 26.9574 120.829H28.7468C29.2759 120.829 29.6415 121.022 29.6415 121.301V123.602C29.6415 123.881 29.2759 124.074 28.7468 124.074H26.9574C26.4283 124.074 26.0627 124.199 26.0627 124.228V125.201C26.0627 125.48 26.4283 125.672 26.9574 125.672H29.9686C30.4978 125.672 30.8633 125.865 30.8633 126.144V136.89C30.8633 137.169 30.4978 137.361 29.9686 137.361V137.371Z" fill="#C83A8E"/>
<path d="M53.5195 137.371H47.4586C43.9183 137.371 41.8403 135.888 41.8403 133.115V115.784C41.8403 115.505 42.2059 115.312 42.7735 115.312H53.1924C53.76 115.312 54.1256 115.505 54.1256 115.784V118.085C54.1256 118.364 53.76 118.557 53.1924 118.557H50.5083C49.9792 118.557 49.6136 118.749 49.6136 119.029V120.357C49.6136 120.637 49.9792 120.829 50.5083 120.829H52.2977C52.8268 120.829 53.1924 121.022 53.1924 121.301V123.602C53.1924 123.881 52.8268 124.074 52.2977 124.074H50.5083C49.9792 124.074 49.6136 124.199 49.6136 124.228V125.201C49.6136 125.48 49.9792 125.672 50.5083 125.672H53.5195C54.0487 125.672 54.4142 125.865 54.4142 126.144V136.89C54.4142 137.169 54.0487 137.361 53.5195 137.361V137.371Z" fill="#C83A8E"/>
<path d="M56.8578 115.784C56.8578 115.505 57.0983 115.312 57.4639 115.312H63.3228C63.6499 115.312 63.8904 115.408 64.0154 115.687L67.8829 123.949C67.9598 124.141 68.1234 124.228 68.2485 124.228C68.412 124.228 68.5756 124.103 68.5756 123.853V115.784C68.5756 115.505 68.816 115.312 69.1816 115.312H73.4531C73.8187 115.312 74.0592 115.505 74.0592 115.784V136.899C74.0592 137.179 73.8187 137.371 73.4531 137.371H67.5943C67.2672 137.371 67.0266 137.275 66.9016 136.996L63.0342 127.954C62.9572 127.762 62.7937 127.675 62.6686 127.675C62.5051 127.675 62.3415 127.8 62.3415 128.022V136.909C62.3415 137.188 62.101 137.381 61.7354 137.381H57.4639C57.0983 137.381 56.8578 137.188 56.8578 136.909V115.784Z" fill="#C83A8E"/>
<path d="M86.4793 123.978C86.4793 125.489 87.778 125.682 89.9811 125.682C90.3852 125.682 90.5872 125.875 90.5872 126.154V133.183C90.5872 136.023 88.3456 137.593 84.7668 137.593C81.188 137.593 79.1485 136.052 79.1485 133.279V119.192H76.8299C76.4643 119.192 76.2238 119 76.2238 118.72V115.793C76.2238 115.514 76.4643 115.322 76.8299 115.322H90.01C90.3755 115.322 90.6161 115.514 90.6161 115.793V118.72C90.6161 119 90.3755 119.192 90.01 119.192H86.4696V123.978H86.4793Z" fill="#C83A8E"/>
<path d="M104.749 137.371H98.6876C95.1473 137.371 93.0693 135.888 93.0693 133.115V115.784C93.0693 115.505 93.4349 115.312 94.0025 115.312H104.421C104.989 115.312 105.355 115.505 105.355 115.784V118.085C105.355 118.364 104.989 118.557 104.421 118.557H101.737C101.208 118.557 100.843 118.749 100.843 119.029V120.357C100.843 120.637 101.208 120.829 101.737 120.829H103.527C104.056 120.829 104.421 121.022 104.421 121.301V123.602C104.421 123.881 104.056 124.074 103.527 124.074H101.737C101.208 124.074 100.843 124.199 100.843 124.228V125.201C100.843 125.48 101.208 125.672 101.737 125.672H104.749C105.278 125.672 105.643 125.865 105.643 126.144V136.89C105.643 137.169 105.278 137.361 104.749 137.361V137.371Z" fill="#C83A8E"/>
<path d="M108.077 115.784C108.077 115.505 108.318 115.312 108.683 115.312H114.542C114.869 115.312 115.11 115.408 115.235 115.687L119.102 123.949C119.179 124.141 119.343 124.228 119.468 124.228C119.631 124.228 119.795 124.103 119.795 123.853V115.784C119.795 115.505 120.035 115.312 120.401 115.312H124.673C125.038 115.312 125.279 115.505 125.279 115.784V136.899C125.279 137.179 125.038 137.371 124.673 137.371H118.814C118.487 137.371 118.246 137.275 118.121 136.996L114.254 127.954C114.177 127.762 114.013 127.675 113.888 127.675C113.724 127.675 113.561 127.8 113.561 128.022V136.909C113.561 137.188 113.32 137.381 112.955 137.381H108.683C108.318 137.381 108.077 137.188 108.077 136.909V115.784Z" fill="#C83A8E"/>
<path d="M127.732 136.899V115.784C127.732 115.505 127.972 115.312 128.338 115.312H134.649C143.076 115.312 145.145 121.051 145.145 126.558C145.145 131.536 144.327 137.371 134.562 137.371H128.338C127.972 137.371 127.732 137.179 127.732 136.899ZM139.046 121.705C139.046 119.558 137.17 118.489 136.159 118.489C135.794 118.489 135.505 118.643 135.505 118.961V124.382C135.505 124.883 135.746 125.075 136.275 125.075C138.189 125.046 139.046 123.024 139.046 121.705Z" fill="#C83A8E"/>
<path d="M158.652 137.371H152.591C149.051 137.371 146.973 135.888 146.973 133.115V115.784C146.973 115.505 147.338 115.312 147.906 115.312H158.325C158.893 115.312 159.258 115.505 159.258 115.784V118.085C159.258 118.364 158.893 118.557 158.325 118.557H155.641C155.112 118.557 154.746 118.749 154.746 119.029V120.357C154.746 120.637 155.112 120.829 155.641 120.829H157.43C157.959 120.829 158.325 121.022 158.325 121.301V123.602C158.325 123.881 157.959 124.074 157.43 124.074H155.641C155.112 124.074 154.746 124.199 154.746 124.228V125.201C154.746 125.48 155.112 125.672 155.641 125.672H158.652C159.181 125.672 159.547 125.865 159.547 126.144V136.89C159.547 137.169 159.181 137.361 158.652 137.361V137.371Z" fill="#C83A8E"/>
<path d="M161.75 136.899V133.24C161.75 132.961 161.99 132.769 162.356 132.769H168.946C169.311 132.769 169.552 132.961 169.552 133.24V136.899C169.552 137.179 169.311 137.371 168.946 137.371H162.356C161.99 137.371 161.75 137.179 161.75 136.899Z" fill="#C83A8E"/>
<path d="M198.24 137.747C198.24 139.201 195.797 141.059 192.506 141.059C188.639 141.059 186.244 139.201 185.878 137.371C180.019 136.553 178.836 133.057 178.836 130.092C178.836 124.199 180.625 115.312 188.6 115.312C196.576 115.312 198.327 124.199 198.327 130.092C198.327 133.057 197.192 136.62 191.246 137.4C191.573 137.901 192.179 138.247 192.959 138.247C195.2 138.247 195.806 136.832 196.99 136.832C197.721 136.832 198.25 137.207 198.25 137.747H198.24ZM186.157 122.716C186.157 124.007 187.177 124.864 188.726 124.864C189.986 124.864 190.919 124.016 190.919 122.716C190.919 120.29 189.938 118.461 188.726 118.461C187.177 118.461 186.157 120.223 186.157 122.716Z" fill="#C83A8E"/>
<path d="M200.155 130.246V115.784C200.155 115.505 200.395 115.312 200.761 115.312H207.312C207.678 115.312 207.918 115.505 207.918 115.784V123.506C207.918 125.143 207.918 125.961 209.506 125.961C211.093 125.961 211.093 125.143 211.093 123.506V115.784C211.093 115.505 211.334 115.312 211.699 115.312H218.212C218.578 115.312 218.818 115.505 218.818 115.784V130.246C218.818 133.616 217.722 137.525 209.544 137.525C201.367 137.525 200.145 133.616 200.145 130.246H200.155Z" fill="#C83A8E"/>
<path d="M232.941 137.371H226.88C223.34 137.371 221.262 135.888 221.262 133.115V115.784C221.262 115.505 221.628 115.312 222.195 115.312H232.614C233.182 115.312 233.547 115.505 233.547 115.784V118.085C233.547 118.364 233.182 118.557 232.614 118.557H229.93C229.401 118.557 229.035 118.749 229.035 119.029V120.357C229.035 120.637 229.401 120.829 229.93 120.829H231.719C232.249 120.829 232.614 121.022 232.614 121.301V123.602C232.614 123.881 232.249 124.074 231.719 124.074H229.93C229.401 124.074 229.035 124.199 229.035 124.228V125.201C229.035 125.48 229.401 125.672 229.93 125.672H232.941C233.47 125.672 233.836 125.865 233.836 126.144V136.89C233.836 137.169 233.47 137.361 232.941 137.361V137.371Z" fill="#C83A8E"/>
<path d="M236.28 136.899V115.755C236.28 115.476 236.52 115.283 236.886 115.283H244.293C252.144 115.283 255.039 117.392 255.039 120.483C255.039 123.573 252.153 125.085 249.95 125.528C249.623 125.595 249.508 125.682 249.508 125.749C249.508 125.817 249.671 125.875 250.037 125.942C253.25 126.539 254.558 127.174 254.558 128.965V136.909C254.558 137.188 254.318 137.381 253.952 137.381H247.603C247.237 137.381 246.997 137.188 246.997 136.909V128.773C246.997 127.8 245.939 127.54 245.044 127.54C244.438 127.54 244.063 127.665 244.063 127.983V136.899C244.063 137.179 243.822 137.371 243.456 137.371H236.905C236.539 137.371 236.299 137.179 236.299 136.899H236.28ZM244.544 123.41C245.602 123.41 247.882 122.745 247.882 120.829C247.882 119.154 245.852 118.624 244.746 118.624C244.342 118.624 244.053 118.692 244.053 118.817V123.256C244.053 123.352 244.255 123.41 244.544 123.41Z" fill="#C83A8E"/>
<path d="M265.535 130.246V115.784C265.535 115.505 265.776 115.312 266.142 115.312H272.693C273.059 115.312 273.299 115.505 273.299 115.784V123.506C273.299 125.143 273.299 125.961 274.886 125.961C276.474 125.961 276.474 125.143 276.474 123.506V115.784C276.474 115.505 276.714 115.312 277.08 115.312H283.593C283.959 115.312 284.199 115.505 284.199 115.784V130.246C284.199 133.616 283.102 137.525 274.925 137.525C266.748 137.525 265.526 133.616 265.526 130.246H265.535Z" fill="#C83A8E"/>
<path d="M286.652 136.899V115.784C286.652 115.505 286.893 115.312 287.258 115.312H294.791C295.157 115.312 295.359 115.466 295.445 115.726L298.168 123.824C298.245 124.045 298.409 124.17 298.534 124.17C298.697 124.17 298.822 124.045 298.899 123.824L301.747 115.726C301.824 115.476 302.035 115.312 302.401 115.312H309.972C310.338 115.312 310.578 115.505 310.578 115.784V136.899C310.578 137.179 310.338 137.371 309.972 137.371H304.604C304.239 137.371 303.998 137.179 303.998 136.899V127.82C303.998 127.627 303.835 127.502 303.671 127.502C303.546 127.502 303.382 127.598 303.344 127.752L300.131 136.957C300.054 137.207 299.842 137.361 299.476 137.361H296.629C296.263 137.361 296.061 137.207 295.975 136.957L292.8 127.791C292.761 127.637 292.598 127.54 292.473 127.54C292.309 127.54 292.146 127.665 292.146 127.858V136.899C292.146 137.179 291.905 137.371 291.54 137.371H287.268C286.902 137.371 286.662 137.179 286.662 136.899H286.652Z" fill="#C83A8E"/>
<path d="M0.837819 174.682L6.12908 153.566C6.20604 153.287 6.49466 153.123 6.86024 153.123H15.5283C15.9324 153.123 16.1825 153.249 16.2595 153.538L21.7142 174.682V174.807C21.7142 175.057 21.4737 175.183 21.1082 175.183H14.7971C14.3931 175.183 14.1429 175.057 14.1044 174.74L13.0847 170.079C13.0077 169.762 12.7576 169.637 12.392 169.637H8.81317C8.40911 169.637 8.20711 169.791 8.12052 170.079L6.77363 174.74C6.69667 175.019 6.48505 175.183 6.08099 175.183H1.44391C1.00137 175.183 0.751235 175.029 0.837819 174.682ZM12.0264 163.773L11.3338 159.295C11.2568 158.891 11.0451 158.698 10.8046 158.698C10.6026 158.698 10.3621 158.891 10.2755 159.295L9.45778 163.773V163.84C9.45778 164.158 9.78487 164.283 10.3525 164.283H11.0451C11.6993 164.283 12.1034 164.09 12.0264 163.782V163.773Z" fill="#C83A8E"/>
<path d="M23.292 174.711V153.595C23.292 153.316 23.5325 153.123 23.8981 153.123H32.2005C36.8376 153.123 39.1562 154.317 39.1562 156.657C39.1562 157.89 38.2615 159.151 36.7991 159.844C36.5971 159.941 36.472 160.037 36.472 160.095C36.472 160.152 36.5971 160.22 36.8376 160.316C39.7237 161.645 40.8686 164.601 40.8686 167.403C40.8686 171.591 39.0407 175.183 31.96 175.183H23.8981C23.5325 175.183 23.292 174.99 23.292 174.711ZM31.3444 158.987C32.2006 158.987 33.7495 158.419 33.7495 157.476C33.7495 156.59 32.3257 156.185 31.4694 156.185C31.1039 156.185 30.8152 156.253 30.8152 156.407V158.737C30.8152 158.891 31.0173 158.987 31.3444 158.987ZM31.3924 164.283C32.3737 164.283 34.2786 163.744 34.2786 162.646C34.2786 161.635 32.6143 161.163 31.5945 161.163C31.1423 161.163 30.8248 161.26 30.8248 161.443V164.09C30.8248 164.216 31.0269 164.283 31.3924 164.283Z" fill="#C83A8E"/>
<path d="M42.6965 174.711V153.566C42.6965 153.287 42.937 153.095 43.3026 153.095H50.7104C58.5607 153.095 61.4564 155.203 61.4564 158.294C61.4564 161.385 58.5703 162.897 56.3672 163.339C56.0401 163.407 55.9246 163.493 55.9246 163.561C55.9246 163.628 56.0882 163.686 56.4538 163.753C59.667 164.35 60.9658 164.986 60.9658 166.777V174.72C60.9658 175 60.7252 175.192 60.3597 175.192H54.0102C53.6446 175.192 53.4041 175 53.4041 174.72V166.584C53.4041 165.612 52.3458 165.352 51.4511 165.352C50.845 165.352 50.4794 165.477 50.4794 165.795V174.711C50.4794 174.99 50.239 175.183 49.8734 175.183H43.3218C42.9563 175.183 42.7158 174.99 42.7158 174.711H42.6965ZM50.9604 161.221C52.0187 161.221 54.2988 160.557 54.2988 158.641C54.2988 156.965 52.2688 156.436 51.1625 156.436C50.7584 156.436 50.4699 156.503 50.4699 156.628V161.067C50.4699 161.163 50.6718 161.221 50.9604 161.221Z" fill="#C83A8E"/>
<path d="M62.5146 174.682L67.8059 153.566C67.8828 153.287 68.1715 153.123 68.5371 153.123H77.2051C77.6092 153.123 77.8593 153.249 77.9363 153.538L83.3911 174.682V174.807C83.3911 175.057 83.1505 175.183 82.785 175.183H76.4739C76.0699 175.183 75.8198 175.057 75.7813 174.74L74.7615 170.079C74.6846 169.762 74.4344 169.637 74.0688 169.637H70.49C70.086 169.637 69.8839 169.791 69.7973 170.079L68.4505 174.74C68.3735 175.019 68.1619 175.183 67.7578 175.183H63.1207C62.6782 175.183 62.428 175.029 62.5146 174.682ZM73.7032 163.773L73.0106 159.295C72.9336 158.891 72.722 158.698 72.4815 158.698C72.2795 158.698 72.0389 158.891 71.9523 159.295L71.1346 163.773V163.84C71.1346 164.158 71.4617 164.283 72.0293 164.283H72.722C73.3762 164.283 73.7802 164.09 73.7032 163.782V163.773Z" fill="#C83A8E"/>
<path d="M99.9094 161.943V174.711C99.9094 174.99 99.5823 175.183 98.9762 175.183H95.6764C96.2056 175.529 96.4076 176.097 96.4076 176.694C96.4076 177.166 96.2825 177.638 96.1189 178.081C95.7918 178.87 94.3296 180.035 91.6455 180.035H90.0581C89.8945 180.035 89.8175 179.968 89.8175 179.881C90.2601 178.687 90.7508 177.676 90.8758 177.359C90.8758 177.291 91.0009 177.262 91.1644 177.262C93.483 177.262 94.0506 177.041 94.2141 176.54C94.2911 176.415 94.3392 176.261 94.3392 176.097C94.3392 175.847 94.1756 175.597 93.7331 175.597C93.2424 175.597 93.0789 176.097 93.0019 176.444C92.9634 176.511 92.8384 176.569 92.6363 176.569H91.5396C91.3761 176.569 91.251 176.502 91.2991 176.444C91.5396 175.876 91.8282 175.433 92.3574 175.154C87.0661 174.961 83.3622 173.642 83.3622 166.421C83.3622 161.597 84.4589 152.96 93.127 152.96C95.8111 152.96 99.8036 154 99.8036 159.324V159.353C99.8036 159.632 99.5631 159.825 99.1975 159.825H95.2916C94.926 159.825 94.6855 159.632 94.6855 159.353C94.6855 157.081 94.3199 156.33 93.2617 156.33C91.7513 156.33 90.4525 157.967 90.4525 160.422C90.4525 162.531 91.2702 163.445 92.771 163.445C93.5888 163.445 94.4835 163.195 94.4835 161.963V161.934C94.4835 161.654 94.724 161.462 95.0896 161.462H99.3226C99.6881 161.462 99.9287 161.654 99.9287 161.934L99.9094 161.943Z" fill="#C83A8E"/>
<path d="M101.535 167.749C101.535 158.862 105.528 152.969 111.502 152.969C117.476 152.969 121.026 158.641 121.026 167.749C121.026 172.67 117.611 175.308 111.3 175.308C104.989 175.308 101.535 172.602 101.535 167.749ZM113.696 160.528C113.696 158.101 112.724 156.272 111.502 156.272C109.953 156.272 108.943 158.034 108.943 160.528C108.943 161.818 109.963 162.675 111.502 162.675C112.762 162.675 113.696 161.828 113.696 160.528Z" fill="#C83A8E"/>
<path d="M126.51 163.648V163.58C126.51 160.586 132.292 160.046 132.292 157.495C132.292 156.734 131.801 156.205 130.339 156.205C128.877 156.205 128.222 156.705 128.222 158.159C128.222 158.438 127.982 158.631 127.616 158.631H123.258C122.893 158.631 122.652 158.438 122.652 158.159V158.13C122.652 154.789 125.788 153.027 130.3 153.027C134.245 153.027 138.516 154.606 138.516 157.408C138.516 160.403 134.322 161.414 134.322 163.619V163.648C134.322 163.927 134.081 164.119 133.716 164.119H127.126C126.76 164.119 126.52 163.927 126.52 163.648H126.51ZM126.51 174.711V165.602C126.51 165.323 126.751 165.13 127.116 165.13H133.706C134.072 165.13 134.312 165.323 134.312 165.602V174.711C134.312 174.99 134.072 175.183 133.706 175.183H127.116C126.751 175.183 126.51 174.99 126.51 174.711Z" fill="#C83A8E"/>
</svg>
