<svg width="564" height="228" viewBox="0 0 564 228" fill="none" xmlns="http://www.w3.org/2000/svg">
<path d="M22.5412 64.9421V52.4249C22.5412 51.7701 22.0698 51.3272 21.127 51.2502C1.8283 50.0755 0.22168 39.5322 0.22168 30.4524C0.22168 19.7647 5.51294 8.63402 24.6192 8.63402H39.2712C40.1178 8.63402 40.6854 9.07694 40.6854 9.73168V64.9421C40.6854 65.5968 40.1178 66.0397 39.2712 66.0397H23.9554C23.1088 66.0397 22.5412 65.5968 22.5412 64.9421ZM21.8774 28.4015C22.5412 28.1801 22.5412 27.6698 22.5412 27.1594V16.1058C22.5412 15.5185 22.3488 14.9311 21.5022 14.9311C19.3279 14.9311 14.8833 17.2709 14.8833 21.0838C14.8833 24.2324 16.2975 28.5556 20.8383 28.5556C21.2135 28.5556 21.5984 28.4786 21.8774 28.4112V28.4015Z" fill="#F15A24"/>
<path d="M45.2262 37.6354V9.73168C45.2262 9.07694 45.6976 8.63402 46.5539 8.63402H59.503C60.263 8.63402 60.8306 9.07694 60.8306 9.73168V23.722C60.8306 26.9476 60.8306 28.6326 64.2363 28.6326C67.6419 28.6326 67.7381 26.9476 67.7381 23.722V9.73168C67.7381 9.07694 68.3057 8.63402 69.0658 8.63402H82.0149C82.7749 8.63402 83.3425 9.07694 83.3425 9.73168V50.297C83.3425 50.9517 82.7749 51.3946 82.0149 51.3946H77.7627C76.9161 51.3946 76.435 50.9517 76.435 50.297V49.6422C73.597 50.8843 69.7199 51.6931 64.4287 51.6931C47.8815 51.6931 45.2359 44.1539 45.2359 37.6354H45.2262Z" fill="#F15A24"/>
<path d="M87.1138 35.5074C87.1138 26.8706 92.6936 8.34517 109.808 8.34517C122.479 8.34517 125.317 13.5446 125.317 21.8926C125.317 22.6244 124.749 22.9903 123.902 22.9903H105.941C105.094 22.9903 104.431 23.2791 104.431 23.9435C104.431 27.3809 109.25 28.7 124.095 28.7C125.038 28.7 125.605 29.1429 125.605 29.7977V50.297C125.605 50.9517 125.038 51.3946 124.191 51.3946H112.656C97.9079 51.3946 87.1234 47.5143 87.1234 35.5074H87.1138ZM112.829 16.4717C112.358 15.5185 111.502 14.8637 110.087 14.8637C108.385 14.8637 107.249 15.4511 106.403 16.4043C106.21 16.6258 106.124 16.8472 106.124 16.9916C106.124 17.4346 106.595 17.7234 107.355 17.7234H111.704C112.646 17.7234 113.214 17.2131 112.839 16.4813L112.829 16.4717Z" fill="#F15A24"/>
<path d="M130.127 9.73168C130.127 9.07694 130.694 8.63402 131.541 8.63402H139.574C140.421 8.63402 140.988 9.07694 140.988 9.73168V13.4676C140.988 11.0508 146.568 8.63402 155.361 8.63402C156.304 8.63402 156.872 8.99991 156.872 9.73168V16.3947C156.872 17.0494 156.497 17.5694 155.64 17.5694C149.493 17.5694 147.04 20.2076 147.04 25.2626V50.3066C147.04 50.9613 146.472 51.4043 145.625 51.4043H131.541C130.694 51.4043 130.127 50.9613 130.127 50.3066V9.73168Z" fill="#F15A24"/>
<path d="M161.047 5.19662V1.23926C161.047 0.584517 161.615 0.141602 162.461 0.141602H176.17C177.017 0.141602 177.585 0.584517 177.585 1.23926V5.19662C177.585 5.85136 177.017 6.29427 176.17 6.29427H162.461C161.615 6.29427 161.047 5.85136 161.047 5.19662ZM161.047 50.297V9.73168C161.047 9.07694 161.615 8.63402 162.461 8.63402H176.17C177.017 8.63402 177.585 9.07694 177.585 9.73168V50.297C177.585 50.9517 177.017 51.3946 176.17 51.3946H162.461C161.615 51.3946 161.047 50.9517 161.047 50.297Z" fill="#F15A24"/>
<path d="M198.298 8.4896C202.742 8.4896 203.877 9.95314 203.877 10.8293C203.877 9.95314 204.253 8.63402 205.859 8.63402H219.193C220.425 8.63402 221.271 9.07694 221.271 9.73168V50.297C221.271 50.9517 220.425 51.3946 219.193 51.3946H207.851C206.523 51.3946 205.676 50.9517 205.676 50.297V48.9778C204.734 50.1525 202.559 51.3946 198.865 51.3946C190.64 51.3946 181.471 47.3699 181.471 30.5969C181.471 21.1512 186.387 8.47997 198.298 8.47997V8.4896ZM203.877 27.3809V15.7399C203.877 15.2296 203.406 14.9311 202.55 14.9311C200.472 14.9311 196.027 18.0797 196.027 21.96C196.027 27.0824 198.865 28.7 201.982 28.7C203.31 28.7 203.877 28.2571 203.877 27.3809Z" fill="#F15A24"/>
<path d="M261.831 8.4896C266.276 8.4896 267.411 9.95314 267.411 10.8293C267.411 9.95314 267.786 8.63402 269.393 8.63402H282.727C283.958 8.63402 284.805 9.07694 284.805 9.73168V50.297C284.805 50.9517 283.958 51.3946 282.727 51.3946H271.384C270.057 51.3946 269.21 50.9517 269.21 50.297V48.9778C268.267 50.1525 266.093 51.3946 262.399 51.3946C254.173 51.3946 245.005 47.3699 245.005 30.5969C245.005 21.1512 249.921 8.47997 261.831 8.47997V8.4896ZM267.411 27.3809V15.7399C267.411 15.2296 266.94 14.9311 266.083 14.9311C264.005 14.9311 259.561 18.0797 259.561 21.96C259.561 27.0824 262.399 28.7 265.516 28.7C266.843 28.7 267.411 28.2571 267.411 27.3809Z" fill="#F15A24"/>
<path d="M308.538 35.5074C308.538 19.6203 317.899 8.4896 331.233 8.4896C340.786 8.4896 346.741 13.689 346.741 21.8926C346.741 22.6244 346.174 22.9903 345.327 22.9903H336.159C335.216 22.9903 334.831 22.5473 334.831 21.8156C334.831 16.7606 334.071 14.8637 331.522 14.8637C328.116 14.8637 325.75 18.2337 325.75 22.8458C325.75 27.4579 328.963 28.7 345.51 28.7C346.453 28.7 347.02 29.1429 347.02 29.7977V50.297C347.02 50.9517 346.453 51.3946 345.606 51.3946H334.071C317.053 51.3946 308.538 47.4373 308.538 35.5074Z" fill="#F15A24"/>
<path d="M350.609 37.8472C350.609 26.4951 354.39 8.63402 371.504 8.63402C388.619 8.63402 392.208 26.5047 392.208 37.8472C392.208 44.2887 388.994 51.982 371.504 51.982C354.014 51.982 350.609 44.2887 350.609 37.8472ZM376.517 24.4538C376.517 19.9861 374.246 15.0082 371.697 15.0082C368.387 15.0082 366.406 19.4758 366.406 24.4538C366.406 26.9476 368.484 28.5556 371.697 28.5556C374.535 28.5556 376.517 26.8706 376.517 24.4538Z" fill="#F15A24"/>
<path d="M395.71 50.297V9.73168C395.71 9.07694 396.181 8.63402 397.037 8.63402H403.935C404.695 8.63402 405.263 9.07694 405.263 9.73168V13.689C405.263 13.689 408.283 8.34517 416.701 8.34517C420.954 8.34517 425.216 9.3658 428.044 11.4167C430.122 9.51022 433.335 8.34517 438.444 8.34517C449.132 8.34517 455.462 13.689 455.462 25.0412V50.3066C455.462 50.9613 454.991 51.4043 454.135 51.4043H441.186C440.339 51.4043 439.858 50.9613 439.858 50.3066V32.07C439.858 27.6794 439.011 25.7729 436.356 25.7729C433.701 25.7729 432.854 27.6794 432.854 32.07V50.3066C432.854 50.9613 432.383 51.4043 431.527 51.4043H419.52C418.76 51.4043 418.193 50.9613 418.193 50.3066V32.07C418.193 27.6794 417.433 25.7729 414.787 25.7729C412.141 25.7729 411.285 27.6794 411.285 32.07V50.3066C411.285 50.9613 410.717 51.4043 409.957 51.4043H397.008C396.162 51.4043 395.681 50.9613 395.681 50.3066L395.71 50.297Z" fill="#F15A24"/>
<path d="M459.907 5.19662V1.23926C459.907 0.584517 460.475 0.141602 461.321 0.141602H475.03C475.877 0.141602 476.445 0.584517 476.445 1.23926V5.19662C476.445 5.85136 475.877 6.29427 475.03 6.29427H461.321C460.475 6.29427 459.907 5.85136 459.907 5.19662ZM459.907 50.297V9.73168C459.907 9.07694 460.475 8.63402 461.321 8.63402H475.03C475.877 8.63402 476.445 9.07694 476.445 9.73168V50.297C476.445 50.9517 475.877 51.3946 475.03 51.3946H461.321C460.475 51.3946 459.907 50.9517 459.907 50.297Z" fill="#F15A24"/>
<path d="M480.235 30.4524C480.235 17.5694 487.797 9.79909 501.323 8.77845C502.17 8.70143 502.651 8.33554 502.651 7.68079V1.23926C502.651 0.584517 503.218 0.141602 504.065 0.141602H518.717C519.563 0.141602 520.131 0.584517 520.131 1.23926V50.297C520.131 50.9517 519.563 51.3946 518.717 51.3946H504.815C487.797 51.3946 480.235 44.9531 480.235 30.4524ZM502.641 27.2365V15.7399C502.641 15.2296 502.17 14.9311 501.41 14.9311C499.235 14.9311 494.887 17.2035 494.887 21.0838C494.887 24.9641 497.157 28.5556 500.842 28.5556C502.073 28.5556 502.641 28.1127 502.641 27.2365Z" fill="#F15A24"/>
<path d="M540.834 8.4896C545.279 8.4896 546.414 9.95314 546.414 10.8293C546.414 9.95314 546.789 8.63402 548.396 8.63402H561.73C562.961 8.63402 563.808 9.07694 563.808 9.73168V50.297C563.808 50.9517 562.961 51.3946 561.73 51.3946H550.387C549.06 51.3946 548.213 50.9517 548.213 50.297V48.9778C547.27 50.1525 545.096 51.3946 541.402 51.3946C533.176 51.3946 524.008 47.3699 524.008 30.5969C524.008 21.1512 528.924 8.47997 540.834 8.47997V8.4896ZM546.414 27.3809V15.7399C546.414 15.2296 545.943 14.9311 545.087 14.9311C543.009 14.9311 538.564 18.0797 538.564 21.96C538.564 27.0824 541.402 28.7 544.519 28.7C545.847 28.7 546.414 28.2571 546.414 27.3809Z" fill="#F15A24"/>
<path d="M0.22168 118.333C0.22168 105.45 7.78337 97.6793 21.3097 96.6587C22.1563 96.5816 22.6374 96.2157 22.6374 95.561V89.1195C22.6374 88.4647 23.205 88.0218 24.0516 88.0218H38.7036C39.5502 88.0218 40.1178 88.4647 40.1178 89.1195V138.177C40.1178 138.832 39.5502 139.275 38.7036 139.275H24.802C7.78337 139.275 0.22168 132.833 0.22168 118.333ZM22.6374 115.107V103.611C22.6374 103.1 22.166 102.802 21.406 102.802C19.2317 102.802 14.8833 105.074 14.8833 108.954C14.8833 112.835 17.1537 116.426 20.8383 116.426C22.0698 116.426 22.6374 115.983 22.6374 115.107Z" fill="#F15A24"/>
<path d="M43.9082 123.388C43.9082 114.751 49.4881 96.2254 66.6029 96.2254C79.2731 96.2254 82.1111 101.425 82.1111 109.773C82.1111 110.505 81.5435 110.87 80.6969 110.87H62.7355C61.8889 110.87 61.2251 111.159 61.2251 111.824C61.2251 115.261 66.0449 116.58 80.8893 116.58C81.8321 116.58 82.3997 117.023 82.3997 117.678V138.177C82.3997 138.832 81.8321 139.275 80.9855 139.275H69.4506C54.7024 139.275 43.9179 135.394 43.9179 123.388H43.9082ZM69.6237 104.342C69.1523 103.389 68.2961 102.734 66.8819 102.734C65.1791 102.734 64.0439 103.322 63.1973 104.275C63.0049 104.496 62.9183 104.718 62.9183 104.862C62.9183 105.305 63.3897 105.594 64.1497 105.594H68.4981C69.441 105.594 70.0086 105.084 69.6334 104.352L69.6237 104.342Z" fill="#F15A24"/>
<path d="M106.682 138.177V97.6119C106.682 96.9571 107.153 96.5142 108.009 96.5142H114.907C115.667 96.5142 116.235 96.9571 116.235 97.6119V101.569C116.235 101.569 119.256 96.2254 127.674 96.2254C131.926 96.2254 136.188 97.246 139.016 99.2969C141.094 97.3904 144.307 96.2254 149.416 96.2254C160.104 96.2254 166.435 101.569 166.435 112.921V138.187C166.435 138.842 165.963 139.284 165.107 139.284H152.158C151.311 139.284 150.83 138.842 150.83 138.187V119.95C150.83 115.56 149.984 113.653 147.328 113.653C144.673 113.653 143.826 115.56 143.826 119.95V138.187C143.826 138.842 143.355 139.284 142.499 139.284H130.492C129.732 139.284 129.165 138.842 129.165 138.187V119.95C129.165 115.56 128.405 113.653 125.759 113.653C123.114 113.653 122.257 115.56 122.257 119.95V138.187C122.257 138.842 121.69 139.284 120.93 139.284H107.981C107.134 139.284 106.653 138.842 106.653 138.187L106.682 138.177Z" fill="#F15A24"/>
<path d="M187.051 96.3602C191.496 96.3602 192.631 97.8237 192.631 98.6999C192.631 97.8237 193.006 96.5046 194.613 96.5046H207.947C209.178 96.5046 210.025 96.9475 210.025 97.6023V138.168C210.025 138.822 209.178 139.265 207.947 139.265H196.604C195.277 139.265 194.43 138.822 194.43 138.168V136.848C193.487 138.023 191.313 139.265 187.619 139.265C179.393 139.265 170.225 135.24 170.225 118.467C170.225 109.022 175.141 96.3505 187.051 96.3505V96.3602ZM192.631 115.261V103.62C192.631 103.11 192.16 102.811 191.303 102.811C189.225 102.811 184.781 105.96 184.781 109.84C184.781 114.963 187.619 116.58 190.736 116.58C192.063 116.58 192.621 116.137 192.621 115.261H192.631Z" fill="#F15A24"/>
<path d="M214.556 93.0672V89.1098C214.556 88.4551 215.124 88.0122 215.97 88.0122H229.679C230.526 88.0122 231.094 88.4551 231.094 89.1098V93.0672C231.094 93.7219 230.526 94.1648 229.679 94.1648H215.97C215.124 94.1648 214.556 93.7219 214.556 93.0672ZM214.556 138.177V97.6119C214.556 96.9571 215.124 96.5142 215.97 96.5142H229.679C230.526 96.5142 231.094 96.9571 231.094 97.6119V138.177C231.094 138.832 230.526 139.275 229.679 139.275H215.97C215.124 139.275 214.556 138.832 214.556 138.177Z" fill="#F15A24"/>
<path d="M235.644 138.177V97.6119C235.644 96.9571 236.212 96.5142 237.058 96.5142H244.437C245.284 96.5142 245.851 96.9571 245.851 97.6119V102.301C245.851 100.25 250.864 96.4468 258.05 96.4468C268.825 96.4468 276.204 101.723 276.204 112.921V138.187C276.204 138.842 275.636 139.284 274.79 139.284H261.081C260.234 139.284 259.667 138.842 259.667 138.187V119.95C259.667 115.56 258.82 113.653 255.982 113.653C253.144 113.653 252.297 115.56 252.297 119.95V138.187C252.297 138.842 251.73 139.284 250.883 139.284H237.078C236.231 139.284 235.663 138.842 235.663 138.187L235.644 138.177Z" fill="#F15A24"/>
<path d="M280.745 138.177V89.1195C280.745 88.4647 281.313 88.0218 282.159 88.0218H296.811C297.658 88.0218 298.225 88.4647 298.225 89.1195V96.5913C299.64 96.3698 300.592 96.2254 302.574 96.2254C314.397 96.2254 320.728 101.569 320.728 112.921V138.187C320.728 138.842 320.16 139.284 319.313 139.284H305.604C304.758 139.284 304.19 138.842 304.19 138.187V119.95C304.19 115.56 303.343 114.385 300.505 114.385C298.899 114.385 298.235 114.751 298.235 115.704V138.187C298.235 138.842 297.667 139.284 296.821 139.284H282.169C281.322 139.284 280.755 138.842 280.755 138.187L280.745 138.177Z" fill="#F15A24"/>
<path d="M341.441 96.3602C345.885 96.3602 347.02 97.8237 347.02 98.6999C347.02 97.8237 347.396 96.5046 349.002 96.5046H362.336C363.568 96.5046 364.414 96.9475 364.414 97.6023V138.168C364.414 138.822 363.568 139.265 362.336 139.265H350.994C349.666 139.265 348.819 138.822 348.819 138.168V136.848C347.877 138.023 345.702 139.265 342.008 139.265C333.783 139.265 324.614 135.24 324.614 118.467C324.614 109.022 329.53 96.3505 341.441 96.3505V96.3602ZM347.02 115.261V103.62C347.02 103.11 346.549 102.811 345.693 102.811C343.615 102.811 339.17 105.96 339.17 109.84C339.17 114.963 342.008 116.58 345.125 116.58C346.453 116.58 347.02 116.137 347.02 115.261Z" fill="#F15A24"/>
<path d="M388.715 138.177V97.6119C388.715 96.9571 389.187 96.5142 390.043 96.5142H396.941C397.701 96.5142 398.269 96.9571 398.269 97.6119V101.569C398.269 101.569 401.289 96.2254 409.707 96.2254C413.96 96.2254 418.221 97.246 421.05 99.2969C423.128 97.3904 426.341 96.2254 431.45 96.2254C442.138 96.2254 448.468 101.569 448.468 112.921V138.187C448.468 138.842 447.997 139.284 447.141 139.284H434.191C433.345 139.284 432.864 138.842 432.864 138.187V119.95C432.864 115.56 432.017 113.653 429.362 113.653C426.707 113.653 425.86 115.56 425.86 119.95V138.187C425.86 138.842 425.389 139.284 424.532 139.284H412.526C411.766 139.284 411.198 138.842 411.198 138.187V119.95C411.198 115.56 410.438 113.653 407.793 113.653C405.147 113.653 404.291 115.56 404.291 119.95V138.187C404.291 138.842 403.723 139.284 402.963 139.284H390.014C389.168 139.284 388.687 138.842 388.687 138.187L388.715 138.177Z" fill="#F15A24"/>
<path d="M469.075 96.3602C473.52 96.3602 474.655 97.8237 474.655 98.6999C474.655 97.8237 475.03 96.5046 476.637 96.5046H489.971C491.202 96.5046 492.049 96.9475 492.049 97.6023V138.168C492.049 138.822 491.202 139.265 489.971 139.265H478.628C477.301 139.265 476.454 138.822 476.454 138.168V136.848C475.511 138.023 473.337 139.265 469.643 139.265C461.417 139.265 452.249 135.24 452.249 118.467C452.249 109.022 457.165 96.3505 469.075 96.3505V96.3602ZM474.655 115.261V103.62C474.655 103.11 474.184 102.811 473.327 102.811C471.249 102.811 466.805 105.96 466.805 109.84C466.805 114.963 469.643 116.58 472.76 116.58C474.087 116.58 474.655 116.137 474.655 115.261Z" fill="#F15A24"/>
<path d="M497.254 138.177V117.524C497.254 116.869 497.821 116.426 498.668 116.426C505.19 116.426 508.307 116.06 508.307 115.107C508.307 114.452 506.701 113.499 503.67 112.18C498.562 109.985 496.388 107.934 496.388 104.708C496.388 101.049 500.265 96.1387 514.445 96.1387C527.779 96.1387 532.888 100.308 533.359 108.29C533.359 108.877 532.791 109.243 531.945 109.243H522.305C521.459 109.243 520.891 108.877 520.891 108.29C520.891 105.584 520.323 102.359 515.504 102.359C511.347 102.359 510.684 104.776 510.684 105.95C510.684 112.613 535.928 110.485 535.928 126.815C535.928 133.113 530.916 139.265 511.915 139.265H498.677C497.831 139.265 497.263 138.822 497.263 138.168L497.254 138.177Z" fill="#F15A24"/>
<path d="M1.64551 226.057V205.404C1.64551 204.749 2.21312 204.306 3.05972 204.306C9.5824 204.306 12.709 203.94 12.709 202.987C12.709 202.333 11.1024 201.379 8.07198 200.06C2.96351 197.865 0.789287 195.814 0.789287 192.588C0.789287 188.93 4.66633 184.019 18.8469 184.019C32.1809 184.019 37.2893 188.188 37.7607 196.17C37.7607 196.758 37.1931 197.123 36.3465 197.123H26.6972C25.8506 197.123 25.283 196.758 25.283 196.17C25.283 193.465 24.7154 190.239 19.8955 190.239C15.7395 190.239 15.0757 192.656 15.0757 193.83C15.0757 200.493 40.3198 198.366 40.3198 214.696C40.3198 220.993 35.3075 227.145 16.3071 227.145H3.05972C2.21312 227.145 1.64551 226.703 1.64551 226.048V226.057Z" fill="#F15A24"/>
<path d="M43.052 213.608C43.052 202.255 46.8329 184.394 63.9477 184.394C81.0625 184.394 84.6509 202.265 84.6509 213.608C84.6509 220.049 81.4377 227.742 63.9477 227.742C46.4577 227.742 43.052 220.049 43.052 213.608ZM54.0193 179.118C54.0193 178.897 54.2118 178.675 54.5869 178.531L67.1609 172.089C67.4399 171.945 67.8247 171.868 68.1999 171.868C68.5751 171.868 68.8637 171.945 69.1427 172.089L75.5692 175.459C76.1368 175.825 76.233 176.191 75.5692 176.412L61.1 181.901C60.821 182.045 60.5324 182.122 60.1572 182.122C59.782 182.122 59.3972 182.045 59.1182 181.901L54.5773 179.628C54.2021 179.484 54.0097 179.262 54.0097 179.118H54.0193ZM68.9599 200.205C68.9599 195.737 66.6895 190.759 64.1401 190.759C60.8306 190.759 58.8488 195.227 58.8488 200.205C58.8488 202.698 60.9268 204.306 64.1401 204.306C66.9781 204.306 68.9599 202.621 68.9599 200.205Z" fill="#F15A24"/>
<path d="M111.79 193.763C111.79 193.108 111.223 192.665 110.376 192.665H107.827C106.98 192.665 106.412 192.222 106.412 191.568V185.492C106.412 184.837 106.98 184.394 107.827 184.394H110.376C111.223 184.394 111.79 183.952 111.79 183.297V177C111.79 176.345 112.358 175.902 113.204 175.902H126.538C127.385 175.902 127.953 176.345 127.953 177V183.297C127.953 183.952 128.52 184.394 129.367 184.394H137.025C137.871 184.394 138.439 184.837 138.439 185.492V191.568C138.439 192.222 137.871 192.665 137.025 192.665H129.367C128.52 192.665 127.953 193.108 127.953 193.763V201.013C127.953 203.353 130.415 204.306 137.034 204.306C137.881 204.306 138.449 204.749 138.449 205.404V219.76C138.449 225.181 133.244 227.454 124.836 227.454C116.427 227.454 111.79 224.594 111.79 219.327V193.763Z" fill="#F15A24"/>
<path d="M142.133 211.258C142.133 202.621 147.713 184.096 164.828 184.096C177.498 184.096 180.336 189.295 180.336 197.643C180.336 198.375 179.768 198.741 178.922 198.741H160.96C160.114 198.741 159.45 199.03 159.45 199.694C159.45 203.132 164.27 204.451 179.114 204.451C180.057 204.451 180.625 204.894 180.625 205.548V226.048C180.625 226.702 180.057 227.145 179.211 227.145H167.676C152.927 227.145 142.143 223.265 142.143 211.258H142.133ZM167.858 192.222C167.387 191.269 166.531 190.615 165.117 190.615C163.414 190.615 162.278 191.202 161.432 192.155C161.239 192.377 161.153 192.598 161.153 192.742C161.153 193.185 161.624 193.474 162.384 193.474H166.733C167.676 193.474 168.243 192.964 167.868 192.232L167.858 192.222Z" fill="#F15A24"/>
<path d="M185.06 226.057V185.492C185.06 184.837 185.531 184.394 186.387 184.394H193.285C194.045 184.394 194.613 184.837 194.613 185.492V189.449C194.613 189.449 197.634 184.106 206.052 184.106C210.304 184.106 214.566 185.126 217.394 187.177C219.472 185.271 222.685 184.106 227.794 184.106C238.482 184.106 244.812 189.449 244.812 200.802V226.067C244.812 226.722 244.341 227.165 243.485 227.165H230.536C229.689 227.165 229.208 226.722 229.208 226.067V207.83C229.208 203.44 228.361 201.533 225.706 201.533C223.051 201.533 222.204 203.44 222.204 207.83V226.067C222.204 226.722 221.733 227.165 220.877 227.165H208.87C208.11 227.165 207.543 226.722 207.543 226.067V207.83C207.543 203.44 206.783 201.533 204.137 201.533C201.492 201.533 200.635 203.44 200.635 207.83V226.067C200.635 226.722 200.068 227.165 199.308 227.165H186.359C185.512 227.165 185.031 226.722 185.031 226.067L185.06 226.057Z" fill="#F15A24"/>
<path d="M269.114 180.947V176.99C269.114 176.335 269.681 175.892 270.528 175.892H284.237C285.084 175.892 285.651 176.335 285.651 176.99V180.947C285.651 181.602 285.084 182.045 284.237 182.045H270.528C269.681 182.045 269.114 181.602 269.114 180.947ZM269.114 226.057V185.492C269.114 184.837 269.681 184.394 270.528 184.394H284.237C285.084 184.394 285.651 184.837 285.651 185.492V226.057C285.651 226.712 285.084 227.155 284.237 227.155H270.528C269.681 227.155 269.114 226.712 269.114 226.057Z" fill="#F15A24"/>
<path d="M290.192 219.606V205.548C290.192 204.894 290.76 204.451 291.703 204.451C298.793 204.451 300.967 203.642 300.967 201.158V197.355C300.967 196.7 300.4 196.257 299.553 196.257H297.004C296.157 196.257 295.589 195.814 295.589 195.159V189.594C295.589 188.939 296.157 188.496 297.004 188.496H299.553C300.4 188.496 300.967 188.053 300.967 187.399V185.858C300.967 178.685 308.057 176.268 325.547 175.902C326.49 175.902 327.058 176.345 327.058 177V182.488C327.058 183.143 326.586 183.663 325.644 183.663C318.65 183.663 316.947 184.394 316.947 187.254C316.947 188.063 317.226 188.496 318.178 188.496H322.43C323.277 188.496 323.845 188.939 323.845 189.594V195.159C323.845 195.814 323.277 196.257 322.43 196.257H317.89C317.043 196.257 316.475 196.7 316.475 197.355V219.76C316.475 224.96 312.223 227.665 303.805 227.665C295.387 227.665 290.192 224.738 290.192 219.606Z" fill="#F15A24"/>
<path d="M324.047 213.608C324.047 202.255 327.828 184.394 344.942 184.394C362.057 184.394 365.646 202.265 365.646 213.608C365.646 220.049 362.432 227.742 344.942 227.742C327.452 227.742 324.047 220.049 324.047 213.608ZM349.955 200.205C349.955 195.737 347.684 190.759 345.135 190.759C341.825 190.759 339.843 195.227 339.843 200.205C339.843 202.698 341.921 204.306 345.135 204.306C347.973 204.306 349.955 202.621 349.955 200.205Z" fill="#F15A24"/>
<path d="M368.291 213.608C368.291 202.255 372.072 184.394 389.187 184.394C406.302 184.394 409.89 202.265 409.89 213.608C409.89 220.049 406.677 227.742 389.187 227.742C371.697 227.742 368.291 220.049 368.291 213.608ZM394.199 200.205C394.199 195.737 391.929 190.759 389.379 190.759C386.07 190.759 384.088 195.227 384.088 200.205C384.088 202.698 386.166 204.306 389.379 204.306C392.217 204.306 394.199 202.621 394.199 200.205Z" fill="#F15A24"/>
<path d="M412.728 206.213C412.728 193.33 420.29 185.56 433.816 184.539C434.663 184.462 435.144 184.096 435.144 183.441V177C435.144 176.345 435.711 175.902 436.558 175.902H451.21C452.057 175.902 452.624 176.345 452.624 177V226.057C452.624 226.712 452.057 227.155 451.21 227.155H437.308C420.29 227.155 412.728 220.714 412.728 206.213ZM435.134 202.987V191.491C435.134 190.98 434.663 190.682 433.903 190.682C431.729 190.682 427.38 192.954 427.38 196.835C427.38 200.715 429.651 204.306 433.335 204.306C434.567 204.306 435.134 203.863 435.134 202.987Z" fill="#F15A24"/>
</svg>
