<svg width="436" height="164" viewBox="0 0 436 164" fill="none" xmlns="http://www.w3.org/2000/svg">
<path d="M5.65684 28.3909L0 7.63162V7.47758C0 7.1791 0.240512 6.98652 0.673433 6.98652H6.57078C6.9556 6.98652 7.24421 7.16947 7.34042 7.47758L10.1496 17.1062C10.1977 17.2602 10.5344 17.2602 10.5825 17.1062L13.3917 7.47758C13.4879 7.1791 13.7284 6.98652 14.1613 6.98652H20.0587C20.4916 6.98652 20.7321 7.24646 20.6359 7.62198L14.3441 28.3812C14.2479 28.6797 14.0074 28.8723 13.5745 28.8723H6.41685C5.98393 28.8723 5.74342 28.6893 5.64721 28.3812L5.65684 28.3909Z" fill="#58ABA9"/>
<path d="M19.5873 21.9398C19.5873 16.1337 21.521 6.98652 30.2756 6.98652C39.0302 6.98652 40.8677 16.1241 40.8677 21.9398C40.8677 25.2327 39.2226 29.1708 30.2756 29.1708C21.3286 29.1708 19.5873 25.2327 19.5873 21.9398ZM32.8443 15.0841C32.8443 12.8022 31.6802 10.2506 30.3814 10.2506C28.6882 10.2506 27.6685 12.5326 27.6685 15.0841C27.6685 16.3551 28.7363 17.1832 30.3814 17.1832C31.8341 17.1832 32.8443 16.3166 32.8443 15.0841Z" fill="#58ABA9"/>
<path d="M42.3685 20.7458C42.3685 12.6192 47.1595 6.91911 53.9804 6.91911C58.8676 6.91911 61.9173 9.5766 61.9173 13.7747C61.9173 14.1502 61.6287 14.3331 61.1958 14.3331H56.501C56.02 14.3331 55.8276 14.1117 55.8276 13.7362C55.8276 11.1557 55.4428 10.1736 54.1344 10.1736C52.3931 10.1736 51.1809 11.8971 51.1809 14.2561C51.1809 16.6151 52.826 17.2506 61.292 17.2506C61.773 17.2506 62.0616 17.472 62.0616 17.809V28.2946C62.0616 28.6316 61.773 28.8531 61.3401 28.8531H55.4428C46.7362 28.8531 42.3782 26.8311 42.3782 20.7265L42.3685 20.7458Z" fill="#58ABA9"/>
<path d="M63.9954 20.7458C63.9954 16.3262 66.843 6.84206 75.6073 6.84206C82.0915 6.84206 83.5345 9.49957 83.5345 13.7747C83.5345 14.1502 83.2459 14.3331 82.813 14.3331H73.6254C73.1925 14.3331 72.8558 14.4872 72.8558 14.8242C72.8558 16.5862 75.3187 17.2602 82.9188 17.2602C83.3998 17.2602 83.6885 17.4817 83.6885 17.8187V28.3042C83.6885 28.6412 83.3998 28.8627 82.9669 28.8627H77.0696C69.5271 28.8627 64.0146 26.8792 64.0146 20.7362L63.9954 20.7458ZM75.309 4.18462C75.1166 4.18462 74.9242 4.22313 74.6837 4.30016L69.556 6.28365C69.4117 6.32216 69.3155 6.36063 69.2193 6.36063C68.8826 6.36063 68.6901 6.17774 68.6901 5.86962V3.47205C68.6901 3.17357 68.8826 2.95216 69.2193 2.7981L74.5875 0.583475C74.828 0.467932 75.0204 0.429443 75.2705 0.429443C75.463 0.429443 75.7035 0.467932 75.8959 0.583475L81.2641 2.7981C81.6008 2.95216 81.7932 3.17357 81.7932 3.47205V5.90812C81.7932 6.2066 81.6008 6.39919 81.3122 6.39919C81.216 6.39919 81.0717 6.39917 80.9274 6.32214L75.8478 4.30016C75.6554 4.22313 75.463 4.18462 75.3186 4.18462H75.309ZM77.1465 11.0016C76.906 10.5106 76.4635 10.1736 75.742 10.1736C74.8761 10.1736 74.2893 10.4721 73.8563 10.9631C73.7601 11.0787 73.712 11.1846 73.712 11.2616C73.712 11.4831 73.9525 11.6371 74.3374 11.6371H76.5597C77.0407 11.6371 77.3293 11.3771 77.1369 11.0016H77.1465Z" fill="#58ABA9"/>
<path d="M95.7718 18.1557C95.7718 11.5601 99.6392 7.59313 106.556 7.06356C106.989 7.02505 107.239 6.84209 107.239 6.50509V3.21212C107.239 2.87512 107.528 2.65365 107.961 2.65365H115.455C115.888 2.65365 116.177 2.87512 116.177 3.21212V28.3139C116.177 28.6509 115.888 28.8723 115.455 28.8723H108.346C99.6392 28.8723 95.7718 25.5793 95.7718 18.1557ZM107.23 16.5092V10.6262C107.23 10.3662 106.989 10.2121 106.604 10.2121C105.488 10.2121 103.266 11.3772 103.266 13.3606C103.266 15.3441 104.43 17.1832 106.316 17.1832C106.941 17.1832 107.239 16.9618 107.239 16.5092H107.23Z" fill="#58ABA9"/>
<path d="M126.769 6.91911C129.039 6.91911 129.626 7.67014 129.626 8.12268C129.626 7.67014 129.819 6.99615 130.646 6.99615H137.467C138.092 6.99615 138.535 7.21763 138.535 7.55463V28.3139C138.535 28.6509 138.102 28.8723 137.467 28.8723H131.656C130.983 28.8723 130.54 28.6509 130.54 28.3139V27.6399C130.059 28.2368 128.943 28.8723 127.058 28.8723C122.844 28.8723 118.159 26.8118 118.159 18.2327C118.159 13.3992 120.679 6.91911 126.769 6.91911ZM129.626 16.5862V10.6262C129.626 10.3662 129.386 10.2121 128.953 10.2121C127.885 10.2121 125.614 11.8201 125.614 13.8132C125.614 16.4322 127.067 17.2602 128.664 17.2602C129.347 17.2602 129.636 17.0387 129.636 16.5862H129.626Z" fill="#58ABA9"/>
<path d="M140.844 28.3139V7.55463C140.844 7.21763 141.132 6.99615 141.565 6.99615H145.673C146.106 6.99615 146.395 7.21763 146.395 7.55463V9.46107C146.395 8.22861 149.252 6.98652 153.745 6.98652C154.226 6.98652 154.514 7.16948 154.514 7.54499V10.9535C154.514 11.2905 154.322 11.5505 153.889 11.5505C150.743 11.5505 149.492 12.8985 149.492 15.4886V28.3042C149.492 28.6412 149.204 28.8627 148.771 28.8627H141.565C141.132 28.8627 140.844 28.6412 140.844 28.3042V28.3139Z" fill="#58ABA9"/>
<path d="M156.66 5.2341V3.21212C156.66 2.87512 156.948 2.65365 157.381 2.65365H164.395C164.827 2.65365 165.116 2.87512 165.116 3.21212V5.2341C165.116 5.5711 164.827 5.79258 164.395 5.79258H157.381C156.948 5.79258 156.66 5.5711 156.66 5.2341ZM156.66 28.3139V7.55463C156.66 7.21763 156.948 6.99615 157.381 6.99615H164.395C164.827 6.99615 165.116 7.21763 165.116 7.55463V28.3139C165.116 28.6509 164.827 28.8723 164.395 28.8723H157.381C156.948 28.8723 156.66 28.6509 156.66 28.3139Z" fill="#58ABA9"/>
<path d="M175.718 6.91911C177.988 6.91911 178.575 7.67014 178.575 8.12268C178.575 7.67014 178.768 6.99615 179.585 6.99615H186.406C187.032 6.99615 187.474 7.21763 187.474 7.55463V28.3139C187.474 28.6509 187.041 28.8723 186.406 28.8723H180.605C179.932 28.8723 179.489 28.6509 179.489 28.3139V27.6399C179.008 28.2368 177.892 28.8723 176.006 28.8723C171.802 28.8723 167.108 26.8118 167.108 18.2327C167.108 13.3992 169.618 6.91911 175.718 6.91911ZM178.575 16.5862V10.6262C178.575 10.3662 178.335 10.2121 177.892 10.2121C176.824 10.2121 174.554 11.8201 174.554 13.8132C174.554 16.4322 176.006 17.2602 177.603 17.2602C178.277 17.2602 178.575 17.0387 178.575 16.5862Z" fill="#58ABA9"/>
<path d="M200.289 17.7513C200.289 17.4143 200.577 17.1928 201.01 17.1928C204.348 17.1928 205.945 17.0099 205.945 16.5189C205.945 16.1818 205.118 15.6908 203.579 15.0168C200.972 13.8902 199.856 12.8407 199.856 11.1942C199.856 9.31663 201.837 6.81321 209.091 6.81321C215.912 6.81321 218.519 8.95078 218.76 13.0333C218.76 13.3318 218.471 13.5243 218.038 13.5243H213.103C212.67 13.5243 212.381 13.3414 212.381 13.0333C212.381 11.6468 212.093 10.0003 209.62 10.0003C207.494 10.0003 207.158 11.2327 207.158 11.8393C207.158 15.2478 220.068 14.1598 220.068 22.5174C220.068 25.743 217.509 28.8819 207.783 28.8819H201.01C200.577 28.8819 200.289 28.6605 200.289 28.3235V17.7513Z" fill="#58ABA9"/>
<path d="M221.569 20.7458C221.569 16.3262 224.426 6.84206 233.181 6.84206C239.665 6.84206 241.118 9.49957 241.118 13.7747C241.118 14.1502 240.829 14.3331 240.396 14.3331H231.209C230.776 14.3331 230.439 14.4872 230.439 14.8242C230.439 16.5862 232.902 17.2602 240.502 17.2602C240.983 17.2602 241.272 17.4817 241.272 17.8187V28.3042C241.272 28.6412 240.983 28.8627 240.55 28.8627H234.653C227.11 28.8627 221.588 26.8792 221.588 20.7362L221.569 20.7458ZM234.73 11.0016C234.489 10.5106 234.056 10.1736 233.325 10.1736C232.459 10.1736 231.873 10.4721 231.44 10.9631C231.343 11.0787 231.295 11.1846 231.295 11.2616C231.295 11.4831 231.536 11.6371 231.921 11.6371H234.143C234.624 11.6371 234.913 11.3771 234.72 11.0016H234.73Z" fill="#58ABA9"/>
<path d="M243.581 21.8338V7.56421C243.581 7.22721 243.821 7.00579 244.254 7.00579H250.883C251.267 7.00579 251.566 7.22721 251.566 7.56421V14.7183C251.566 16.3648 251.566 17.2314 253.307 17.2314C255.048 17.2314 255.096 16.3648 255.096 14.7183V7.56421C255.096 7.22721 255.385 7.00579 255.77 7.00579H262.398C262.783 7.00579 263.072 7.22721 263.072 7.56421V28.3235C263.072 28.6605 262.783 28.8819 262.398 28.8819H260.224C259.791 28.8819 259.551 28.6605 259.551 28.3235V27.9865C258.098 28.622 256.116 29.036 253.413 29.036C244.947 29.036 243.59 25.1749 243.59 21.8434L243.581 21.8338Z" fill="#58ABA9"/>
<path d="M275.549 28.3139V7.55463C275.549 7.21763 275.838 6.99615 276.271 6.99615H280.379C280.812 6.99615 281.1 7.21763 281.1 7.55463V9.46107C281.1 8.22861 283.958 6.98652 288.451 6.98652C288.932 6.98652 289.22 7.16948 289.22 7.54499V10.9535C289.22 11.2905 289.028 11.5505 288.595 11.5505C285.449 11.5505 284.198 12.8985 284.198 15.4886V28.3042C284.198 28.6412 283.91 28.8627 283.477 28.8627H276.271C275.838 28.8627 275.549 28.6412 275.549 28.3042V28.3139Z" fill="#58ABA9"/>
<path d="M288.075 20.7458C288.075 16.3262 290.933 6.84206 299.687 6.84206C306.171 6.84206 307.624 9.49957 307.624 13.7747C307.624 14.1502 307.336 14.3331 306.903 14.3331H297.715C297.282 14.3331 296.945 14.4872 296.945 14.8242C296.945 16.5862 299.408 17.2602 307.008 17.2602C307.489 17.2602 307.778 17.4817 307.778 17.8187V28.3042C307.778 28.6412 307.489 28.8627 307.057 28.8627H301.159C293.617 28.8627 288.095 26.8792 288.095 20.7362L288.075 20.7458ZM301.236 11.0016C300.996 10.5106 300.563 10.1736 299.832 10.1736C298.966 10.1736 298.379 10.4721 297.946 10.9631C297.85 11.0787 297.802 11.1846 297.802 11.2616C297.802 11.4831 298.042 11.6371 298.427 11.6371H300.649C301.13 11.6371 301.419 11.3771 301.226 11.0016H301.236Z" fill="#58ABA9"/>
<path d="M310.087 5.2341V3.21212C310.087 2.87512 310.376 2.65365 310.808 2.65365H317.822C318.255 2.65365 318.543 2.87512 318.543 3.21212V5.2341C318.543 5.5711 318.255 5.79258 317.822 5.79258H310.808C310.376 5.79258 310.087 5.5711 310.087 5.2341ZM310.087 28.3139V7.55463C310.087 7.21763 310.376 6.99615 310.808 6.99615H317.822C318.255 6.99615 318.543 7.21763 318.543 7.55463V28.3139C318.543 28.6509 318.255 28.8723 317.822 28.8723H310.808C310.376 28.8723 310.087 28.6509 310.087 28.3139Z" fill="#58ABA9"/>
<path d="M320.871 28.3139V7.55463C320.871 7.21763 321.16 6.99615 321.593 6.99615H325.364C325.797 6.99615 326.086 7.21763 326.086 7.55463V9.95214C326.086 8.90262 328.645 6.9576 332.32 6.9576C337.832 6.9576 341.604 9.65361 341.604 15.3826V28.3042C341.604 28.6412 341.315 28.8627 340.882 28.8627H333.869C333.436 28.8627 333.147 28.6412 333.147 28.3042V18.9741C333.147 16.7307 332.714 15.7485 331.262 15.7485C329.809 15.7485 329.376 16.721 329.376 18.9741V28.3042C329.376 28.6412 329.087 28.8627 328.654 28.8627H321.593C321.16 28.8627 320.871 28.6412 320.871 28.3042V28.3139Z" fill="#58ABA9"/>
<path d="M343.46 21.9398C343.46 16.1337 345.394 6.98652 354.149 6.98652C362.903 6.98652 364.741 16.1241 364.741 21.9398C364.741 25.2327 363.096 29.1708 354.149 29.1708C345.202 29.1708 343.46 25.2327 343.46 21.9398ZM356.708 15.0841C356.708 12.8022 355.544 10.2506 354.245 10.2506C352.552 10.2506 351.542 12.5326 351.542 15.0841C351.542 16.3551 352.609 17.1832 354.245 17.1832C355.698 17.1832 356.708 16.3166 356.708 15.0841Z" fill="#58ABA9"/>
<path d="M376.738 35.8049V7.55463C376.738 7.21763 377.026 6.99615 377.459 6.99615H384.905C394.68 6.99615 397.383 12.6866 397.383 18.1653C397.383 22.8063 396.517 28.2079 386.695 28.8049C386.214 28.8434 385.973 29.0649 385.973 29.4019V35.8049C385.973 36.1419 385.685 36.3634 385.252 36.3634H377.459C377.026 36.3634 376.738 36.1419 376.738 35.8049ZM389.889 13.3606C389.889 11.4157 387.666 10.2506 386.55 10.2506C386.021 10.2506 385.973 10.5106 385.973 10.809V16.4322C385.973 16.6536 385.973 16.8847 386.166 17.0291C386.358 17.1447 386.55 17.1832 386.839 17.1832C389.158 17.1832 389.889 15.4597 389.889 13.3606Z" fill="#58ABA9"/>
<path d="M398.836 21.9398C398.836 16.1337 400.769 6.98652 409.524 6.98652C418.279 6.98652 420.116 16.1241 420.116 21.9398C420.116 25.2327 418.471 29.1708 409.524 29.1708C400.577 29.1708 398.836 25.2327 398.836 21.9398ZM412.093 15.0841C412.093 12.8022 410.929 10.2506 409.63 10.2506C407.937 10.2506 406.917 12.5326 406.917 15.0841C406.917 16.3551 407.985 17.1832 409.63 17.1832C411.083 17.1832 412.093 16.3166 412.093 15.0841Z" fill="#58ABA9"/>
<path d="M421.954 28.3139V7.55463C421.954 7.21763 422.242 6.99615 422.675 6.99615H426.783C427.216 6.99615 427.505 7.21763 427.505 7.55463V9.46107C427.505 8.22861 430.362 6.98652 434.855 6.98652C435.336 6.98652 435.624 7.16948 435.624 7.54499V10.9535C435.624 11.2905 435.432 11.5505 434.999 11.5505C431.853 11.5505 430.603 12.8985 430.603 15.4886V28.3042C430.603 28.6412 430.314 28.8627 429.881 28.8627H422.675C422.242 28.8627 421.954 28.6412 421.954 28.3042V28.3139Z" fill="#58ABA9"/>
<path d="M0.769638 52.5201C0.769638 52.1831 1.01015 51.9617 1.44307 51.9617H8.07157C8.45639 51.9617 8.74501 52.1831 8.74501 52.5201V59.6742C8.74501 61.3207 8.74501 62.1873 10.4863 62.1873C12.2276 62.1873 12.2757 61.3207 12.2757 59.6742V52.5201C12.2757 52.1831 12.5643 51.9617 12.9588 51.9617H19.5873C19.9721 51.9617 20.2703 52.1831 20.2703 52.5201V73.2794C20.2703 73.6164 19.9817 73.8379 19.5873 73.8379H17.413C16.9801 73.8379 16.73 73.6164 16.73 73.2794V72.9424C15.2773 73.5779 13.2955 73.992 10.5921 73.992C2.12612 73.992 0.769638 70.1308 0.769638 66.7994V52.5201Z" fill="#58ABA9"/>
<path d="M22.5408 73.2698V52.5106C22.5408 52.1736 22.7813 51.9521 23.2142 51.9521H26.7449C27.1297 51.9521 27.428 52.1736 27.428 52.5106V54.5325C27.428 54.5325 28.9769 51.798 33.2772 51.798C35.4514 51.798 37.6257 52.3179 39.0783 53.3675C40.1462 52.395 41.7817 51.798 44.3985 51.798C49.8629 51.798 53.105 54.5325 53.105 60.3385V73.2602C53.105 73.5972 52.8645 73.8186 52.4219 73.8186H45.7934C45.3605 73.8186 45.1104 73.5972 45.1104 73.2602V63.9301C45.1104 61.6866 44.6775 60.7044 43.321 60.7044C41.9645 60.7044 41.5316 61.677 41.5316 63.9301V73.2602C41.5316 73.5972 41.291 73.8186 40.8485 73.8186H34.7107C34.3258 73.8186 34.0276 73.5972 34.0276 73.2602V63.9301C34.0276 61.6866 33.6428 60.7044 32.2863 60.7044C30.9298 60.7044 30.4969 61.677 30.4969 63.9301V73.2602C30.4969 73.5972 30.2083 73.8186 29.8235 73.8186H23.195C22.762 73.8186 22.5215 73.5972 22.5215 73.2602L22.5408 73.2698Z" fill="#58ABA9"/>
<path d="M63.649 51.875C65.9195 51.875 66.5063 52.6261 66.5063 53.0786C66.5063 52.6261 66.6987 51.9521 67.5261 51.9521H74.347C74.9723 51.9521 75.4149 52.1736 75.4149 52.5106V73.2698C75.4149 73.6068 74.9819 73.8282 74.347 73.8282H68.5362C67.8628 73.8282 67.4202 73.6068 67.4202 73.2698V72.5958C66.9392 73.1928 65.8232 73.8282 63.9376 73.8282C59.7239 73.8282 55.0387 71.7677 55.0387 63.1886C55.0387 58.3551 57.5593 51.875 63.649 51.875ZM66.5063 61.5421V55.582C66.5063 55.322 66.2658 55.168 65.8329 55.168C64.765 55.168 62.4946 56.776 62.4946 58.7691C62.4946 61.3881 63.9473 62.2161 65.5443 62.2161C66.2273 62.2161 66.5159 61.9947 66.5159 61.5421H66.5063Z" fill="#58ABA9"/>
<path d="M87.883 62.7746C87.883 62.4376 88.1716 62.2161 88.6526 62.2161C92.2795 62.2161 93.3955 61.8021 93.3955 60.5311V58.5862C93.3955 58.2492 93.1069 58.0277 92.674 58.0277H91.3656C90.9327 58.0277 90.6441 57.8062 90.6441 57.4692V54.6192C90.6441 54.2822 90.9327 54.0607 91.3656 54.0607H92.674C93.1069 54.0607 93.3955 53.8393 93.3955 53.5023V52.7127C93.3955 49.0442 97.0224 47.8021 105.969 47.6192C106.45 47.6192 106.739 47.8407 106.739 48.1777V50.9892C106.739 51.3262 106.499 51.5862 106.018 51.5862C102.439 51.5862 101.573 51.9617 101.573 53.4252C101.573 53.8393 101.717 54.0607 102.198 54.0607H104.372C104.805 54.0607 105.094 54.2822 105.094 54.6192V57.4692C105.094 57.8062 104.805 58.0277 104.372 58.0277H102.054C101.621 58.0277 101.332 58.2492 101.332 58.5862V70.0538C101.332 72.7113 99.1582 74.0978 94.8482 74.0978C90.5382 74.0978 87.883 72.5958 87.883 69.9768V62.7746Z" fill="#58ABA9"/>
<path d="M104.767 65.7017C104.767 61.2822 107.624 51.798 116.379 51.798C122.863 51.798 124.316 54.4555 124.316 58.7306C124.316 59.1061 124.027 59.2891 123.594 59.2891H114.407C113.974 59.2891 113.637 59.4431 113.637 59.7801C113.637 61.5422 116.1 62.2161 123.7 62.2161C124.181 62.2161 124.47 62.4376 124.47 62.7746V73.2602C124.47 73.5972 124.181 73.8186 123.748 73.8186H117.851C110.308 73.8186 104.786 71.8351 104.786 65.692L104.767 65.7017ZM117.918 55.9575C117.678 55.4665 117.245 55.1295 116.513 55.1295C115.648 55.1295 115.061 55.428 114.628 55.9191C114.532 56.0346 114.484 56.1405 114.484 56.2175C114.484 56.439 114.724 56.5931 115.109 56.5931H117.331C117.812 56.5931 118.101 56.3331 117.908 55.9575H117.918Z" fill="#58ABA9"/>
<path d="M126.769 50.19V48.168C126.769 47.831 127.058 47.6096 127.49 47.6096H134.504C134.937 47.6096 135.225 47.831 135.225 48.168V50.19C135.225 50.527 134.937 50.7485 134.504 50.7485H127.49C127.058 50.7485 126.769 50.527 126.769 50.19ZM126.769 73.2698V52.5106C126.769 52.1736 127.058 51.9521 127.49 51.9521H134.504C134.937 51.9521 135.225 52.1736 135.225 52.5106V73.2698C135.225 73.6068 134.937 73.8282 134.504 73.8282H127.49C127.058 73.8282 126.769 73.6068 126.769 73.2698Z" fill="#58ABA9"/>
<path d="M136.832 70.4582C136.832 70.1212 137.121 69.8998 137.563 69.8998C140.613 69.8613 142.21 69.3413 142.21 68.2148V52.5201C142.21 52.1831 142.498 51.9617 142.931 51.9617H149.656C150.089 51.9617 150.378 52.1831 150.378 52.5201V77.3234C150.378 79.9135 148.059 81.3289 143.653 81.3289C139.247 81.3289 136.832 79.9039 136.832 77.2464V70.4582ZM142.2 50.19V48.168C142.2 47.831 142.489 47.6096 142.922 47.6096H149.646C150.079 47.6096 150.368 47.831 150.368 48.168V50.19C150.368 50.527 150.079 50.7485 149.646 50.7485H142.922C142.489 50.7485 142.2 50.527 142.2 50.19Z" fill="#58ABA9"/>
<path d="M152.215 66.8956C152.215 61.0896 154.149 51.9424 162.903 51.9424C171.658 51.9424 173.496 61.0799 173.496 66.8956C173.496 70.1886 171.85 74.1267 162.903 74.1267C153.956 74.1267 152.215 70.1886 152.215 66.8956ZM165.462 60.0401C165.462 57.7581 164.298 55.2065 163 55.2065C161.306 55.2065 160.287 57.4885 160.287 60.0401C160.287 61.311 161.354 62.1391 163 62.1391C164.452 62.1391 165.462 61.2725 165.462 60.0401Z" fill="#58ABA9"/>
<path d="M183.607 51.875C185.877 51.875 186.464 52.6261 186.464 53.0786C186.464 52.6261 186.656 51.9521 187.474 51.9521H194.295C194.92 51.9521 195.363 52.1736 195.363 52.5106V73.2698C195.363 73.6068 194.93 73.8282 194.295 73.8282H188.494C187.82 73.8282 187.378 73.6068 187.378 73.2698V72.5958C186.897 73.1928 185.781 73.8282 183.895 73.8282C179.691 73.8282 174.996 71.7677 174.996 63.1886C174.996 58.3551 177.507 51.875 183.607 51.875ZM186.454 61.5421V55.582C186.454 55.322 186.214 55.168 185.771 55.168C184.703 55.168 182.433 56.776 182.433 58.7691C182.433 61.3881 183.886 62.2161 185.483 62.2161C186.156 62.2161 186.454 61.9947 186.454 61.5421Z" fill="#58ABA9"/>
<path d="M197.287 63.1116C197.287 56.516 201.154 52.5491 208.071 52.0195C208.504 51.981 208.755 51.798 208.755 51.461V48.168C208.755 47.831 209.043 47.6096 209.476 47.6096H216.97C217.403 47.6096 217.692 47.831 217.692 48.168V73.2698C217.692 73.6068 217.403 73.8282 216.97 73.8282H209.861C201.154 73.8282 197.287 70.5352 197.287 63.1116ZM208.755 61.4651V55.582C208.755 55.322 208.514 55.168 208.129 55.168C207.013 55.168 204.791 56.3331 204.791 58.3166C204.791 60.3001 205.955 62.1391 207.841 62.1391C208.466 62.1391 208.764 61.9177 208.764 61.4651H208.755Z" fill="#58ABA9"/>
<path d="M228.294 51.875C230.564 51.875 231.151 52.6261 231.151 53.0786C231.151 52.6261 231.343 51.9521 232.161 51.9521H238.982C239.607 51.9521 240.05 52.1736 240.05 52.5106V73.2698C240.05 73.6068 239.617 73.8282 238.982 73.8282H233.181C232.507 73.8282 232.065 73.6068 232.065 73.2698V72.5958C231.584 73.1928 230.468 73.8282 228.582 73.8282C224.378 73.8282 219.683 71.7677 219.683 63.1886C219.683 58.3551 222.194 51.875 228.294 51.875ZM231.151 61.5421V55.582C231.151 55.322 230.91 55.168 230.468 55.168C229.4 55.168 227.13 56.776 227.13 58.7691C227.13 61.3881 228.582 62.2161 230.179 62.2161C230.853 62.2161 231.151 61.9947 231.151 61.5421Z" fill="#58ABA9"/>
<path d="M252.191 65.7017C252.191 57.5751 256.982 51.875 263.803 51.875C268.69 51.875 271.74 54.5325 271.74 58.7306C271.74 59.1061 271.451 59.2891 271.018 59.2891H266.323C265.842 59.2891 265.64 59.0676 265.64 58.6921C265.64 56.1116 265.256 55.1295 263.947 55.1295C262.206 55.1295 260.994 56.853 260.994 59.212C260.994 61.571 262.639 62.2065 271.105 62.2065C271.586 62.2065 271.874 62.428 271.874 62.765V73.2505C271.874 73.5875 271.586 73.809 271.153 73.809H265.256C256.549 73.809 252.201 71.787 252.201 65.6825L252.191 65.7017Z" fill="#58ABA9"/>
<path d="M273.712 66.8956C273.712 61.0896 275.646 51.9424 284.4 51.9424C293.155 51.9424 294.992 61.0799 294.992 66.8956C294.992 70.1886 293.347 74.1267 284.4 74.1267C275.453 74.1267 273.712 70.1886 273.712 66.8956ZM286.969 60.0401C286.969 57.7581 285.805 55.2065 284.506 55.2065C282.813 55.2065 281.803 57.4885 281.803 60.0401C281.803 61.311 282.871 62.1391 284.506 62.1391C285.959 62.1391 286.969 61.2725 286.969 60.0401Z" fill="#58ABA9"/>
<path d="M296.782 73.2698V52.5106C296.782 52.1736 297.022 51.9521 297.465 51.9521H300.996C301.38 51.9521 301.669 52.1736 301.669 52.5106V54.5325C301.669 54.5325 303.218 51.798 307.518 51.798C309.692 51.798 311.876 52.3179 313.319 53.3675C314.387 52.395 316.032 51.798 318.64 51.798C324.104 51.798 327.346 54.5325 327.346 60.3385V73.2602C327.346 73.5972 327.106 73.8186 326.673 73.8186H320.044C319.611 73.8186 319.371 73.5972 319.371 73.2602V63.9301C319.371 61.6866 318.938 60.7044 317.581 60.7044C316.225 60.7044 315.792 61.677 315.792 63.9301V73.2602C315.792 73.5972 315.551 73.8186 315.118 73.8186H308.971C308.586 73.8186 308.298 73.5972 308.298 73.2602V63.9301C308.298 61.6866 307.913 60.7044 306.556 60.7044C305.2 60.7044 304.767 61.677 304.767 63.9301V73.2602C304.767 73.5972 304.478 73.8186 304.084 73.8186H297.455C297.022 73.8186 296.772 73.5972 296.772 73.2602L296.782 73.2698Z" fill="#58ABA9"/>
<path d="M329.626 80.7608V52.5106C329.626 52.1736 329.915 51.9521 330.348 51.9521H337.794C347.568 51.9521 350.272 57.6522 350.272 63.1212C350.272 67.7622 349.406 73.1638 339.583 73.7608C339.102 73.7993 338.862 74.0208 338.862 74.3578V80.7608C338.862 81.0978 338.573 81.3193 338.14 81.3193H330.357C329.924 81.3193 329.636 81.0978 329.636 80.7608H329.626ZM342.777 58.3166C342.777 56.3716 340.555 55.2065 339.439 55.2065C338.91 55.2065 338.862 55.4665 338.862 55.765V61.3881C338.862 61.6095 338.862 61.8406 339.054 61.9851C339.247 62.1006 339.439 62.1391 339.737 62.1391C342.056 62.1391 342.787 60.4156 342.787 58.3166H342.777Z" fill="#58ABA9"/>
<path d="M352.215 73.2698V48.1295C352.215 47.7925 352.504 47.5711 352.936 47.5711H360.19C360.623 47.5711 360.912 47.7925 360.912 48.1295V73.2698C360.912 73.6068 360.623 73.8282 360.19 73.8282H352.936C352.504 73.8282 352.215 73.6068 352.215 73.2698Z" fill="#58ABA9"/>
<path d="M362.855 65.7017C362.855 61.2822 365.713 51.798 374.467 51.798C380.951 51.798 382.404 54.4555 382.404 58.7306C382.404 59.1061 382.115 59.2891 381.682 59.2891H372.495C372.062 59.2891 371.725 59.4431 371.725 59.7801C371.725 61.5422 374.188 62.2161 381.788 62.2161C382.269 62.2161 382.558 62.4376 382.558 62.7746V73.2602C382.558 73.5972 382.269 73.8186 381.836 73.8186H375.939C368.397 73.8186 362.874 71.8351 362.874 65.692L362.855 65.7017ZM376.006 55.9575C375.766 55.4665 375.333 55.1295 374.602 55.1295C373.736 55.1295 373.149 55.428 372.716 55.9191C372.62 56.0346 372.572 56.1405 372.572 56.2175C372.572 56.439 372.812 56.5931 373.197 56.5931H375.42C375.901 56.5931 376.189 56.3331 375.997 55.9575H376.006Z" fill="#58ABA9"/>
<path d="M386.118 69.8227V56.7471C386.118 56.4101 385.829 56.1886 385.396 56.1886H384.088C383.655 56.1886 383.366 55.9672 383.366 55.6302V52.5201C383.366 52.1831 383.655 51.9617 384.088 51.9617H385.396C385.829 51.9617 386.118 51.7402 386.118 51.4032V48.1777C386.118 47.8407 386.406 47.6192 386.839 47.6192H393.66C394.093 47.6192 394.382 47.8407 394.382 48.1777V51.4032C394.382 51.7402 394.67 51.9617 395.103 51.9617H399.019C399.452 51.9617 399.74 52.1831 399.74 52.5201V55.6302C399.74 55.9672 399.452 56.1886 399.019 56.1886H395.103C394.67 56.1886 394.382 56.4101 394.382 56.7471V60.4541C394.382 61.6577 395.642 62.1391 399.028 62.1391C399.461 62.1391 399.75 62.3606 399.75 62.6976V70.0442C399.75 72.8172 397.085 73.9727 392.785 73.9727C388.484 73.9727 386.108 72.5091 386.108 69.8131L386.118 69.8227Z" fill="#58ABA9"/>
<path d="M410.303 51.875C412.574 51.875 413.161 52.6261 413.161 53.0786C413.161 52.6261 413.353 51.9521 414.171 51.9521H420.992C421.617 51.9521 422.06 52.1736 422.06 52.5106V73.2698C422.06 73.6068 421.627 73.8282 420.992 73.8282H415.191C414.517 73.8282 414.075 73.6068 414.075 73.2698V72.5958C413.594 73.1928 412.478 73.8282 410.592 73.8282C406.388 73.8282 401.693 71.7677 401.693 63.1886C401.693 58.3551 404.204 51.875 410.303 51.875ZM413.161 61.5421V55.582C413.161 55.322 412.92 55.168 412.478 55.168C411.41 55.168 409.139 56.776 409.139 58.7691C409.139 61.3881 410.592 62.2161 412.189 62.2161C412.862 62.2161 413.161 61.9947 413.161 61.5421Z" fill="#58ABA9"/>
<path d="M427.235 76.7168C427.235 76.6398 427.283 76.5339 427.38 76.4183L428.832 74.4734C428.88 74.3963 428.929 74.2904 428.929 74.2134C428.929 73.9919 428.544 73.8379 427.957 73.8379H425.542C425.109 73.8379 424.821 73.6164 424.821 73.2794V68.9369C424.821 68.5999 425.109 68.3785 425.542 68.3785H433.373C433.806 68.3785 434.095 68.5999 434.095 68.9369V73.3179C434.095 73.5779 434.047 73.7705 433.854 74.0304L431.728 76.7264C431.536 76.9864 431.247 77.102 430.862 77.102H427.909C427.476 77.102 427.235 76.9479 427.235 76.7264V76.7168Z" fill="#58ABA9"/>
<path d="M1.11597 107.663C1.11597 107.326 1.40459 107.105 1.83751 107.105C5.17581 107.105 6.77281 106.922 6.77281 106.431C6.77281 106.094 5.94545 105.603 4.40617 104.929C1.79903 103.802 0.683053 102.753 0.683053 101.106C0.683053 99.2285 2.66487 96.7251 9.9187 96.7251C16.7396 96.7251 19.3468 98.8626 19.5873 102.945C19.5873 103.244 19.2987 103.436 18.8657 103.436H13.9304C13.4975 103.436 13.2089 103.253 13.2089 102.945C13.2089 101.559 12.9203 99.9121 10.4478 99.9121C8.3217 99.9121 7.98499 101.145 7.98499 101.751C7.98499 105.16 20.8957 104.072 20.8957 112.429C20.8957 115.655 18.3366 118.794 8.61032 118.794H1.83751C1.40459 118.794 1.11597 118.572 1.11597 118.235V107.663Z" fill="#58ABA9"/>
<path d="M22.3965 110.658C22.3965 106.238 25.2441 96.7539 34.0084 96.7539C40.4926 96.7539 41.9356 99.4114 41.9356 103.687C41.9356 104.062 41.647 104.245 41.2141 104.245H32.0265C31.5936 104.245 31.2569 104.399 31.2569 104.736C31.2569 106.498 33.7197 107.172 41.3199 107.172C41.8009 107.172 42.0896 107.394 42.0896 107.731V118.216C42.0896 118.553 41.8009 118.775 41.368 118.775H35.4707C27.9282 118.775 22.4157 116.791 22.4157 110.648L22.3965 110.658ZM35.5476 100.913C35.3071 100.422 34.8646 100.085 34.143 100.085C33.2772 100.085 32.6904 100.384 32.2574 100.875C32.1612 100.991 32.1131 101.096 32.1131 101.173C32.1131 101.395 32.3536 101.549 32.7385 101.549H34.9608C35.4418 101.549 35.7304 101.289 35.538 100.913H35.5476Z" fill="#58ABA9"/>
<path d="M54.1729 110.658C54.1729 106.238 57.0205 96.7539 65.7848 96.7539C72.269 96.7539 73.712 99.4114 73.712 103.687C73.712 104.062 73.4234 104.245 72.9905 104.245H63.8029C63.37 104.245 63.0333 104.399 63.0333 104.736C63.0333 106.498 65.4962 107.172 73.0963 107.172C73.5773 107.172 73.866 107.394 73.866 107.731V118.216C73.866 118.553 73.5773 118.775 73.1444 118.775H67.2471C59.7046 118.775 54.1921 116.791 54.1921 110.648L54.1729 110.658ZM67.324 100.913C67.0835 100.422 66.641 100.085 65.9194 100.085C65.0536 100.085 64.4668 100.384 64.0338 100.875C63.9376 100.991 63.8895 101.096 63.8895 101.173C63.8895 101.395 64.13 101.549 64.5149 101.549H66.7372C67.2182 101.549 67.5068 101.289 67.3144 100.913H67.324Z" fill="#58ABA9"/>
<path d="M76.1749 118.226V93.0854C76.1749 92.7484 76.4635 92.527 76.8964 92.527H84.1502C84.5832 92.527 84.8718 92.7484 84.8718 93.0854V118.226C84.8718 118.563 84.5832 118.784 84.1502 118.784H76.8964C76.4635 118.784 76.1749 118.563 76.1749 118.226Z" fill="#58ABA9"/>
<path d="M95.4735 96.831C97.744 96.831 98.3308 97.582 98.3308 98.0345C98.3308 97.582 98.5232 96.908 99.341 96.908H106.162C106.787 96.908 107.23 97.1294 107.23 97.4664V118.226C107.23 118.563 106.797 118.784 106.162 118.784H100.361C99.6873 118.784 99.2448 118.563 99.2448 118.226V117.552C98.7637 118.149 97.6478 118.784 95.7621 118.784C91.558 118.784 86.8632 116.724 86.8632 108.145C86.8632 103.311 89.3741 96.831 95.4735 96.831ZM98.3308 106.498V100.538C98.3308 100.278 98.0903 100.124 97.6478 100.124C96.5799 100.124 94.3095 101.732 94.3095 103.725C94.3095 106.344 95.7621 107.172 97.3591 107.172C98.0326 107.172 98.3308 106.951 98.3308 106.498Z" fill="#58ABA9"/>
<path d="M119.707 107.731C119.707 107.394 119.996 107.172 120.477 107.172C124.104 107.172 125.22 106.758 125.22 105.487V103.542C125.22 103.205 124.931 102.984 124.498 102.984H123.19C122.757 102.984 122.469 102.762 122.469 102.425V99.5751C122.469 99.2381 122.757 99.0167 123.19 99.0167H124.498C124.931 99.0167 125.22 98.7952 125.22 98.4582V97.6686C125.22 94.0001 128.847 92.7581 137.794 92.5751C138.275 92.5751 138.564 92.7965 138.564 93.1335V95.9451C138.564 96.2821 138.323 96.5421 137.842 96.5421C134.263 96.5421 133.397 96.9176 133.397 98.3811C133.397 98.7952 133.542 99.0167 134.023 99.0167H136.197C136.63 99.0167 136.919 99.2381 136.919 99.5751V102.425C136.919 102.762 136.63 102.984 136.197 102.984H133.878C133.446 102.984 133.157 103.205 133.157 103.542V115.01C133.157 117.667 130.983 119.054 126.673 119.054C122.363 119.054 119.707 117.552 119.707 114.933V107.731Z" fill="#58ABA9"/>
<path d="M137.024 111.852C137.024 106.046 138.958 96.8984 147.713 96.8984C156.467 96.8984 158.305 106.036 158.305 111.852C158.305 115.145 156.66 119.083 147.713 119.083C138.766 119.083 137.024 115.145 137.024 111.852ZM150.281 104.996C150.281 102.714 149.117 100.162 147.818 100.162C146.125 100.162 145.106 102.444 145.106 104.996C145.106 106.267 146.173 107.095 147.818 107.095C149.271 107.095 150.281 106.228 150.281 104.996Z" fill="#58ABA9"/>
<path d="M160.142 118.226V97.4664C160.142 97.1294 160.431 96.908 160.864 96.908H164.972C165.405 96.908 165.693 97.1294 165.693 97.4664V99.3729C165.693 98.1405 168.551 96.8984 173.043 96.8984C173.524 96.8984 173.813 97.0813 173.813 97.4568V100.865C173.813 101.202 173.621 101.462 173.188 101.462C170.042 101.462 168.781 102.81 168.781 105.4V118.216C168.781 118.553 168.493 118.775 168.06 118.775H160.854C160.421 118.775 160.133 118.553 160.133 118.216L160.142 118.226Z" fill="#58ABA9"/>
<path d="M186.118 118.226V93.124C186.118 92.787 186.406 92.5655 186.839 92.5655H194.333C194.766 92.5655 195.055 92.787 195.055 93.124V96.4169C195.055 96.7539 195.296 96.9369 195.728 96.9754C202.646 97.4953 206.513 101.472 206.513 108.068C206.513 115.482 202.646 118.784 193.939 118.784H186.83C186.397 118.784 186.108 118.563 186.108 118.226H186.118ZM199.028 103.272C199.028 101.135 196.95 100.085 195.786 100.085C195.353 100.085 195.065 100.239 195.065 100.538V106.421C195.065 106.912 195.401 107.095 195.988 107.095C198.307 107.095 199.038 105.035 199.038 103.272H199.028Z" fill="#58ABA9"/>
<path d="M207.975 111.852C207.975 106.046 209.909 96.8984 218.664 96.8984C227.418 96.8984 229.256 106.036 229.256 111.852C229.256 115.145 227.611 119.083 218.664 119.083C209.717 119.083 207.975 115.145 207.975 111.852ZM221.232 104.996C221.232 102.714 220.068 100.162 218.769 100.162C217.076 100.162 216.056 102.444 216.056 104.996C216.056 106.267 217.124 107.095 218.769 107.095C220.222 107.095 221.232 106.228 221.232 104.996Z" fill="#58ABA9"/>
<path d="M239.367 96.831C241.637 96.831 242.224 97.582 242.224 98.0345C242.224 97.582 242.417 96.908 243.244 96.908H250.065C250.69 96.908 251.133 97.1294 251.133 97.4664V118.226C251.133 118.563 250.7 118.784 250.065 118.784H244.254C243.581 118.784 243.138 118.563 243.138 118.226V117.552C242.657 118.149 241.541 118.784 239.656 118.784C235.442 118.784 230.757 116.724 230.757 108.145C230.757 103.311 233.277 96.831 239.367 96.831ZM242.224 106.498V100.538C242.224 100.278 241.984 100.124 241.551 100.124C240.483 100.124 238.212 101.732 238.212 103.725C238.212 106.344 239.665 107.172 241.262 107.172C241.945 107.172 242.234 106.951 242.234 106.498H242.224Z" fill="#58ABA9"/>
<path d="M256.299 121.673C256.299 121.596 256.347 121.49 256.443 121.374L257.896 119.429C257.944 119.352 257.992 119.246 257.992 119.169C257.992 118.948 257.607 118.794 257.02 118.794H254.606C254.173 118.794 253.884 118.572 253.884 118.235V113.893C253.884 113.556 254.173 113.334 254.606 113.334H262.437C262.87 113.334 263.158 113.556 263.158 113.893V118.274C263.158 118.534 263.11 118.726 262.918 118.986L260.792 121.682C260.599 121.942 260.311 122.058 259.926 122.058H256.972C256.539 122.058 256.299 121.904 256.299 121.682V121.673Z" fill="#58ABA9"/>
<path d="M275.068 118.226V93.124C275.068 92.787 275.357 92.5655 275.79 92.5655H283.284C283.717 92.5655 284.006 92.787 284.006 93.124V96.4169C284.006 96.7539 284.246 96.9369 284.689 96.9754C291.606 97.4953 295.473 101.472 295.473 108.068C295.473 115.482 291.606 118.784 282.9 118.784H275.79C275.357 118.784 275.068 118.563 275.068 118.226ZM287.979 103.272C287.979 101.135 285.901 100.085 284.737 100.085C284.304 100.085 284.006 100.239 284.006 100.538V106.421C284.006 106.912 284.343 107.095 284.929 107.095C287.248 107.095 287.979 105.035 287.979 103.272Z" fill="#58ABA9"/>
<path d="M305.681 96.831C307.951 96.831 308.538 97.582 308.538 98.0345C308.538 97.582 308.73 96.908 309.558 96.908H316.379C317.004 96.908 317.447 97.1294 317.447 97.4664V118.226C317.447 118.563 317.014 118.784 316.379 118.784H310.568C309.895 118.784 309.452 118.563 309.452 118.226V117.552C308.971 118.149 307.855 118.784 305.969 118.784C301.756 118.784 297.07 116.724 297.07 108.145C297.07 103.311 299.591 96.831 305.681 96.831ZM308.538 106.498V100.538C308.538 100.278 308.298 100.124 307.865 100.124C306.797 100.124 304.526 101.732 304.526 103.725C304.526 106.344 305.979 107.172 307.576 107.172C308.259 107.172 308.548 106.951 308.548 106.498H308.538Z" fill="#58ABA9"/>
<path d="M319.756 118.226V97.4664C319.756 97.1294 320.044 96.908 320.477 96.908H324.585C325.018 96.908 325.307 97.1294 325.307 97.4664V99.3729C325.307 98.1405 328.164 96.8984 332.657 96.8984C333.138 96.8984 333.426 97.0813 333.426 97.4568V100.865C333.426 101.202 333.234 101.462 332.801 101.462C329.655 101.462 328.404 102.81 328.404 105.4V118.216C328.404 118.553 328.116 118.775 327.683 118.775H320.477C320.044 118.775 319.756 118.553 319.756 118.216V118.226Z" fill="#58ABA9"/>
<path d="M342.344 96.831C344.615 96.831 345.202 97.582 345.202 98.0345C345.202 97.582 345.394 96.908 346.221 96.908H353.042C353.668 96.908 354.11 97.1294 354.11 97.4664V118.226C354.11 118.563 353.677 118.784 353.042 118.784H347.232C346.558 118.784 346.116 118.563 346.116 118.226V117.552C345.635 118.149 344.519 118.784 342.633 118.784C338.419 118.784 333.734 116.724 333.734 108.145C333.734 103.311 336.255 96.831 342.344 96.831ZM345.202 106.498V100.538C345.202 100.278 344.961 100.124 344.528 100.124C343.46 100.124 341.19 101.732 341.19 103.725C341.19 106.344 342.643 107.172 344.24 107.172C344.923 107.172 345.211 106.951 345.211 106.498H345.202Z" fill="#58ABA9"/>
<path d="M358.305 114.779V101.703C358.305 101.366 358.016 101.145 357.583 101.145H356.275C355.842 101.145 355.553 100.923 355.553 100.586V97.4761C355.553 97.1391 355.842 96.9176 356.275 96.9176H357.583C358.016 96.9176 358.305 96.6962 358.305 96.3592V93.1335C358.305 92.7965 358.593 92.5751 359.026 92.5751H365.847C366.28 92.5751 366.569 92.7965 366.569 93.1335V96.3592C366.569 96.6962 366.857 96.9176 367.29 96.9176H371.206C371.639 96.9176 371.927 97.1391 371.927 97.4761V100.586C371.927 100.923 371.639 101.145 371.206 101.145H367.29C366.857 101.145 366.569 101.366 366.569 101.703V105.41C366.569 106.614 367.829 107.095 371.215 107.095C371.648 107.095 371.937 107.316 371.937 107.653V115C371.937 117.773 369.272 118.929 364.972 118.929C360.671 118.929 358.295 117.465 358.295 114.769L358.305 114.779Z" fill="#58ABA9"/>
<path d="M382.491 96.831C384.761 96.831 385.348 97.582 385.348 98.0345C385.348 97.582 385.54 96.908 386.358 96.908H393.179C393.804 96.908 394.247 97.1294 394.247 97.4664V118.226C394.247 118.563 393.814 118.784 393.179 118.784H387.378C386.704 118.784 386.262 118.563 386.262 118.226V117.552C385.781 118.149 384.665 118.784 382.779 118.784C378.575 118.784 373.88 116.724 373.88 108.145C373.88 103.311 376.391 96.831 382.491 96.831ZM385.348 106.498V100.538C385.348 100.278 385.107 100.124 384.665 100.124C383.597 100.124 381.327 101.732 381.327 103.725C381.327 106.344 382.779 107.172 384.376 107.172C385.05 107.172 385.348 106.951 385.348 106.498Z" fill="#58ABA9"/>
<path d="M406.34 110.658C406.34 106.238 409.197 96.7539 417.952 96.7539C424.436 96.7539 425.889 99.4114 425.889 103.687C425.889 104.062 425.6 104.245 425.167 104.245H415.979C415.547 104.245 415.21 104.399 415.21 104.736C415.21 106.498 417.673 107.172 425.273 107.172C425.754 107.172 426.042 107.394 426.042 107.731V118.216C426.042 118.553 425.754 118.775 425.321 118.775H419.424C411.881 118.775 406.359 116.791 406.359 110.648L406.34 110.658ZM419.491 100.913C419.25 100.422 418.817 100.085 418.086 100.085C417.22 100.085 416.634 100.384 416.201 100.875C416.105 100.991 416.056 101.096 416.056 101.173C416.056 101.395 416.297 101.549 416.682 101.549H418.904C419.385 101.549 419.674 101.289 419.481 100.913H419.491Z" fill="#58ABA9"/>
<path d="M0.769638 152.686C0.769638 152.349 1.05825 152.128 1.53928 152.128C5.16619 152.128 6.28217 151.714 6.28217 150.443V148.498C6.28217 148.161 5.99355 147.94 5.56063 147.94H4.25225C3.81933 147.94 3.53071 147.718 3.53071 147.381V144.531C3.53071 144.194 3.81933 143.973 4.25225 143.973H5.56063C5.99355 143.973 6.28217 143.751 6.28217 143.414V142.625C6.28217 138.956 9.90908 137.714 18.8561 137.531C19.3371 137.531 19.6258 137.752 19.6258 138.089V140.901C19.6258 141.238 19.3852 141.498 18.9042 141.498C15.3254 141.498 14.4596 141.874 14.4596 143.337C14.4596 143.751 14.6039 143.973 15.0849 143.973H17.2591C17.692 143.973 17.9807 144.194 17.9807 144.531V147.381C17.9807 147.718 17.692 147.94 17.2591 147.94H14.9406C14.5077 147.94 14.2191 148.161 14.2191 148.498V159.966C14.2191 162.623 12.0448 164.01 7.73486 164.01C3.42489 164.01 0.769638 162.508 0.769638 159.889V152.686Z" fill="#58ABA9"/>
<path d="M26.9373 141.787C29.2077 141.787 29.7946 142.538 29.7946 142.99C29.7946 142.538 29.987 141.864 30.8047 141.864H37.6257C38.251 141.864 38.6935 142.085 38.6935 142.422V163.182C38.6935 163.519 38.2606 163.74 37.6257 163.74H31.8245C31.1511 163.74 30.7085 163.519 30.7085 163.182V162.508C30.2275 163.105 29.1115 163.74 27.2259 163.74C23.0218 163.74 18.327 161.68 18.327 153.1C18.327 148.267 20.8379 141.787 26.9373 141.787ZM29.7946 151.454V145.494C29.7946 145.234 29.5541 145.08 29.1115 145.08C28.0437 145.08 25.7732 146.688 25.7732 148.681C25.7732 151.3 27.2259 152.128 28.8229 152.128C29.4964 152.128 29.7946 151.907 29.7946 151.454Z" fill="#58ABA9"/>
<path d="M41.0121 163.182V142.422C41.0121 142.085 41.3007 141.864 41.7336 141.864H45.8415C46.2745 141.864 46.5631 142.085 46.5631 142.422V144.329C46.5631 143.096 49.4203 141.854 53.9131 141.854C54.3941 141.854 54.6827 142.037 54.6827 142.413V145.821C54.6827 146.158 54.4903 146.418 54.0574 146.418C50.9115 146.418 49.6609 147.766 49.6609 150.356V163.172C49.6609 163.509 49.3722 163.73 48.9393 163.73H41.7336C41.3007 163.73 41.0121 163.509 41.0121 163.172V163.182Z" fill="#58ABA9"/>
<path d="M58.2327 159.735V146.659C58.2327 146.322 57.9441 146.1 57.5015 146.1H56.1932C55.7602 146.1 55.4716 145.879 55.4716 145.542V142.432C55.4716 142.095 55.7602 141.874 56.1932 141.874H57.5015C57.9345 141.874 58.2327 141.652 58.2327 141.315V138.089C58.2327 137.752 58.5213 137.531 58.9542 137.531H65.7751C66.2081 137.531 66.4967 137.752 66.4967 138.089V141.315C66.4967 141.652 66.7853 141.874 67.2278 141.874H71.1434C71.5763 141.874 71.8649 142.095 71.8649 142.432V145.542C71.8649 145.879 71.5763 146.1 71.1434 146.1H67.2278C66.7949 146.1 66.4967 146.322 66.4967 146.659V150.366C66.4967 151.57 67.757 152.051 71.1434 152.051C71.5763 152.051 71.8649 152.272 71.8649 152.609V159.956C71.8649 162.729 69.2 163.885 64.8997 163.885C60.5993 163.885 58.2231 162.421 58.2231 159.725L58.2327 159.735Z" fill="#58ABA9"/>
<path d="M82.4185 141.787C84.689 141.787 85.2758 142.538 85.2758 142.99C85.2758 142.538 85.4682 141.864 86.286 141.864H93.1069C93.7322 141.864 94.1748 142.085 94.1748 142.422V163.182C94.1748 163.519 93.7418 163.74 93.1069 163.74H87.3058C86.6323 163.74 86.1898 163.519 86.1898 163.182V162.508C85.7088 163.105 84.5928 163.74 82.7072 163.74C78.503 163.74 73.8082 161.68 73.8082 153.1C73.8082 148.267 76.3192 141.787 82.4185 141.787ZM85.2758 151.454V145.494C85.2758 145.234 85.0353 145.08 84.5928 145.08C83.5249 145.08 81.2545 146.688 81.2545 148.681C81.2545 151.3 82.7072 152.128 84.3042 152.128C84.9776 152.128 85.2758 151.907 85.2758 151.454Z" fill="#58ABA9"/>
<path d="M96.4933 163.182V158.839C96.4933 158.502 96.7819 158.281 97.2148 158.281H105.046C105.479 158.281 105.767 158.502 105.767 158.839V163.182C105.767 163.519 105.479 163.74 105.046 163.74H97.2148C96.7819 163.74 96.4933 163.519 96.4933 163.182Z" fill="#58ABA9"/>
</svg>
