<svg width="411" height="354" viewBox="0 0 411 354" fill="none" xmlns="http://www.w3.org/2000/svg">
<path d="M5.97829 28.7768L0.157921 7.42063V7.26657C0.157921 6.95845 0.408025 6.76589 0.850567 6.76589H6.92108C7.31552 6.76589 7.61377 6.95845 7.7196 7.26657L10.6057 17.1744C10.6538 17.3285 11.0001 17.3285 11.0482 17.1744L13.9344 7.26657C14.0306 6.95845 14.2807 6.76589 14.7329 6.76589H20.8034C21.2556 6.76589 21.4961 7.03548 21.3999 7.42063L14.9253 28.7768C14.8291 29.085 14.579 29.2775 14.1268 29.2775H6.75755C6.30539 29.2775 6.06486 29.085 5.95903 28.7768H5.97829Z" fill="#3FA9F5"/>
<path d="M20.3128 22.1427C20.3128 16.1634 22.3042 6.75625 31.309 6.75625C40.3138 6.75625 42.209 16.1634 42.209 22.1427C42.209 25.532 40.5158 29.5857 31.309 29.5857C22.1022 29.5857 20.3128 25.5416 20.3128 22.1427ZM33.9546 15.085C33.9546 12.7356 32.7617 10.107 31.4148 10.107C29.6735 10.107 28.6249 12.4564 28.6249 15.085C28.6249 16.3945 29.7216 17.2418 31.4148 17.2418C32.906 17.2418 33.9546 16.356 33.9546 15.085Z" fill="#3FA9F5"/>
<path d="M43.7578 20.9103C43.7578 12.543 48.6836 6.68886 55.7065 6.68886C60.738 6.68886 63.8743 9.42338 63.8743 13.7466C63.8743 14.1318 63.576 14.3243 63.1238 14.3243H58.2944C57.7941 14.3243 57.6017 14.0932 57.6017 13.7081C57.6017 11.0506 57.2073 10.0492 55.8604 10.0492C54.071 10.0492 52.8204 11.8209 52.8204 14.2473C52.8204 16.6737 54.5136 17.3284 63.2201 17.3284C63.7203 17.3284 64.0186 17.5595 64.0186 17.9062V28.6998C64.0186 29.0465 63.7203 29.2775 63.2682 29.2775H57.1977C48.241 29.2775 43.7578 27.1978 43.7578 20.9103Z" fill="#3FA9F5"/>
<path d="M66.01 20.9103C66.01 16.3656 68.9443 6.61183 77.9586 6.61183C84.6256 6.61183 86.1264 9.34636 86.1264 13.7466C86.1264 14.1318 85.8281 14.3243 85.376 14.3243H75.9191C75.4669 14.3243 75.1206 14.4784 75.1206 14.825C75.1206 16.6352 77.6604 17.3284 85.4722 17.3284C85.9725 17.3284 86.2707 17.5595 86.2707 17.9062V28.6998C86.2707 29.0465 85.9725 29.2775 85.5203 29.2775H79.4498C71.6861 29.2775 66.01 27.2363 66.01 20.9103ZM77.6604 3.86767C77.4584 3.86767 77.2659 3.90618 77.0158 3.98321L71.7438 6.02449C71.5899 6.063 71.4937 6.10152 71.3975 6.10152C71.0511 6.10152 70.8491 5.90894 70.8491 5.60082V3.13591C70.8491 2.82779 71.0511 2.5967 71.3975 2.44265L76.9196 0.170296C77.1697 0.0547533 77.3717 0.0162354 77.6123 0.0162354C77.8143 0.0162354 78.0645 0.0547533 78.2569 0.170296L83.779 2.44265C84.1254 2.5967 84.3274 2.82779 84.3274 3.13591V5.63933C84.3274 5.94745 84.1253 6.14002 83.8271 6.14002C83.7309 6.14002 83.577 6.14002 83.4327 6.06299L78.2088 3.98321C78.0068 3.90618 77.8143 3.86767 77.6604 3.86767ZM79.546 10.8869C79.2959 10.3862 78.8533 10.0396 78.1029 10.0396C77.2082 10.0396 76.6118 10.3477 76.1596 10.8484C76.0634 10.964 76.0057 11.0795 76.0057 11.1565C76.0057 11.3876 76.2558 11.5417 76.6502 11.5417H78.9399C79.4402 11.5417 79.7384 11.2721 79.5364 10.8869H79.546Z" fill="#3FA9F5"/>
<path d="M98.7581 20.9103C98.7581 12.543 103.684 6.68886 110.707 6.68886C115.738 6.68886 118.874 9.42338 118.874 13.7466C118.874 14.1318 118.576 14.3243 118.124 14.3243H113.295C112.794 14.3243 112.602 14.0932 112.602 13.7081C112.602 11.0506 112.207 10.0492 110.861 10.0492C109.071 10.0492 107.821 11.8209 107.821 14.2473C107.821 16.6737 109.514 17.3284 118.22 17.3284C118.721 17.3284 119.019 17.5595 119.019 17.9062V28.6998C119.019 29.0465 118.721 29.2775 118.268 29.2775H112.198C103.241 29.2775 98.7581 27.1978 98.7581 20.9103Z" fill="#3FA9F5"/>
<path d="M129.919 6.67922C132.257 6.67922 132.853 7.44951 132.853 7.91168C132.853 7.44951 133.055 6.75625 133.902 6.75625H140.925C141.569 6.75625 142.021 6.98735 142.021 7.33397V28.6902C142.021 29.0368 141.569 29.2679 140.925 29.2679H134.95C134.258 29.2679 133.805 29.0368 133.805 28.6902V27.9969C133.305 28.6132 132.16 29.2679 130.217 29.2679C125.888 29.2679 121.058 27.1496 121.058 18.3202C121.058 13.3422 123.646 6.67922 129.919 6.67922ZM132.853 16.6256V10.4922C132.853 10.2226 132.603 10.0685 132.16 10.0685C131.064 10.0685 128.726 11.7246 128.726 13.7659C128.726 16.4619 130.217 17.3092 131.862 17.3092C132.555 17.3092 132.863 17.0781 132.863 16.6159L132.853 16.6256Z" fill="#3FA9F5"/>
<path d="M144.407 28.6998V7.3436C144.407 6.99697 144.705 6.76589 145.158 6.76589H149.044C149.496 6.76589 149.795 6.99697 149.795 7.3436V9.80852C149.795 8.73011 152.431 6.72737 156.212 6.72737C161.888 6.72737 165.765 9.5004 165.765 15.4027V28.6998C165.765 29.0465 165.466 29.2775 165.014 29.2775H157.799C157.356 29.2775 157.048 29.0465 157.048 28.6998V19.1001C157.048 16.7893 156.596 15.7879 155.105 15.7879C153.614 15.7879 153.162 16.7893 153.162 19.1001V28.6998C153.162 29.0465 152.864 29.2775 152.411 29.2775H145.148C144.705 29.2775 144.398 29.0465 144.398 28.6998H144.407Z" fill="#3FA9F5"/>
<path d="M168.497 17.8291C168.497 17.4825 168.795 17.2514 169.247 17.2514C172.682 17.2514 174.327 17.0589 174.327 16.5582C174.327 16.2115 173.48 15.7108 171.883 15.0176C169.199 13.8622 168.054 12.7838 168.054 11.0891C168.054 9.1634 170.094 6.58295 177.559 6.58295C184.573 6.58295 187.266 8.77826 187.517 12.986C187.517 13.2941 187.218 13.4866 186.766 13.4866H181.687C181.244 13.4866 180.936 13.2941 180.936 12.986C180.936 11.5609 180.638 9.86629 178.098 9.86629C175.905 9.86629 175.558 11.1373 175.558 11.7535C175.558 15.2583 188.854 14.1414 188.854 22.7397C188.854 26.052 186.218 29.2968 176.213 29.2968H169.247C168.795 29.2968 168.497 29.0657 168.497 28.7191V17.8291Z" fill="#3FA9F5"/>
<path d="M190.297 22.1427C190.297 16.1634 192.288 6.75625 201.293 6.75625C210.298 6.75625 212.193 16.1634 212.193 22.1427C212.193 25.532 210.5 29.5857 201.293 29.5857C192.086 29.5857 190.297 25.5416 190.297 22.1427ZM203.939 15.085C203.939 12.7356 202.746 10.107 201.399 10.107C199.658 10.107 198.609 12.4564 198.609 15.085C198.609 16.3945 199.706 17.2418 201.399 17.2418C202.89 17.2418 203.939 16.356 203.939 15.085Z" fill="#3FA9F5"/>
<path d="M214.088 22.0272V7.3436C214.088 6.99697 214.338 6.76589 214.781 6.76589H221.602C221.996 6.76589 222.294 6.99697 222.294 7.3436V14.7095C222.294 16.4041 222.294 17.2899 224.084 17.2899C225.873 17.2899 225.931 16.4041 225.931 14.7095V7.3436C225.931 6.99697 226.229 6.76589 226.624 6.76589H233.445C233.839 6.76589 234.137 6.99697 234.137 7.3436V28.6998C234.137 29.0465 233.839 29.2775 233.445 29.2775H231.203C230.751 29.2775 230.51 29.0465 230.51 28.6998V28.3532C229.019 29.0079 226.98 29.4316 224.19 29.4316C215.483 29.4316 214.088 25.4646 214.088 22.0272Z" fill="#3FA9F5"/>
<path d="M246.586 18.2528C246.586 11.4646 250.569 7.38211 257.688 6.84291C258.14 6.80439 258.381 6.61183 258.381 6.2652V2.87593C258.381 2.5293 258.679 2.29821 259.131 2.29821H266.847C267.299 2.29821 267.597 2.5293 267.597 2.87593V28.7095C267.597 29.0561 267.299 29.2872 266.847 29.2872H259.526C250.569 29.2872 246.586 25.8979 246.586 18.2624V18.2528ZM258.391 16.5485V10.4922C258.391 10.2226 258.14 10.0685 257.746 10.0685C256.601 10.0685 254.311 11.2624 254.311 13.3037C254.311 15.345 255.504 17.2322 257.448 17.2322C258.092 17.2322 258.391 17.0011 258.391 16.5389V16.5485Z" fill="#3FA9F5"/>
<path d="M269.589 20.9103C269.589 16.3656 272.523 6.61183 281.537 6.61183C288.204 6.61183 289.705 9.34636 289.705 13.7466C289.705 14.1318 289.407 14.3243 288.955 14.3243H279.498C279.046 14.3243 278.699 14.4784 278.699 14.825C278.699 16.6352 281.239 17.3284 289.051 17.3284C289.551 17.3284 289.849 17.5595 289.849 17.9062V28.6998C289.849 29.0465 289.551 29.2775 289.099 29.2775H283.029C275.265 29.2775 269.589 27.2363 269.589 20.9103ZM283.125 10.8869C282.875 10.3862 282.432 10.0396 281.682 10.0396C280.787 10.0396 280.191 10.3477 279.738 10.8484C279.642 10.964 279.584 11.0795 279.584 11.1565C279.584 11.3876 279.835 11.5417 280.229 11.5417H282.519C283.019 11.5417 283.317 11.2721 283.115 10.8869H283.125Z" fill="#3FA9F5"/>
<path d="M304.626 25.1469V11.6957C304.626 11.3491 304.328 11.118 303.876 11.118H302.529C302.077 11.118 301.779 10.8869 301.779 10.5403V7.3436C301.779 6.99697 302.077 6.76589 302.529 6.76589H303.876C304.328 6.76589 304.626 6.5348 304.626 6.18817V2.87593C304.626 2.5293 304.925 2.29821 305.377 2.29821H312.4C312.842 2.29821 313.15 2.5293 313.15 2.87593V6.18817C313.15 6.5348 313.448 6.76589 313.901 6.76589H317.932C318.384 6.76589 318.682 6.99697 318.682 7.3436V10.5403C318.682 10.8869 318.384 11.118 317.932 11.118H313.901C313.448 11.118 313.15 11.3491 313.15 11.6957V15.5086C313.15 16.7411 314.449 17.2418 317.932 17.2418C318.384 17.2418 318.682 17.4729 318.682 17.8195V25.378C318.682 28.228 315.94 29.422 311.515 29.422C307.089 29.422 304.646 27.9199 304.646 25.1469H304.626Z" fill="#3FA9F5"/>
<path d="M320.51 22.1427C320.51 16.1634 322.501 6.75625 331.506 6.75625C340.511 6.75625 342.406 16.1634 342.406 22.1427C342.406 25.532 340.713 29.5857 331.506 29.5857C322.299 29.5857 320.51 25.5416 320.51 22.1427ZM334.142 15.085C334.142 12.7356 332.949 10.107 331.602 10.107C329.861 10.107 328.812 12.4564 328.812 15.085C328.812 16.3945 329.909 17.2418 331.602 17.2418C333.093 17.2418 334.142 16.356 334.142 15.085Z" fill="#3FA9F5"/>
<path d="M343.897 18.2528C343.897 11.4646 347.88 7.38211 354.999 6.84291C355.451 6.80439 355.692 6.61183 355.692 6.2652V2.87593C355.692 2.5293 355.99 2.29821 356.442 2.29821H364.158C364.61 2.29821 364.908 2.5293 364.908 2.87593V28.7095C364.908 29.0561 364.61 29.2872 364.158 29.2872H356.837C347.88 29.2872 343.897 25.8979 343.897 18.2624V18.2528ZM355.702 16.5485V10.4922C355.702 10.2226 355.451 10.0685 355.057 10.0685C353.912 10.0685 351.622 11.2624 351.622 13.3037C351.622 15.345 352.815 17.2322 354.759 17.2322C355.403 17.2322 355.702 17.0011 355.702 16.5389V16.5485Z" fill="#3FA9F5"/>
<path d="M375.808 6.67922C378.146 6.67922 378.743 7.44951 378.743 7.91168C378.743 7.44951 378.945 6.75625 379.791 6.75625H386.814C387.459 6.75625 387.911 6.98735 387.911 7.33397V28.6902C387.911 29.0368 387.459 29.2679 386.814 29.2679H380.84C380.147 29.2679 379.695 29.0368 379.695 28.6902V27.9969C379.195 28.6132 378.05 29.2679 376.107 29.2679C371.777 29.2679 366.948 27.1496 366.948 18.3202C366.948 13.3422 369.536 6.67922 375.808 6.67922ZM378.743 16.6256V10.4922C378.743 10.2226 378.492 10.0685 378.05 10.0685C376.953 10.0685 374.615 11.7246 374.615 13.7659C374.615 16.4619 376.107 17.3092 377.752 17.3092C378.444 17.3092 378.752 17.0781 378.752 16.6159L378.743 16.6256Z" fill="#3FA9F5"/>
<path d="M390.643 17.8291C390.643 17.4825 390.941 17.2514 391.393 17.2514C394.828 17.2514 396.473 17.0589 396.473 16.5582C396.473 16.2115 395.627 15.7108 394.03 15.0176C391.345 13.8622 390.201 12.7838 390.201 11.0891C390.201 9.1634 392.24 6.58295 399.706 6.58295C406.719 6.58295 409.413 8.77826 409.663 12.986C409.663 13.2941 409.365 13.4866 408.912 13.4866H403.833C403.39 13.4866 403.082 13.2941 403.082 12.986C403.082 11.5609 402.784 9.86629 400.244 9.86629C398.051 9.86629 397.704 11.1373 397.704 11.7535C397.704 15.2583 411 14.1414 411 22.7397C411 26.052 408.364 29.2968 398.359 29.2968H391.393C390.941 29.2968 390.643 29.0657 390.643 28.7191V17.8291Z" fill="#3FA9F5"/>
<path d="M9.4609 52.9446C11.7987 52.9446 12.3951 53.7149 12.3951 54.1771C12.3951 53.7149 12.5972 53.0217 13.4438 53.0217H20.4667C21.1113 53.0217 21.5635 53.2527 21.5635 53.5994V74.9556C21.5635 75.3023 21.1113 75.5333 20.4667 75.5333H14.4924C13.7997 75.5333 13.3475 75.3023 13.3475 74.9556V74.2624C12.8473 74.8786 11.7025 75.5333 9.75913 75.5333C5.42992 75.5333 0.600425 73.415 0.600425 64.5856C0.600425 59.6076 3.18835 52.9446 9.4609 52.9446ZM12.4048 62.891V56.7576C12.4048 56.488 12.1546 56.3339 11.7121 56.3339C10.6153 56.3339 8.2776 57.99 8.2776 60.0313C8.2776 62.7273 9.76872 63.5746 11.4138 63.5746C12.1065 63.5746 12.4144 63.3435 12.4144 62.8814L12.4048 62.891Z" fill="#3FA9F5"/>
<path d="M24.2956 64.0945C24.2956 63.7479 24.5939 63.5168 25.0461 63.5168C28.4806 63.5168 30.1256 63.3243 30.1256 62.8236C30.1256 62.477 29.2791 61.9763 27.6821 61.283C24.998 60.1276 23.8531 59.0492 23.8531 57.3545C23.8531 55.4288 25.8926 52.8483 33.3581 52.8483C40.3714 52.8483 43.0652 55.0437 43.3153 59.2514C43.3153 59.5595 43.0171 59.7521 42.5649 59.7521H37.4853C37.0428 59.7521 36.7349 59.5595 36.7349 59.2514C36.7349 57.8263 36.4367 56.1317 33.8969 56.1317C31.7034 56.1317 31.3571 57.4027 31.3571 58.0189C31.3571 61.5237 44.6526 60.4068 44.6526 69.0051C44.6526 72.3174 42.0166 75.5622 32.0113 75.5622H25.0461C24.5939 75.5622 24.2956 75.3311 24.2956 74.9845V64.0945Z" fill="#3FA9F5"/>
<path d="M56.9956 74.9652V53.609C56.9956 53.2624 57.2458 53.0313 57.6883 53.0313H61.3248C61.7193 53.0313 62.0175 53.2624 62.0175 53.609V55.6888C62.0175 55.6888 63.6145 52.8772 68.0399 52.8772C70.2815 52.8772 72.523 53.4165 74.0142 54.4949C75.111 53.4935 76.8042 52.8772 79.4883 52.8772C85.1162 52.8772 88.4449 55.6888 88.4449 61.6681V74.9652C88.4449 75.3119 88.1948 75.543 87.7523 75.543H80.9313C80.4792 75.543 80.2387 75.3119 80.2387 74.9652V65.3655C80.2387 63.0547 79.7865 62.0533 78.4012 62.0533C77.0158 62.0533 76.5637 63.0547 76.5637 65.3655V74.9652C76.5637 75.3119 76.3135 75.543 75.871 75.543H69.5504C69.1559 75.543 68.8577 75.3119 68.8577 74.9652V65.3655C68.8577 63.0547 68.4632 62.0533 67.0683 62.0533C65.6733 62.0533 65.2307 63.0547 65.2307 65.3655V74.9652C65.2307 75.3119 64.9325 75.543 64.5381 75.543H57.7171C57.2746 75.543 57.0245 75.3119 57.0245 74.9652H56.9956Z" fill="#3FA9F5"/>
<path d="M90.3979 67.1757C90.3979 62.631 93.3321 52.8772 102.347 52.8772C109.013 52.8772 110.514 55.6118 110.514 60.012C110.514 60.3972 110.216 60.5897 109.764 60.5897H100.307C99.8548 60.5897 99.5085 60.7438 99.5085 61.0904C99.5085 62.9006 102.048 63.5939 109.86 63.5939C110.36 63.5939 110.659 63.8249 110.659 64.1716V74.9652C110.659 75.3119 110.36 75.543 109.908 75.543H103.838C96.074 75.543 90.3979 73.5017 90.3979 67.1757ZM103.934 57.1523C103.684 56.6516 103.241 56.305 102.491 56.305C101.596 56.305 101 56.6131 100.547 57.1138C100.451 57.2293 100.394 57.3449 100.394 57.4219C100.394 57.653 100.644 57.8071 101.038 57.8071H103.328C103.828 57.8071 104.126 57.5375 103.924 57.1523H103.934Z" fill="#3FA9F5"/>
<path d="M113.391 64.0945C113.391 63.7479 113.689 63.5168 114.141 63.5168C117.576 63.5168 119.221 63.3243 119.221 62.8236C119.221 62.477 118.374 61.9763 116.777 61.283C114.093 60.1276 112.948 59.0492 112.948 57.3545C112.948 55.4288 114.988 52.8483 122.453 52.8483C129.467 52.8483 132.16 55.0437 132.41 59.2514C132.41 59.5595 132.112 59.7521 131.66 59.7521H126.58C126.138 59.7521 125.83 59.5595 125.83 59.2514C125.83 57.8263 125.532 56.1317 122.992 56.1317C120.799 56.1317 120.452 57.4027 120.452 58.0189C120.452 61.5237 133.748 60.4068 133.748 69.0051C133.748 72.3174 131.112 75.5622 121.106 75.5622H114.141C113.689 75.5622 113.391 75.3311 113.391 74.9845V64.0945Z" fill="#3FA9F5"/>
<path d="M135.643 74.9652V53.609C135.643 53.2624 135.893 53.0313 136.336 53.0313H139.972C140.367 53.0313 140.665 53.2624 140.665 53.609V55.6888C140.665 55.6888 142.262 52.8772 146.687 52.8772C148.929 52.8772 151.17 53.4165 152.662 54.4949C153.758 53.4935 155.451 52.8772 158.136 52.8772C163.764 52.8772 167.092 55.6888 167.092 61.6681V74.9652C167.092 75.3119 166.842 75.543 166.4 75.543H159.579C159.127 75.543 158.886 75.3119 158.886 74.9652V65.3655C158.886 63.0547 158.434 62.0533 157.048 62.0533C155.663 62.0533 155.211 63.0547 155.211 65.3655V74.9652C155.211 75.3119 154.961 75.543 154.518 75.543H148.198C147.803 75.543 147.505 75.3119 147.505 74.9652V65.3655C147.505 63.0547 147.111 62.0533 145.716 62.0533C144.321 62.0533 143.878 63.0547 143.878 65.3655V74.9652C143.878 75.3119 143.58 75.543 143.185 75.543H136.364C135.922 75.543 135.672 75.3119 135.672 74.9652H135.643Z" fill="#3FA9F5"/>
<path d="M177.954 52.9446C180.292 52.9446 180.888 53.7149 180.888 54.1771C180.888 53.7149 181.09 53.0217 181.937 53.0217H188.95C189.595 53.0217 190.047 53.2527 190.047 53.5994V74.9556C190.047 75.3023 189.595 75.5333 188.95 75.5333H182.976C182.283 75.5333 181.831 75.3023 181.831 74.9556V74.2624C181.331 74.8786 180.186 75.5333 178.242 75.5333C173.913 75.5333 169.084 73.415 169.084 64.5856C169.084 59.6076 171.672 52.9446 177.944 52.9446H177.954ZM180.888 62.891V56.7576C180.888 56.488 180.638 56.3339 180.195 56.3339C179.099 56.3339 176.761 57.99 176.761 60.0313C176.761 62.7273 178.252 63.5746 179.897 63.5746C180.59 63.5746 180.898 63.3435 180.898 62.8814L180.888 62.891Z" fill="#3FA9F5"/>
<path d="M192.789 64.0945C192.789 63.7479 193.087 63.5168 193.539 63.5168C196.973 63.5168 198.619 63.3243 198.619 62.8236C198.619 62.477 197.772 61.9763 196.175 61.283C193.491 60.1276 192.346 59.0492 192.346 57.3545C192.346 55.4288 194.386 52.8483 201.851 52.8483C208.864 52.8483 211.558 55.0437 211.808 59.2514C211.808 59.5595 211.51 59.7521 211.058 59.7521H205.978C205.536 59.7521 205.228 59.5595 205.228 59.2514C205.228 57.8263 204.93 56.1317 202.39 56.1317C200.196 56.1317 199.85 57.4027 199.85 58.0189C199.85 61.5237 213.145 60.4068 213.145 69.0051C213.145 72.3174 210.509 75.5622 200.504 75.5622H193.539C193.087 75.5622 192.789 75.3311 192.789 74.9845V64.0945Z" fill="#3FA9F5"/>
<path d="M225.19 67.1757C225.19 58.8084 230.116 52.9543 237.139 52.9543C242.17 52.9543 245.307 55.6888 245.307 60.012C245.307 60.3972 245.008 60.5897 244.556 60.5897H239.727C239.227 60.5897 239.034 60.3586 239.034 59.9735C239.034 57.316 238.64 56.3146 237.293 56.3146C235.503 56.3146 234.253 58.0863 234.253 60.5127C234.253 62.9391 235.946 63.5939 244.652 63.5939C245.153 63.5939 245.451 63.825 245.451 64.1716V74.9652C245.451 75.3119 245.153 75.543 244.701 75.543H238.63C229.673 75.543 225.19 73.4632 225.19 67.1757Z" fill="#3FA9F5"/>
<path d="M247.337 68.4082C247.337 62.4288 249.328 53.0217 258.333 53.0217C267.338 53.0217 269.233 62.4288 269.233 68.4082C269.233 71.7974 267.54 75.8511 258.333 75.8511C249.126 75.8511 247.337 71.8071 247.337 68.4082ZM260.978 61.3504C260.978 59.001 259.785 56.3724 258.439 56.3724C256.697 56.3724 255.649 58.7218 255.649 61.3504C255.649 62.6599 256.745 63.5072 258.439 63.5072C259.93 63.5072 260.978 62.6214 260.978 61.3504Z" fill="#3FA9F5"/>
<path d="M271.128 51.2115V49.1317C271.128 48.7851 271.426 48.554 271.878 48.554H279.094C279.546 48.554 279.844 48.7851 279.844 49.1317V51.2115C279.844 51.5581 279.546 51.7892 279.094 51.7892H271.878C271.436 51.7892 271.128 51.5581 271.128 51.2115ZM271.128 74.9652V53.609C271.128 53.2624 271.426 53.0313 271.878 53.0313H279.094C279.546 53.0313 279.844 53.2624 279.844 53.609V74.9652C279.844 75.3119 279.546 75.543 279.094 75.543H271.878C271.436 75.543 271.128 75.3119 271.128 74.9652Z" fill="#3FA9F5"/>
<path d="M282.576 64.0945C282.576 63.7479 282.875 63.5168 283.327 63.5168C286.761 63.5168 288.406 63.3243 288.406 62.8236C288.406 62.477 287.56 61.9763 285.963 61.283C283.279 60.1276 282.134 59.0492 282.134 57.3545C282.134 55.4288 284.173 52.8483 291.639 52.8483C298.652 52.8483 301.346 55.0437 301.596 59.2514C301.596 59.5595 301.298 59.7521 300.846 59.7521H295.766C295.323 59.7521 295.016 59.5595 295.016 59.2514C295.016 57.8263 294.717 56.1317 292.178 56.1317C289.984 56.1317 289.638 57.4027 289.638 58.0189C289.638 61.5237 302.933 60.4068 302.933 69.0051C302.933 72.3174 300.297 75.5622 290.292 75.5622H283.327C282.875 75.5622 282.576 75.3311 282.576 74.9845V64.0945Z" fill="#3FA9F5"/>
<path d="M313.391 52.9446C315.729 52.9446 316.325 53.7149 316.325 54.1771C316.325 53.7149 316.527 53.0217 317.374 53.0217H324.397C325.041 53.0217 325.493 53.2527 325.493 53.5994V74.9556C325.493 75.3023 325.041 75.5333 324.397 75.5333H318.422C317.73 75.5333 317.277 75.3023 317.277 74.9556V74.2624C316.777 74.8786 315.632 75.5333 313.689 75.5333C309.36 75.5333 304.53 73.415 304.53 64.5856C304.53 59.6076 307.118 52.9446 313.391 52.9446ZM316.325 62.891V56.7576C316.325 56.488 316.075 56.3339 315.632 56.3339C314.536 56.3339 312.198 57.99 312.198 60.0313C312.198 62.7273 313.689 63.5746 315.334 63.5746C316.027 63.5746 316.335 63.3435 316.335 62.8814L316.325 62.891Z" fill="#3FA9F5"/>
<path d="M328.225 64.0945C328.225 63.7479 328.524 63.5168 328.976 63.5168C332.41 63.5168 334.055 63.3243 334.055 62.8236C334.055 62.477 333.209 61.9763 331.612 61.283C328.928 60.1276 327.783 59.0492 327.783 57.3545C327.783 55.4288 329.823 52.8483 337.288 52.8483C344.301 52.8483 346.995 55.0437 347.245 59.2514C347.245 59.5595 346.947 59.7521 346.495 59.7521H341.415C340.973 59.7521 340.665 59.5595 340.665 59.2514C340.665 57.8263 340.367 56.1317 337.827 56.1317C335.633 56.1317 335.287 57.4027 335.287 58.0189C335.287 61.5237 348.582 60.4068 348.582 69.0051C348.582 72.3174 345.946 75.5622 335.941 75.5622H328.976C328.524 75.5622 328.225 75.3311 328.225 74.9845V64.0945Z" fill="#3FA9F5"/>
<path d="M12.2989 128.934V122.338C12.2989 121.991 12.0488 121.76 11.5485 121.722C1.38931 121.105 0.552335 115.55 0.552335 110.774C0.552335 105.141 3.34225 99.2871 13.3956 99.2871H21.1113C21.5634 99.2871 21.8617 99.5182 21.8617 99.8648V128.934C21.8617 129.28 21.5634 129.511 21.1113 129.511H13.0493C12.5972 129.511 12.2989 129.28 12.2989 128.934ZM11.9526 109.696C12.2989 109.58 12.2989 109.31 12.2989 109.041V103.216C12.2989 102.907 12.2027 102.599 11.7506 102.599C10.6057 102.599 8.26797 103.832 8.26797 105.835C8.26797 107.491 9.01838 109.763 11.4043 109.763C11.6063 109.763 11.7986 109.724 11.9526 109.686V109.696Z" fill="#3FA9F5"/>
<path d="M24.2476 114.558V99.8744C24.2476 99.5278 24.4977 99.2967 24.9402 99.2967H31.7611C32.1556 99.2967 32.4538 99.5278 32.4538 99.8744V107.24C32.4538 108.935 32.4538 109.821 34.2432 109.821C36.0326 109.821 36.0903 108.935 36.0903 107.24V99.8744C36.0903 99.5278 36.3886 99.2967 36.783 99.2967H43.6039C43.9984 99.2967 44.2966 99.5278 44.2966 99.8744V121.231C44.2966 121.577 43.9984 121.808 43.6039 121.808H41.3623C40.9102 121.808 40.6697 121.577 40.6697 121.231V120.884C39.1785 121.539 37.139 121.962 34.349 121.962C25.6425 121.962 24.2476 117.995 24.2476 114.558Z" fill="#3FA9F5"/>
<path d="M46.2977 113.441C46.2977 108.896 49.2319 99.1427 58.2463 99.1427C64.9133 99.1427 66.4141 101.877 66.4141 106.277C66.4141 106.663 66.1158 106.855 65.6637 106.855H56.2067C55.7546 106.855 55.4083 107.009 55.4083 107.356C55.4083 109.166 57.9481 109.859 65.7599 109.859C66.2602 109.859 66.5584 110.09 66.5584 110.437V121.231C66.5584 121.577 66.2602 121.808 65.808 121.808H59.7375C51.9738 121.808 46.2977 119.767 46.2977 113.441ZM59.8337 103.418C59.5835 102.917 59.141 102.57 58.3906 102.57C57.4959 102.57 56.8994 102.879 56.4472 103.379C56.351 103.495 56.2933 103.61 56.2933 103.687C56.2933 103.918 56.5434 104.072 56.9379 104.072H59.2276C59.7278 104.072 60.0261 103.803 59.824 103.418H59.8337Z" fill="#3FA9F5"/>
<path d="M81.3354 117.678V104.227C81.3354 103.88 81.0372 103.649 80.585 103.649H79.2381C78.786 103.649 78.4878 103.418 78.4878 103.071V99.8744C78.4878 99.5278 78.786 99.2967 79.2381 99.2967H80.585C81.0372 99.2967 81.3354 99.0656 81.3354 98.719V95.4068C81.3354 95.0601 81.6336 94.829 82.0858 94.829H89.1087C89.5513 94.829 89.8592 95.0601 89.8592 95.4068V98.719C89.8592 99.0656 90.1574 99.2967 90.6095 99.2967H94.6405C95.0927 99.2967 95.3909 99.5278 95.3909 99.8744V103.071C95.3909 103.418 95.0927 103.649 94.6405 103.649H90.6095C90.1574 103.649 89.8592 103.88 89.8592 104.227V108.039C89.8592 109.272 91.1579 109.773 94.6405 109.773C95.0927 109.773 95.3909 110.004 95.3909 110.35V117.909C95.3909 120.759 92.6491 121.953 88.2237 121.953C83.7983 121.953 81.3546 120.451 81.3546 117.678H81.3354Z" fill="#3FA9F5"/>
<path d="M97.315 113.441C97.315 108.896 100.249 99.1427 109.264 99.1427C115.931 99.1427 117.431 101.877 117.431 106.277C117.431 106.663 117.133 106.855 116.681 106.855H107.224C106.772 106.855 106.426 107.009 106.426 107.356C106.426 109.166 108.965 109.859 116.777 109.859C117.277 109.859 117.576 110.09 117.576 110.437V121.231C117.576 121.577 117.277 121.808 116.825 121.808H110.755C102.991 121.808 97.315 119.767 97.315 113.441ZM110.851 103.418C110.601 102.917 110.158 102.57 109.408 102.57C108.513 102.57 107.917 102.879 107.465 103.379C107.368 103.495 107.311 103.61 107.311 103.687C107.311 103.918 107.561 104.072 107.955 104.072H110.245C110.745 104.072 111.043 103.803 110.841 103.418H110.851Z" fill="#3FA9F5"/>
<path d="M119.913 121.221V99.8648C119.913 99.5182 120.164 99.2871 120.606 99.2871H124.243C124.637 99.2871 124.935 99.5182 124.935 99.8648V101.945C124.935 101.945 126.532 99.133 130.958 99.133C133.199 99.133 135.441 99.6722 136.932 100.751C138.029 99.7492 139.722 99.133 142.406 99.133C148.034 99.133 151.363 101.945 151.363 107.924V121.221C151.363 121.568 151.113 121.799 150.67 121.799H143.849C143.397 121.799 143.157 121.568 143.157 121.221V111.621C143.157 109.31 142.704 108.309 141.319 108.309C139.934 108.309 139.481 109.31 139.481 111.621V121.221C139.481 121.568 139.231 121.799 138.789 121.799H132.468C132.074 121.799 131.776 121.568 131.776 121.221V111.621C131.776 109.31 131.381 108.309 129.986 108.309C128.591 108.309 128.149 109.31 128.149 111.621V121.221C128.149 121.568 127.85 121.799 127.456 121.799H120.635C120.192 121.799 119.942 121.568 119.942 121.221H119.913Z" fill="#3FA9F5"/>
<path d="M164.168 121.221V99.8648C164.168 99.5182 164.466 99.2871 164.918 99.2871H168.805C169.257 99.2871 169.555 99.5182 169.555 99.8648V102.33C169.555 101.251 172.191 99.2486 175.972 99.2486C181.648 99.2486 185.525 102.022 185.525 107.924V121.221C185.525 121.568 185.227 121.799 184.775 121.799H177.559C177.117 121.799 176.809 121.568 176.809 121.221V111.621C176.809 109.31 176.357 108.309 174.866 108.309C173.374 108.309 172.922 109.31 172.922 111.621V121.221C172.922 121.568 172.624 121.799 172.172 121.799H164.908C164.466 121.799 164.158 121.568 164.158 121.221H164.168Z" fill="#3FA9F5"/>
<path d="M187.411 114.674C187.411 108.694 189.402 99.2871 198.407 99.2871C207.412 99.2871 209.307 108.694 209.307 114.674C209.307 118.063 207.614 122.116 198.407 122.116C189.2 122.116 187.411 118.072 187.411 114.674ZM201.043 107.616C201.043 105.266 199.85 102.638 198.503 102.638C196.762 102.638 195.713 104.987 195.713 107.616C195.713 108.925 196.81 109.773 198.503 109.773C199.994 109.773 201.043 108.887 201.043 107.616Z" fill="#3FA9F5"/>
<path d="M221.65 97.4769V95.3971C221.65 95.0505 221.948 94.8194 222.4 94.8194H229.616C230.068 94.8194 230.366 95.0505 230.366 95.3971V97.4769C230.366 97.8235 230.068 98.0546 229.616 98.0546H222.4C221.958 98.0546 221.65 97.8235 221.65 97.4769ZM221.65 121.221V99.8648C221.65 99.5182 221.948 99.2871 222.4 99.2871H229.616C230.068 99.2871 230.366 99.5182 230.366 99.8648V121.221C230.366 121.568 230.068 121.799 229.616 121.799H222.4C221.958 121.799 221.65 121.568 221.65 121.221Z" fill="#3FA9F5"/>
<path d="M232.752 117.832V110.427C232.752 110.081 233.05 109.85 233.55 109.85C237.283 109.85 238.428 109.426 238.428 108.116V106.114C238.428 105.767 238.13 105.536 237.678 105.536H236.331C235.879 105.536 235.58 105.305 235.58 104.958V102.031C235.58 101.685 235.879 101.454 236.331 101.454H237.678C238.13 101.454 238.428 101.222 238.428 100.876V100.067C238.428 96.2926 242.161 95.012 251.368 94.8194C251.868 94.8194 252.166 95.0505 252.166 95.3971V98.2857C252.166 98.6323 251.916 98.9019 251.416 98.9019C247.731 98.9019 246.836 99.2871 246.836 100.789C246.836 101.213 246.99 101.444 247.481 101.444H249.722C250.175 101.444 250.473 101.675 250.473 102.022V104.949C250.473 105.295 250.175 105.526 249.722 105.526H247.337C246.884 105.526 246.586 105.757 246.586 106.104V117.899C246.586 120.634 244.345 122.059 239.919 122.059C235.494 122.059 232.752 120.518 232.752 117.822V117.832Z" fill="#3FA9F5"/>
<path d="M250.569 114.674C250.569 108.694 252.561 99.2871 261.565 99.2871C270.57 99.2871 272.465 108.694 272.465 114.674C272.465 118.063 270.772 122.116 261.565 122.116C252.358 122.116 250.569 118.072 250.569 114.674ZM264.211 107.616C264.211 105.266 263.018 102.638 261.671 102.638C259.93 102.638 258.881 104.987 258.881 107.616C258.881 108.925 259.978 109.773 261.671 109.773C263.162 109.773 264.211 108.887 264.211 107.616Z" fill="#3FA9F5"/>
<path d="M273.87 114.674C273.87 108.694 275.861 99.2871 284.866 99.2871C293.871 99.2871 295.766 108.694 295.766 114.674C295.766 118.063 294.073 122.116 284.866 122.116C275.659 122.116 273.87 118.072 273.87 114.674ZM287.502 107.616C287.502 105.266 286.309 102.638 284.962 102.638C283.221 102.638 282.172 104.987 282.172 107.616C282.172 108.925 283.269 109.773 284.962 109.773C286.453 109.773 287.502 108.887 287.502 107.616Z" fill="#3FA9F5"/>
<path d="M297.257 110.774C297.257 103.986 301.24 99.9033 308.359 99.3641C308.811 99.3256 309.052 99.133 309.052 98.7864V95.3971C309.052 95.0505 309.35 94.8194 309.802 94.8194H317.518C317.97 94.8194 318.268 95.0505 318.268 95.3971V121.231C318.268 121.577 317.97 121.808 317.518 121.808H310.197C301.24 121.808 297.257 118.419 297.257 110.784V110.774ZM309.062 109.079V103.023C309.062 102.753 308.811 102.599 308.417 102.599C307.272 102.599 304.982 103.793 304.982 105.835C304.982 107.876 306.175 109.763 308.119 109.763C308.763 109.763 309.062 109.532 309.062 109.07V109.079Z" fill="#3FA9F5"/>
<path d="M330.708 113.441C330.708 108.896 333.642 99.1427 342.656 99.1427C349.323 99.1427 350.824 101.877 350.824 106.277C350.824 106.663 350.526 106.855 350.074 106.855H340.617C340.164 106.855 339.818 107.009 339.818 107.356C339.818 109.166 342.358 109.859 350.17 109.859C350.67 109.859 350.968 110.09 350.968 110.437V121.231C350.968 121.577 350.67 121.808 350.218 121.808H344.147C336.384 121.808 330.708 119.767 330.708 113.441ZM344.253 103.418C344.003 102.917 343.561 102.57 342.81 102.57C341.915 102.57 341.319 102.879 340.867 103.379C340.771 103.495 340.713 103.61 340.713 103.687C340.713 103.918 340.963 104.072 341.357 104.072H343.647C344.147 104.072 344.446 103.803 344.244 103.418H344.253Z" fill="#3FA9F5"/>
<path d="M12.2989 175.199V168.603C12.2989 168.257 12.0488 168.026 11.5485 167.987C1.38931 167.371 0.552335 161.815 0.552335 157.039C0.552335 151.407 3.34225 145.552 13.3956 145.552H21.1113C21.5634 145.552 21.8617 145.784 21.8617 146.13V175.199C21.8617 175.546 21.5634 175.777 21.1113 175.777H13.0493C12.5972 175.777 12.2989 175.546 12.2989 175.199ZM11.9526 155.961C12.2989 155.845 12.2989 155.576 12.2989 155.306V149.481C12.2989 149.173 12.2027 148.865 11.7506 148.865C10.6057 148.865 8.26797 150.097 8.26797 152.1C8.26797 153.756 9.01838 156.028 11.4043 156.028C11.6063 156.028 11.7986 155.99 11.9526 155.951V155.961Z" fill="#3FA9F5"/>
<path d="M24.2476 160.823V146.14C24.2476 145.793 24.4977 145.562 24.9402 145.562H31.7611C32.1556 145.562 32.4538 145.793 32.4538 146.14V153.506C32.4538 155.2 32.4538 156.086 34.2432 156.086C36.0326 156.086 36.0903 155.2 36.0903 153.506V146.14C36.0903 145.793 36.3886 145.562 36.783 145.562H43.6039C43.9984 145.562 44.2966 145.793 44.2966 146.14V167.496C44.2966 167.843 43.9984 168.074 43.6039 168.074H41.3623C40.9102 168.074 40.6697 167.843 40.6697 167.496V167.149C39.1785 167.804 37.139 168.228 34.349 168.228C25.6425 168.228 24.2476 164.261 24.2476 160.823Z" fill="#3FA9F5"/>
<path d="M46.2977 159.707C46.2977 155.162 49.2319 145.408 58.2463 145.408C64.9133 145.408 66.4141 148.143 66.4141 152.543C66.4141 152.928 66.1158 153.121 65.6637 153.121H56.2067C55.7546 153.121 55.4083 153.275 55.4083 153.621C55.4083 155.431 57.9481 156.125 65.7599 156.125C66.2602 156.125 66.5584 156.356 66.5584 156.702V167.496C66.5584 167.843 66.2602 168.074 65.808 168.074H59.7375C51.9738 168.074 46.2977 166.033 46.2977 159.707ZM59.8337 149.683C59.5835 149.182 59.141 148.836 58.3906 148.836C57.4959 148.836 56.8994 149.144 56.4472 149.645C56.351 149.76 56.2933 149.876 56.2933 149.953C56.2933 150.184 56.5434 150.338 56.9379 150.338H59.2276C59.7278 150.338 60.0261 150.068 59.824 149.683H59.8337Z" fill="#3FA9F5"/>
<path d="M68.9443 167.486V146.13C68.9443 145.784 69.2425 145.552 69.6946 145.552H73.9277C74.3798 145.552 74.678 145.784 74.678 146.13V148.094C74.678 146.823 77.6123 145.552 82.2397 145.552C82.74 145.552 83.0382 145.745 83.0382 146.13V149.635C83.0382 149.982 82.8362 150.251 82.3937 150.251C79.1612 150.251 77.8624 151.638 77.8624 154.295V167.477C77.8624 167.823 77.5642 168.055 77.112 168.055H69.6946C69.2521 168.055 68.9443 167.823 68.9443 167.477V167.486Z" fill="#3FA9F5"/>
<path d="M85.2221 143.742V141.663C85.2221 141.316 85.5203 141.085 85.9725 141.085H93.1878C93.64 141.085 93.9382 141.316 93.9382 141.663V143.742C93.9382 144.089 93.64 144.32 93.1878 144.32H85.9725C85.5299 144.32 85.2221 144.089 85.2221 143.742ZM85.2221 167.486V146.13C85.2221 145.784 85.5203 145.552 85.9725 145.552H93.1878C93.64 145.552 93.9382 145.784 93.9382 146.13V167.486C93.9382 167.833 93.64 168.064 93.1878 168.064H85.9725C85.5299 168.064 85.2221 167.833 85.2221 167.486Z" fill="#3FA9F5"/>
<path d="M104.829 145.475C107.166 145.475 107.763 146.246 107.763 146.708C107.763 146.246 107.965 145.552 108.812 145.552H115.834C116.479 145.552 116.931 145.784 116.931 146.13V167.486C116.931 167.833 116.479 168.064 115.834 168.064H109.86C109.167 168.064 108.715 167.833 108.715 167.486V166.793C108.215 167.409 107.07 168.064 105.127 168.064C100.798 168.064 95.9681 165.946 95.9681 157.116C95.9681 152.138 98.5561 145.475 104.829 145.475ZM107.772 155.422V149.288C107.772 149.019 107.522 148.865 107.08 148.865C105.983 148.865 103.645 150.521 103.645 152.562C103.645 155.258 105.136 156.105 106.782 156.105C107.474 156.105 107.782 155.874 107.782 155.412L107.772 155.422Z" fill="#3FA9F5"/>
<path d="M141.117 175.199V168.603C141.117 168.257 140.867 168.026 140.367 167.987C130.207 167.371 129.37 161.815 129.37 157.039C129.37 151.407 132.16 145.552 142.214 145.552H149.929C150.382 145.552 150.68 145.784 150.68 146.13V175.199C150.68 175.546 150.382 175.777 149.929 175.777H141.867C141.415 175.777 141.117 175.546 141.117 175.199ZM140.771 155.961C141.117 155.845 141.117 155.576 141.117 155.306V149.481C141.117 149.173 141.021 148.865 140.569 148.865C139.424 148.865 137.086 150.097 137.086 152.1C137.086 153.756 137.836 156.028 140.222 156.028C140.424 156.028 140.617 155.99 140.771 155.951V155.961Z" fill="#3FA9F5"/>
<path d="M153.066 160.823V146.14C153.066 145.793 153.316 145.562 153.758 145.562H160.579C160.974 145.562 161.272 145.793 161.272 146.14V153.506C161.272 155.2 161.272 156.086 163.061 156.086C164.851 156.086 164.908 155.2 164.908 153.506V146.14C164.908 145.793 165.207 145.562 165.601 145.562H172.422C172.816 145.562 173.115 145.793 173.115 146.14V167.496C173.115 167.843 172.816 168.074 172.422 168.074H170.18C169.728 168.074 169.488 167.843 169.488 167.496V167.149C167.997 167.804 165.957 168.228 163.167 168.228C154.461 168.228 153.066 164.261 153.066 160.823Z" fill="#3FA9F5"/>
<path d="M175.116 159.707C175.116 155.162 178.05 145.408 187.064 145.408C193.731 145.408 195.232 148.143 195.232 152.543C195.232 152.928 194.934 153.121 194.482 153.121H185.025C184.573 153.121 184.226 153.275 184.226 153.621C184.226 155.431 186.766 156.125 194.578 156.125C195.078 156.125 195.376 156.356 195.376 156.702V167.496C195.376 167.843 195.078 168.074 194.626 168.074H188.555C180.792 168.074 175.116 166.033 175.116 159.707ZM188.652 149.683C188.402 149.182 187.959 148.836 187.209 148.836C186.314 148.836 185.717 149.144 185.265 149.645C185.169 149.76 185.111 149.876 185.111 149.953C185.111 150.184 185.362 150.338 185.756 150.338H188.046C188.546 150.338 188.844 150.068 188.642 149.683H188.652Z" fill="#3FA9F5"/>
<path d="M208.21 160.823V146.14C208.21 145.793 208.46 145.562 208.903 145.562H215.724C216.118 145.562 216.416 145.793 216.416 146.14V153.506C216.416 155.2 216.416 156.086 218.206 156.086C219.995 156.086 220.053 155.2 220.053 153.506V146.14C220.053 145.793 220.351 145.562 220.746 145.562H227.567C227.961 145.562 228.259 145.793 228.259 146.14V167.496C228.259 167.843 227.961 168.074 227.567 168.074H225.325C224.873 168.074 224.632 167.843 224.632 167.496V167.149C223.141 167.804 221.102 168.228 218.312 168.228C209.605 168.228 208.21 164.261 208.21 160.823Z" fill="#3FA9F5"/>
<path d="M230.616 167.486V146.13C230.616 145.784 230.866 145.552 231.309 145.552H234.945C235.34 145.552 235.638 145.784 235.638 146.13V148.21C235.638 148.21 237.235 145.398 241.661 145.398C243.902 145.398 246.144 145.938 247.635 147.016C248.732 146.015 250.425 145.398 253.109 145.398C258.737 145.398 262.066 148.21 262.066 154.189V167.486C262.066 167.833 261.815 168.064 261.373 168.064H254.552C254.1 168.064 253.859 167.833 253.859 167.486V157.887C253.859 155.576 253.407 154.574 252.022 154.574C250.636 154.574 250.184 155.576 250.184 157.887V167.486C250.184 167.833 249.934 168.064 249.492 168.064H243.171C242.777 168.064 242.478 167.833 242.478 167.486V157.887C242.478 155.576 242.084 154.574 240.689 154.574C239.294 154.574 238.851 155.576 238.851 157.887V167.486C238.851 167.833 238.553 168.064 238.159 168.064H231.338C230.895 168.064 230.645 167.833 230.645 167.486H230.616Z" fill="#3FA9F5"/>
<path d="M272.917 145.475C275.255 145.475 275.852 146.246 275.852 146.708C275.852 146.246 276.054 145.552 276.9 145.552H283.914C284.558 145.552 285.01 145.784 285.01 146.13V167.486C285.01 167.833 284.558 168.064 283.914 168.064H277.939C277.247 168.064 276.794 167.833 276.794 167.486V166.793C276.294 167.409 275.149 168.064 273.206 168.064C268.877 168.064 264.047 165.946 264.047 157.116C264.047 152.138 266.635 145.475 272.908 145.475H272.917ZM275.861 155.422V149.288C275.861 149.019 275.611 148.865 275.169 148.865C274.072 148.865 271.734 150.521 271.734 152.562C271.734 155.258 273.225 156.105 274.87 156.105C275.563 156.105 275.871 155.874 275.871 155.412L275.861 155.422Z" fill="#3FA9F5"/>
<path d="M297.854 164.097V156.693C297.854 156.346 298.152 156.115 298.652 156.115C302.385 156.115 303.53 155.691 303.53 154.382V152.379C303.53 152.033 303.232 151.801 302.779 151.801H301.432C300.98 151.801 300.682 151.57 300.682 151.224V148.297C300.682 147.95 300.98 147.719 301.432 147.719H302.779C303.232 147.719 303.53 147.488 303.53 147.141V146.332C303.53 142.558 307.262 141.277 316.469 141.085C316.97 141.085 317.268 141.316 317.268 141.663V144.551C317.268 144.898 317.018 145.167 316.517 145.167C312.833 145.167 311.938 145.552 311.938 147.055C311.938 147.478 312.092 147.709 312.583 147.709H314.824C315.276 147.709 315.575 147.94 315.575 148.287V151.214C315.575 151.561 315.276 151.792 314.824 151.792H312.438C311.986 151.792 311.688 152.023 311.688 152.37V164.165C311.688 166.899 309.446 168.324 305.021 168.324C300.595 168.324 297.854 166.784 297.854 164.088V164.097Z" fill="#3FA9F5"/>
<path d="M324.791 145.475C327.129 145.475 327.725 146.246 327.725 146.708C327.725 146.246 327.927 145.552 328.774 145.552H335.797C336.441 145.552 336.894 145.784 336.894 146.13V167.486C336.894 167.833 336.441 168.064 335.797 168.064H329.823C329.13 168.064 328.678 167.833 328.678 167.486V166.793C328.177 167.409 327.033 168.064 325.089 168.064C320.76 168.064 315.931 165.946 315.931 157.116C315.931 152.138 318.518 145.475 324.791 145.475ZM327.725 155.422V149.288C327.725 149.019 327.475 148.865 327.033 148.865C325.936 148.865 323.598 150.521 323.598 152.562C323.598 155.258 325.089 156.105 326.734 156.105C327.427 156.105 327.735 155.874 327.735 155.412L327.725 155.422Z" fill="#3FA9F5"/>
<path d="M338.875 157.039C338.875 150.251 342.858 146.169 349.977 145.63C350.43 145.591 350.67 145.398 350.67 145.052V141.663C350.67 141.316 350.968 141.085 351.42 141.085H359.136C359.588 141.085 359.886 141.316 359.886 141.663V167.496C359.886 167.843 359.588 168.074 359.136 168.074H351.815C342.858 168.074 338.875 164.685 338.875 157.049V157.039ZM350.67 155.345V149.288C350.67 149.019 350.42 148.865 350.025 148.865C348.881 148.865 346.591 150.059 346.591 152.1C346.591 154.141 347.784 156.028 349.727 156.028C350.372 156.028 350.67 155.797 350.67 155.335V155.345Z" fill="#3FA9F5"/>
<path d="M370.777 145.475C373.115 145.475 373.711 146.246 373.711 146.708C373.711 146.246 373.913 145.552 374.76 145.552H381.783C382.427 145.552 382.879 145.784 382.879 146.13V167.486C382.879 167.833 382.427 168.064 381.783 168.064H375.808C375.116 168.064 374.664 167.833 374.664 167.486V166.793C374.163 167.409 373.018 168.064 371.075 168.064C366.746 168.064 361.916 165.946 361.916 157.116C361.916 152.138 364.504 145.475 370.777 145.475ZM373.721 155.422V149.288C373.721 149.019 373.471 148.865 373.028 148.865C371.931 148.865 369.594 150.521 369.594 152.562C369.594 155.258 371.085 156.105 372.73 156.105C373.422 156.105 373.73 155.874 373.73 155.412L373.721 155.422Z" fill="#3FA9F5"/>
<path d="M1.30276 202.881C1.30276 202.535 1.60096 202.303 2.05313 202.303C5.48763 202.303 7.13276 202.111 7.13276 201.61C7.13276 201.264 6.28612 200.763 4.68912 200.07C2.00501 198.914 0.860197 197.836 0.860197 196.141C0.860197 194.215 2.89974 191.635 10.3652 191.635C17.3785 191.635 20.0723 193.83 20.3224 198.038C20.3224 198.346 20.0242 198.539 19.572 198.539H14.4924C14.0498 198.539 13.742 198.346 13.742 198.038C13.742 196.613 13.4438 194.918 10.904 194.918C8.7105 194.918 8.36415 196.189 8.36415 196.806C8.36415 200.31 21.6596 199.193 21.6596 207.792C21.6596 211.104 19.0236 214.349 9.01834 214.349H2.05313C1.60096 214.349 1.30276 214.118 1.30276 213.771V202.881Z" fill="#3FA9F5"/>
<path d="M23.1989 205.962C23.1989 201.418 26.1332 191.664 35.1476 191.664C41.8145 191.664 43.3153 194.398 43.3153 198.799C43.3153 199.184 43.0171 199.376 42.5649 199.376H33.108C32.6559 199.376 32.3095 199.53 32.3095 199.877C32.3095 201.687 34.8493 202.38 42.6611 202.38C43.1614 202.38 43.4596 202.612 43.4596 202.958V213.752C43.4596 214.098 43.1614 214.33 42.7092 214.33H36.6387C28.875 214.33 23.1989 212.288 23.1989 205.962ZM36.7445 195.939C36.4944 195.438 36.0519 195.092 35.3015 195.092C34.4068 195.092 33.8103 195.4 33.3581 195.9C33.2619 196.016 33.2042 196.132 33.2042 196.209C33.2042 196.44 33.4543 196.594 33.8488 196.594H36.1384C36.6387 196.594 36.9369 196.324 36.7349 195.939H36.7445Z" fill="#3FA9F5"/>
<path d="M45.8455 213.752V192.396C45.8455 192.049 46.1437 191.818 46.5959 191.818H50.4826C50.9348 191.818 51.233 192.049 51.233 192.396V194.861C51.233 193.782 53.869 191.779 57.6498 191.779C63.3259 191.779 67.203 194.552 67.203 200.455V213.752C67.203 214.098 66.9047 214.33 66.4525 214.33H59.2372C58.7947 214.33 58.4868 214.098 58.4868 213.752V204.152C58.4868 201.841 58.0346 200.84 56.5435 200.84C55.0523 200.84 54.6001 201.841 54.6001 204.152V213.752C54.6001 214.098 54.3019 214.33 53.8498 214.33H46.5863C46.1437 214.33 45.8359 214.098 45.8359 213.752H45.8455Z" fill="#3FA9F5"/>
<path d="M69.9352 202.881C69.9352 202.535 70.2334 202.303 70.6856 202.303C74.1201 202.303 75.7652 202.111 75.7652 201.61C75.7652 201.264 74.9186 200.763 73.3216 200.07C70.6375 198.914 69.4926 197.836 69.4926 196.141C69.4926 194.215 71.5321 191.635 78.9976 191.635C86.0109 191.635 88.7047 193.83 88.9548 198.038C88.9548 198.346 88.6566 198.539 88.2044 198.539H83.1248C82.6823 198.539 82.3744 198.346 82.3744 198.038C82.3744 196.613 82.0762 194.918 79.5364 194.918C77.3429 194.918 76.9966 196.189 76.9966 196.806C76.9966 200.31 90.2921 199.193 90.2921 207.792C90.2921 211.104 87.6561 214.349 77.6508 214.349H70.6856C70.2334 214.349 69.9352 214.118 69.9352 213.771V202.881Z" fill="#3FA9F5"/>
<path d="M100.75 191.741C103.087 191.741 103.684 192.511 103.684 192.973C103.684 192.511 103.886 191.818 104.732 191.818H111.755C112.4 191.818 112.852 192.049 112.852 192.396V213.752C112.852 214.098 112.4 214.33 111.755 214.33H105.781C105.088 214.33 104.636 214.098 104.636 213.752V213.059C104.136 213.675 102.991 214.33 101.048 214.33C96.7186 214.33 91.8891 212.211 91.8891 203.382C91.8891 198.404 94.477 191.741 100.75 191.741ZM103.684 201.687V195.554C103.684 195.284 103.434 195.13 102.991 195.13C101.894 195.13 99.5565 196.786 99.5565 198.828C99.5565 201.524 101.048 202.371 102.693 202.371C103.386 202.371 103.693 202.14 103.693 201.678L103.684 201.687Z" fill="#3FA9F5"/>
<path d="M117.172 210.208V196.757C117.172 196.411 116.873 196.18 116.421 196.18H115.074C114.622 196.18 114.324 195.949 114.324 195.602V192.405C114.324 192.059 114.622 191.828 115.074 191.828H116.421C116.873 191.828 117.172 191.596 117.172 191.25V187.938C117.172 187.591 117.47 187.36 117.922 187.36H124.945C125.388 187.36 125.695 187.591 125.695 187.938V191.25C125.695 191.596 125.994 191.828 126.446 191.828H130.477C130.929 191.828 131.227 192.059 131.227 192.405V195.602C131.227 195.949 130.929 196.18 130.477 196.18H126.446C125.994 196.18 125.695 196.411 125.695 196.757V200.57C125.695 201.803 126.994 202.303 130.477 202.303C130.929 202.303 131.227 202.535 131.227 202.881V210.44C131.227 213.29 128.485 214.484 124.06 214.484C119.634 214.484 117.191 212.982 117.191 210.208H117.172Z" fill="#3FA9F5"/>
<path d="M142.06 191.741C144.398 191.741 144.994 192.511 144.994 192.973C144.994 192.511 145.196 191.818 146.043 191.818H153.066C153.71 191.818 154.162 192.049 154.162 192.396V213.752C154.162 214.098 153.71 214.33 153.066 214.33H147.091C146.399 214.33 145.946 214.098 145.946 213.752V213.059C145.446 213.675 144.301 214.33 142.358 214.33C138.029 214.33 133.199 212.211 133.199 203.382C133.199 198.404 135.787 191.741 142.06 191.741ZM145.004 201.687V195.554C145.004 195.284 144.754 195.13 144.311 195.13C143.214 195.13 140.876 196.786 140.876 198.828C140.876 201.524 142.368 202.371 144.013 202.371C144.705 202.371 145.013 202.14 145.013 201.678L145.004 201.687Z" fill="#3FA9F5"/>
<path d="M166.602 205.962C166.602 201.418 169.536 191.664 178.55 191.664C185.217 191.664 186.718 194.398 186.718 198.799C186.718 199.184 186.42 199.376 185.968 199.376H176.511C176.059 199.376 175.712 199.53 175.712 199.877C175.712 201.687 178.252 202.38 186.064 202.38C186.564 202.38 186.862 202.612 186.862 202.958V213.752C186.862 214.098 186.564 214.33 186.112 214.33H180.041C172.278 214.33 166.602 212.288 166.602 205.962ZM180.138 195.939C179.887 195.438 179.445 195.092 178.695 195.092C177.8 195.092 177.203 195.4 176.751 195.9C176.655 196.016 176.597 196.132 176.597 196.209C176.597 196.44 176.847 196.594 177.242 196.594H179.532C180.032 196.594 180.33 196.324 180.128 195.939H180.138Z" fill="#3FA9F5"/>
<path d="M189.248 213.752V192.396C189.248 192.049 189.546 191.818 189.999 191.818H193.885C194.337 191.818 194.636 192.049 194.636 192.396V194.861C194.636 193.782 197.272 191.779 201.053 191.779C206.729 191.779 210.606 194.552 210.606 200.455V213.752C210.606 214.098 210.307 214.33 209.855 214.33H202.64C202.197 214.33 201.89 214.098 201.89 213.752V204.152C201.89 201.841 201.437 200.84 199.946 200.84C198.455 200.84 198.003 201.841 198.003 204.152V213.752C198.003 214.098 197.705 214.33 197.252 214.33H189.989C189.546 214.33 189.239 214.098 189.239 213.752H189.248Z" fill="#3FA9F5"/>
<path d="M213.444 210.208V196.757C213.444 196.411 213.145 196.18 212.693 196.18H211.346C210.894 196.18 210.596 195.949 210.596 195.602V192.405C210.596 192.059 210.894 191.828 211.346 191.828H212.693C213.145 191.828 213.444 191.596 213.444 191.25V187.938C213.444 187.591 213.742 187.36 214.194 187.36H221.217C221.66 187.36 221.967 187.591 221.967 187.938V191.25C221.967 191.596 222.266 191.828 222.718 191.828H226.749C227.201 191.828 227.499 192.059 227.499 192.405V195.602C227.499 195.949 227.201 196.18 226.749 196.18H222.718C222.266 196.18 221.967 196.411 221.967 196.757V200.57C221.967 201.803 223.266 202.303 226.749 202.303C227.201 202.303 227.499 202.535 227.499 202.881V210.44C227.499 213.29 224.757 214.484 220.332 214.484C215.907 214.484 213.463 212.982 213.463 210.208H213.444Z" fill="#3FA9F5"/>
<path d="M229.423 205.962C229.423 201.418 232.358 191.664 241.372 191.664C248.039 191.664 249.54 194.398 249.54 198.799C249.54 199.184 249.241 199.376 248.789 199.376H239.332C238.88 199.376 238.534 199.53 238.534 199.877C238.534 201.687 241.074 202.38 248.885 202.38C249.386 202.38 249.684 202.612 249.684 202.958V213.752C249.684 214.098 249.386 214.33 248.934 214.33H242.863C235.099 214.33 229.423 212.288 229.423 205.962ZM242.959 195.939C242.709 195.438 242.267 195.092 241.516 195.092C240.622 195.092 240.025 195.4 239.573 195.9C239.477 196.016 239.419 196.132 239.419 196.209C239.419 196.44 239.669 196.594 240.064 196.594H242.353C242.853 196.594 243.152 196.324 242.95 195.939H242.959Z" fill="#3FA9F5"/>
<path d="M252.07 213.752V192.396C252.07 192.049 252.368 191.818 252.82 191.818H256.707C257.159 191.818 257.457 192.049 257.457 192.396V194.861C257.457 193.782 260.093 191.779 263.874 191.779C269.55 191.779 273.427 194.552 273.427 200.455V213.752C273.427 214.098 273.129 214.33 272.677 214.33H265.462C265.019 214.33 264.711 214.098 264.711 213.752V204.152C264.711 201.841 264.259 200.84 262.768 200.84C261.277 200.84 260.824 201.841 260.824 204.152V213.752C260.824 214.098 260.526 214.33 260.074 214.33H252.811C252.368 214.33 252.06 214.098 252.06 213.752H252.07Z" fill="#3FA9F5"/>
<path d="M275.409 203.305C275.409 196.517 279.392 192.434 286.511 191.895C286.963 191.856 287.204 191.664 287.204 191.317V187.928C287.204 187.581 287.502 187.35 287.954 187.35H295.67C296.122 187.35 296.42 187.581 296.42 187.928V213.761C296.42 214.108 296.122 214.339 295.67 214.339H288.349C279.392 214.339 275.409 210.95 275.409 203.314V203.305ZM287.204 201.61V195.554C287.204 195.284 286.954 195.13 286.559 195.13C285.414 195.13 283.125 196.324 283.125 198.365C283.125 200.407 284.318 202.294 286.261 202.294C286.906 202.294 287.204 202.063 287.204 201.601V201.61Z" fill="#3FA9F5"/>
<path d="M298.412 205.962C298.412 201.418 301.346 191.664 310.36 191.664C317.027 191.664 318.528 194.398 318.528 198.799C318.528 199.184 318.23 199.376 317.778 199.376H308.321C307.869 199.376 307.522 199.53 307.522 199.877C307.522 201.687 310.062 202.38 317.874 202.38C318.374 202.38 318.672 202.612 318.672 202.958V213.752C318.672 214.098 318.374 214.33 317.922 214.33H311.851C304.088 214.33 298.412 212.288 298.412 205.962ZM311.948 195.939C311.698 195.438 311.255 195.092 310.505 195.092C309.61 195.092 309.013 195.4 308.561 195.9C308.465 196.016 308.407 196.132 308.407 196.209C308.407 196.44 308.657 196.594 309.052 196.594H311.342C311.842 196.594 312.14 196.324 311.938 195.939H311.948Z" fill="#3FA9F5"/>
<path d="M321.405 202.881C321.405 202.535 321.703 202.303 322.155 202.303C325.589 202.303 327.235 202.111 327.235 201.61C327.235 201.264 326.388 200.763 324.791 200.07C322.107 198.914 320.962 197.836 320.962 196.141C320.962 194.215 323.002 191.635 330.467 191.635C337.48 191.635 340.174 193.83 340.424 198.038C340.424 198.346 340.126 198.539 339.674 198.539H334.594C334.152 198.539 333.844 198.346 333.844 198.038C333.844 196.613 333.546 194.918 331.006 194.918C328.812 194.918 328.466 196.189 328.466 196.806C328.466 200.31 341.761 199.193 341.761 207.792C341.761 211.104 339.126 214.349 329.12 214.349H322.155C321.703 214.349 321.405 214.118 321.405 213.771V202.881Z" fill="#3FA9F5"/>
<path d="M344.051 202.881C344.051 202.535 344.349 202.303 344.802 202.303C348.236 202.303 349.881 202.111 349.881 201.61C349.881 201.264 349.035 200.763 347.438 200.07C344.753 198.914 343.609 197.836 343.609 196.141C343.609 194.215 345.648 191.635 353.114 191.635C360.127 191.635 362.821 193.83 363.071 198.038C363.071 198.346 362.773 198.539 362.32 198.539H357.241C356.798 198.539 356.49 198.346 356.49 198.038C356.49 196.613 356.192 194.918 353.652 194.918C351.459 194.918 351.113 196.189 351.113 196.806C351.113 200.31 364.408 199.193 364.408 207.792C364.408 211.104 361.772 214.349 351.767 214.349H344.802C344.349 214.349 344.051 214.118 344.051 213.771V202.881Z" fill="#3FA9F5"/>
<path d="M365.947 205.962C365.947 201.418 368.882 191.664 377.896 191.664C384.563 191.664 386.064 194.398 386.064 198.799C386.064 199.184 385.766 199.376 385.313 199.376H375.856C375.404 199.376 375.058 199.53 375.058 199.877C375.058 201.687 377.598 202.38 385.41 202.38C385.91 202.38 386.208 202.612 386.208 202.958V213.752C386.208 214.098 385.91 214.33 385.458 214.33H379.387C371.623 214.33 365.947 212.288 365.947 205.962ZM379.493 195.939C379.243 195.438 378.8 195.092 378.05 195.092C377.155 195.092 376.559 195.4 376.107 195.9C376.01 196.016 375.953 196.132 375.953 196.209C375.953 196.44 376.203 196.594 376.597 196.594H378.887C379.387 196.594 379.685 196.324 379.483 195.939H379.493Z" fill="#3FA9F5"/>
<path d="M12.2989 267.73V261.134C12.2989 260.788 12.0488 260.556 11.5485 260.518C1.38931 259.902 0.552335 254.346 0.552335 249.57C0.552335 243.937 3.34225 238.083 13.3956 238.083H21.1113C21.5634 238.083 21.8617 238.314 21.8617 238.661V267.73C21.8617 268.076 21.5634 268.307 21.1113 268.307H13.0493C12.5972 268.307 12.2989 268.076 12.2989 267.73ZM11.9526 248.492C12.2989 248.376 12.2989 248.107 12.2989 247.837V242.012C12.2989 241.704 12.2027 241.396 11.7506 241.396C10.6057 241.396 8.26797 242.628 8.26797 244.631C8.26797 246.287 9.01838 248.559 11.4043 248.559C11.6063 248.559 11.7986 248.521 11.9526 248.482V248.492Z" fill="#3FA9F5"/>
<path d="M24.2476 253.345V238.661C24.2476 238.314 24.4977 238.083 24.9402 238.083H31.7611C32.1556 238.083 32.4538 238.314 32.4538 238.661V246.027C32.4538 247.722 32.4538 248.607 34.2432 248.607C36.0326 248.607 36.0903 247.722 36.0903 246.027V238.661C36.0903 238.314 36.3886 238.083 36.783 238.083H43.6039C43.9984 238.083 44.2966 238.314 44.2966 238.661V260.017C44.2966 260.364 43.9984 260.595 43.6039 260.595H41.3623C40.9102 260.595 40.6697 260.364 40.6697 260.017V259.671C39.1785 260.325 37.139 260.749 34.349 260.749C25.6425 260.749 24.2476 256.782 24.2476 253.345Z" fill="#3FA9F5"/>
<path d="M46.2977 252.228C46.2977 247.683 49.2319 237.929 58.2463 237.929C64.9133 237.929 66.4141 240.664 66.4141 245.064C66.4141 245.449 66.1158 245.642 65.6637 245.642H56.2067C55.7546 245.642 55.4083 245.796 55.4083 246.142C55.4083 247.953 57.9481 248.646 65.7599 248.646C66.2602 248.646 66.5584 248.877 66.5584 249.224V260.017C66.5584 260.364 66.2602 260.595 65.808 260.595H59.7375C51.9738 260.595 46.2977 258.554 46.2977 252.228ZM59.8337 242.204C59.5835 241.704 59.141 241.357 58.3906 241.357C57.4959 241.357 56.8994 241.665 56.4472 242.166C56.351 242.281 56.2933 242.397 56.2933 242.474C56.2933 242.705 56.5434 242.859 56.9379 242.859H59.2276C59.7278 242.859 60.0261 242.589 59.824 242.204H59.8337Z" fill="#3FA9F5"/>
<path d="M84.4236 260.094L78.6032 238.738V238.584C78.6032 238.276 78.8533 238.083 79.2958 238.083H85.3664C85.7608 238.083 86.0591 238.276 86.1649 238.584L89.051 248.492C89.0991 248.646 89.4455 248.646 89.4936 248.492L92.3797 238.584C92.4759 238.276 92.7261 238.083 93.1782 238.083H99.2487C99.7009 238.083 99.9414 238.353 99.8452 238.738L93.3706 260.094C93.2744 260.402 93.0243 260.595 92.5721 260.595H85.2028C84.7507 260.595 84.5101 260.402 84.4043 260.094H84.4236Z" fill="#3FA9F5"/>
<path d="M98.7581 253.46C98.7581 247.481 100.75 238.074 109.754 238.074C118.759 238.074 120.654 247.481 120.654 253.46C120.654 256.849 118.961 260.903 109.754 260.903C100.547 260.903 98.7581 256.859 98.7581 253.46ZM112.4 246.412C112.4 244.063 111.207 241.434 109.86 241.434C108.119 241.434 107.07 243.783 107.07 246.412C107.07 247.722 108.167 248.569 109.86 248.569C111.351 248.569 112.4 247.683 112.4 246.412Z" fill="#3FA9F5"/>
<path d="M122.203 252.228C122.203 243.86 127.129 238.006 134.152 238.006C139.183 238.006 142.32 240.741 142.32 245.064C142.32 245.449 142.021 245.642 141.569 245.642H136.74C136.239 245.642 136.047 245.411 136.047 245.025C136.047 242.368 135.653 241.367 134.306 241.367C132.516 241.367 131.266 243.138 131.266 245.565C131.266 247.991 132.959 248.646 141.665 248.646C142.166 248.646 142.464 248.877 142.464 249.224V260.017C142.464 260.364 142.166 260.595 141.713 260.595H135.643C126.686 260.595 122.203 258.515 122.203 252.228Z" fill="#3FA9F5"/>
<path d="M144.455 252.228C144.455 247.683 147.39 237.929 156.404 237.929C163.071 237.929 164.572 240.664 164.572 245.064C164.572 245.449 164.273 245.642 163.821 245.642H154.364C153.912 245.642 153.566 245.796 153.566 246.142C153.566 247.953 156.106 248.646 163.918 248.646C164.418 248.646 164.716 248.877 164.716 249.224V260.017C164.716 260.364 164.418 260.595 163.966 260.595H157.895C150.131 260.595 144.455 258.554 144.455 252.228ZM156.106 235.195C155.904 235.195 155.711 235.233 155.461 235.31L150.189 237.352C150.035 237.39 149.939 237.429 149.843 237.429C149.496 237.429 149.294 237.236 149.294 236.928V234.463C149.294 234.155 149.496 233.924 149.843 233.77L155.365 231.497C155.615 231.382 155.817 231.343 156.058 231.343C156.26 231.343 156.51 231.382 156.702 231.497L162.224 233.77C162.571 233.924 162.773 234.155 162.773 234.463V236.966C162.773 237.274 162.571 237.467 162.272 237.467C162.176 237.467 162.022 237.467 161.878 237.39L156.654 235.31C156.452 235.233 156.26 235.195 156.106 235.195ZM157.991 242.204C157.741 241.704 157.299 241.357 156.548 241.357C155.654 241.357 155.057 241.665 154.605 242.166C154.509 242.281 154.451 242.397 154.451 242.474C154.451 242.705 154.701 242.859 155.096 242.859H157.385C157.886 242.859 158.184 242.589 157.982 242.204H157.991Z" fill="#3FA9F5"/>
<path d="M188.902 267.73V261.134C188.902 260.788 188.652 260.556 188.151 260.518C177.992 259.902 177.155 254.346 177.155 249.57C177.155 243.937 179.945 238.083 189.999 238.083H197.714C198.166 238.083 198.465 238.314 198.465 238.661V267.73C198.465 268.076 198.166 268.307 197.714 268.307H189.652C189.2 268.307 188.902 268.076 188.902 267.73ZM188.556 248.492C188.902 248.376 188.902 248.107 188.902 247.837V242.012C188.902 241.704 188.806 241.396 188.354 241.396C187.209 241.396 184.871 242.628 184.871 244.631C184.871 246.287 185.621 248.559 188.007 248.559C188.209 248.559 188.402 248.521 188.556 248.482V248.492Z" fill="#3FA9F5"/>
<path d="M200.851 253.345V238.661C200.851 238.314 201.101 238.083 201.543 238.083H208.364C208.759 238.083 209.057 238.314 209.057 238.661V246.027C209.057 247.722 209.057 248.607 210.846 248.607C212.636 248.607 212.693 247.722 212.693 246.027V238.661C212.693 238.314 212.992 238.083 213.386 238.083H220.207C220.601 238.083 220.9 238.314 220.9 238.661V260.017C220.9 260.364 220.601 260.595 220.207 260.595H217.965C217.513 260.595 217.273 260.364 217.273 260.017V259.671C215.781 260.325 213.742 260.749 210.952 260.749C202.245 260.749 200.851 256.782 200.851 253.345Z" fill="#3FA9F5"/>
<path d="M222.901 252.228C222.901 247.683 225.835 237.929 234.849 237.929C241.516 237.929 243.017 240.664 243.017 245.064C243.017 245.449 242.719 245.642 242.267 245.642H232.81C232.358 245.642 232.011 245.796 232.011 246.142C232.011 247.953 234.551 248.646 242.363 248.646C242.863 248.646 243.161 248.877 243.161 249.224V260.017C243.161 260.364 242.863 260.595 242.411 260.595H236.34C228.577 260.595 222.901 258.554 222.901 252.228ZM236.437 242.204C236.186 241.704 235.744 241.357 234.994 241.357C234.099 241.357 233.502 241.665 233.05 242.166C232.954 242.281 232.896 242.397 232.896 242.474C232.896 242.705 233.146 242.859 233.541 242.859H235.831C236.331 242.859 236.629 242.589 236.427 242.204H236.437Z" fill="#3FA9F5"/>
<path d="M245.547 260.017V238.661C245.547 238.314 245.845 238.083 246.298 238.083H250.531C250.983 238.083 251.281 238.314 251.281 238.661V240.625C251.281 239.354 254.215 238.083 258.843 238.083C259.343 238.083 259.641 238.276 259.641 238.661V242.166C259.641 242.512 259.439 242.782 258.997 242.782C255.764 242.782 254.465 244.169 254.465 246.826V260.008C254.465 260.354 254.167 260.585 253.715 260.585H246.298C245.855 260.585 245.547 260.354 245.547 260.008V260.017Z" fill="#3FA9F5"/>
<path d="M272.273 253.345V238.661C272.273 238.314 272.523 238.083 272.966 238.083H279.786C280.181 238.083 280.479 238.314 280.479 238.661V246.027C280.479 247.722 280.479 248.607 282.269 248.607C284.058 248.607 284.116 247.722 284.116 246.027V238.661C284.116 238.314 284.414 238.083 284.808 238.083H291.629C292.024 238.083 292.322 238.314 292.322 238.661V260.017C292.322 260.364 292.024 260.595 291.629 260.595H289.388C288.935 260.595 288.695 260.364 288.695 260.017V259.671C287.204 260.325 285.164 260.749 282.374 260.749C273.668 260.749 272.273 256.782 272.273 253.345Z" fill="#3FA9F5"/>
<path d="M294.669 260.017V238.661C294.669 238.314 294.919 238.083 295.362 238.083H298.999C299.393 238.083 299.691 238.314 299.691 238.661V240.741C299.691 240.741 301.288 237.929 305.714 237.929C307.955 237.929 310.197 238.468 311.688 239.547C312.785 238.545 314.478 237.929 317.162 237.929C322.79 237.929 326.119 240.741 326.119 246.72V260.017C326.119 260.364 325.869 260.595 325.426 260.595H318.605C318.153 260.595 317.912 260.364 317.912 260.017V250.418C317.912 248.107 317.46 247.105 316.075 247.105C314.69 247.105 314.237 248.107 314.237 250.418V260.017C314.237 260.364 313.987 260.595 313.545 260.595H307.224C306.83 260.595 306.531 260.364 306.531 260.017V250.418C306.531 248.107 306.137 247.105 304.742 247.105C303.347 247.105 302.904 248.107 302.904 250.418V260.017C302.904 260.364 302.606 260.595 302.212 260.595H295.391C294.948 260.595 294.698 260.364 294.698 260.017H294.669Z" fill="#3FA9F5"/>
<path d="M0.946748 306.283V284.926C0.946748 284.58 1.24501 284.349 1.69717 284.349H5.9302C6.38236 284.349 6.68057 284.58 6.68057 284.926V286.891C6.68057 285.62 9.6148 284.349 14.2422 284.349C14.7425 284.349 15.0408 284.541 15.0408 284.926V288.431C15.0408 288.778 14.8387 289.047 14.3962 289.047C11.1637 289.047 9.86494 290.434 9.86494 293.091V306.273C9.86494 306.62 9.56674 306.851 9.11458 306.851H1.69717C1.25463 306.851 0.946748 306.62 0.946748 306.273V306.283Z" fill="#3FA9F5"/>
<path d="M17.2246 299.61V284.926C17.2246 284.58 17.4747 284.349 17.9173 284.349H24.7382C25.1326 284.349 25.4309 284.58 25.4309 284.926V292.292C25.4309 293.987 25.4309 294.873 27.2203 294.873C29.0097 294.873 29.0674 293.987 29.0674 292.292V284.926C29.0674 284.58 29.3656 284.349 29.7601 284.349H36.581C36.9754 284.349 37.2736 284.58 37.2736 284.926V306.283C37.2736 306.629 36.9754 306.86 36.581 306.86H34.3394C33.8873 306.86 33.6468 306.629 33.6468 306.283V305.936C32.1556 306.591 30.1161 307.014 27.3261 307.014C18.6196 307.014 17.2246 303.047 17.2246 299.61Z" fill="#3FA9F5"/>
<path d="M39.6788 306.283V280.449C39.6788 280.103 39.977 279.871 40.4292 279.871H48.1448C48.597 279.871 48.8952 280.103 48.8952 280.449V283.838C48.8952 284.185 49.1454 284.378 49.5879 284.416C56.707 284.955 60.6899 289.038 60.6899 295.826C60.6899 303.462 56.707 306.851 47.7504 306.851H40.4292C39.9867 306.851 39.6788 306.62 39.6788 306.273V306.283ZM52.9646 290.896C52.9646 288.701 50.8289 287.622 49.6264 287.622C49.1742 287.622 48.8759 287.777 48.8759 288.085V294.141C48.8759 294.642 49.2223 294.834 49.8188 294.834C52.2047 294.834 52.9551 292.716 52.9551 290.906L52.9646 290.896Z" fill="#3FA9F5"/>
<path d="M71.1858 284.272C73.5236 284.272 74.1201 285.042 74.1201 285.504C74.1201 285.042 74.3221 284.349 75.1687 284.349H82.1916C82.8362 284.349 83.2884 284.58 83.2884 284.926V306.283C83.2884 306.629 82.8362 306.86 82.1916 306.86H76.2173C75.5247 306.86 75.0725 306.629 75.0725 306.283V305.589C74.5722 306.206 73.4274 306.86 71.484 306.86C67.1548 306.86 62.3254 304.742 62.3254 295.913C62.3254 290.935 64.9133 284.272 71.1858 284.272ZM74.1201 294.218V288.085C74.1201 287.815 73.8699 287.661 73.4274 287.661C72.3306 287.661 69.9929 289.317 69.9929 291.358C69.9929 294.054 71.4841 294.902 73.1292 294.902C73.8218 294.902 74.1297 294.671 74.1297 294.208L74.1201 294.218Z" fill="#3FA9F5"/>
<path d="M85.3183 298.493C85.3183 290.126 90.244 284.272 97.2669 284.272C102.298 284.272 105.435 287.006 105.435 291.329C105.435 291.715 105.136 291.907 104.684 291.907H99.8548C99.3546 291.907 99.1621 291.676 99.1621 291.291C99.1621 288.633 98.7677 287.632 97.4208 287.632C95.6314 287.632 94.3808 289.404 94.3808 291.83C94.3808 294.257 96.074 294.911 104.781 294.911C105.281 294.911 105.579 295.142 105.579 295.489V306.283C105.579 306.629 105.281 306.86 104.829 306.86H98.7581C89.8014 306.86 85.3183 304.781 85.3183 298.493Z" fill="#3FA9F5"/>
<path d="M116.479 284.272C118.817 284.272 119.413 285.042 119.413 285.504C119.413 285.042 119.615 284.349 120.462 284.349H127.485C128.129 284.349 128.582 284.58 128.582 284.926V306.283C128.582 306.629 128.129 306.86 127.485 306.86H121.51C120.818 306.86 120.366 306.629 120.366 306.283V305.589C119.865 306.206 118.721 306.86 116.777 306.86C112.448 306.86 107.619 304.742 107.619 295.913C107.619 290.935 110.206 284.272 116.479 284.272ZM112.948 282.924C112.9 282.693 112.9 282.5 112.9 282.307C112.9 280.497 114.795 279.034 117.229 279.034C119.817 279.034 122.357 280.767 123.598 280.767C124.098 280.767 124.397 280.497 124.397 279.727V279.611C124.397 279.265 124.791 279.034 125.397 279.034H125.849C126.446 279.034 126.792 279.188 126.946 279.534C126.994 279.881 127.1 280.189 127.1 280.497C127.1 282.115 125.859 283.347 123.271 283.347C120.529 283.347 119.635 281.653 117.941 281.653C116.845 281.653 116.2 282.384 115.902 282.924C115.7 283.27 115.45 283.424 114.853 283.424H114.007C113.41 283.424 113.006 283.27 112.958 282.924H112.948ZM119.413 294.218V288.085C119.413 287.815 119.163 287.661 118.721 287.661C117.624 287.661 115.286 289.317 115.286 291.358C115.286 294.054 116.777 294.902 118.422 294.902C119.115 294.902 119.423 294.671 119.423 294.208L119.413 294.218Z" fill="#3FA9F5"/>
<path d="M130.467 299.726C130.467 293.746 132.459 284.339 141.463 284.339C150.468 284.339 152.363 293.746 152.363 299.726C152.363 303.115 150.67 307.168 141.463 307.168C132.257 307.168 130.467 303.124 130.467 299.726ZM144.109 292.677C144.109 290.328 142.916 287.699 141.569 287.699C139.828 287.699 138.779 290.049 138.779 292.677C138.779 293.987 139.876 294.834 141.569 294.834C143.06 294.834 144.109 293.948 144.109 292.677Z" fill="#3FA9F5"/>
<path d="M164.716 282.539V280.459C164.716 280.112 165.014 279.881 165.466 279.881H172.682C173.134 279.881 173.432 280.112 173.432 280.459V282.539C173.432 282.885 173.134 283.116 172.682 283.116H165.466C165.024 283.116 164.716 282.885 164.716 282.539ZM164.716 306.283V284.926C164.716 284.58 165.014 284.349 165.466 284.349H172.682C173.134 284.349 173.432 284.58 173.432 284.926V306.283C173.432 306.629 173.134 306.86 172.682 306.86H165.466C165.024 306.86 164.716 306.629 164.716 306.283Z" fill="#3FA9F5"/>
<path d="M178.897 313.995V309.142C178.897 308.796 179.195 308.565 179.647 308.565C184.428 308.603 187.959 308.295 187.959 307.64C187.959 307.448 187.613 307.178 186.814 306.908C186.516 306.793 186.266 306.754 185.871 306.754C178.954 306.6 175.472 304.213 175.472 299.735C175.472 290.29 179.955 284.349 186.718 284.349H196.377C196.829 284.349 197.07 284.58 197.07 284.926V289.086C197.07 289.356 196.675 289.664 196.069 289.548H195.915C195.713 289.548 195.617 289.625 195.617 289.818C195.617 289.895 195.617 290.049 195.713 290.203C197.108 292.783 197.859 295.797 197.859 299.726C197.859 302.845 196.117 304.935 192.827 305.975C192.529 306.052 192.375 306.167 192.375 306.283C192.375 306.398 192.529 306.514 192.769 306.591C195.213 307.477 197.849 308.863 197.849 310.827C197.849 313.292 193.962 314.563 186.497 314.563H179.628C179.185 314.563 178.877 314.332 178.877 313.986L178.897 313.995ZM189.45 292.677C189.45 290.328 188.257 287.699 186.766 287.699C185.121 287.699 183.976 290.049 183.976 292.677C183.976 294.025 185.121 294.834 186.91 294.834C188.45 294.834 189.45 294.025 189.45 292.677Z" fill="#3FA9F5"/>
<path d="M199.898 299.61V284.926C199.898 284.58 200.148 284.349 200.591 284.349H207.412C207.806 284.349 208.104 284.58 208.104 284.926V292.292C208.104 293.987 208.104 294.873 209.894 294.873C211.683 294.873 211.741 293.987 211.741 292.292V284.926C211.741 284.58 212.039 284.349 212.434 284.349H219.254C219.649 284.349 219.947 284.58 219.947 284.926V306.283C219.947 306.629 219.649 306.86 219.254 306.86H217.013C216.561 306.86 216.32 306.629 216.32 306.283V305.936C214.829 306.591 212.79 307.014 210 307.014C201.293 307.014 199.898 303.047 199.898 299.61Z" fill="#3FA9F5"/>
<path d="M230.866 284.272C233.204 284.272 233.801 285.042 233.801 285.504C233.801 285.042 234.003 284.349 234.849 284.349H241.863C242.507 284.349 242.959 284.58 242.959 284.926V306.283C242.959 306.629 242.507 306.86 241.863 306.86H235.888C235.196 306.86 234.743 306.629 234.743 306.283V305.589C234.243 306.206 233.098 306.86 231.155 306.86C226.826 306.86 221.996 304.742 221.996 295.913C221.996 290.935 224.584 284.272 230.857 284.272H230.866ZM233.801 294.218V288.085C233.801 287.815 233.55 287.661 233.108 287.661C232.011 287.661 229.673 289.317 229.673 291.358C229.673 294.054 231.165 294.902 232.81 294.902C233.502 294.902 233.81 294.671 233.81 294.208L233.801 294.218Z" fill="#3FA9F5"/>
<path d="M245.345 306.283V280.411C245.345 280.064 245.643 279.833 246.096 279.833H253.561C254.013 279.833 254.311 280.064 254.311 280.411V306.283C254.311 306.629 254.013 306.86 253.561 306.86H246.096C245.653 306.86 245.345 306.629 245.345 306.283Z" fill="#3FA9F5"/>
<path d="M267.501 295.412C267.501 295.065 267.799 294.834 268.252 294.834C271.686 294.834 273.331 294.642 273.331 294.141C273.331 293.794 272.485 293.294 270.888 292.6C268.203 291.445 267.059 290.367 267.059 288.672C267.059 286.746 269.098 284.166 276.564 284.166C283.577 284.166 286.271 286.361 286.521 290.569C286.521 290.877 286.223 291.07 285.77 291.07H280.691C280.248 291.07 279.94 290.877 279.94 290.569C279.94 289.144 279.642 287.449 277.102 287.449C274.909 287.449 274.563 288.72 274.563 289.336C274.563 292.841 287.858 291.724 287.858 300.323C287.858 303.635 285.222 306.88 275.217 306.88H268.252C267.799 306.88 267.501 306.649 267.501 306.302V295.412Z" fill="#3FA9F5"/>
<path d="M289.792 299.61V284.926C289.792 284.58 290.042 284.349 290.484 284.349H297.305C297.7 284.349 297.998 284.58 297.998 284.926V292.292C297.998 293.987 297.998 294.873 299.787 294.873C301.577 294.873 301.635 293.987 301.635 292.292V284.926C301.635 284.58 301.933 284.349 302.327 284.349H309.148C309.543 284.349 309.841 284.58 309.841 284.926V306.283C309.841 306.629 309.543 306.86 309.148 306.86H306.907C306.454 306.86 306.214 306.629 306.214 306.283V305.936C304.723 306.591 302.683 307.014 299.893 307.014C291.187 307.014 289.792 303.047 289.792 299.61Z" fill="#3FA9F5"/>
<path d="M320.76 284.272C323.098 284.272 323.694 285.042 323.694 285.504C323.694 285.042 323.896 284.349 324.743 284.349H331.756C332.401 284.349 332.853 284.58 332.853 284.926V306.283C332.853 306.629 332.401 306.86 331.756 306.86H325.782C325.089 306.86 324.637 306.629 324.637 306.283V305.589C324.137 306.206 322.992 306.86 321.049 306.86C316.719 306.86 311.89 304.742 311.89 295.913C311.89 290.935 314.478 284.272 320.75 284.272H320.76ZM323.694 294.218V288.085C323.694 287.815 323.444 287.661 323.002 287.661C321.905 287.661 319.567 289.317 319.567 291.358C319.567 294.054 321.058 294.902 322.703 294.902C323.396 294.902 323.704 294.671 323.704 294.208L323.694 294.218Z" fill="#3FA9F5"/>
<path d="M2.8901 349.005V335.554C2.8901 335.207 2.5919 334.976 2.13974 334.976H0.792846C0.340684 334.976 0.0424805 334.745 0.0424805 334.398V331.202C0.0424805 330.855 0.340684 330.624 0.792846 330.624H2.13974C2.5919 330.624 2.8901 330.393 2.8901 330.046V326.734C2.8901 326.387 3.18836 326.156 3.64053 326.156H10.6635C11.106 326.156 11.4138 326.387 11.4138 326.734V330.046C11.4138 330.393 11.7121 330.624 12.1642 330.624H16.1952C16.6474 330.624 16.9456 330.855 16.9456 331.202V334.398C16.9456 334.745 16.6474 334.976 16.1952 334.976H12.1642C11.7121 334.976 11.4138 335.207 11.4138 335.554V339.367C11.4138 340.599 12.7126 341.1 16.1952 341.1C16.6474 341.1 16.9456 341.331 16.9456 341.677V349.236C16.9456 352.086 14.2038 353.28 9.77839 353.28C5.35297 353.28 2.90936 351.778 2.90936 349.005H2.8901Z" fill="#3FA9F5"/>
<path d="M19.2642 328.794V326.715C19.2642 326.368 19.5624 326.137 20.0145 326.137H27.2299C27.682 326.137 27.9803 326.368 27.9803 326.715V328.794C27.9803 329.141 27.682 329.372 27.2299 329.372H20.0145C19.572 329.372 19.2642 329.141 19.2642 328.794ZM19.2642 352.548V331.192C19.2642 330.845 19.5624 330.614 20.0145 330.614H27.2299C27.682 330.614 27.9803 330.845 27.9803 331.192V352.548C27.9803 352.895 27.682 353.126 27.2299 353.126H20.0145C19.572 353.126 19.2642 352.895 19.2642 352.548Z" fill="#3FA9F5"/>
<path d="M38.8803 330.537C41.2181 330.537 41.8145 331.307 41.8145 331.77C41.8145 331.307 42.0165 330.614 42.8631 330.614H49.8765C50.5211 330.614 50.9732 330.845 50.9732 331.192V352.548C50.9732 352.895 50.5211 353.126 49.8765 353.126H43.9022C43.2095 353.126 42.7573 352.895 42.7573 352.548V351.855C42.2571 352.471 41.1122 353.126 39.1689 353.126C34.8397 353.126 30.0102 351.007 30.0102 342.178C30.0102 337.2 32.5981 330.537 38.8707 330.537H38.8803ZM41.8145 340.483V334.35C41.8145 334.08 41.5644 333.926 41.1218 333.926C40.0251 333.926 37.6873 335.583 37.6873 337.624C37.6873 340.32 39.1785 341.167 40.8236 341.167C41.5163 341.167 41.8242 340.936 41.8242 340.474L41.8145 340.483Z" fill="#3FA9F5"/>
<path d="M63.8165 349.159V341.754C63.8165 341.408 64.1148 341.177 64.6151 341.177C68.3478 341.177 69.4926 340.753 69.4926 339.444V337.441C69.4926 337.094 69.1944 336.863 68.7422 336.863H67.3953C66.9528 336.863 66.645 336.632 66.645 336.285V333.358C66.645 333.012 66.9432 332.781 67.3953 332.781H68.7422C69.1944 332.781 69.4926 332.549 69.4926 332.203V331.394C69.4926 327.62 73.2253 326.339 82.4321 326.146C82.9324 326.146 83.2306 326.378 83.2306 326.724V329.613C83.2306 329.959 82.9805 330.229 82.4802 330.229C78.7956 330.229 77.9009 330.614 77.9009 332.116C77.9009 332.54 78.0548 332.771 78.5455 332.771H80.7871C81.2392 332.771 81.5374 333.002 81.5374 333.349V336.276C81.5374 336.622 81.2392 336.853 80.7871 336.853H78.4012C77.949 336.853 77.6508 337.085 77.6508 337.431V349.226C77.6508 351.961 75.4092 353.386 70.9838 353.386C66.5584 353.386 63.8165 351.845 63.8165 349.149V349.159Z" fill="#3FA9F5"/>
<path d="M90.7442 330.537C93.082 330.537 93.6785 331.307 93.6785 331.77C93.6785 331.307 93.8805 330.614 94.7271 330.614H101.74C102.385 330.614 102.837 330.845 102.837 331.192V352.548C102.837 352.895 102.385 353.126 101.74 353.126H95.7661C95.0735 353.126 94.6213 352.895 94.6213 352.548V351.855C94.121 352.471 92.9762 353.126 91.0328 353.126C86.7036 353.126 81.8742 351.007 81.8742 342.178C81.8742 337.2 84.4621 330.537 90.7346 330.537H90.7442ZM93.6785 340.483V334.35C93.6785 334.08 93.4284 333.926 92.9858 333.926C91.8891 333.926 89.5513 335.583 89.5513 337.624C89.5513 340.32 91.0425 341.167 92.6876 341.167C93.3803 341.167 93.6881 340.936 93.6881 340.474L93.6785 340.483Z" fill="#3FA9F5"/>
<path d="M105.031 345.683V342.217C105.031 341.947 105.127 341.716 105.425 341.485L113.044 335.698C113.141 335.621 113.198 335.544 113.198 335.467C113.198 335.274 112.804 335.159 112.198 335.159H105.877C105.435 335.159 105.127 334.928 105.127 334.581V331.192C105.127 330.845 105.425 330.614 105.877 330.614H123.502C123.954 330.614 124.252 330.845 124.252 331.192V332.732C124.252 333.002 124.156 333.272 123.906 333.464L116.036 340.522C115.94 340.599 115.883 340.715 115.883 340.792C115.883 340.984 116.229 341.1 116.825 341.1H123.396C123.848 341.1 124.147 341.331 124.147 341.677V352.548C124.147 352.895 123.848 353.126 123.396 353.126H116.527C106.522 353.126 105.031 349.159 105.031 345.683Z" fill="#3FA9F5"/>
<path d="M126.436 328.794V326.715C126.436 326.368 126.734 326.137 127.187 326.137H134.402C134.854 326.137 135.152 326.368 135.152 326.715V328.794C135.152 329.141 134.854 329.372 134.402 329.372H127.187C126.744 329.372 126.436 329.141 126.436 328.794ZM126.436 352.548V331.192C126.436 330.845 126.734 330.614 127.187 330.614H134.402C134.854 330.614 135.152 330.845 135.152 331.192V352.548C135.152 352.895 134.854 353.126 134.402 353.126H127.187C126.744 353.126 126.436 352.895 126.436 352.548Z" fill="#3FA9F5"/>
<path d="M146.043 330.537C148.38 330.537 148.977 331.307 148.977 331.77C148.977 331.307 149.179 330.614 150.026 330.614H157.048C157.693 330.614 158.145 330.845 158.145 331.192V352.548C158.145 352.895 157.693 353.126 157.048 353.126H151.074C150.382 353.126 149.929 352.895 149.929 352.548V351.855C149.429 352.471 148.284 353.126 146.341 353.126C142.012 353.126 137.182 351.007 137.182 342.178C137.182 337.2 139.77 330.537 146.043 330.537ZM148.987 340.483V334.35C148.987 334.08 148.736 333.926 148.294 333.926C147.197 333.926 144.859 335.583 144.859 337.624C144.859 340.32 146.351 341.167 147.996 341.167C148.688 341.167 148.996 340.936 148.996 340.474L148.987 340.483Z" fill="#3FA9F5"/>
</svg>
