<svg width="369" height="344" viewBox="0 0 369 344" fill="none" xmlns="http://www.w3.org/2000/svg">
<path d="M7.04564 32.2687L0.542199 8.4187V8.24539C0.542199 7.89876 0.82119 7.68691 1.32145 7.68691H8.10387C8.54641 7.68691 8.88311 7.89876 8.98894 8.24539L12.2118 19.3086C12.2696 19.482 12.6543 19.482 12.7121 19.3086L15.9349 8.24539C16.0504 7.89876 16.3198 7.68691 16.82 7.68691H23.6024C24.1027 7.68691 24.3817 7.98541 24.2662 8.4187L17.0413 32.2687C16.9258 32.6154 16.6565 32.8272 16.1562 32.8272H7.93071C7.43045 32.8272 7.15147 32.6154 7.04564 32.2687Z" fill="#72AA16"/>
<path d="M23.0541 24.8644C23.0541 18.1917 25.2764 7.68691 35.3394 7.68691C45.4024 7.68691 47.5093 18.1917 47.5093 24.8644C47.5093 28.6484 45.6237 33.1738 35.3394 33.1738C25.0551 33.1738 23.0541 28.658 23.0541 24.8644ZM38.2833 16.9882C38.2833 14.3596 36.946 11.4325 35.4452 11.4325C33.5019 11.4325 32.3282 14.0611 32.3282 16.9882C32.3282 18.4517 33.55 19.3953 35.4452 19.3953C37.1096 19.3953 38.2833 18.4036 38.2833 16.9882Z" fill="#72AA16"/>
<path d="M49.2314 23.4875C49.2314 14.1477 54.7343 7.60029 62.575 7.60029C68.1837 7.60029 71.6856 10.6525 71.6856 15.4765C71.6856 15.9098 71.3489 16.1216 70.8486 16.1216H65.4611C64.9031 16.1216 64.6818 15.8616 64.6818 15.4283C64.6818 12.4627 64.2393 11.3362 62.7385 11.3362C60.7374 11.3362 59.3521 13.3197 59.3521 16.0253C59.3521 18.7309 61.2377 19.4723 70.964 19.4723C71.522 19.4723 71.8491 19.7323 71.8491 20.1175V32.1724C71.8491 32.5576 71.5124 32.8176 71.0121 32.8176H64.2297C54.2244 32.8176 49.2217 30.4971 49.2217 23.4778L49.2314 23.4875Z" fill="#72AA16"/>
<path d="M74.0714 23.4875C74.0714 18.4036 77.352 7.5136 87.415 7.5136C94.8613 7.5136 96.5256 10.5659 96.5256 15.4765C96.5256 15.9098 96.1889 16.1216 95.6886 16.1216H85.1253C84.6251 16.1216 84.2403 16.2949 84.2403 16.68C84.2403 18.7021 87.0783 19.4819 95.8041 19.4819C96.3621 19.4819 96.6892 19.7419 96.6892 20.127V32.1821C96.6892 32.5672 96.3525 32.8272 95.8522 32.8272H89.0698C80.4017 32.8272 74.0618 30.5452 74.0618 23.4875H74.0714ZM87.0783 4.46136C86.8571 4.46136 86.6358 4.49988 86.3568 4.58653L80.4691 6.86851C80.3055 6.90702 80.1901 6.95513 80.0842 6.95513C79.6994 6.95513 79.4685 6.74334 79.4685 6.39671V3.64289C79.4685 3.29626 79.6898 3.03629 80.0842 2.86298L86.2509 0.321072C86.5299 0.1959 86.7512 0.147705 87.0302 0.147705C87.2515 0.147705 87.5304 0.186271 87.7517 0.321072L93.9185 2.86298C94.3033 3.03629 94.5342 3.29626 94.5342 3.64289V6.44484C94.5342 6.79147 94.3129 7.00332 93.9762 7.00332C93.8607 7.00332 93.6972 7.00329 93.5336 6.91664L87.7036 4.59617C87.4824 4.50951 87.2611 4.47099 87.0879 4.47099L87.0783 4.46136ZM89.1948 12.299C88.9158 11.7406 88.4155 11.3554 87.5882 11.3554C86.5877 11.3554 85.9238 11.702 85.4236 12.2605C85.3081 12.3857 85.26 12.5205 85.26 12.6071C85.26 12.8671 85.539 13.0404 85.9816 13.0404H88.5406C89.0986 13.0404 89.4257 12.7419 89.2044 12.3086L89.1948 12.299Z" fill="#72AA16"/>
<path d="M120.538 7.60029C123.155 7.60029 123.819 8.45723 123.819 8.97717C123.819 8.45723 124.04 7.68691 124.983 7.68691H132.814C133.536 7.68691 134.036 7.94687 134.036 8.33201V32.1821C134.036 32.5672 133.536 32.8272 132.814 32.8272H126.147C125.368 32.8272 124.868 32.5672 124.868 32.1821V31.4022C124.31 32.0954 123.03 32.8272 120.865 32.8272C116.026 32.8272 110.639 30.4586 110.639 20.5989C110.639 15.0432 113.525 7.60029 120.529 7.60029H120.538ZM123.819 18.7117V11.8658C123.819 11.5673 123.54 11.394 123.04 11.394C121.818 11.394 119.201 13.2426 119.201 15.5246C119.201 18.5384 120.865 19.4819 122.703 19.4819C123.482 19.4819 123.819 19.222 123.819 18.7117Z" fill="#72AA16"/>
<path d="M136.326 23.4875C136.326 14.1477 141.828 7.60029 149.659 7.60029C155.268 7.60029 158.77 10.6525 158.77 15.4765C158.77 15.9098 158.433 16.1216 157.933 16.1216H152.546C151.988 16.1216 151.766 15.8616 151.766 15.4283C151.766 12.4627 151.324 11.3362 149.823 11.3362C147.822 11.3362 146.437 13.3197 146.437 16.0253C146.437 18.7309 148.322 19.4723 158.048 19.4723C158.606 19.4723 158.934 19.7323 158.934 20.1175V32.1724C158.934 32.5576 158.597 32.8176 158.097 32.8176H151.314C141.309 32.8176 136.306 30.4971 136.306 23.4778L136.326 23.4875Z" fill="#72AA16"/>
<path d="M171.113 7.60029C173.73 7.60029 174.394 8.45723 174.394 8.97717C174.394 8.45723 174.615 7.68691 175.558 7.68691H183.398C184.12 7.68691 184.62 7.94687 184.62 8.33201V32.1821C184.62 32.5672 184.12 32.8272 183.398 32.8272H176.731C175.952 32.8272 175.452 32.5672 175.452 32.1821V31.4022C174.894 32.0954 173.614 32.8272 171.45 32.8272C166.611 32.8272 161.223 30.4586 161.223 20.5989C161.223 15.0432 164.109 7.60029 171.113 7.60029ZM174.394 18.7117V11.8658C174.394 11.5673 174.115 11.394 173.614 11.394C172.393 11.394 169.776 13.2426 169.776 15.5246C169.776 18.5384 171.44 19.4819 173.278 19.4819C174.057 19.4819 174.394 19.222 174.394 18.7117Z" fill="#72AA16"/>
<path d="M187.285 32.1821V3.34441C187.285 2.95926 187.622 2.69931 188.122 2.69931H196.732C197.233 2.69931 197.569 2.95926 197.569 3.34441V7.12844C197.569 7.51358 197.848 7.73508 198.349 7.7736C206.295 8.3802 210.74 12.9345 210.74 20.5122C210.74 29.0335 206.295 32.8272 196.29 32.8272H188.122C187.622 32.8272 187.285 32.5672 187.285 32.1821ZM202.129 15.0047C202.129 12.5494 199.744 11.3458 198.406 11.3458C197.906 11.3458 197.569 11.5191 197.569 11.8658V18.625C197.569 19.1834 197.954 19.3953 198.628 19.3953C201.292 19.3953 202.129 17.0267 202.129 15.0047Z" fill="#72AA16"/>
<path d="M212.404 24.8644C212.404 18.1917 214.626 7.68691 224.689 7.68691C234.752 7.68691 236.859 18.1917 236.859 24.8644C236.859 28.6484 234.974 33.1738 224.689 33.1738C214.405 33.1738 212.404 28.658 212.404 24.8644ZM227.633 16.9882C227.633 14.3596 226.296 11.4325 224.795 11.4325C222.852 11.4325 221.678 14.0611 221.678 16.9882C221.678 18.4517 222.9 19.3953 224.795 19.3953C226.46 19.3953 227.633 18.4036 227.633 16.9882Z" fill="#72AA16"/>
<path d="M238.976 8.34165C238.976 7.95651 239.255 7.69655 239.755 7.69655H247.365C247.807 7.69655 248.144 7.95651 248.144 8.34165V16.5645C248.144 18.4613 248.144 19.4531 250.145 19.4531C252.146 19.4531 252.204 18.4613 252.204 16.5645V8.34165C252.204 7.95651 252.541 7.69655 252.983 7.69655H260.603C261.045 7.69655 261.382 7.95651 261.382 8.34165V32.1917C261.382 32.5768 261.045 32.8368 260.603 32.8368H258.101C257.601 32.8368 257.322 32.5768 257.322 32.1917V31.8065C255.658 32.5383 253.378 33.0101 250.261 33.0101C240.534 33.0101 238.976 28.581 238.976 24.7488V8.34165Z" fill="#72AA16"/>
<path d="M275.264 20.5218C275.264 12.9441 279.709 8.38021 287.655 7.78323C288.156 7.74472 288.435 7.52322 288.435 7.13808V3.35404C288.435 2.9689 288.771 2.70894 289.272 2.70894H297.882C298.382 2.70894 298.719 2.9689 298.719 3.35404V32.1917C298.719 32.5768 298.382 32.8368 297.882 32.8368H289.714C279.709 32.8368 275.264 29.0528 275.264 20.5218ZM288.435 11.8657C288.435 11.5673 288.156 11.394 287.713 11.394C286.434 11.394 283.875 12.7323 283.875 15.0143C283.875 17.2962 285.212 19.4049 287.376 19.4049C288.098 19.4049 288.435 19.1449 288.435 18.6346V11.8657Z" fill="#72AA16"/>
<path d="M300.941 23.4875C300.941 18.4036 304.222 7.51361 314.285 7.51361C321.731 7.51361 323.395 10.5659 323.395 15.4765C323.395 15.9098 323.059 16.1216 322.559 16.1216H311.995C311.495 16.1216 311.11 16.2949 311.11 16.68C311.11 18.7021 313.948 19.4819 322.674 19.4819C323.232 19.4819 323.559 19.7419 323.559 20.127V32.1821C323.559 32.5672 323.222 32.8272 322.722 32.8272H315.94C307.272 32.8272 300.932 30.5452 300.932 23.4875H300.941ZM316.065 12.299C315.786 11.7406 315.285 11.3554 314.448 11.3554C313.448 11.3554 312.784 11.702 312.284 12.2605C312.168 12.3857 312.12 12.5205 312.12 12.6071C312.12 12.8671 312.399 13.0404 312.842 13.0404H315.401C315.959 13.0404 316.286 12.7419 316.065 12.3086V12.299Z" fill="#72AA16"/>
<path d="M1.04248 75.1449C1.04248 65.8051 6.54539 59.2577 14.3861 59.2577C19.9948 59.2577 23.4966 62.3099 23.4966 67.1339C23.4966 67.5671 23.1599 67.779 22.6596 67.779H17.2722C16.7142 67.779 16.493 67.519 16.493 67.0857C16.493 64.1201 16.0504 62.9936 14.5496 62.9936C12.5485 62.9936 11.1632 64.9771 11.1632 67.6827C11.1632 70.3883 13.0488 71.1298 22.7751 71.1298C23.3331 71.1298 23.6602 71.3897 23.6602 71.7748V83.8299C23.6602 84.215 23.3234 84.475 22.8232 84.475H16.0408C6.03547 84.475 1.03285 82.1545 1.03285 75.1352L1.04248 75.1449Z" fill="#72AA16"/>
<path d="M26.3347 83.8395V55.0019C26.3347 54.6167 26.6714 54.3568 27.1716 54.3568H35.782C36.2822 54.3568 36.619 54.6167 36.619 55.0019V59.3925C37.4559 59.2673 38.0043 59.1807 39.178 59.1807C46.124 59.1807 49.8471 62.3196 49.8471 68.9922V83.8395C49.8471 84.2247 49.5104 84.4846 49.0101 84.4846H40.9482C40.4479 84.4846 40.1112 84.2247 40.1112 83.8395V73.1229C40.1112 70.5424 39.6109 69.8491 37.9466 69.8491C37.0038 69.8491 36.6093 70.0609 36.6093 70.6194V83.8395C36.6093 84.2247 36.2726 84.4846 35.7724 84.4846H27.162C26.6618 84.4846 26.325 84.2247 26.325 83.8395H26.3347Z" fill="#72AA16"/>
<path d="M52.0694 75.1449C52.0694 70.061 55.35 59.1711 65.4034 59.1711C72.8496 59.1711 74.514 62.2233 74.514 67.1339C74.514 67.5672 74.1773 67.779 73.677 67.779H63.1137C62.6134 67.779 62.2286 67.9523 62.2286 68.3374C62.2286 70.3594 65.0667 71.1394 73.7925 71.1394C74.3504 71.1394 74.6775 71.3993 74.6775 71.7845V83.8395C74.6775 84.2247 74.3408 84.4846 73.8406 84.4846H67.0581C58.3901 84.4846 52.0502 82.2026 52.0502 75.1449H52.0694ZM67.1832 63.9564C66.9042 63.398 66.4039 63.0129 65.5669 63.0129C64.5664 63.0129 63.9026 63.3595 63.4023 63.9179C63.2869 64.0431 63.2388 64.1779 63.2388 64.2646C63.2388 64.5245 63.5178 64.6979 63.9603 64.6979H66.5194C67.0774 64.6979 67.4045 64.3994 67.1832 63.9661V63.9564Z" fill="#72AA16"/>
<path d="M80.7961 92.4475V87.0266C80.7961 86.6414 81.1328 86.3815 81.6331 86.3815C86.9628 86.42 90.9169 86.083 90.9169 85.3512C90.9169 85.1394 90.5321 84.8312 89.6374 84.5327C89.3006 84.4076 89.0217 84.3594 88.5791 84.3594C80.8539 84.1861 76.9672 81.519 76.9672 76.5217C76.9672 65.9784 81.9699 59.3444 89.5315 59.3444H100.316C100.816 59.3444 101.095 59.6043 101.095 59.9895V64.6401C101.095 64.9386 100.653 65.2852 99.9794 65.16H99.8158C99.5945 65.16 99.4791 65.2467 99.4791 65.4585C99.4791 65.5452 99.4791 65.7185 99.5945 65.8918C101.153 68.7804 101.98 72.1311 101.98 76.5217C101.98 80.0073 100.037 82.3375 96.3717 83.4929C96.035 83.5796 95.8714 83.7047 95.8714 83.8395C95.8714 83.9743 96.035 84.0995 96.314 84.1861C99.0365 85.1779 101.98 86.7281 101.98 88.9234C101.98 91.6772 97.6416 93.1022 89.3103 93.1022H81.6427C81.1425 93.1022 80.8058 92.8423 80.8058 92.4571L80.7961 92.4475ZM92.5812 68.6456C92.5812 66.017 91.244 63.0899 89.5796 63.0899C87.7421 63.0899 86.4722 65.7185 86.4722 68.6456C86.4722 70.1476 87.7517 71.0527 89.7528 71.0527C91.4749 71.0527 92.5908 70.1476 92.5908 68.6456H92.5812Z" fill="#72AA16"/>
<path d="M113.756 59.2577C116.363 59.2577 117.036 60.1146 117.036 60.6346C117.036 60.1146 117.258 59.3444 118.201 59.3444H126.041C126.763 59.3444 127.263 59.6043 127.263 59.9895V83.8395C127.263 84.2247 126.763 84.4846 126.041 84.4846H119.374C118.595 84.4846 118.095 84.2247 118.095 83.8395V83.0596C117.537 83.7529 116.257 84.4846 114.093 84.4846C109.253 84.4846 103.866 82.116 103.866 72.2563C103.866 66.7006 106.752 59.2577 113.756 59.2577ZM117.036 70.3691V63.5231C117.036 63.2246 116.757 63.0513 116.257 63.0513C115.035 63.0513 112.419 64.9001 112.419 67.1821C112.419 70.1958 114.083 71.1394 115.92 71.1394C116.7 71.1394 117.036 70.8794 117.036 70.3691Z" fill="#72AA16"/>
<path d="M129.928 83.8395V59.9895C129.928 59.6043 130.265 59.3444 130.765 59.3444H135.489C135.989 59.3444 136.326 59.6043 136.326 59.9895V62.1848C136.326 60.7598 139.606 59.3444 144.772 59.3444C145.33 59.3444 145.657 59.5562 145.657 59.9895V63.9083C145.657 64.2934 145.436 64.6015 144.936 64.6015C141.328 64.6015 139.875 66.1517 139.875 69.1173V83.8395C139.875 84.2247 139.539 84.4846 139.038 84.4846H130.755C130.255 84.4846 129.918 84.2247 129.918 83.8395H129.928Z" fill="#72AA16"/>
<path d="M159.328 72.1793C159.328 64.6016 163.773 60.0376 171.719 59.4406C172.219 59.4021 172.498 59.1807 172.498 58.7955V55.0115C172.498 54.6263 172.835 54.3664 173.335 54.3664H181.946C182.446 54.3664 182.783 54.6263 182.783 55.0115V83.8492C182.783 84.2343 182.446 84.4942 181.946 84.4942H173.778C163.773 84.4942 159.328 80.7102 159.328 72.1793ZM172.498 63.5231C172.498 63.2246 172.219 63.0513 171.777 63.0513C170.497 63.0513 167.938 64.3897 167.938 66.6717C167.938 68.9537 169.276 71.0623 171.44 71.0623C172.162 71.0623 172.498 70.8024 172.498 70.2921V63.5231Z" fill="#72AA16"/>
<path d="M194.953 59.2577C197.569 59.2577 198.233 60.1146 198.233 60.6346C198.233 60.1146 198.454 59.3444 199.397 59.3444H207.238C207.959 59.3444 208.46 59.6043 208.46 59.9895V83.8395C208.46 84.2247 207.959 84.4846 207.238 84.4846H200.571C199.792 84.4846 199.291 84.2247 199.291 83.8395V83.0596C198.733 83.7529 197.454 84.4846 195.289 84.4846C190.45 84.4846 185.063 82.116 185.063 72.2563C185.063 66.7006 187.949 59.2577 194.953 59.2577ZM198.233 70.3691V63.5231C198.233 63.2246 197.954 63.0513 197.454 63.0513C196.232 63.0513 193.615 64.9001 193.615 67.1821C193.615 70.1958 195.28 71.1394 197.117 71.1394C197.897 71.1394 198.233 70.8794 198.233 70.3691Z" fill="#72AA16"/>
<path d="M222.804 92.4475V59.9895C222.804 59.6043 223.141 59.3444 223.641 59.3444H232.203C243.43 59.3444 246.538 65.8918 246.538 72.1697C246.538 77.5039 245.537 83.7047 234.252 84.3979C233.694 84.4364 233.415 84.6964 233.415 85.0912V92.4571C233.415 92.8423 233.079 93.1022 232.578 93.1022H223.631C223.131 93.1022 222.794 92.8423 222.794 92.4571L222.804 92.4475ZM237.918 66.6621C237.918 64.4282 235.359 63.0899 234.079 63.0899C233.473 63.0899 233.415 63.3884 233.415 63.735V70.1957C233.415 70.4557 233.415 70.7157 233.637 70.889C233.858 71.0142 234.079 71.0623 234.416 71.0623C237.081 71.0623 237.918 69.0789 237.918 66.6717V66.6621Z" fill="#72AA16"/>
<path d="M248.76 83.8395V59.9895C248.76 59.6043 249.097 59.3444 249.597 59.3444H254.321C254.821 59.3444 255.158 59.6043 255.158 59.9895V62.1848C255.158 60.7598 258.438 59.3444 263.604 59.3444C264.162 59.3444 264.489 59.5562 264.489 59.9895V63.9083C264.489 64.2934 264.268 64.6015 263.768 64.6015C260.16 64.6015 258.707 66.1517 258.707 69.1173V83.8395C258.707 84.2247 258.371 84.4846 257.87 84.4846H249.587C249.087 84.4846 248.75 84.2247 248.75 83.8395H248.76Z" fill="#72AA16"/>
<path d="M274.716 59.2577C277.333 59.2577 277.996 60.1146 277.996 60.6346C277.996 60.1146 278.218 59.3444 279.161 59.3444H287.001C287.723 59.3444 288.223 59.6043 288.223 59.9895V83.8395C288.223 84.2247 287.723 84.4846 287.001 84.4846H280.334C279.555 84.4846 279.055 84.2247 279.055 83.8395V83.0596C278.497 83.7529 277.217 84.4846 275.053 84.4846C270.214 84.4846 264.826 82.116 264.826 72.2563C264.826 66.7006 267.712 59.2577 274.716 59.2577ZM277.987 70.3691V63.5231C277.987 63.2246 277.708 63.0513 277.208 63.0513C275.986 63.0513 273.369 64.9001 273.369 67.1821C273.369 70.1958 275.033 71.1394 276.871 71.1394C277.65 71.1394 277.987 70.8794 277.987 70.3691Z" fill="#72AA16"/>
<path d="M290.888 57.3223V55.0019C290.888 54.6167 291.225 54.3568 291.725 54.3568H299.787C300.287 54.3568 300.624 54.6167 300.624 55.0019V57.3223C300.624 57.7075 300.287 57.9675 299.787 57.9675H291.725C291.225 57.9675 290.888 57.7075 290.888 57.3223ZM290.888 83.8395V59.9895C290.888 59.6043 291.225 59.3444 291.725 59.3444H299.787C300.287 59.3444 300.624 59.6043 300.624 59.9895V83.8395C300.624 84.2247 300.287 84.4846 299.787 84.4846H291.725C291.225 84.4846 290.888 84.2247 290.888 83.8395Z" fill="#72AA16"/>
<path d="M312.784 59.2577C315.401 59.2577 316.065 60.1146 316.065 60.6346C316.065 60.1146 316.286 59.3444 317.229 59.3444H325.069C325.791 59.3444 326.291 59.6043 326.291 59.9895V83.8395C326.291 84.2247 325.791 84.4846 325.069 84.4846H318.402C317.623 84.4846 317.123 84.2247 317.123 83.8395V83.0596C316.565 83.7529 315.285 84.4846 313.121 84.4846C308.282 84.4846 302.894 82.116 302.894 72.2563C302.894 66.7006 305.78 59.2577 312.784 59.2577ZM316.065 70.3691V63.5231C316.065 63.2246 315.786 63.0513 315.285 63.0513C314.064 63.0513 311.447 64.9001 311.447 67.1821C311.447 70.1958 313.111 71.1394 314.949 71.1394C315.728 71.1394 316.065 70.8794 316.065 70.3691Z" fill="#72AA16"/>
<path d="M1.04248 126.802C1.04248 117.463 6.54539 110.915 14.3861 110.915C19.9948 110.915 23.4966 113.967 23.4966 118.791C23.4966 119.225 23.1599 119.436 22.6596 119.436H17.2722C16.7142 119.436 16.493 119.176 16.493 118.743C16.493 115.778 16.0504 114.651 14.5496 114.651C12.5485 114.651 11.1632 116.635 11.1632 119.34C11.1632 122.046 13.0488 122.787 22.7751 122.787C23.3331 122.787 23.6602 123.047 23.6602 123.432V135.487C23.6602 135.872 23.3234 136.132 22.8232 136.132H16.0408C6.03547 136.132 1.03285 133.812 1.03285 126.793L1.04248 126.802Z" fill="#72AA16"/>
<path d="M25.7767 128.179C25.7767 121.507 27.999 111.002 38.062 111.002C48.125 111.002 50.2319 121.507 50.2319 128.179C50.2319 131.963 48.3463 136.489 38.062 136.489C27.7777 136.489 25.7767 131.973 25.7767 128.179ZM41.0059 120.303C41.0059 117.674 39.6686 114.747 38.1678 114.747C36.2245 114.747 35.0604 117.376 35.0604 120.303C35.0604 121.767 36.2822 122.71 38.1678 122.71C39.8322 122.71 41.0059 121.718 41.0059 120.303Z" fill="#72AA16"/>
<path d="M52.2907 135.497V111.647C52.2907 111.262 52.5697 111.002 53.0699 111.002H57.1298C57.5723 111.002 57.9091 111.262 57.9091 111.647V113.967C57.9091 113.967 59.6888 110.828 64.6338 110.828C67.1351 110.828 69.6364 111.435 71.3007 112.639C72.5225 111.522 74.4177 110.828 77.4097 110.828C83.6919 110.828 87.415 113.967 87.415 120.64V135.487C87.415 135.872 87.136 136.132 86.6358 136.132H79.026C78.5257 136.132 78.2467 135.872 78.2467 135.487V124.771C78.2467 122.19 77.7465 121.073 76.188 121.073C74.6294 121.073 74.1292 122.19 74.1292 124.771V135.487C74.1292 135.872 73.8502 136.132 73.3499 136.132H66.2885C65.8459 136.132 65.5092 135.872 65.5092 135.487V124.771C65.5092 122.19 65.0667 121.073 63.5082 121.073C61.9497 121.073 61.4494 122.19 61.4494 124.771V135.487C61.4494 135.872 61.1127 136.132 60.6701 136.132H53.0603C52.56 136.132 52.2811 135.872 52.2811 135.487L52.2907 135.497Z" fill="#72AA16"/>
<path d="M111.197 110.915C113.814 110.915 114.477 111.772 114.477 112.292C114.477 111.772 114.699 111.002 115.642 111.002H123.482C124.204 111.002 124.704 111.262 124.704 111.647V135.497C124.704 135.882 124.204 136.142 123.482 136.142H116.815C116.036 136.142 115.536 135.882 115.536 135.497V134.717C114.978 135.41 113.698 136.142 111.534 136.142C106.694 136.142 101.307 133.773 101.307 123.914C101.307 118.358 104.193 110.915 111.197 110.915ZM114.477 122.027V115.181C114.477 114.882 114.198 114.709 113.698 114.709C112.476 114.709 109.86 116.557 109.86 118.839C109.86 121.853 111.524 122.797 113.361 122.797C114.141 122.797 114.468 122.537 114.468 122.017L114.477 122.027Z" fill="#72AA16"/>
<path d="M144.657 135.584L138.153 111.734V111.56C138.153 111.214 138.432 111.002 138.933 111.002H145.715C146.158 111.002 146.494 111.214 146.6 111.56L149.823 122.623C149.881 122.797 150.266 122.797 150.323 122.623L153.546 111.56C153.662 111.214 153.931 111.002 154.431 111.002H161.214C161.714 111.002 161.993 111.3 161.877 111.734L154.652 135.584C154.537 135.93 154.268 136.142 153.767 136.142H145.542C145.042 136.142 144.763 135.93 144.657 135.584Z" fill="#72AA16"/>
<path d="M160.665 128.179C160.665 121.507 162.888 111.002 172.951 111.002C183.014 111.002 185.12 121.507 185.12 128.179C185.12 131.963 183.235 136.489 172.951 136.489C162.666 136.489 160.665 131.973 160.665 128.179ZM175.895 120.303C175.895 117.674 174.557 114.747 173.056 114.747C171.113 114.747 169.939 117.376 169.939 120.303C169.939 121.767 171.161 122.71 173.056 122.71C174.721 122.71 175.895 121.718 175.895 120.303Z" fill="#72AA16"/>
<path d="M187.227 135.497V111.647C187.227 111.262 187.564 111.002 188.064 111.002H192.403C192.903 111.002 193.24 111.262 193.24 111.647V114.401C193.24 113.197 196.184 110.954 200.407 110.954C206.747 110.954 211.077 114.054 211.077 120.64V135.487C211.077 135.872 210.74 136.132 210.24 136.132H202.178C201.677 136.132 201.341 135.872 201.341 135.487V124.771C201.341 122.19 200.84 121.073 199.176 121.073C197.512 121.073 197.011 122.19 197.011 124.771V135.487C197.011 135.872 196.675 136.132 196.174 136.132H188.064C187.564 136.132 187.227 135.872 187.227 135.487V135.497Z" fill="#72AA16"/>
<path d="M214.242 131.54V116.519C214.242 116.134 213.905 115.874 213.405 115.874H211.904C211.404 115.874 211.067 115.614 211.067 115.229V111.657C211.067 111.271 211.404 111.011 211.904 111.011H213.405C213.905 111.011 214.242 110.751 214.242 110.366V106.669C214.242 106.284 214.578 106.024 215.079 106.024H222.919C223.42 106.024 223.756 106.284 223.756 106.669V110.366C223.756 110.751 224.093 111.011 224.593 111.011H229.096C229.596 111.011 229.933 111.271 229.933 111.657V115.229C229.933 115.614 229.596 115.874 229.096 115.874H224.593C224.093 115.874 223.756 116.134 223.756 116.519V120.784C223.756 122.161 225.199 122.72 229.096 122.72C229.596 122.72 229.933 122.98 229.933 123.365V131.8C229.933 134.987 226.873 136.315 221.928 136.315C216.984 136.315 214.261 134.64 214.261 131.54H214.242Z" fill="#72AA16"/>
<path d="M242.035 110.915C244.652 110.915 245.316 111.772 245.316 112.292C245.316 111.772 245.537 111.002 246.48 111.002H254.321C255.042 111.002 255.542 111.262 255.542 111.647V135.497C255.542 135.882 255.042 136.142 254.321 136.142H247.654C246.874 136.142 246.374 135.882 246.374 135.497V134.717C245.816 135.41 244.537 136.142 242.372 136.142C237.533 136.142 232.145 133.773 232.145 123.914C232.145 118.358 235.032 110.915 242.035 110.915ZM245.306 122.027V115.181C245.306 114.882 245.027 114.709 244.527 114.709C243.305 114.709 240.688 116.557 240.688 118.839C240.688 121.853 242.353 122.797 244.19 122.797C244.969 122.797 245.306 122.537 245.306 122.017V122.027Z" fill="#72AA16"/>
<path d="M257.765 123.837C257.765 116.259 262.209 111.695 270.156 111.098C270.656 111.06 270.935 110.838 270.935 110.453V106.669C270.935 106.284 271.272 106.024 271.772 106.024H280.382C280.883 106.024 281.219 106.284 281.219 106.669V135.507C281.219 135.892 280.883 136.152 280.382 136.152H272.215C262.209 136.152 257.765 132.368 257.765 123.837ZM270.935 121.94V115.181C270.935 114.882 270.656 114.709 270.214 114.709C268.934 114.709 266.375 116.047 266.375 118.329C266.375 120.611 267.712 122.72 269.877 122.72C270.598 122.72 270.935 122.46 270.935 121.94Z" fill="#72AA16"/>
<path d="M283.442 126.802C283.442 121.718 286.722 110.828 296.785 110.828C304.232 110.828 305.896 113.881 305.896 118.791C305.896 119.225 305.559 119.436 305.059 119.436H294.496C293.995 119.436 293.611 119.61 293.611 119.995C293.611 122.017 296.449 122.797 305.174 122.797C305.732 122.797 306.059 123.057 306.059 123.442V135.497C306.059 135.882 305.723 136.142 305.222 136.142H298.44C289.772 136.142 283.432 133.86 283.432 126.802H283.442ZM298.555 115.614C298.276 115.055 297.776 114.67 296.939 114.67C295.939 114.67 295.275 115.017 294.775 115.575C294.659 115.701 294.611 115.835 294.611 115.922C294.611 116.182 294.89 116.355 295.333 116.355H297.892C298.45 116.355 298.777 116.057 298.555 115.624V115.614Z" fill="#72AA16"/>
<path d="M319.951 123.837C319.951 116.259 324.396 111.695 332.343 111.098C332.843 111.06 333.122 110.838 333.122 110.453V106.669C333.122 106.284 333.459 106.024 333.959 106.024H342.569C343.069 106.024 343.406 106.284 343.406 106.669V135.507C343.406 135.892 343.069 136.152 342.569 136.152H334.401C324.396 136.152 319.951 132.368 319.951 123.837ZM333.122 121.94V115.181C333.122 114.882 332.843 114.709 332.4 114.709C331.121 114.709 328.562 116.047 328.562 118.329C328.562 120.611 329.899 122.72 332.064 122.72C332.785 122.72 333.122 122.46 333.122 121.94Z" fill="#72AA16"/>
<path d="M345.628 126.802C345.628 121.718 348.909 110.828 358.972 110.828C366.418 110.828 368.083 113.881 368.083 118.791C368.083 119.225 367.746 119.436 367.246 119.436H356.682C356.182 119.436 355.797 119.61 355.797 119.995C355.797 122.017 358.635 122.797 367.361 122.797C367.919 122.797 368.246 123.057 368.246 123.442V135.497C368.246 135.882 367.909 136.142 367.409 136.142H360.627C351.959 136.142 345.619 133.86 345.619 126.802H345.628ZM360.742 115.614C360.463 115.055 359.963 114.67 359.126 114.67C358.125 114.67 357.462 115.017 356.961 115.575C356.846 115.701 356.798 115.835 356.798 115.922C356.798 116.182 357.077 116.355 357.519 116.355H360.078C360.636 116.355 360.963 116.057 360.742 115.624V115.614Z" fill="#72AA16"/>
<path d="M1.04248 178.46C1.04248 169.12 6.54539 162.573 14.3861 162.573C19.9948 162.573 23.4966 165.625 23.4966 170.449C23.4966 170.882 23.1599 171.094 22.6596 171.094H17.2722C16.7142 171.094 16.493 170.834 16.493 170.401C16.493 167.435 16.0504 166.308 14.5496 166.308C12.5485 166.308 11.1632 168.292 11.1632 170.998C11.1632 173.703 13.0488 174.445 22.7751 174.445C23.3331 174.445 23.6602 174.705 23.6602 175.09V187.145C23.6602 187.53 23.3234 187.79 22.8232 187.79H16.0408C6.03547 187.79 1.03285 185.469 1.03285 178.45L1.04248 178.46Z" fill="#72AA16"/>
<path d="M25.7767 179.837C25.7767 173.164 27.999 162.659 38.062 162.659C48.125 162.659 50.2319 173.164 50.2319 179.837C50.2319 183.621 48.3463 188.146 38.062 188.146C27.7777 188.146 25.7767 183.63 25.7767 179.837ZM41.0059 171.96C41.0059 169.332 39.6686 166.405 38.1678 166.405C36.2245 166.405 35.0604 169.033 35.0604 171.96C35.0604 173.424 36.2822 174.368 38.1678 174.368C39.8322 174.368 41.0059 173.376 41.0059 171.96Z" fill="#72AA16"/>
<path d="M52.2907 187.154V163.304C52.2907 162.919 52.5697 162.659 53.0699 162.659H57.1298C57.5723 162.659 57.9091 162.919 57.9091 163.304V165.625C57.9091 165.625 59.6888 162.486 64.6338 162.486C67.1351 162.486 69.6364 163.092 71.3007 164.296C72.5225 163.179 74.4177 162.486 77.4097 162.486C83.6919 162.486 87.415 165.625 87.415 172.297V187.145C87.415 187.53 87.136 187.79 86.6358 187.79H79.026C78.5257 187.79 78.2467 187.53 78.2467 187.145V176.428C78.2467 173.848 77.7465 172.731 76.188 172.731C74.6294 172.731 74.1292 173.848 74.1292 176.428V187.145C74.1292 187.53 73.8502 187.79 73.3499 187.79H66.2885C65.8459 187.79 65.5092 187.53 65.5092 187.145V176.428C65.5092 173.848 65.0667 172.731 63.5082 172.731C61.9497 172.731 61.4494 173.848 61.4494 176.428V187.145C61.4494 187.53 61.1127 187.79 60.6701 187.79H53.0603C52.56 187.79 52.2811 187.53 52.2811 187.145L52.2907 187.154Z" fill="#72AA16"/>
<path d="M89.5796 178.46C89.5796 173.376 92.8602 162.486 102.923 162.486C110.369 162.486 112.034 165.538 112.034 170.449C112.034 170.882 111.697 171.094 111.197 171.094H100.634C100.133 171.094 99.7485 171.267 99.7485 171.652C99.7485 173.674 102.587 174.454 111.312 174.454C111.87 174.454 112.197 174.714 112.197 175.099V187.154C112.197 187.539 111.861 187.799 111.36 187.799H104.578C95.9099 187.799 89.57 185.517 89.57 178.46H89.5796ZM104.693 167.271C104.414 166.713 103.914 166.328 103.087 166.328C102.086 166.328 101.422 166.674 100.922 167.233C100.807 167.358 100.759 167.493 100.759 167.579C100.759 167.839 101.038 168.013 101.48 168.013H104.039C104.597 168.013 104.924 167.714 104.703 167.281L104.693 167.271Z" fill="#72AA16"/>
<path d="M114.872 187.154V163.304C114.872 162.919 115.209 162.659 115.709 162.659H120.432C120.933 162.659 121.269 162.919 121.269 163.304V165.5C121.269 164.075 124.55 162.659 129.716 162.659C130.274 162.659 130.601 162.871 130.601 163.304V167.223C130.601 167.608 130.38 167.916 129.88 167.916C126.262 167.916 124.819 169.467 124.819 172.432V187.154C124.819 187.539 124.483 187.799 123.982 187.799H115.699C115.199 187.799 114.862 187.539 114.862 187.154H114.872Z" fill="#72AA16"/>
<path d="M144.715 163.314C144.715 162.929 144.994 162.669 145.494 162.669H153.104C153.546 162.669 153.883 162.929 153.883 163.314V171.537C153.883 173.434 153.883 174.425 155.884 174.425C157.885 174.425 157.943 173.434 157.943 171.537V163.314C157.943 162.929 158.279 162.669 158.722 162.669H166.341C166.784 162.669 167.121 162.929 167.121 163.314V187.164C167.121 187.549 166.784 187.809 166.341 187.809H163.84C163.34 187.809 163.061 187.549 163.061 187.164V186.779C161.396 187.511 159.116 187.982 155.999 187.982C146.273 187.982 144.715 183.553 144.715 179.721V163.314Z" fill="#72AA16"/>
<path d="M169.728 187.154V163.304C169.728 162.919 170.007 162.659 170.507 162.659H174.567C175.009 162.659 175.346 162.919 175.346 163.304V165.625C175.346 165.625 177.126 162.486 182.071 162.486C184.572 162.486 187.073 163.092 188.738 164.296C189.96 163.179 191.855 162.486 194.847 162.486C201.129 162.486 204.852 165.625 204.852 172.297V187.145C204.852 187.53 204.573 187.79 204.073 187.79H196.463C195.963 187.79 195.684 187.53 195.684 187.145V176.428C195.684 173.848 195.184 172.731 193.625 172.731C192.067 172.731 191.566 173.848 191.566 176.428V187.145C191.566 187.53 191.287 187.79 190.787 187.79H183.726C183.283 187.79 182.946 187.53 182.946 187.145V176.428C182.946 173.848 182.504 172.731 180.945 172.731C179.387 172.731 178.886 173.848 178.886 176.428V187.145C178.886 187.53 178.55 187.79 178.107 187.79H170.497C169.997 187.79 169.718 187.53 169.718 187.145L169.728 187.154Z" fill="#72AA16"/>
<path d="M218.744 178.46C218.744 169.12 224.247 162.573 232.078 162.573C237.687 162.573 241.189 165.625 241.189 170.449C241.189 170.882 240.852 171.094 240.352 171.094H234.964C234.406 171.094 234.185 170.834 234.185 170.401C234.185 167.435 233.742 166.308 232.242 166.308C230.24 166.308 228.855 168.292 228.855 170.998C228.855 173.703 230.741 174.445 240.467 174.445C241.025 174.445 241.352 174.705 241.352 175.09V187.145C241.352 187.53 241.015 187.79 240.515 187.79H233.733C223.727 187.79 218.725 185.469 218.725 178.45L218.744 178.46Z" fill="#72AA16"/>
<path d="M243.478 179.837C243.478 173.164 245.701 162.659 255.764 162.659C265.827 162.659 267.934 173.164 267.934 179.837C267.934 183.621 266.048 188.146 255.764 188.146C245.479 188.146 243.478 183.63 243.478 179.837ZM258.707 171.96C258.707 169.332 257.37 166.405 255.869 166.405C253.926 166.405 252.752 169.033 252.752 171.96C252.752 173.424 253.974 174.368 255.869 174.368C257.534 174.368 258.707 173.376 258.707 171.96Z" fill="#72AA16"/>
<path d="M269.819 179.49V175.619C269.819 175.321 269.935 175.061 270.262 174.801L278.766 168.34C278.882 168.253 278.93 168.167 278.93 168.08C278.93 167.868 278.487 167.733 277.814 167.733H270.752C270.252 167.733 269.915 167.473 269.915 167.088V163.304C269.915 162.919 270.252 162.659 270.752 162.659H290.426C290.926 162.659 291.263 162.919 291.263 163.304V165.028C291.263 165.326 291.148 165.634 290.878 165.846L282.095 173.722C281.979 173.809 281.931 173.934 281.931 174.021C281.931 174.233 282.316 174.368 282.99 174.368H290.33C290.83 174.368 291.167 174.628 291.167 175.013V187.154C291.167 187.539 290.83 187.799 290.33 187.799H282.662C271.493 187.799 269.829 183.37 269.829 179.49H269.819Z" fill="#72AA16"/>
<path d="M293.716 160.637V158.317C293.716 157.932 294.053 157.672 294.553 157.672H302.615C303.116 157.672 303.452 157.932 303.452 158.317V160.637C303.452 161.022 303.116 161.282 302.615 161.282H294.553C294.053 161.282 293.716 161.022 293.716 160.637ZM293.716 187.154V163.304C293.716 162.919 294.053 162.659 294.553 162.659H302.615C303.116 162.659 303.452 162.919 303.452 163.304V187.154C303.452 187.539 303.116 187.799 302.615 187.799H294.553C294.053 187.799 293.716 187.539 293.716 187.154Z" fill="#72AA16"/>
<path d="M305.665 175.494C305.665 167.916 310.11 163.352 318.056 162.755C318.556 162.717 318.835 162.495 318.835 162.11V158.326C318.835 157.941 319.172 157.681 319.672 157.681H328.283C328.783 157.681 329.12 157.941 329.12 158.326V187.164C329.12 187.549 328.783 187.809 328.283 187.809H320.115C310.11 187.809 305.665 184.025 305.665 175.494ZM318.845 173.597V166.838C318.845 166.54 318.566 166.366 318.123 166.366C316.844 166.366 314.285 167.705 314.285 169.987C314.285 172.269 315.622 174.377 317.787 174.377C318.508 174.377 318.845 174.117 318.845 173.597Z" fill="#72AA16"/>
<path d="M331.236 179.837C331.236 173.164 333.459 162.659 343.522 162.659C353.585 162.659 355.691 173.164 355.691 179.837C355.691 183.621 353.806 188.146 343.522 188.146C333.237 188.146 331.236 183.63 331.236 179.837ZM346.465 171.96C346.465 169.332 345.128 166.405 343.627 166.405C341.684 166.405 340.51 169.033 340.51 171.96C340.51 173.424 341.732 174.368 343.627 174.368C345.292 174.368 346.465 173.376 346.465 171.96Z" fill="#72AA16"/>
<path d="M0.984703 230.117C0.984703 225.033 4.26533 214.143 14.3187 214.143C21.765 214.143 23.4293 217.196 23.4293 222.106C23.4293 222.539 23.0926 222.751 22.5923 222.751H12.029C11.5288 222.751 11.144 222.925 11.144 223.31C11.144 225.332 13.982 226.112 22.7077 226.112C23.2657 226.112 23.5928 226.372 23.5928 226.757V238.812C23.5928 239.197 23.2561 239.457 22.7558 239.457H15.9734C7.30537 239.457 0.965502 237.175 0.965502 230.117H0.984703ZM16.1081 218.929C15.8291 218.37 15.3289 217.985 14.4919 217.985C13.4913 217.985 12.8275 218.332 12.3273 218.89C12.2118 219.015 12.1637 219.15 12.1637 219.237C12.1637 219.497 12.4427 219.67 12.8853 219.67H15.4443C16.0023 219.67 16.3294 219.372 16.1081 218.938V218.929Z" fill="#72AA16"/>
<path d="M47.4516 214.24C50.0684 214.24 50.7322 215.097 50.7322 215.616C50.7322 215.097 50.9535 214.326 51.8963 214.326H59.7369C60.4584 214.326 60.9587 214.586 60.9587 214.971V238.821C60.9587 239.207 60.4584 239.467 59.7369 239.467H53.0699C52.2907 239.467 51.7905 239.207 51.7905 238.821V238.041C51.2325 238.735 49.9529 239.467 47.7883 239.467C42.9492 239.467 37.5617 237.098 37.5617 227.238C37.5617 221.682 40.4479 214.24 47.4516 214.24ZM50.7322 225.341V218.495C50.7322 218.197 50.4532 218.024 49.9529 218.024C48.7311 218.024 46.1144 219.872 46.1144 222.154C46.1144 225.168 47.7787 226.112 49.6162 226.112C50.3955 226.112 50.7225 225.852 50.7225 225.341H50.7322Z" fill="#72AA16"/>
<path d="M74.8507 227.152C74.8507 219.574 79.2954 215.01 87.2419 214.413C87.7421 214.374 88.0211 214.153 88.0211 213.768V209.984C88.0211 209.599 88.3578 209.339 88.8581 209.339H97.4781C97.9783 209.339 98.315 209.599 98.315 209.984V238.821C98.315 239.207 97.9783 239.467 97.4781 239.467H89.3103C79.305 239.467 74.8603 235.682 74.8603 227.152H74.8507ZM88.0211 218.495C88.0211 218.197 87.7421 218.024 87.2996 218.024C86.0201 218.024 83.461 219.362 83.461 221.644C83.461 223.926 84.7983 226.035 86.9629 226.035C87.6844 226.035 88.0211 225.775 88.0211 225.264V218.495Z" fill="#72AA16"/>
<path d="M100.97 212.295V209.974C100.97 209.589 101.307 209.329 101.807 209.329H109.869C110.369 209.329 110.706 209.589 110.706 209.974V212.295C110.706 212.68 110.369 212.94 109.869 212.94H101.807C101.307 212.94 100.97 212.68 100.97 212.295ZM100.97 238.812V214.962C100.97 214.577 101.307 214.317 101.807 214.317H109.869C110.369 214.317 110.706 214.577 110.706 214.962V238.812C110.706 239.197 110.369 239.457 109.869 239.457H101.807C101.307 239.457 100.97 239.197 100.97 238.812Z" fill="#72AA16"/>
<path d="M113.756 238.812V226.67C113.756 226.285 114.093 226.025 114.593 226.025C118.431 226.025 120.259 225.813 120.259 225.255C120.259 224.87 119.316 224.311 117.537 223.531C114.535 222.241 113.256 221.037 113.256 219.141C113.256 216.984 115.536 214.105 123.877 214.105C131.708 214.105 134.709 216.56 134.988 221.249C134.988 221.596 134.652 221.808 134.151 221.808H128.485C127.985 221.808 127.648 221.596 127.648 221.249C127.648 219.66 127.311 217.764 124.483 217.764C122.039 217.764 121.645 219.189 121.645 219.872C121.645 223.791 136.479 222.539 136.479 232.139C136.479 235.846 133.536 239.457 122.366 239.457H114.583C114.083 239.457 113.746 239.197 113.746 238.812H113.756Z" fill="#72AA16"/>
<path d="M138.654 247.429V214.971C138.654 214.586 138.99 214.326 139.491 214.326H148.053C159.28 214.326 162.387 220.874 162.387 227.152C162.387 232.486 161.387 238.687 150.102 239.38C149.544 239.418 149.265 239.678 149.265 240.073V247.439C149.265 247.824 148.928 248.084 148.428 248.084H139.481C138.981 248.084 138.644 247.824 138.644 247.439L138.654 247.429ZM153.767 221.644C153.767 219.41 151.208 218.072 149.929 218.072C149.323 218.072 149.265 218.37 149.265 218.717V225.178C149.265 225.438 149.265 225.698 149.486 225.871C149.708 225.996 149.929 226.044 150.266 226.044C152.93 226.044 153.767 224.061 153.767 221.654V221.644Z" fill="#72AA16"/>
<path d="M164.052 231.494C164.052 224.821 166.274 214.317 176.337 214.317C186.4 214.317 188.507 224.821 188.507 231.494C188.507 235.278 186.621 239.803 176.337 239.803C166.053 239.803 164.052 235.288 164.052 231.494ZM179.281 223.618C179.281 220.989 177.944 218.062 176.443 218.062C174.499 218.062 173.326 220.691 173.326 223.618C173.326 225.081 174.548 226.025 176.443 226.025C178.107 226.025 179.281 225.033 179.281 223.618Z" fill="#72AA16"/>
<path d="M191.008 238.812V226.67C191.008 226.285 191.345 226.025 191.845 226.025C195.684 226.025 197.512 225.813 197.512 225.255C197.512 224.87 196.569 224.311 194.789 223.531C191.787 222.241 190.508 221.037 190.508 219.141C190.508 216.984 192.788 214.105 201.119 214.105C208.96 214.105 211.962 216.56 212.231 221.249C212.231 221.596 211.894 221.808 211.394 221.808H205.728C205.227 221.808 204.891 221.596 204.891 221.249C204.891 219.66 204.554 217.764 201.725 217.764C199.282 217.764 198.887 219.189 198.887 219.872C198.887 223.791 213.722 222.539 213.722 232.139C213.722 235.846 210.778 239.457 199.609 239.457H191.826C191.326 239.457 190.989 239.197 190.989 238.812H191.008Z" fill="#72AA16"/>
<path d="M215.906 212.295V209.974C215.906 209.589 216.243 209.329 216.743 209.329H224.805C225.305 209.329 225.642 209.589 225.642 209.974V212.295C225.642 212.68 225.305 212.94 224.805 212.94H216.743C216.243 212.94 215.906 212.68 215.906 212.295ZM215.906 238.812V214.962C215.906 214.577 216.243 214.317 216.743 214.317H224.805C225.305 214.317 225.642 214.577 225.642 214.962V238.812C225.642 239.197 225.305 239.457 224.805 239.457H216.743C216.243 239.457 215.906 239.197 215.906 238.812Z" fill="#72AA16"/>
<path d="M250.53 226.766V238.821C250.53 239.207 250.193 239.467 249.693 239.467H243.853C244.575 239.938 244.854 240.718 244.854 241.537C244.854 242.182 244.69 242.827 244.469 243.434C244.027 244.512 242.026 246.101 238.36 246.101H236.196C235.974 246.101 235.859 246.014 235.859 245.889C236.475 244.252 237.138 242.875 237.302 242.442C237.302 242.355 237.465 242.317 237.687 242.317C240.852 242.317 241.631 242.018 241.852 241.325C241.968 241.152 242.016 240.94 242.016 240.718C242.016 240.372 241.795 240.025 241.179 240.025C240.515 240.025 240.294 240.718 240.178 241.19C240.121 241.277 239.957 241.363 239.678 241.363H238.177C237.956 241.363 237.783 241.277 237.841 241.19C238.177 240.372 238.62 239.726 239.447 239.341C231.722 238.821 227.883 236.289 227.883 230.127C227.883 220.787 233.386 214.24 241.217 214.24C246.826 214.24 250.328 217.292 250.328 222.116C250.328 222.549 249.991 222.761 249.491 222.761H244.104C243.546 222.761 243.324 222.501 243.324 222.068C243.324 219.102 242.882 217.975 241.381 217.975C239.38 217.975 237.995 219.959 237.995 222.665C237.995 225.37 239.88 226.112 249.607 226.112C250.165 226.112 250.492 226.372 250.492 226.757L250.53 226.766Z" fill="#72AA16"/>
<path d="M262.7 214.24C265.317 214.24 265.98 215.097 265.98 215.616C265.98 215.097 266.202 214.326 267.145 214.326H274.985C275.707 214.326 276.207 214.586 276.207 214.971V238.821C276.207 239.207 275.707 239.467 274.985 239.467H268.318C267.539 239.467 267.039 239.207 267.039 238.821V238.041C266.481 238.735 265.201 239.467 263.037 239.467C258.198 239.467 252.81 237.098 252.81 227.238C252.81 221.682 255.696 214.24 262.7 214.24ZM258.756 212.728C258.698 212.468 258.698 212.256 258.698 212.035C258.698 210.013 260.814 208.376 263.537 208.376C266.423 208.376 269.261 210.311 270.646 210.311C271.204 210.311 271.532 210.013 271.532 209.146V209.021C271.532 208.636 271.974 208.376 272.647 208.376H273.148C273.812 208.376 274.206 208.549 274.37 208.934C274.427 209.319 274.533 209.666 274.533 210.013C274.533 211.823 273.148 213.2 270.252 213.2C267.193 213.2 266.192 211.303 264.307 211.303C263.085 211.303 262.363 212.121 262.027 212.728C261.805 213.113 261.526 213.286 260.862 213.286H259.92C259.256 213.286 258.804 213.113 258.756 212.728ZM265.98 225.341V218.495C265.98 218.197 265.702 218.024 265.201 218.024C263.979 218.024 261.363 219.872 261.363 222.154C261.363 225.168 263.027 226.112 264.865 226.112C265.644 226.112 265.98 225.852 265.98 225.341Z" fill="#72AA16"/>
<path d="M278.324 231.494C278.324 224.821 280.546 214.317 290.609 214.317C300.672 214.317 302.779 224.821 302.779 231.494C302.779 235.278 300.893 239.803 290.609 239.803C280.325 239.803 278.324 235.288 278.324 231.494ZM293.553 223.618C293.553 220.989 292.216 218.062 290.715 218.062C288.771 218.062 287.598 220.691 287.598 223.618C287.598 225.081 288.82 226.025 290.715 226.025C292.379 226.025 293.553 225.033 293.553 223.618Z" fill="#72AA16"/>
<path d="M0.984703 278.809C0.984703 271.231 5.42936 266.667 13.3759 266.07C13.8761 266.032 14.1551 265.81 14.1551 265.425V261.641C14.1551 261.256 14.4919 260.996 14.9922 260.996H23.6024C24.1027 260.996 24.4394 261.256 24.4394 261.641V290.479C24.4394 290.864 24.1027 291.124 23.6024 291.124H15.4347C5.42938 291.124 0.984703 287.34 0.984703 278.809ZM14.1648 270.153C14.1648 269.854 13.8858 269.681 13.4432 269.681C12.1637 269.681 9.60466 271.019 9.60466 273.301C9.60466 275.583 10.9419 277.692 13.1065 277.692C13.8281 277.692 14.1648 277.432 14.1648 276.922V270.153Z" fill="#72AA16"/>
<path d="M26.6617 281.775C26.6617 276.691 29.9424 265.801 40.0054 265.801C47.4516 265.801 49.1159 268.853 49.1159 273.764C49.1159 274.197 48.7792 274.409 48.279 274.409H37.7157C37.2154 274.409 36.8306 274.582 36.8306 274.967C36.8306 276.989 39.6686 277.769 48.3944 277.769C48.9524 277.769 49.2795 278.029 49.2795 278.414V290.469C49.2795 290.854 48.9428 291.114 48.4425 291.114H41.6601C32.992 291.114 26.6522 288.832 26.6522 281.775H26.6617ZM41.7851 270.586C41.5061 270.028 41.0059 269.643 40.1785 269.643C39.178 269.643 38.5142 269.989 38.0139 270.548C37.8985 270.673 37.8503 270.808 37.8503 270.894C37.8503 271.154 38.1293 271.328 38.5719 271.328H41.131C41.6889 271.328 42.016 271.029 41.7948 270.596L41.7851 270.586Z" fill="#72AA16"/>
<path d="M63.6236 266.629C63.6236 266.244 63.9603 265.984 64.4606 265.984H73.0228C84.2499 265.984 87.3669 272.531 87.3669 278.809C87.3669 284.143 86.3664 290.344 75.0816 291.037C74.5236 291.076 74.2446 291.336 74.2446 291.731V299.096C74.2446 299.482 73.9079 299.742 73.4076 299.742H64.4606C63.9603 299.742 63.6236 299.482 63.6236 299.096V266.629ZM78.7373 273.301C78.7373 271.068 76.1783 269.729 74.8988 269.729C74.2831 269.729 74.235 270.028 74.235 270.374V276.835C74.235 277.095 74.235 277.355 74.4563 277.528C74.6775 277.654 74.8988 277.702 75.2355 277.702C77.9004 277.702 78.7373 275.718 78.7373 273.311V273.301Z" fill="#72AA16"/>
<path d="M89.5796 290.469V266.619C89.5796 266.234 89.9163 265.974 90.4166 265.974H95.1403C95.6406 265.974 95.9773 266.234 95.9773 266.619V268.814C95.9773 267.389 99.2578 265.974 104.424 265.974C104.982 265.974 105.309 266.186 105.309 266.619V270.538C105.309 270.923 105.088 271.231 104.588 271.231C100.98 271.231 99.5272 272.781 99.5272 275.747V290.469C99.5272 290.854 99.1905 291.114 98.6902 291.114H90.407C89.9067 291.114 89.57 290.854 89.57 290.469H89.5796Z" fill="#72AA16"/>
<path d="M103.972 281.775C103.972 276.691 107.252 265.801 117.315 265.801C124.762 265.801 126.426 268.853 126.426 273.764C126.426 274.197 126.089 274.409 125.589 274.409H115.026C114.526 274.409 114.141 274.582 114.141 274.967C114.141 276.989 116.979 277.769 125.704 277.769C126.262 277.769 126.59 278.029 126.59 278.414V290.469C126.59 290.854 126.253 291.114 125.753 291.114H118.97C110.302 291.114 103.962 288.832 103.962 281.775H103.972ZM119.095 270.586C118.816 270.028 118.316 269.643 117.489 269.643C116.488 269.643 115.824 269.989 115.324 270.548C115.209 270.673 115.16 270.808 115.16 270.894C115.16 271.154 115.439 271.328 115.882 271.328H118.441C118.999 271.328 119.326 271.029 119.105 270.596L119.095 270.586Z" fill="#72AA16"/>
<path d="M129.264 299.087V266.629C129.264 266.244 129.601 265.984 130.101 265.984H138.663C149.89 265.984 152.998 272.531 152.998 278.809C152.998 284.143 151.997 290.344 140.712 291.037C140.154 291.076 139.875 291.336 139.875 291.731V299.096C139.875 299.482 139.539 299.742 139.038 299.742H130.091C129.591 299.742 129.254 299.482 129.254 299.096L129.264 299.087ZM144.378 273.301C144.378 271.068 141.819 269.729 140.539 269.729C139.924 269.729 139.875 270.028 139.875 270.374V276.835C139.875 277.095 139.875 277.355 140.097 277.528C140.318 277.654 140.539 277.702 140.876 277.702C143.541 277.702 144.378 275.718 144.378 273.311V273.301Z" fill="#72AA16"/>
<path d="M164.725 265.897C167.342 265.897 168.006 266.754 168.006 267.274C168.006 266.754 168.227 265.984 169.17 265.984H177.01C177.732 265.984 178.232 266.244 178.232 266.629V290.479C178.232 290.864 177.732 291.124 177.01 291.124H170.343C169.564 291.124 169.064 290.864 169.064 290.479V289.699C168.506 290.392 167.226 291.124 165.062 291.124C160.223 291.124 154.835 288.755 154.835 278.896C154.835 273.34 157.721 265.897 164.725 265.897ZM168.006 276.999V270.153C168.006 269.854 167.727 269.681 167.226 269.681C166.005 269.681 163.388 271.53 163.388 273.812C163.388 276.825 165.052 277.769 166.89 277.769C167.669 277.769 168.006 277.509 168.006 276.999Z" fill="#72AA16"/>
<path d="M180.897 290.469V266.619C180.897 266.234 181.234 265.974 181.734 265.974H186.458C186.958 265.974 187.295 266.234 187.295 266.619V268.814C187.295 267.389 190.575 265.974 195.741 265.974C196.299 265.974 196.627 266.186 196.627 266.619V270.538C196.627 270.923 196.405 271.231 195.905 271.231C192.297 271.231 190.845 272.781 190.845 275.747V290.469C190.845 290.854 190.508 291.114 190.008 291.114H181.725C181.224 291.114 180.887 290.854 180.887 290.469H180.897Z" fill="#72AA16"/>
<path d="M206.853 265.897C209.47 265.897 210.134 266.754 210.134 267.274C210.134 266.754 210.355 265.984 211.298 265.984H219.138C219.86 265.984 220.36 266.244 220.36 266.629V290.479C220.36 290.864 219.86 291.124 219.138 291.124H212.471C211.692 291.124 211.192 290.864 211.192 290.479V289.699C210.634 290.392 209.354 291.124 207.19 291.124C202.351 291.124 196.963 288.755 196.963 278.896C196.963 273.34 199.849 265.897 206.853 265.897ZM210.134 276.999V270.153C210.134 269.854 209.855 269.681 209.354 269.681C208.133 269.681 205.516 271.53 205.516 273.812C205.516 276.825 207.18 277.769 209.018 277.769C209.797 277.769 210.134 277.509 210.134 276.999Z" fill="#72AA16"/>
<path d="M223.025 290.469V266.619C223.025 266.234 223.362 265.974 223.862 265.974H228.586C229.086 265.974 229.423 266.234 229.423 266.619V268.814C229.423 267.389 232.703 265.974 237.87 265.974C238.428 265.974 238.755 266.186 238.755 266.619V270.538C238.755 270.923 238.533 271.231 238.033 271.231C234.425 271.231 232.973 272.781 232.973 275.747V290.469C232.973 290.854 232.636 291.114 232.136 291.114H223.853C223.352 291.114 223.016 290.854 223.016 290.469H223.025Z" fill="#72AA16"/>
<path d="M252.868 266.629C252.868 266.244 253.147 265.984 253.647 265.984H261.257C261.699 265.984 262.036 266.244 262.036 266.629V274.852C262.036 276.748 262.036 277.74 264.037 277.74C266.038 277.74 266.096 276.748 266.096 274.852V266.629C266.096 266.244 266.433 265.984 266.875 265.984H274.495C274.937 265.984 275.274 266.244 275.274 266.629V290.479C275.274 290.864 274.937 291.124 274.495 291.124H271.993C271.493 291.124 271.214 290.864 271.214 290.479V290.094C269.55 290.825 267.27 291.297 264.153 291.297C254.426 291.297 252.868 286.868 252.868 283.036V266.629Z" fill="#72AA16"/>
<path d="M277.881 290.469V266.619C277.881 266.234 278.16 265.974 278.66 265.974H282.72C283.163 265.974 283.499 266.234 283.499 266.619V268.94C283.499 268.94 285.279 265.801 290.224 265.801C292.725 265.801 295.227 266.407 296.891 267.611C298.113 266.494 300.008 265.801 303 265.801C309.282 265.801 313.005 268.94 313.005 275.612V290.46C313.005 290.845 312.726 291.105 312.226 291.105H304.616C304.116 291.105 303.837 290.845 303.837 290.46V279.743C303.837 277.162 303.337 276.036 301.778 276.036C300.22 276.036 299.72 277.153 299.72 279.743V290.46C299.72 290.845 299.441 291.105 298.94 291.105H291.879C291.436 291.105 291.1 290.845 291.1 290.46V279.743C291.1 277.162 290.657 276.036 289.099 276.036C287.54 276.036 287.04 277.153 287.04 279.743V290.46C287.04 290.845 286.703 291.105 286.26 291.105H278.651C278.15 291.105 277.871 290.845 277.871 290.46L277.881 290.469Z" fill="#72AA16"/>
<path d="M325.118 265.897C327.734 265.897 328.398 266.754 328.398 267.274C328.398 266.754 328.619 265.984 329.562 265.984H337.403C338.124 265.984 338.625 266.244 338.625 266.629V290.479C338.625 290.864 338.124 291.124 337.403 291.124H330.736C329.957 291.124 329.456 290.864 329.456 290.479V289.699C328.898 290.392 327.619 291.124 325.454 291.124C320.615 291.124 315.228 288.755 315.228 278.896C315.228 273.34 318.114 265.897 325.118 265.897ZM328.398 276.999V270.153C328.398 269.854 328.119 269.681 327.619 269.681C326.397 269.681 323.78 271.53 323.78 273.812C323.78 276.825 325.445 277.769 327.282 277.769C328.061 277.769 328.398 277.509 328.398 276.999Z" fill="#72AA16"/>
<path d="M3.6015 338.169V323.149C3.6015 322.763 3.26479 322.504 2.76452 322.504H1.26373C0.76347 322.504 0.426758 322.244 0.426758 321.858V318.286C0.426758 317.901 0.76347 317.641 1.26373 317.641H2.76452C3.26479 317.641 3.6015 317.381 3.6015 316.996V313.299C3.6015 312.913 3.93821 312.654 4.43848 312.654H12.2792C12.7794 312.654 13.1162 312.913 13.1162 313.299V316.996C13.1162 317.381 13.4529 317.641 13.9531 317.641H18.4555C18.9558 317.641 19.2925 317.901 19.2925 318.286V321.858C19.2925 322.244 18.9558 322.504 18.4555 322.504H13.9531C13.4529 322.504 13.1162 322.763 13.1162 323.149V327.414C13.1162 328.791 14.5592 329.349 18.4459 329.349C18.9461 329.349 19.2829 329.609 19.2829 329.995V338.429C19.2829 341.616 16.2235 342.945 11.2786 342.945C6.3337 342.945 3.61113 341.27 3.61113 338.169H3.6015Z" fill="#72AA16"/>
<path d="M21.332 334.809C21.332 328.136 23.5544 317.632 33.6174 317.632C43.6804 317.632 45.7872 328.136 45.7872 334.809C45.7872 338.593 43.9017 343.118 33.6174 343.118C23.3331 343.118 21.332 338.603 21.332 334.809ZM36.5612 326.933C36.5612 324.304 35.224 321.377 33.7232 321.377C31.7799 321.377 30.6062 324.006 30.6062 326.933C30.6062 328.396 31.828 329.34 33.7232 329.34C35.3875 329.34 36.5612 328.348 36.5612 326.933Z" fill="#72AA16"/>
<path d="M47.8941 342.127V318.277C47.8941 317.891 48.2308 317.632 48.7311 317.632H53.4548C53.955 317.632 54.2918 317.891 54.2918 318.277V320.472C54.2918 319.057 57.5723 317.632 62.7385 317.632C63.2965 317.632 63.6236 317.843 63.6236 318.277V322.195C63.6236 322.581 63.4023 322.879 62.9021 322.879C59.2944 322.879 57.8417 324.429 57.8417 327.395V342.117C57.8417 342.502 57.505 342.762 57.0047 342.762H48.7215C48.2213 342.762 47.8845 342.502 47.8845 342.117L47.8941 342.127Z" fill="#72AA16"/>
<path d="M66.0672 342.127V318.277C66.0672 317.891 66.4039 317.632 66.9042 317.632H71.6279C72.1281 317.632 72.4648 317.891 72.4648 318.277V320.472C72.4648 319.057 75.7454 317.632 80.9116 317.632C81.4696 317.632 81.7966 317.843 81.7966 318.277V322.195C81.7966 322.581 81.5754 322.879 81.0751 322.879C77.4674 322.879 76.0148 324.429 76.0148 327.395V342.117C76.0148 342.502 75.6781 342.762 75.1778 342.762H66.8945C66.3943 342.762 66.0576 342.502 66.0576 342.117L66.0672 342.127Z" fill="#72AA16"/>
<path d="M92.0232 317.554C94.6303 317.554 95.3038 318.411 95.3038 318.931C95.3038 318.411 95.5251 317.641 96.4679 317.641H104.309C105.03 317.641 105.53 317.901 105.53 318.286V342.136C105.53 342.521 105.03 342.781 104.309 342.781H97.6416C96.8623 342.781 96.362 342.521 96.362 342.136V341.366C95.8041 342.059 94.5246 342.791 92.36 342.791C87.5209 342.791 82.1334 340.422 82.1334 330.563C82.1334 325.007 85.0195 317.564 92.0232 317.564V317.554ZM95.3038 328.656V321.81C95.3038 321.512 95.0248 321.338 94.5246 321.338C93.3028 321.338 90.686 323.187 90.686 325.469C90.686 328.483 92.3503 329.426 94.1878 329.426C94.9671 329.426 95.3038 329.167 95.3038 328.656Z" fill="#72AA16"/>
<path d="M107.753 330.466C107.753 322.889 112.197 318.325 120.144 317.728C120.644 317.689 120.923 317.468 120.923 317.083V313.299C120.923 312.913 121.26 312.654 121.76 312.654H130.37C130.871 312.654 131.207 312.913 131.207 313.299V342.136C131.207 342.521 130.871 342.781 130.37 342.781H122.203C112.197 342.781 107.753 338.997 107.753 330.466ZM120.923 321.81C120.923 321.512 120.644 321.338 120.202 321.338C118.922 321.338 116.363 322.677 116.363 324.959C116.363 327.241 117.7 329.349 119.865 329.349C120.586 329.349 120.923 329.089 120.923 328.579V321.81Z" fill="#72AA16"/>
<path d="M143.377 317.554C145.994 317.554 146.658 318.411 146.658 318.931C146.658 318.411 146.879 317.641 147.822 317.641H155.663C156.384 317.641 156.884 317.901 156.884 318.286V342.136C156.884 342.521 156.384 342.781 155.663 342.781H148.996C148.216 342.781 147.716 342.521 147.716 342.136V341.366C147.158 342.059 145.879 342.791 143.714 342.791C138.875 342.791 133.487 340.422 133.487 330.563C133.487 325.007 136.374 317.564 143.377 317.564V317.554ZM146.658 328.656V321.81C146.658 321.512 146.379 321.338 145.879 321.338C144.657 321.338 142.04 323.187 142.04 325.469C142.04 328.483 143.704 329.426 145.542 329.426C146.321 329.426 146.658 329.167 146.658 328.656Z" fill="#72AA16"/>
</svg>
