<svg width="559" height="127" viewBox="0 0 559 127" fill="none" xmlns="http://www.w3.org/2000/svg">
<path d="M6.23 29.03L0 2.87999V2.71999C0 2.44999 0.25 2.28999 0.7 2.28999H7.74C8.19 2.28999 8.49 2.48999 8.6 2.79999L11.57 15.56C11.62 15.83 11.82 15.99 12.02 15.99C12.17 15.99 12.37 15.83 12.42 15.56L15.29 2.79999C15.39 2.48999 15.69 2.28999 16.14 2.28999H23.18C23.68 2.28999 23.98 2.51999 23.88 2.86999L16.89 29.02C16.79 29.33 16.49 29.53 16.03 29.53H7.09C6.64 29.53 6.34 29.34 6.24 29.02L6.23 29.03Z" fill="#F057EA"/>
<path d="M22.32 22.33C22.32 16.3 24.33 6.79999 33.43 6.79999C42.53 6.79999 44.44 16.29 44.44 22.33C44.44 25.75 42.73 29.84 33.43 29.84C24.13 29.84 22.32 25.75 22.32 22.33ZM36.1 15.21C36.1 12.84 34.89 10.19 33.54 10.19C31.78 10.19 30.72 12.56 30.72 15.21C30.72 16.53 31.83 17.39 33.54 17.39C35.05 17.39 36.1 16.49 36.1 15.21Z" fill="#F057EA"/>
<path d="M46 21.09C46 12.65 50.98 6.72999 58.07 6.72999C63.15 6.72999 66.32 9.48999 66.32 13.85C66.32 14.24 66.02 14.43 65.57 14.43H60.69C60.19 14.43 59.99 14.2 59.99 13.81C59.99 11.13 59.59 10.11 58.23 10.11C56.42 10.11 55.16 11.9 55.16 14.35C55.16 16.8 56.87 17.46 65.67 17.46C66.17 17.46 66.47 17.69 66.47 18.04V28.93C66.47 29.28 66.17 29.51 65.72 29.51H59.59C50.54 29.51 46.01 27.41 46.01 21.07L46 21.09Z" fill="#F057EA"/>
<path d="M68.48 21.09C68.48 16.5 71.45 6.64999 80.55 6.64999C87.29 6.64999 88.8 9.40999 88.8 13.85C88.8 14.24 88.5 14.43 88.05 14.43H78.5C78.05 14.43 77.7 14.59 77.7 14.94C77.7 16.77 80.26 17.47 88.16 17.47C88.66 17.47 88.96 17.7 88.96 18.05V28.94C88.96 29.29 88.66 29.52 88.21 29.52H82.08C74.24 29.52 68.5 27.46 68.5 21.08L68.48 21.09ZM80.24 3.88999C80.04 3.88999 79.84 3.92999 79.59 4.00999L74.26 6.06999C74.11 6.10999 74.01 6.14999 73.91 6.14999C73.56 6.14999 73.36 5.95999 73.36 5.63999V3.14999C73.36 2.83999 73.56 2.60999 73.91 2.44999L79.49 0.14999C79.74 0.0299902 79.94 -0.0100098 80.19 -0.0100098C80.39 -0.0100098 80.64 0.0299902 80.84 0.14999L86.42 2.44999C86.77 2.60999 86.97 2.83999 86.97 3.14999V5.67999C86.97 5.98999 86.77 6.18999 86.47 6.18999C86.37 6.18999 86.22 6.18999 86.07 6.10999L80.79 4.00999C80.59 3.92999 80.39 3.88999 80.24 3.88999ZM82.15 10.97C81.9 10.46 81.45 10.11 80.69 10.11C79.79 10.11 79.18 10.42 78.73 10.93C78.63 11.05 78.58 11.16 78.58 11.24C78.58 11.47 78.83 11.63 79.23 11.63H81.54C82.04 11.63 82.34 11.36 82.14 10.97H82.15Z" fill="#F057EA"/>
<path d="M101.51 21.09C101.51 16.5 104.48 6.64999 113.58 6.64999C120.32 6.64999 121.83 9.40999 121.83 13.85C121.83 14.24 121.53 14.43 121.08 14.43H111.53C111.08 14.43 110.73 14.59 110.73 14.94C110.73 16.77 113.29 17.47 121.19 17.47C121.69 17.47 121.99 17.7 121.99 18.05V28.94C121.99 29.29 121.69 29.52 121.24 29.52H115.11C107.27 29.52 101.53 27.46 101.53 21.08L101.51 21.09ZM115.18 10.97C114.93 10.46 114.48 10.11 113.72 10.11C112.82 10.11 112.21 10.42 111.76 10.93C111.66 11.05 111.61 11.16 111.61 11.24C111.61 11.47 111.86 11.63 112.26 11.63H114.57C115.07 11.63 115.37 11.36 115.17 10.97H115.18Z" fill="#F057EA"/>
<path d="M124.73 28.95V17.98C124.73 17.63 125.03 17.4 125.48 17.4C128.95 17.4 130.61 17.21 130.61 16.7C130.61 16.35 129.75 15.84 128.15 15.14C125.44 13.97 124.28 12.88 124.28 11.17C124.28 9.21999 126.34 6.61999 133.88 6.61999C140.97 6.61999 143.68 8.83999 143.94 13.08C143.94 13.39 143.64 13.59 143.19 13.59H138.06C137.61 13.59 137.31 13.4 137.31 13.08C137.31 11.64 137.01 9.92999 134.44 9.92999C132.23 9.92999 131.88 11.21 131.88 11.84C131.88 15.38 145.3 14.25 145.3 22.93C145.3 26.28 142.63 29.54 132.53 29.54H125.49C125.04 29.54 124.74 29.31 124.74 28.96L124.73 28.95Z" fill="#F057EA"/>
<path d="M147.51 25.37V11.79C147.51 11.44 147.21 11.21 146.76 11.21H145.4C144.95 11.21 144.65 10.98 144.65 10.63V7.39999C144.65 7.04999 144.95 6.81999 145.4 6.81999H146.76C147.21 6.81999 147.51 6.58999 147.51 6.23999V2.88999C147.51 2.53999 147.81 2.30999 148.26 2.30999H155.35C155.8 2.30999 156.1 2.53999 156.1 2.88999V6.23999C156.1 6.58999 156.4 6.81999 156.85 6.81999H160.92C161.37 6.81999 161.67 7.04999 161.67 7.39999V10.63C161.67 10.98 161.37 11.21 160.92 11.21H156.85C156.4 11.21 156.1 11.44 156.1 11.79V15.64C156.1 16.89 157.41 17.39 160.93 17.39C161.38 17.39 161.68 17.62 161.68 17.97V25.6C161.68 28.48 158.91 29.68 154.44 29.68C149.97 29.68 147.5 28.16 147.5 25.36L147.51 25.37Z" fill="#F057EA"/>
<path d="M172.65 6.72999C175.01 6.72999 175.62 7.50999 175.62 7.97999C175.62 7.50999 175.82 6.80999 176.68 6.80999H183.77C184.42 6.80999 184.88 7.03999 184.88 7.38999V28.95C184.88 29.3 184.43 29.53 183.77 29.53H177.74C177.04 29.53 176.58 29.3 176.58 28.95V28.25C176.08 28.87 174.92 29.53 172.96 29.53C168.59 29.53 163.71 27.39 163.71 18.48C163.71 13.46 166.32 6.72999 172.66 6.72999H172.65ZM170.94 4.00999C170.94 3.88999 171.04 3.77999 171.24 3.69999L177.93 0.27999C178.08 0.19999 178.28 0.15999 178.48 0.15999C178.68 0.15999 178.83 0.19999 178.98 0.27999L182.4 2.06999C182.7 2.26999 182.75 2.45999 182.4 2.57999L174.71 5.49999C174.56 5.57999 174.41 5.61999 174.21 5.61999C174.01 5.61999 173.81 5.57999 173.66 5.49999L171.25 4.28999C171.05 4.20999 170.95 4.09999 170.95 4.01999L170.94 4.00999ZM175.61 16.77V10.58C175.61 10.31 175.36 10.15 174.91 10.15C173.8 10.15 171.44 11.82 171.44 13.89C171.44 16.61 172.95 17.47 174.61 17.47C175.31 17.47 175.62 17.24 175.62 16.77H175.61Z" fill="#F057EA"/>
<path d="M197.84 28.95V7.38999C197.84 7.03999 198.14 6.80999 198.59 6.80999H202.86C203.31 6.80999 203.61 7.03999 203.61 7.38999V9.36999C203.61 8.08999 206.58 6.79999 211.25 6.79999C211.75 6.79999 212.05 6.98999 212.05 7.37999V10.92C212.05 11.27 211.85 11.54 211.4 11.54C208.13 11.54 206.82 12.94 206.82 15.63V28.94C206.82 29.29 206.52 29.52 206.07 29.52H198.58C198.13 29.52 197.83 29.29 197.83 28.94L197.84 28.95Z" fill="#F057EA"/>
<path d="M211.71 22.33C211.71 16.3 213.72 6.79999 222.82 6.79999C231.92 6.79999 233.83 16.29 233.83 22.33C233.83 25.75 232.12 29.84 222.82 29.84C213.52 29.84 211.71 25.75 211.71 22.33ZM225.49 15.21C225.49 12.84 224.28 10.19 222.93 10.19C221.17 10.19 220.11 12.56 220.11 15.21C220.11 16.53 221.22 17.39 222.93 17.39C224.44 17.39 225.49 16.49 225.49 15.21Z" fill="#F057EA"/>
<path d="M233.58 28.83L238.96 17.86C239.01 17.74 239.06 17.63 239.06 17.55C239.06 17.43 239.01 17.36 238.96 17.24L234.18 7.46999C234.13 7.34999 234.08 7.26999 234.08 7.19999C234.08 6.96999 234.33 6.80999 234.68 6.80999H241.97C242.32 6.80999 242.67 6.96999 242.82 7.27999L245.59 13.78C245.69 13.94 245.84 14.01 246.04 14.01C246.19 14.01 246.39 13.93 246.44 13.78L249.66 7.27999C249.81 6.96999 250.06 6.80999 250.46 6.80999H257.5C257.85 6.80999 258.1 6.96999 258.1 7.19999C258.1 7.27999 258.05 7.38999 258 7.50999L252.57 17.2C252.52 17.32 252.47 17.39 252.47 17.51C252.47 17.63 252.52 17.74 252.57 17.86L258.25 28.87C258.3 28.99 258.35 29.06 258.35 29.14C258.35 29.37 258.1 29.53 257.7 29.53H249.86C249.46 29.53 249.16 29.37 249.01 29.06L246.24 23.11C246.19 22.95 245.99 22.88 245.84 22.88C245.64 22.88 245.49 22.96 245.39 23.11L242.63 29.06C242.48 29.37 242.13 29.53 241.77 29.53H234.13C233.58 29.53 233.38 29.22 233.58 28.83Z" fill="#F057EA"/>
<path d="M258.07 22.33C258.07 16.3 260.08 6.79999 269.18 6.79999C278.28 6.79999 280.19 16.29 280.19 22.33C280.19 25.75 278.48 29.84 269.18 29.84C259.88 29.84 258.07 25.75 258.07 22.33ZM271.84 15.21C271.84 12.84 270.63 10.19 269.28 10.19C267.52 10.19 266.46 12.56 266.46 15.21C266.46 16.53 267.57 17.39 269.28 17.39C270.79 17.39 271.84 16.49 271.84 15.21Z" fill="#F057EA"/>
<path d="M292.25 18.4C292.25 11.55 296.27 7.42999 303.46 6.87999C303.91 6.83999 304.16 6.64999 304.16 6.29999V2.87999C304.16 2.52999 304.46 2.29999 304.91 2.29999H312.7C313.15 2.29999 313.45 2.52999 313.45 2.87999V28.95C313.45 29.3 313.15 29.53 312.7 29.53H305.31C296.26 29.53 292.24 26.11 292.24 18.4H292.25ZM304.17 16.69V10.58C304.17 10.31 303.92 10.15 303.52 10.15C302.36 10.15 300.05 11.36 300.05 13.42C300.05 15.48 301.26 17.39 303.22 17.39C303.87 17.39 304.18 17.16 304.18 16.69H304.17Z" fill="#F057EA"/>
<path d="M315.48 21.09C315.48 16.5 318.45 6.64999 327.55 6.64999C334.29 6.64999 335.8 9.40999 335.8 13.85C335.8 14.24 335.5 14.43 335.05 14.43H325.5C325.05 14.43 324.7 14.59 324.7 14.94C324.7 16.77 327.26 17.47 335.16 17.47C335.66 17.47 335.96 17.7 335.96 18.05V28.94C335.96 29.29 335.66 29.52 335.21 29.52H329.08C321.24 29.52 315.5 27.46 315.5 21.08L315.48 21.09ZM329.16 10.97C328.91 10.46 328.46 10.11 327.7 10.11C326.8 10.11 326.19 10.42 325.74 10.93C325.64 11.05 325.59 11.16 325.59 11.24C325.59 11.47 325.84 11.63 326.24 11.63H328.55C329.05 11.63 329.35 11.36 329.15 10.97H329.16Z" fill="#F057EA"/>
<path d="M348.91 18.05C348.91 17.7 349.21 17.47 349.71 17.47C353.48 17.47 354.64 17.04 354.64 15.72V13.7C354.64 13.35 354.34 13.12 353.89 13.12H352.53C352.08 13.12 351.78 12.89 351.78 12.54V9.57999C351.78 9.22999 352.08 8.99999 352.53 8.99999H353.89C354.34 8.99999 354.64 8.76999 354.64 8.41999V7.59999C354.64 3.78999 358.41 2.49999 367.71 2.30999C368.21 2.30999 368.51 2.53999 368.51 2.88999V5.80999C368.51 6.15999 368.26 6.42999 367.76 6.42999C364.04 6.42999 363.14 6.81999 363.14 8.33999C363.14 8.76999 363.29 8.99999 363.79 8.99999H366.05C366.5 8.99999 366.8 9.22999 366.8 9.57999V12.54C366.8 12.89 366.5 13.12 366.05 13.12H363.64C363.19 13.12 362.89 13.35 362.89 13.7V25.61C362.89 28.37 360.63 29.81 356.15 29.81C351.67 29.81 348.91 28.25 348.91 25.53V18.05Z" fill="#F057EA"/>
<path d="M366.91 22.33C366.91 16.3 368.92 6.79999 378.02 6.79999C387.12 6.79999 389.03 16.29 389.03 22.33C389.03 25.75 387.32 29.84 378.02 29.84C368.72 29.84 366.91 25.75 366.91 22.33ZM380.69 15.21C380.69 12.84 379.48 10.19 378.13 10.19C376.37 10.19 375.31 12.56 375.31 15.21C375.31 16.53 376.42 17.39 378.13 17.39C379.64 17.39 380.69 16.49 380.69 15.21Z" fill="#F057EA"/>
<path d="M390.89 28.95V7.38999C390.89 7.03999 391.14 6.80999 391.59 6.80999H395.26C395.66 6.80999 395.96 7.03999 395.96 7.38999V9.48999C395.96 9.48999 397.57 6.64999 402.04 6.64999C404.3 6.64999 406.56 7.18999 408.07 8.27999C409.18 7.26999 410.89 6.64999 413.6 6.64999C419.28 6.64999 422.65 9.48999 422.65 15.52V28.94C422.65 29.29 422.4 29.52 421.95 29.52H415.06C414.61 29.52 414.36 29.29 414.36 28.94V19.25C414.36 16.92 413.91 15.9 412.5 15.9C411.09 15.9 410.64 16.91 410.64 19.25V28.94C410.64 29.29 410.39 29.52 409.94 29.52H403.55C403.15 29.52 402.85 29.29 402.85 28.94V19.25C402.85 16.92 402.45 15.9 401.04 15.9C399.63 15.9 399.18 16.91 399.18 19.25V28.94C399.18 29.29 398.88 29.52 398.48 29.52H391.59C391.14 29.52 390.89 29.29 390.89 28.94V28.95Z" fill="#F057EA"/>
<path d="M424.63 21.09C424.63 16.5 427.6 6.64999 436.7 6.64999C443.44 6.64999 444.95 9.40999 444.95 13.85C444.95 14.24 444.65 14.43 444.2 14.43H434.65C434.2 14.43 433.85 14.59 433.85 14.94C433.85 16.77 436.41 17.47 444.31 17.47C444.81 17.47 445.11 17.7 445.11 18.05V28.94C445.11 29.29 444.81 29.52 444.36 29.52H438.23C430.39 29.52 424.65 27.46 424.65 21.08L424.63 21.09ZM438.3 10.97C438.05 10.46 437.6 10.11 436.84 10.11C435.94 10.11 435.33 10.42 434.88 10.93C434.78 11.05 434.73 11.16 434.73 11.24C434.73 11.47 434.98 11.63 435.38 11.63H437.69C438.19 11.63 438.49 11.36 438.29 10.97H438.3Z" fill="#F057EA"/>
<path d="M0.4 67.78C0.4 63.19 3.37 53.34 12.47 53.34C19.21 53.34 20.72 56.1 20.72 60.54C20.72 60.93 20.42 61.12 19.97 61.12H10.42C9.97 61.12 9.62 61.28 9.62 61.63C9.62 63.46 12.18 64.16 20.08 64.16C20.58 64.16 20.88 64.39 20.88 64.74V75.63C20.88 75.98 20.58 76.21 20.13 76.21H14C6.16 76.21 0.42 74.15 0.42 67.77L0.4 67.78ZM14.08 57.66C13.83 57.15 13.38 56.8 12.62 56.8C11.72 56.8 11.11 57.11 10.66 57.62C10.56 57.74 10.51 57.85 10.51 57.93C10.51 58.16 10.76 58.32 11.16 58.32H13.47C13.97 58.32 14.27 58.05 14.07 57.66H14.08Z" fill="#F057EA"/>
<path d="M33.84 83.42V54.08C33.84 53.73 34.14 53.5 34.59 53.5H42.33C52.49 53.5 55.3 59.42 55.3 65.1C55.3 69.92 54.4 75.53 44.19 76.15C43.69 76.19 43.44 76.42 43.44 76.77V83.42C43.44 83.77 43.14 84 42.69 84H34.6C34.15 84 33.85 83.77 33.85 83.42H33.84ZM47.51 60.11C47.51 58.09 45.2 56.88 44.04 56.88C43.49 56.88 43.44 57.15 43.44 57.46V63.3C43.44 63.53 43.44 63.77 43.64 63.92C43.84 64.04 44.04 64.08 44.34 64.08C46.75 64.08 47.51 62.29 47.51 60.11Z" fill="#F057EA"/>
<path d="M56.81 69.02C56.81 62.99 58.82 53.49 67.92 53.49C77.02 53.49 78.93 62.98 78.93 69.02C78.93 72.44 77.22 76.53 67.92 76.53C58.62 76.53 56.81 72.44 56.81 69.02ZM70.59 61.9C70.59 59.53 69.38 56.88 68.03 56.88C66.27 56.88 65.21 59.25 65.21 61.9C65.21 63.22 66.32 64.08 68.03 64.08C69.54 64.08 70.59 63.18 70.59 61.9Z" fill="#F057EA"/>
<path d="M80.44 65.09C80.44 58.24 84.46 54.12 91.65 53.57C92.1 53.53 92.35 53.34 92.35 52.99V49.57C92.35 49.22 92.65 48.99 93.1 48.99H100.89C101.34 48.99 101.64 49.22 101.64 49.57V75.64C101.64 75.99 101.34 76.22 100.89 76.22H93.5C84.45 76.22 80.43 72.8 80.43 65.09H80.44ZM92.36 63.38V57.27C92.36 57 92.11 56.84 91.71 56.84C90.55 56.84 88.24 58.05 88.24 60.11C88.24 62.17 89.45 64.08 91.41 64.08C92.06 64.08 92.37 63.85 92.37 63.38H92.36Z" fill="#F057EA"/>
<path d="M103.67 67.78C103.67 63.19 106.64 53.34 115.74 53.34C122.48 53.34 123.99 56.1 123.99 60.54C123.99 60.93 123.69 61.12 123.24 61.12H113.69C113.24 61.12 112.89 61.28 112.89 61.63C112.89 63.46 115.45 64.16 123.35 64.16C123.85 64.16 124.15 64.39 124.15 64.74V75.63C124.15 75.98 123.85 76.21 123.4 76.21H117.27C109.43 76.21 103.69 74.15 103.69 67.77L103.67 67.78ZM117.34 57.66C117.09 57.15 116.64 56.8 115.88 56.8C114.98 56.8 114.37 57.11 113.92 57.62C113.82 57.74 113.77 57.85 113.77 57.93C113.77 58.16 114.02 58.32 114.42 58.32H116.73C117.23 58.32 117.53 58.05 117.33 57.66H117.34Z" fill="#F057EA"/>
<path d="M126.54 75.64V54.08C126.54 53.73 126.84 53.5 127.29 53.5H131.56C132.01 53.5 132.31 53.73 132.31 54.08V56.06C132.31 54.78 135.28 53.49 139.95 53.49C140.45 53.49 140.75 53.68 140.75 54.07V57.61C140.75 57.96 140.55 58.23 140.1 58.23C136.83 58.23 135.52 59.63 135.52 62.32V75.63C135.52 75.98 135.22 76.21 134.77 76.21H127.28C126.83 76.21 126.53 75.98 126.53 75.63L126.54 75.64Z" fill="#F057EA"/>
<path d="M142.98 51.67V49.57C142.98 49.22 143.28 48.99 143.73 48.99H151.02C151.47 48.99 151.77 49.22 151.77 49.57V51.67C151.77 52.02 151.47 52.25 151.02 52.25H143.73C143.28 52.25 142.98 52.02 142.98 51.67ZM142.98 75.64V54.08C142.98 53.73 143.28 53.5 143.73 53.5H151.02C151.47 53.5 151.77 53.73 151.77 54.08V75.64C151.77 75.99 151.47 76.22 151.02 76.22H143.73C143.28 76.22 142.98 75.99 142.98 75.64Z" fill="#F057EA"/>
<path d="M162.79 53.42C165.15 53.42 165.76 54.2 165.76 54.67C165.76 54.2 165.96 53.5 166.82 53.5H173.91C174.56 53.5 175.02 53.73 175.02 54.08V75.64C175.02 75.99 174.57 76.22 173.91 76.22H167.88C167.18 76.22 166.72 75.99 166.72 75.64V74.94C166.22 75.56 165.06 76.22 163.1 76.22C158.73 76.22 153.85 74.08 153.85 65.17C153.85 60.15 156.46 53.42 162.8 53.42H162.79ZM165.76 63.46V57.27C165.76 57 165.51 56.84 165.06 56.84C163.95 56.84 161.59 58.51 161.59 60.58C161.59 63.3 163.1 64.16 164.76 64.16C165.46 64.16 165.77 63.93 165.77 63.46H165.76Z" fill="#F057EA"/>
<path d="M187.63 67.78C187.63 59.34 192.61 53.42 199.7 53.42C204.78 53.42 207.95 56.18 207.95 60.54C207.95 60.93 207.65 61.12 207.2 61.12H202.32C201.82 61.12 201.62 60.89 201.62 60.5C201.62 57.82 201.22 56.8 199.86 56.8C198.05 56.8 196.79 58.59 196.79 61.04C196.79 63.49 198.5 64.15 207.3 64.15C207.8 64.15 208.1 64.38 208.1 64.73V75.62C208.1 75.97 207.8 76.2 207.35 76.2H201.22C192.17 76.2 187.64 74.1 187.64 67.76L187.63 67.78Z" fill="#F057EA"/>
<path d="M210 69.02C210 62.99 212.01 53.49 221.11 53.49C230.21 53.49 232.12 62.98 232.12 69.02C232.12 72.44 230.41 76.53 221.11 76.53C211.81 76.53 210 72.44 210 69.02ZM223.78 61.9C223.78 59.53 222.57 56.88 221.22 56.88C219.46 56.88 218.4 59.25 218.4 61.9C218.4 63.22 219.51 64.08 221.22 64.08C222.73 64.08 223.78 63.18 223.78 61.9Z" fill="#F057EA"/>
<path d="M233.98 75.64V54.08C233.98 53.73 234.23 53.5 234.68 53.5H238.35C238.75 53.5 239.05 53.73 239.05 54.08V56.18C239.05 56.18 240.66 53.34 245.13 53.34C247.39 53.34 249.65 53.88 251.16 54.97C252.27 53.96 253.98 53.34 256.69 53.34C262.37 53.34 265.74 56.18 265.74 62.21V75.63C265.74 75.98 265.49 76.21 265.04 76.21H258.15C257.7 76.21 257.45 75.98 257.45 75.63V65.94C257.45 63.61 257 62.59 255.59 62.59C254.18 62.59 253.73 63.6 253.73 65.94V75.63C253.73 75.98 253.48 76.21 253.03 76.21H246.64C246.24 76.21 245.94 75.98 245.94 75.63V65.94C245.94 63.61 245.54 62.59 244.13 62.59C242.72 62.59 242.27 63.6 242.27 65.94V75.63C242.27 75.98 241.97 76.21 241.57 76.21H234.68C234.23 76.21 233.98 75.98 233.98 75.63V75.64Z" fill="#F057EA"/>
<path d="M267.72 67.78C267.72 63.19 270.69 53.34 279.79 53.34C286.53 53.34 288.04 56.1 288.04 60.54C288.04 60.93 287.74 61.12 287.29 61.12H277.74C277.29 61.12 276.94 61.28 276.94 61.63C276.94 63.46 279.5 64.16 287.4 64.16C287.9 64.16 288.2 64.39 288.2 64.74V75.63C288.2 75.98 287.9 76.21 287.45 76.21H281.32C273.48 76.21 267.74 74.15 267.74 67.77L267.72 67.78ZM281.39 57.66C281.14 57.15 280.69 56.8 279.93 56.8C279.03 56.8 278.42 57.11 277.97 57.62C277.87 57.74 277.82 57.85 277.82 57.93C277.82 58.16 278.07 58.32 278.47 58.32H280.78C281.28 58.32 281.58 58.05 281.38 57.66H281.39Z" fill="#F057EA"/>
<path d="M290.59 75.64V54.08C290.59 53.73 290.89 53.5 291.34 53.5H295.61C296.06 53.5 296.36 53.73 296.36 54.08V56.06C296.36 54.78 299.33 53.49 304 53.49C304.5 53.49 304.8 53.68 304.8 54.07V57.61C304.8 57.96 304.6 58.23 304.15 58.23C300.88 58.23 299.57 59.63 299.57 62.32V75.63C299.57 75.98 299.27 76.21 298.82 76.21H291.33C290.88 76.21 290.58 75.98 290.58 75.63L290.59 75.64Z" fill="#F057EA"/>
<path d="M317.59 54.09C317.59 53.74 317.84 53.51 318.29 53.51H325.18C325.58 53.51 325.88 53.74 325.88 54.09V61.52C325.88 63.23 325.88 64.13 327.69 64.13C329.5 64.13 329.55 63.23 329.55 61.52V54.09C329.55 53.74 329.85 53.51 330.25 53.51H337.14C337.54 53.51 337.84 53.74 337.84 54.09V75.65C337.84 76 337.54 76.23 337.14 76.23H334.88C334.43 76.23 334.18 76 334.18 75.65V75.3C332.67 75.96 330.61 76.39 327.8 76.39C319 76.39 317.59 72.38 317.59 68.92V54.09Z" fill="#F057EA"/>
<path d="M340.22 75.64V54.08C340.22 53.73 340.47 53.5 340.92 53.5H344.59C344.99 53.5 345.29 53.73 345.29 54.08V56.18C345.29 56.18 346.9 53.34 351.37 53.34C353.63 53.34 355.89 53.88 357.4 54.97C358.51 53.96 360.22 53.34 362.93 53.34C368.61 53.34 371.98 56.18 371.98 62.21V75.63C371.98 75.98 371.73 76.21 371.28 76.21H364.39C363.94 76.21 363.69 75.98 363.69 75.63V65.94C363.69 63.61 363.24 62.59 361.83 62.59C360.42 62.59 359.97 63.6 359.97 65.94V75.63C359.97 75.98 359.72 76.21 359.27 76.21H352.88C352.48 76.21 352.18 75.98 352.18 75.63V65.94C352.18 63.61 351.78 62.59 350.37 62.59C348.96 62.59 348.51 63.6 348.51 65.94V75.63C348.51 75.98 348.21 76.21 347.81 76.21H340.92C340.47 76.21 340.22 75.98 340.22 75.63V75.64Z" fill="#F057EA"/>
<path d="M384.91 75.64V49.57C384.91 49.22 385.21 48.99 385.66 48.99H393.45C393.9 48.99 394.2 49.22 394.2 49.57V52.99C394.2 53.34 394.45 53.53 394.9 53.57C402.09 54.11 406.11 58.24 406.11 65.09C406.11 72.79 402.09 76.22 393.04 76.22H385.65C385.2 76.22 384.9 75.99 384.9 75.64H384.91ZM398.33 60.11C398.33 57.89 396.17 56.8 394.96 56.8C394.51 56.8 394.21 56.96 394.21 57.27V63.38C394.21 63.89 394.56 64.08 395.17 64.08C397.58 64.08 398.34 61.94 398.34 60.11H398.33Z" fill="#F057EA"/>
<path d="M407.64 69.02C407.64 62.99 409.65 53.49 418.75 53.49C427.85 53.49 429.76 62.98 429.76 69.02C429.76 72.44 428.05 76.53 418.75 76.53C409.45 76.53 407.64 72.44 407.64 69.02ZM421.41 61.9C421.41 59.53 420.2 56.88 418.85 56.88C417.09 56.88 416.03 59.25 416.03 61.9C416.03 63.22 417.14 64.08 418.85 64.08C420.36 64.08 421.41 63.18 421.41 61.9Z" fill="#F057EA"/>
<path d="M431.67 51.67V49.57C431.67 49.22 431.97 48.99 432.42 48.99H439.71C440.16 48.99 440.46 49.22 440.46 49.57V51.67C440.46 52.02 440.16 52.25 439.71 52.25H432.42C431.97 52.25 431.67 52.02 431.67 51.67ZM431.67 75.64V54.08C431.67 53.73 431.97 53.5 432.42 53.5H439.71C440.16 53.5 440.46 53.73 440.46 54.08V75.64C440.46 75.99 440.16 76.22 439.71 76.22H432.42C431.97 76.22 431.67 75.99 431.67 75.64Z" fill="#F057EA"/>
<path d="M447.96 61.98V61.9C447.96 58.2 455.1 57.54 455.1 54.39C455.1 53.46 454.5 52.79 452.69 52.79C450.88 52.79 450.08 53.41 450.08 55.2C450.08 55.55 449.78 55.78 449.33 55.78H443.95C443.5 55.78 443.2 55.55 443.2 55.2V55.16C443.2 51.04 447.07 48.86 452.65 48.86C457.53 48.86 462.81 50.81 462.81 54.27C462.81 57.97 457.63 59.21 457.63 61.94V61.98C457.63 62.33 457.33 62.56 456.88 62.56H448.74C448.29 62.56 447.99 62.33 447.99 61.98H447.96ZM447.96 75.64V64.4C447.96 64.05 448.26 63.82 448.71 63.82H456.85C457.3 63.82 457.6 64.05 457.6 64.4V75.64C457.6 75.99 457.3 76.22 456.85 76.22H448.71C448.26 76.22 447.96 75.99 447.96 75.64Z" fill="#F057EA"/>
<path d="M1.11 122.33V96.26C1.11 95.91 1.41 95.68 1.86 95.68H11.16C11.61 95.68 11.86 95.88 11.96 96.19L15.33 106.19C15.43 106.46 15.63 106.62 15.78 106.62C15.98 106.62 16.13 106.46 16.23 106.19L19.75 96.19C19.85 95.88 20.1 95.68 20.55 95.68H29.9C30.35 95.68 30.65 95.91 30.65 96.26V122.33C30.65 122.68 30.35 122.91 29.9 122.91H23.26C22.81 122.91 22.51 122.68 22.51 122.33V111.12C22.51 110.89 22.31 110.73 22.11 110.73C21.96 110.73 21.76 110.85 21.71 111.04L17.74 122.4C17.64 122.71 17.39 122.91 16.94 122.91H13.42C12.97 122.91 12.72 122.72 12.62 122.4L8.7 111.08C8.65 110.88 8.45 110.77 8.3 110.77C8.1 110.77 7.9 110.93 7.9 111.16V122.33C7.9 122.68 7.6 122.91 7.15 122.91H1.86C1.41 122.91 1.11 122.68 1.11 122.33Z" fill="#F057EA"/>
<path d="M48.12 122.91H40.63C36.26 122.91 33.69 121.08 33.69 117.66V96.26C33.69 95.91 34.14 95.68 34.85 95.68H47.72C48.42 95.68 48.88 95.91 48.88 96.26V99.1C48.88 99.45 48.43 99.68 47.72 99.68H44.4C43.75 99.68 43.29 99.91 43.29 100.26V101.89C43.29 102.24 43.74 102.47 44.4 102.47H46.61C47.26 102.47 47.72 102.7 47.72 103.05V105.89C47.72 106.24 47.27 106.47 46.61 106.47H44.4C43.75 106.47 43.29 106.63 43.29 106.66V107.87C43.29 108.22 43.74 108.45 44.4 108.45H48.12C48.77 108.45 49.23 108.68 49.23 109.03V122.3C49.23 122.65 48.78 122.88 48.12 122.88V122.91Z" fill="#F057EA"/>
<path d="M62.79 117.66V96.26C62.79 95.91 63.09 95.68 63.54 95.68H71.63C72.08 95.68 72.38 95.91 72.38 96.26V107.89C72.38 108.24 72.68 108.47 73.13 108.47H76.95C77.4 108.47 77.7 108.7 77.7 109.05V122.32C77.7 122.67 77.4 122.9 76.95 122.9H69.71C65.34 122.9 62.77 121.07 62.77 117.65L62.79 117.66Z" fill="#F057EA"/>
<path d="M80.49 122.33V96.26C80.49 95.91 80.79 95.68 81.24 95.68H89.13C89.58 95.68 89.88 95.91 89.88 96.26V122.33C89.88 122.68 89.58 122.91 89.13 122.91H81.24C80.79 122.91 80.49 122.68 80.49 122.33Z" fill="#F057EA"/>
<path d="M92.31 111.28C92.31 103.42 95.33 95.48 105.28 95.48C111.87 95.48 115.24 98.87 115.24 101.98C115.24 102.56 114.79 102.56 114.13 102.56H109.91C109.21 102.56 108.75 102.56 108.75 101.98C108.75 100.5 107.24 99.65 105.43 99.65C102.06 99.65 101.31 102.76 101.31 105.02C101.31 108.64 102.97 109.73 105.58 109.73C106.89 109.73 108.85 109.61 108.85 107.82C108.85 107.47 108.4 107.24 107.69 107.24H105.38C104.68 107.24 104.63 107.16 104.63 106.66V104.75C104.63 104.4 105.08 104.17 105.74 104.17H114.49C115.19 104.17 115.65 104.4 115.65 104.75V122.34C115.65 122.69 115.2 122.92 114.49 122.92H111.93C111.28 122.92 110.82 122.69 110.82 122.34V122.07C110.82 121.29 108.86 123 103.28 123C95.34 123 92.32 119.5 92.32 111.29L92.31 111.28Z" fill="#F057EA"/>
<path d="M117.54 122.29L124.08 96.22C124.18 95.87 124.53 95.68 124.99 95.68H135.7C136.2 95.68 136.5 95.84 136.6 96.19L143.34 122.3V122.46C143.34 122.77 143.04 122.93 142.59 122.93H134.8C134.3 122.93 134 122.77 133.95 122.39L132.69 116.63C132.59 116.24 132.29 116.09 131.83 116.09H127.41C126.91 116.09 126.66 116.28 126.56 116.63L124.9 122.39C124.8 122.74 124.55 122.93 124.04 122.93H118.31C117.76 122.93 117.46 122.74 117.56 122.31L117.54 122.29ZM131.37 108.83L130.52 103.3C130.42 102.79 130.17 102.56 129.87 102.56C129.62 102.56 129.32 102.79 129.22 103.3L128.22 108.83V108.91C128.22 109.3 128.62 109.45 129.33 109.45H130.18C130.98 109.45 131.49 109.22 131.39 108.83H131.37Z" fill="#F057EA"/>
<path d="M147.96 125.91C147.96 125.83 148.01 125.72 148.11 125.6L149.62 123.58C149.67 123.5 149.72 123.39 149.72 123.31C149.72 123.08 149.32 122.92 148.71 122.92H146.2C145.75 122.92 145.45 122.69 145.45 122.34V117.83C145.45 117.48 145.75 117.25 146.2 117.25H154.35C154.8 117.25 155.1 117.48 155.1 117.83V122.38C155.1 122.65 155.05 122.85 154.85 123.12L152.64 125.92C152.44 126.19 152.14 126.31 151.74 126.31H148.67C148.22 126.31 147.97 126.15 147.97 125.92L147.96 125.91Z" fill="#F057EA"/>
<path d="M182.2 122.91H174.71C170.34 122.91 167.77 121.08 167.77 117.66V96.26C167.77 95.91 168.22 95.68 168.93 95.68H181.8C182.5 95.68 182.96 95.91 182.96 96.26V99.1C182.96 99.45 182.51 99.68 181.8 99.68H178.48C177.83 99.68 177.37 99.91 177.37 100.26V101.89C177.37 102.24 177.82 102.47 178.48 102.47H180.69C181.34 102.47 181.8 102.7 181.8 103.05V105.89C181.8 106.24 181.35 106.47 180.69 106.47H178.48C177.83 106.47 177.37 106.63 177.37 106.66V107.87C177.37 108.22 177.82 108.45 178.48 108.45H182.2C182.85 108.45 183.31 108.68 183.31 109.03V122.3C183.31 122.65 182.86 122.88 182.2 122.88V122.91Z" fill="#F057EA"/>
<path d="M186.32 114.12V96.26C186.32 95.91 186.62 95.68 187.07 95.68H195.16C195.61 95.68 195.91 95.91 195.91 96.26V105.79C195.91 107.81 195.91 108.83 197.87 108.83C199.83 108.83 199.83 107.82 199.83 105.79V96.26C199.83 95.91 200.13 95.68 200.58 95.68H208.62C209.07 95.68 209.37 95.91 209.37 96.26V114.12C209.37 118.28 208.01 123.11 197.91 123.11C187.81 123.11 186.3 118.29 186.3 114.12H186.32Z" fill="#F057EA"/>
<path d="M222.97 122.33V96.26C222.97 95.91 223.27 95.68 223.72 95.68H232.77C239.76 95.68 244.89 98.29 244.89 102.96C244.89 109.07 238.5 111.6 233.58 111.6C232.83 111.6 232.47 111.83 232.47 112.18V122.34C232.47 122.69 232.17 122.92 231.72 122.92H223.73C223.28 122.92 222.98 122.69 222.98 122.34L222.97 122.33ZM232.93 106.69C234.09 106.69 237 105.6 237 102.99C237 100.89 234.33 99.61 233.08 99.61C232.73 99.61 232.48 99.73 232.48 99.96V106.5C232.48 106.62 232.68 106.69 232.93 106.69Z" fill="#F057EA"/>
<path d="M245.1 113.73C245.1 102.76 250.03 95.48 257.42 95.48C264.81 95.48 269.18 102.48 269.18 113.73C269.18 119.8 264.96 123.07 257.16 123.07C249.36 123.07 245.09 119.72 245.09 113.73H245.1ZM260.13 104.82C260.13 101.82 258.92 99.57 257.42 99.57C255.51 99.57 254.25 101.75 254.25 104.82C254.25 106.41 255.51 107.47 257.42 107.47C258.98 107.47 260.13 106.42 260.13 104.82Z" fill="#F057EA"/>
<path d="M271.49 122.33V108.98C271.49 108.63 271.79 108.4 272.24 108.4C276.76 108.4 278.27 108.17 278.27 107.35C278.27 105.52 271.03 105.76 271.03 100.93C271.03 98.79 273.44 95.33 280.99 95.33C288.08 95.33 291.05 97.08 291.05 102.37V102.41C291.05 102.76 290.75 102.99 290.3 102.99H285.17C284.72 102.99 284.42 102.76 284.42 102.41C284.42 100.62 284.17 99.06 281.55 99.06C279.44 99.06 278.99 100.27 278.99 101.2C278.99 106.18 292.41 104.35 292.41 114.66C292.41 120.57 287.94 122.91 279.64 122.91H272.25C271.8 122.91 271.5 122.68 271.5 122.33H271.49Z" fill="#F057EA"/>
<path d="M294.97 122.33V108.98C294.97 108.63 295.27 108.4 295.72 108.4C300.24 108.4 301.75 108.17 301.75 107.35C301.75 105.52 294.51 105.76 294.51 100.93C294.51 98.79 296.92 95.33 304.47 95.33C311.56 95.33 314.53 97.08 314.53 102.37V102.41C314.53 102.76 314.23 102.99 313.78 102.99H308.65C308.2 102.99 307.9 102.76 307.9 102.41C307.9 100.62 307.65 99.06 305.03 99.06C302.92 99.06 302.47 100.27 302.47 101.2C302.47 106.18 315.89 104.35 315.89 114.66C315.89 120.57 311.42 122.91 303.12 122.91H295.73C295.28 122.91 294.98 122.68 294.98 122.33H294.97Z" fill="#F057EA"/>
<path d="M317.14 113.73C317.14 102.76 322.07 95.48 329.46 95.48C336.85 95.48 341.22 102.48 341.22 113.73C341.22 119.8 337 123.07 329.2 123.07C321.4 123.07 317.13 119.72 317.13 113.73H317.14ZM332.17 104.82C332.17 101.82 330.96 99.57 329.46 99.57C327.55 99.57 326.29 101.75 326.29 104.82C326.29 106.41 327.55 107.47 329.46 107.47C331.02 107.47 332.17 106.42 332.17 104.82Z" fill="#F057EA"/>
<path d="M366.11 106.38C366.11 108.25 367.72 108.48 370.43 108.48C370.93 108.48 371.18 108.71 371.18 109.06V117.74C371.18 121.24 368.41 123.19 363.99 123.19C359.57 123.19 357.05 121.28 357.05 117.86V100.47H354.18C353.73 100.47 353.43 100.24 353.43 99.89V96.27C353.43 95.92 353.73 95.69 354.18 95.69H370.47C370.92 95.69 371.22 95.92 371.22 96.27V99.89C371.22 100.24 370.92 100.47 370.47 100.47H366.1V106.38H366.11Z" fill="#F057EA"/>
<path d="M388.68 122.91H381.19C376.82 122.91 374.25 121.08 374.25 117.66V96.26C374.25 95.91 374.7 95.68 375.41 95.68H388.28C388.98 95.68 389.44 95.91 389.44 96.26V99.1C389.44 99.45 388.99 99.68 388.28 99.68H384.96C384.31 99.68 383.85 99.91 383.85 100.26V101.89C383.85 102.24 384.3 102.47 384.96 102.47H387.17C387.82 102.47 388.28 102.7 388.28 103.05V105.89C388.28 106.24 387.83 106.47 387.17 106.47H384.96C384.31 106.47 383.85 106.63 383.85 106.66V107.87C383.85 108.22 384.3 108.45 384.96 108.45H388.68C389.33 108.45 389.79 108.68 389.79 109.03V122.3C389.79 122.65 389.34 122.88 388.68 122.88V122.91Z" fill="#F057EA"/>
<path d="M401.25 122.29L407.79 96.22C407.89 95.87 408.24 95.68 408.7 95.68H419.41C419.91 95.68 420.21 95.84 420.31 96.19L427.05 122.3V122.46C427.05 122.77 426.75 122.93 426.3 122.93H418.51C418.01 122.93 417.71 122.77 417.66 122.39L416.4 116.63C416.3 116.24 416 116.09 415.54 116.09H411.12C410.62 116.09 410.37 116.28 410.27 116.63L408.61 122.39C408.51 122.74 408.26 122.93 407.75 122.93H402.02C401.47 122.93 401.17 122.74 401.27 122.31L401.25 122.29ZM415.08 108.83L414.23 103.3C414.13 102.79 413.88 102.56 413.58 102.56C413.33 102.56 413.03 102.79 412.93 103.3L411.93 108.83V108.91C411.93 109.3 412.33 109.45 413.04 109.45H413.89C414.69 109.45 415.2 109.22 415.1 108.83H415.08Z" fill="#F057EA"/>
<path d="M428.5 117.89V106.37C428.5 106.02 428.8 105.79 429.25 105.79H431.66C432.11 105.79 432.41 106.02 432.41 106.37C432.41 107.93 432.56 109.06 434.37 109.06C436.28 109.06 436.33 107.89 436.33 105.87V96.26C436.33 95.91 436.63 95.68 437.08 95.68H444.92C445.37 95.68 445.67 95.91 445.67 96.26V117C445.67 120.97 442.6 123.19 437.07 123.19C431.54 123.19 428.47 121.13 428.47 117.9L428.5 117.89Z" fill="#F057EA"/>
<path d="M448.71 114.12V96.26C448.71 95.91 449.01 95.68 449.46 95.68H457.55C458 95.68 458.3 95.91 458.3 96.26V105.79C458.3 107.81 458.3 108.83 460.26 108.83C462.22 108.83 462.22 107.82 462.22 105.79V96.26C462.22 95.91 462.52 95.68 462.97 95.68H471.01C471.46 95.68 471.76 95.91 471.76 96.26V114.12C471.76 118.28 470.4 123.11 460.3 123.11C450.2 123.11 448.69 118.29 448.69 114.12H448.71Z" fill="#F057EA"/>
<path d="M474.81 96.26C474.81 95.91 475.11 95.68 475.56 95.68H483.35C493.76 95.68 496.32 102.76 496.32 109.57C496.32 115.72 495.31 122.92 483.25 122.92H475.56C475.11 122.92 474.81 122.69 474.81 122.34V96.26ZM488.78 103.57C488.78 100.92 486.47 99.6 485.21 99.6C484.76 99.6 484.41 99.79 484.41 100.18V106.87C484.41 107.49 484.71 107.73 485.37 107.73C487.73 107.69 488.79 105.2 488.79 103.57H488.78Z" fill="#F057EA"/>
<path d="M496.22 122.29L502.76 96.22C502.86 95.87 503.21 95.68 503.67 95.68H514.38C514.88 95.68 515.18 95.84 515.28 96.19L522.02 122.3V122.46C522.02 122.77 521.72 122.93 521.27 122.93H513.48C512.98 122.93 512.68 122.77 512.63 122.39L511.37 116.63C511.27 116.24 510.97 116.09 510.51 116.09H506.09C505.59 116.09 505.34 116.28 505.24 116.63L503.58 122.39C503.48 122.74 503.23 122.93 502.72 122.93H496.99C496.44 122.93 496.14 122.74 496.24 122.31L496.22 122.29ZM510.05 108.83L509.2 103.3C509.1 102.79 508.85 102.56 508.55 102.56C508.3 102.56 508 102.79 507.9 103.3L506.9 108.83V108.91C506.9 109.3 507.3 109.45 508.01 109.45H508.86C509.66 109.45 510.17 109.22 510.07 108.83H510.05Z" fill="#F057EA"/>
<path d="M523.98 122.33V96.22C523.98 95.87 524.28 95.64 524.73 95.64H533.88C543.58 95.64 547.15 98.25 547.15 102.06C547.15 105.87 543.58 107.74 540.86 108.29C540.46 108.37 540.31 108.48 540.31 108.56C540.31 108.64 540.51 108.72 540.96 108.79C544.93 109.53 546.54 110.31 546.54 112.53V122.33C546.54 122.68 546.24 122.91 545.79 122.91H537.95C537.5 122.91 537.2 122.68 537.2 122.33V112.29C537.2 111.08 535.89 110.77 534.79 110.77C534.04 110.77 533.58 110.93 533.58 111.31V122.32C533.58 122.67 533.28 122.9 532.83 122.9H524.74C524.29 122.9 523.99 122.67 523.99 122.32L523.98 122.33ZM534.18 105.67C535.49 105.67 538.3 104.85 538.3 102.48C538.3 100.42 535.79 99.76 534.43 99.76C533.93 99.76 533.58 99.84 533.58 99.99V105.48C533.58 105.6 533.83 105.67 534.18 105.67Z" fill="#F057EA"/>
<path d="M549.27 122.33V117.82C549.27 117.47 549.57 117.24 550.02 117.24H558.16C558.61 117.24 558.91 117.47 558.91 117.82V122.33C558.91 122.68 558.61 122.91 558.16 122.91H550.02C549.57 122.91 549.27 122.68 549.27 122.33Z" fill="#F057EA"/>
</svg>
