<svg width="1200" height="822" viewBox="0 0 1200 822" fill="none" xmlns="http://www.w3.org/2000/svg">
<path d="M24.7696 584.137V574.457C24.7696 573.886 24.8705 573.415 25.3914 572.928L41.5404 556.796C41.7421 556.561 41.8597 556.393 41.8597 556.225C41.8597 555.737 41.1371 555.418 39.7759 555.418H26.5341C25.5931 555.418 24.9713 554.931 24.9713 554.208V547.52C24.9713 546.797 25.5931 546.31 26.5341 546.31H60.3109C61.2519 546.31 61.8737 546.797 61.8737 547.52V553.485C61.8737 554.057 61.672 554.527 61.2519 555.015L44.6828 571.315C44.4812 571.55 44.3635 571.802 44.3635 571.953C44.3635 572.441 45.0861 572.76 46.3464 572.76H60.1092C61.0503 572.76 61.672 573.247 61.672 573.97V601.563C61.672 602.285 61.0503 602.773 60.1092 602.773H48.8503C27.8953 602.773 24.7696 592.774 24.7696 584.137Z" fill="#DA544A"/>
<path d="M66.6629 585.263C66.6629 575.751 72.8133 555.334 91.6846 555.334C105.649 555.334 108.775 561.064 108.775 570.256C108.775 571.063 108.153 571.466 107.212 571.466H87.3995C86.4585 571.466 85.7359 571.785 85.7359 572.508C85.7359 576.306 91.0461 577.751 107.414 577.751C108.455 577.751 109.077 578.238 109.077 578.961V601.546C109.077 602.269 108.455 602.756 107.514 602.756H94.7934C78.5268 602.756 66.6461 598.488 66.6461 585.246L66.6629 585.263ZM95.0119 564.291C94.491 563.249 93.5499 562.509 91.9871 562.509C90.105 562.509 88.8615 563.148 87.9205 564.207C87.7188 564.442 87.6012 564.694 87.6012 564.845C87.6012 565.333 88.1221 565.652 88.9623 565.652H93.7516C94.7934 565.652 95.4152 565.081 94.9951 564.274L95.0119 564.291Z" fill="#DA544A"/>
<path d="M114.085 601.563V547.52C114.085 546.797 114.707 546.31 115.648 546.31H131.797C132.738 546.31 133.359 546.797 133.359 547.52V554.611C133.359 555.334 133.88 555.737 134.821 555.821C149.727 556.947 158.062 565.501 158.062 579.7C158.062 595.664 149.727 602.773 130.956 602.773H115.631C114.69 602.773 114.068 602.285 114.068 601.563H114.085ZM141.93 569.382C141.93 564.778 137.443 562.526 134.939 562.526C133.998 562.526 133.376 562.845 133.376 563.501V576.171C133.376 577.213 134.099 577.617 135.359 577.617C140.367 577.617 141.93 573.18 141.93 569.382Z" fill="#DA544A"/>
<path d="M162.246 556.88C162.246 556.157 162.868 555.67 163.809 555.67H172.665C173.606 555.67 174.228 556.157 174.228 556.88V560.997C174.228 558.342 180.378 555.67 190.074 555.67C191.116 555.67 191.738 556.073 191.738 556.88V564.223C191.738 564.946 191.318 565.517 190.377 565.517C183.605 565.517 180.899 568.425 180.899 573.987V601.58C180.899 602.302 180.277 602.789 179.336 602.789H163.809C162.868 602.789 162.246 602.302 162.246 601.58V556.88Z" fill="#DA544A"/>
<path d="M210.912 555.502C215.818 555.502 217.062 557.115 217.062 558.09C217.062 557.115 217.482 555.67 219.247 555.67H233.95C235.312 555.67 236.236 556.157 236.236 556.88V601.563C236.236 602.285 235.295 602.773 233.95 602.773H221.448C219.986 602.773 219.045 602.285 219.045 601.563V600.118C218.003 601.412 215.6 602.773 211.533 602.773C202.459 602.773 192.36 598.336 192.36 579.868C192.36 569.466 197.787 555.502 210.912 555.502ZM217.062 563.484C217.062 562.913 216.541 562.593 215.6 562.593C213.315 562.593 208.408 566.055 208.408 570.34C208.408 575.987 211.533 577.768 214.978 577.768C216.44 577.768 217.062 577.28 217.062 576.323V563.484Z" fill="#DA544A"/>
<path d="M241.983 601.563V578.81C241.983 578.087 242.605 577.6 243.546 577.6C250.738 577.6 254.183 577.196 254.183 576.155C254.183 575.432 252.418 574.373 249.074 572.928C243.445 570.508 241.042 568.257 241.042 564.694C241.042 560.661 245.31 555.25 260.955 555.25C275.659 555.25 281.288 559.854 281.809 568.643C281.809 569.282 281.187 569.685 280.246 569.685H269.609C268.668 569.685 268.046 569.282 268.046 568.643C268.046 565.652 267.425 562.106 262.098 562.106C257.51 562.106 256.788 564.761 256.788 566.055C256.788 573.399 284.616 571.063 284.616 589.044C284.616 595.984 279.087 602.756 258.149 602.756H243.562C242.621 602.756 242 602.269 242 601.546L241.983 601.563Z" fill="#DA544A"/>
<path d="M397.608 580.339C397.608 568.004 400.414 545.89 422.63 545.89C429.503 545.89 439.72 548.545 439.72 562.19V562.274C439.72 562.997 439.098 563.484 438.157 563.484H428.158C427.217 563.484 426.596 562.997 426.596 562.274C426.596 556.46 425.655 554.527 422.949 554.527C419.101 554.527 415.757 558.728 415.757 565.013C415.757 570.424 417.841 572.76 421.706 572.76C423.789 572.76 426.075 572.122 426.075 568.962V568.878C426.075 568.156 426.697 567.668 427.638 567.668H438.476C439.417 567.668 440.039 568.156 440.039 568.878V601.546C440.039 602.269 439.199 602.756 437.636 602.756H425.755C409.489 602.756 397.608 601.059 397.608 580.322V580.339Z" fill="#DA544A"/>
<path d="M463.481 555.502C468.388 555.502 469.632 557.115 469.632 558.09C469.632 557.115 470.052 555.67 471.816 555.67H486.52C487.881 555.67 488.805 556.157 488.805 556.88V601.563C488.805 602.285 487.864 602.773 486.52 602.773H474.018C472.556 602.773 471.615 602.285 471.615 601.563V600.118C470.573 601.412 468.17 602.773 464.103 602.773C455.029 602.773 444.929 598.336 444.929 579.868C444.929 569.466 450.357 555.502 463.481 555.502ZM469.632 563.484C469.632 562.913 469.111 562.593 468.17 562.593C465.884 562.593 460.977 566.055 460.977 570.34C460.977 575.987 464.103 577.768 467.548 577.768C469.01 577.768 469.632 577.28 469.632 576.323V563.484Z" fill="#DA544A"/>
<path d="M492.771 587.85C492.771 575.348 496.939 555.67 515.81 555.67C534.681 555.67 538.63 575.348 538.63 587.85C538.63 594.942 535.085 603.411 515.81 603.411C496.536 603.411 492.771 594.942 492.771 587.85ZM521.339 573.079C521.339 568.156 518.835 562.677 516.029 562.677C512.382 562.677 510.197 567.601 510.197 573.079C510.197 575.818 512.483 577.6 516.029 577.6C519.154 577.6 521.339 575.751 521.339 573.079Z" fill="#DA544A"/>
<path d="M542.596 601.563V547.436C542.596 546.713 543.218 546.226 544.159 546.226H559.787C560.728 546.226 561.35 546.713 561.35 547.436V601.563C561.35 602.285 560.728 602.773 559.787 602.773H544.159C543.218 602.773 542.596 602.285 542.596 601.563Z" fill="#DA544A"/>
<path d="M566.358 547.52C566.358 546.797 566.979 546.31 567.92 546.31H584.069C585.01 546.31 585.632 546.797 585.632 547.52V555.754C587.195 555.519 588.237 555.351 590.421 555.351C603.445 555.351 610.436 561.232 610.436 573.752V601.58C610.436 602.302 609.814 602.789 608.873 602.789H593.766C592.825 602.789 592.203 602.302 592.203 601.58V581.498C592.203 576.659 591.262 575.365 588.136 575.365C586.372 575.365 585.632 575.768 585.632 576.81V601.58C585.632 602.302 585.01 602.789 584.069 602.789H567.92C566.979 602.789 566.358 602.302 566.358 601.58V547.52Z" fill="#DA544A"/>
<path d="M633.273 555.502C638.18 555.502 639.423 557.115 639.423 558.09C639.423 557.115 639.843 555.67 641.608 555.67H656.311C657.673 555.67 658.597 556.157 658.597 556.88V601.563C658.597 602.285 657.656 602.773 656.311 602.773H643.809C642.347 602.773 641.406 602.285 641.406 601.563V600.118C640.364 601.412 637.961 602.773 633.894 602.773C624.82 602.773 614.721 598.336 614.721 579.868C614.721 569.466 620.148 555.502 633.273 555.502ZM639.423 563.484C639.423 562.913 638.902 562.593 637.961 562.593C635.676 562.593 630.769 566.055 630.769 570.34C630.769 575.987 633.894 577.768 637.339 577.768C638.801 577.768 639.423 577.28 639.423 576.323V563.484Z" fill="#DA544A"/>
<path d="M664.327 601.563V578.81C664.327 578.087 664.949 577.6 665.89 577.6C673.082 577.6 676.527 577.196 676.527 576.155C676.527 575.432 674.763 574.373 671.419 572.928C665.789 570.508 663.386 568.257 663.386 564.694C663.386 560.661 667.654 555.25 683.299 555.25C698.003 555.25 703.633 559.854 704.153 568.643C704.153 569.282 703.532 569.685 702.591 569.685H691.954C691.012 569.685 690.391 569.282 690.391 568.643C690.391 565.652 689.769 562.106 684.442 562.106C679.854 562.106 679.132 564.761 679.132 566.055C679.132 573.399 706.96 571.063 706.96 589.044C706.96 595.984 701.431 602.756 680.493 602.756H665.907C664.966 602.756 664.344 602.269 664.344 601.546L664.327 601.563Z" fill="#DA544A"/>
<path d="M820.07 579.7C820.07 565.501 828.405 556.947 843.31 555.821C844.251 555.737 844.772 555.334 844.772 554.611V547.52C844.772 546.797 845.394 546.31 846.335 546.31H862.484C863.425 546.31 864.047 546.797 864.047 547.52V601.563C864.047 602.285 863.425 602.773 862.484 602.773H847.159C828.388 602.773 820.053 595.681 820.053 579.7H820.07ZM844.772 576.155V563.484C844.772 562.913 844.252 562.593 843.411 562.593C841.008 562.593 836.219 565.097 836.219 569.366C836.219 573.634 838.723 577.6 842.789 577.6C844.151 577.6 844.772 577.112 844.772 576.155Z" fill="#DA544A"/>
<path d="M868.215 585.263C868.215 575.751 874.365 555.334 893.236 555.334C907.201 555.334 910.326 561.064 910.326 570.256C910.326 571.063 909.705 571.466 908.764 571.466H888.951C888.01 571.466 887.287 571.785 887.287 572.508C887.287 576.306 892.598 577.751 908.965 577.751C910.007 577.751 910.629 578.238 910.629 578.961V601.546C910.629 602.269 910.007 602.756 909.066 602.756H896.345C880.078 602.756 868.198 598.488 868.198 585.246L868.215 585.263ZM896.564 564.291C896.043 563.249 895.101 562.509 893.539 562.509C891.657 562.509 890.413 563.148 889.472 564.207C889.27 564.442 889.153 564.694 889.153 564.845C889.153 565.333 889.674 565.652 890.514 565.652H895.303C896.345 565.652 896.967 565.081 896.547 564.274L896.564 564.291Z" fill="#DA544A"/>
<path d="M1026.14 592.371V568.492C1026.14 567.769 1026.76 567.282 1027.7 567.282H1032.71C1033.65 567.282 1034.28 567.769 1034.28 568.492C1034.28 571.718 1034.59 574.054 1038.34 574.054C1042.31 574.054 1042.41 571.634 1042.41 567.433V547.503C1042.41 546.781 1043.03 546.293 1043.97 546.293H1060.24C1061.18 546.293 1061.8 546.781 1061.8 547.503V590.505C1061.8 598.74 1055.45 603.327 1043.97 603.327C1032.49 603.327 1026.14 599.059 1026.14 592.354V592.371Z" fill="#DA544A"/>
<path d="M1085.24 555.502C1090.15 555.502 1091.39 557.115 1091.39 558.09C1091.39 557.115 1091.81 555.67 1093.58 555.67H1108.28C1109.64 555.67 1110.57 556.157 1110.57 556.88V601.563C1110.57 602.285 1109.63 602.773 1108.28 602.773H1095.78C1094.32 602.773 1093.38 602.285 1093.38 601.563V600.118C1092.33 601.412 1089.93 602.773 1085.86 602.773C1076.79 602.773 1066.69 598.336 1066.69 579.868C1066.69 569.466 1072.12 555.502 1085.24 555.502ZM1091.39 563.484C1091.39 562.913 1090.87 562.593 1089.93 562.593C1087.65 562.593 1082.74 566.055 1082.74 570.34C1082.74 575.987 1085.86 577.768 1089.31 577.768C1090.77 577.768 1091.39 577.28 1091.39 576.323V563.484Z" fill="#DA544A"/>
<path d="M1126.11 601.731L1113.91 557.048V556.729C1113.91 556.09 1114.43 555.687 1115.37 555.687H1128.09C1128.93 555.687 1129.56 556.09 1129.76 556.729L1135.81 577.465C1135.91 577.785 1136.65 577.785 1136.75 577.465L1142.8 556.729C1143 556.09 1143.52 555.687 1144.46 555.687H1157.18C1158.12 555.687 1158.64 556.258 1158.43 557.065L1144.88 601.748C1144.68 602.386 1144.16 602.789 1143.22 602.789H1127.79C1126.85 602.789 1126.33 602.386 1126.13 601.748L1126.11 601.731Z" fill="#DA544A"/>
<path d="M1174.68 555.502C1179.58 555.502 1180.83 557.115 1180.83 558.09C1180.83 557.115 1181.25 555.67 1183.01 555.67H1197.71C1199.08 555.67 1200 556.157 1200 556.88V601.563C1200 602.285 1199.06 602.773 1197.71 602.773H1185.21C1183.75 602.773 1182.81 602.285 1182.81 601.563V600.118C1181.77 601.412 1179.36 602.773 1175.3 602.773C1166.22 602.773 1156.12 598.336 1156.12 579.868C1156.12 569.466 1161.55 555.502 1174.68 555.502ZM1180.83 563.484C1180.83 562.913 1180.31 562.593 1179.36 562.593C1177.08 562.593 1172.17 566.055 1172.17 570.34C1172.17 575.987 1175.3 577.768 1178.74 577.768C1180.2 577.768 1180.83 577.28 1180.83 576.323V563.484Z" fill="#DA544A"/>
<path d="M72.931 705.212C72.931 708.926 66.6797 713.682 58.2271 713.682C48.3294 713.682 42.179 708.926 41.2379 704.237C26.2316 702.137 23.2068 693.18 23.2068 685.601C23.2068 670.511 27.7944 647.775 48.2285 647.775C68.6627 647.775 73.1326 670.528 73.1326 685.601C73.1326 693.18 70.2087 702.305 55.0007 704.322C55.8409 705.615 57.4037 706.506 59.3698 706.506C65.1001 706.506 66.6629 702.876 69.6877 702.876C71.5698 702.876 72.9142 703.851 72.9142 705.212H72.931ZM41.9605 666.73C41.9605 670.041 44.5652 672.208 48.531 672.208C51.7575 672.208 54.1605 670.024 54.1605 666.73C54.1605 660.513 51.6566 655.841 48.531 655.841C44.5652 655.841 41.9605 660.361 41.9605 666.73Z" fill="#DA544A"/>
<path d="M77.1993 689.08V658.345C77.1993 657.622 77.7202 657.135 78.6613 657.135H92.945C93.7852 657.135 94.4069 657.622 94.4069 658.345V673.754C94.4069 677.3 94.4069 679.165 98.1543 679.165C101.902 679.165 102.003 677.317 102.003 673.754V658.345C102.003 657.622 102.624 657.135 103.465 657.135H117.748C118.588 657.135 119.21 657.622 119.21 658.345V703.028C119.21 703.75 118.588 704.237 117.748 704.237H113.06C112.119 704.237 111.598 703.75 111.598 703.028V702.305C108.472 703.683 104.204 704.557 98.356 704.557C80.1232 704.557 77.1993 696.255 77.1993 689.063V689.08Z" fill="#DA544A"/>
<path d="M123.361 686.744C123.361 677.233 129.511 656.816 148.383 656.816C162.347 656.816 165.473 662.546 165.473 671.738C165.473 672.544 164.851 672.948 163.91 672.948H144.097C143.156 672.948 142.434 673.267 142.434 673.99C142.434 677.787 147.744 679.233 164.111 679.233C165.153 679.233 165.775 679.72 165.775 680.443V703.028C165.775 703.75 165.153 704.237 164.212 704.237H151.491C135.225 704.237 123.344 699.969 123.344 686.727L123.361 686.744ZM151.727 665.755C151.206 664.714 150.265 663.974 148.702 663.974C146.82 663.974 145.576 664.613 144.635 665.671C144.434 665.907 144.316 666.159 144.316 666.31C144.316 666.797 144.837 667.117 145.677 667.117H150.466C151.508 667.117 152.13 666.545 151.71 665.739L151.727 665.755Z" fill="#DA544A"/>
<path d="M170.783 658.345C170.783 657.622 171.405 657.135 172.346 657.135H181.201C182.143 657.135 182.764 657.622 182.764 658.345V662.462C182.764 659.807 188.915 657.135 198.611 657.135C199.653 657.135 200.274 657.538 200.274 658.345V665.688C200.274 666.411 199.854 666.982 198.913 666.982C192.141 666.982 189.436 669.889 189.436 675.452V703.044C189.436 703.767 188.814 704.254 187.873 704.254H172.346C171.405 704.254 170.783 703.767 170.783 703.044V658.345Z" fill="#DA544A"/>
<path d="M197.787 686.744C197.787 677.233 203.938 656.816 222.809 656.816C236.774 656.816 239.899 662.546 239.899 671.738C239.899 672.544 239.277 672.948 238.336 672.948H218.524C217.583 672.948 216.86 673.267 216.86 673.99C216.86 677.787 222.171 679.233 238.538 679.233C239.58 679.233 240.202 679.72 240.202 680.443V703.028C240.202 703.75 239.58 704.237 238.639 704.237H225.918C209.651 704.237 197.771 699.969 197.771 686.727L197.787 686.744ZM226.136 665.755C225.615 664.714 224.674 663.974 223.112 663.974C221.229 663.974 219.986 664.613 219.045 665.671C218.843 665.907 218.726 666.159 218.726 666.31C218.726 666.797 219.247 667.117 220.087 667.117H224.876C225.918 667.117 226.54 666.545 226.12 665.739L226.136 665.755Z" fill="#DA544A"/>
<path d="M245.109 703.028V658.345C245.109 657.622 245.629 657.135 246.57 657.135H254.183C255.023 657.135 255.645 657.622 255.645 658.345V662.697C255.645 662.697 258.972 656.816 268.265 656.816C272.953 656.816 277.642 657.941 280.767 660.21C283.053 658.109 286.598 656.816 292.228 656.816C304.008 656.816 310.982 662.697 310.982 675.2V703.028C310.982 703.75 310.461 704.237 309.52 704.237H295.236C294.295 704.237 293.774 703.75 293.774 703.028V682.946C293.774 678.107 292.833 676.006 289.926 676.006C287.019 676.006 286.078 678.107 286.078 682.946V703.028C286.078 703.75 285.557 704.237 284.616 704.237H271.374C270.534 704.237 269.912 703.75 269.912 703.028V682.946C269.912 678.107 269.072 676.006 266.164 676.006C263.257 676.006 262.316 678.107 262.316 682.946V703.028C262.316 703.75 261.694 704.237 260.854 704.237H246.57C245.629 704.237 245.109 703.75 245.109 703.028Z" fill="#DA544A"/>
<path d="M459.163 703.028V648.985C459.163 648.262 459.784 647.775 460.725 647.775H480.017C480.958 647.775 481.479 648.178 481.68 648.817L488.671 669.553C488.873 670.125 489.293 670.444 489.612 670.444C490.032 670.444 490.335 670.125 490.553 669.553L497.846 648.817C498.048 648.178 498.569 647.775 499.51 647.775H518.902C519.843 647.775 520.465 648.262 520.465 648.985V703.028C520.465 703.75 519.843 704.237 518.902 704.237H505.139C504.198 704.237 503.577 703.75 503.577 703.028V679.787C503.577 679.3 503.156 678.98 502.736 678.98C502.417 678.98 502.014 679.216 501.896 679.619L493.662 703.179C493.46 703.817 492.939 704.221 491.998 704.221H484.705C483.764 704.221 483.243 703.817 483.042 703.179L474.908 679.703C474.807 679.3 474.387 679.065 474.068 679.065C473.648 679.065 473.228 679.384 473.228 679.871V703.028C473.228 703.75 472.606 704.237 471.665 704.237H460.725C459.784 704.237 459.163 703.75 459.163 703.028Z" fill="#DA544A"/>
<path d="M543.907 656.967C548.814 656.967 550.057 658.58 550.057 659.555C550.057 658.58 550.478 657.135 552.242 657.135H566.946C568.307 657.135 569.231 657.622 569.231 658.345V703.028C569.231 703.75 568.29 704.237 566.946 704.237H554.443C552.981 704.237 552.04 703.75 552.04 703.028V701.582C550.998 702.876 548.595 704.237 544.529 704.237C535.454 704.237 525.355 699.801 525.355 681.333C525.355 670.931 530.783 656.967 543.907 656.967ZM550.057 664.966C550.057 664.394 549.536 664.075 548.595 664.075C546.31 664.075 541.403 667.537 541.403 671.822C541.403 677.468 544.529 679.249 547.974 679.249C549.436 679.249 550.057 678.762 550.057 677.804V664.966Z" fill="#DA544A"/>
<path d="M574.239 703.028V658.345C574.239 657.622 574.861 657.135 575.802 657.135H583.935C584.876 657.135 585.498 657.622 585.498 658.345V663.504C585.498 661.252 591.026 657.051 598.941 657.051C610.822 657.051 618.955 662.865 618.955 675.2V703.028C618.955 703.75 618.334 704.237 617.393 704.237H602.285C601.344 704.237 600.723 703.75 600.723 703.028V682.946C600.723 678.107 599.782 676.006 596.656 676.006C593.53 676.006 592.589 678.107 592.589 682.946V703.028C592.589 703.75 591.968 704.237 591.026 704.237H575.802C574.861 704.237 574.239 703.75 574.239 703.028Z" fill="#DA544A"/>
<path d="M623.123 681.165C623.123 666.965 631.458 658.412 646.363 657.286C647.304 657.202 647.825 656.799 647.825 656.076V648.985C647.825 648.262 648.447 647.775 649.388 647.775H665.537C666.478 647.775 667.1 648.262 667.1 648.985V703.028C667.1 703.75 666.478 704.237 665.537 704.237H650.211C631.441 704.237 623.106 697.146 623.106 681.165H623.123ZM647.825 677.619V664.949C647.825 664.378 647.304 664.058 646.464 664.058C644.061 664.058 639.272 666.562 639.272 670.83C639.272 675.099 641.776 679.065 645.842 679.065C647.203 679.065 647.825 678.577 647.825 677.619Z" fill="#DA544A"/>
<path d="M689.937 656.967C694.844 656.967 696.087 658.58 696.087 659.555C696.087 658.58 696.507 657.135 698.272 657.135H712.976C714.337 657.135 715.261 657.622 715.261 658.345V703.028C715.261 703.75 714.32 704.237 712.976 704.237H700.473C699.011 704.237 698.07 703.75 698.07 703.028V701.582C697.028 702.876 694.625 704.237 690.559 704.237C681.484 704.237 671.385 699.801 671.385 681.333C671.385 670.931 676.813 656.967 689.937 656.967ZM696.071 664.966C696.071 664.394 695.55 664.075 694.609 664.075C692.323 664.075 687.416 667.537 687.416 671.822C687.416 677.468 690.542 679.249 693.987 679.249C695.449 679.249 696.071 678.762 696.071 677.804V664.966Z" fill="#DA544A"/>
<path d="M720.252 658.345C720.252 657.622 720.874 657.135 721.815 657.135H730.671C731.612 657.135 732.234 657.622 732.234 658.345V662.462C732.234 659.807 738.384 657.135 748.08 657.135C749.122 657.135 749.744 657.538 749.744 658.345V665.688C749.744 666.411 749.324 666.982 748.383 666.982C741.61 666.982 738.905 669.889 738.905 675.452V703.044C738.905 703.767 738.283 704.254 737.342 704.254H721.815C720.874 704.254 720.252 703.767 720.252 703.044V658.345Z" fill="#DA544A"/>
<path d="M826.304 703.028V648.985C826.304 648.262 827.245 647.775 828.707 647.775H856.956C858.418 647.775 859.359 648.262 859.359 648.985V654.866C859.359 655.589 858.418 656.076 856.956 656.076H848.52C847.159 656.076 846.234 656.564 846.234 657.286V660.681C846.234 661.403 847.175 661.89 848.52 661.89H854.67C856.031 661.89 856.956 662.378 856.956 663.1V668.982C856.956 669.705 856.015 670.192 854.67 670.192H848.52C847.159 670.192 846.234 670.679 846.234 671.402V703.028C846.234 703.75 845.293 704.237 843.831 704.237H828.724C827.262 704.237 826.321 703.75 826.321 703.028H826.304Z" fill="#DA544A"/>
<path d="M876.432 656.967C881.339 656.967 882.582 658.58 882.582 659.555C882.582 658.58 883.002 657.135 884.767 657.135H899.471C900.832 657.135 901.756 657.622 901.756 658.345V703.028C901.756 703.75 900.815 704.237 899.471 704.237H886.968C885.506 704.237 884.565 703.75 884.565 703.028V701.582C883.523 702.876 881.12 704.237 877.054 704.237C867.979 704.237 857.88 699.801 857.88 681.333C857.88 670.931 863.308 656.967 876.432 656.967ZM882.582 664.966C882.582 664.394 882.061 664.075 881.12 664.075C878.835 664.075 873.928 667.537 873.928 671.822C873.928 677.468 877.054 679.249 880.499 679.249C881.961 679.249 882.582 678.762 882.582 677.804V664.966Z" fill="#DA544A"/>
<path d="M905.403 702.792L916.561 680.039C916.661 679.804 916.762 679.552 916.762 679.401C916.762 679.165 916.661 678.997 916.561 678.762L906.663 658.513C906.562 658.278 906.461 658.109 906.461 657.941C906.461 657.454 906.982 657.135 907.705 657.135H922.812C923.535 657.135 924.274 657.454 924.576 658.109L930.307 671.587C930.508 671.906 930.828 672.074 931.248 672.074C931.567 672.074 931.97 671.906 932.088 671.587L938.759 658.109C939.079 657.471 939.599 657.135 940.423 657.135H955.009C955.732 657.135 956.253 657.454 956.253 657.941C956.253 658.109 956.152 658.345 956.051 658.58L944.792 678.661C944.691 678.896 944.59 679.065 944.59 679.3C944.59 679.535 944.691 679.787 944.792 680.022L956.572 702.86C956.673 703.095 956.774 703.263 956.774 703.431C956.774 703.918 956.253 704.237 955.412 704.237H939.146C938.306 704.237 937.684 703.918 937.381 703.263L931.651 690.928C931.55 690.609 931.13 690.441 930.811 690.441C930.391 690.441 930.088 690.609 929.87 690.928L924.139 703.263C923.82 703.901 923.098 704.237 922.375 704.237H906.528C905.386 704.237 904.966 703.599 905.386 702.792H905.403Z" fill="#DA544A"/>
<path d="M1032.29 703.028V648.985C1032.29 648.262 1032.91 647.775 1033.86 647.775H1052.63C1067.11 647.775 1077.75 653.186 1077.75 662.865C1077.75 675.536 1064.51 680.779 1054.29 680.779C1052.73 680.779 1052 681.266 1052 681.988V703.044C1052 703.767 1051.38 704.254 1050.44 704.254H1033.87C1032.93 704.254 1032.31 703.767 1032.31 703.044L1032.29 703.028ZM1052.93 670.595C1055.33 670.595 1061.36 668.343 1061.36 662.932C1061.36 658.58 1055.84 655.908 1053.23 655.908C1052.51 655.908 1051.99 656.143 1051.99 656.631V670.175C1051.99 670.41 1052.41 670.578 1052.93 670.578V670.595Z" fill="#DA544A"/>
<path d="M1095.66 656.967C1100.57 656.967 1101.81 658.58 1101.81 659.555C1101.81 658.58 1102.23 657.135 1104 657.135H1118.7C1120.06 657.135 1120.99 657.622 1120.99 658.345V703.028C1120.99 703.75 1120.04 704.237 1118.7 704.237H1106.2C1104.74 704.237 1103.8 703.75 1103.8 703.028V701.582C1102.75 702.876 1100.35 704.237 1096.28 704.237C1087.21 704.237 1077.11 699.801 1077.11 681.333C1077.11 670.931 1082.54 656.967 1095.66 656.967ZM1101.81 664.966C1101.81 664.394 1101.29 664.075 1100.35 664.075C1098.06 664.075 1093.16 667.537 1093.16 671.822C1093.16 677.468 1096.28 679.249 1099.73 679.249C1101.19 679.249 1101.81 678.762 1101.81 677.804V664.966Z" fill="#DA544A"/>
<path d="M1125.99 658.345C1125.99 657.622 1126.62 657.135 1127.56 657.135H1136.41C1137.35 657.135 1137.98 657.622 1137.98 658.345V662.462C1137.98 659.807 1144.13 657.135 1153.82 657.135C1154.86 657.135 1155.49 657.538 1155.49 658.345V665.688C1155.49 666.411 1155.07 666.982 1154.12 666.982C1147.35 666.982 1144.65 669.889 1144.65 675.452V703.044C1144.65 703.767 1144.02 704.254 1143.08 704.254H1127.56C1126.62 704.254 1125.99 703.767 1125.99 703.044V658.345Z" fill="#DA544A"/>
<path d="M1174.68 656.967C1179.58 656.967 1180.83 658.58 1180.83 659.555C1180.83 658.58 1181.25 657.135 1183.01 657.135H1197.71C1199.08 657.135 1200 657.622 1200 658.345V703.028C1200 703.75 1199.06 704.237 1197.71 704.237H1185.21C1183.75 704.237 1182.81 703.75 1182.81 703.028V701.582C1181.77 702.876 1179.36 704.237 1175.3 704.237C1166.22 704.237 1156.12 699.801 1156.12 681.333C1156.12 670.931 1161.55 656.967 1174.68 656.967ZM1180.83 664.966C1180.83 664.394 1180.31 664.075 1179.36 664.075C1177.08 664.075 1172.17 667.537 1172.17 671.822C1172.17 677.468 1175.3 679.249 1178.74 679.249C1180.2 679.249 1180.83 678.762 1180.83 677.804V664.966Z" fill="#DA544A"/>
<path d="M89.332 804.492V750.449C89.332 749.727 89.9538 749.24 90.8948 749.24H110.186C111.127 749.24 111.648 749.643 111.85 750.281L118.84 771.018C119.042 771.589 119.462 771.909 119.782 771.909C120.202 771.909 120.504 771.589 120.723 771.018L128.016 750.281C128.217 749.643 128.738 749.24 129.679 749.24H149.072C150.013 749.24 150.634 749.727 150.634 750.449V804.492C150.634 805.215 150.013 805.702 149.072 805.702H135.309C134.368 805.702 133.746 805.215 133.746 804.492V781.252C133.746 780.765 133.326 780.445 132.906 780.445C132.586 780.445 132.183 780.681 132.066 781.084L123.831 804.644C123.63 805.282 123.109 805.685 122.168 805.685H114.875C113.934 805.685 113.413 805.282 113.211 804.644L105.078 781.168C104.977 780.765 104.557 780.529 104.238 780.529C103.817 780.529 103.397 780.849 103.397 781.336V804.492C103.397 805.215 102.776 805.702 101.834 805.702H90.8948C89.9538 805.702 89.332 805.215 89.332 804.492Z" fill="#DA544A"/>
<path d="M155.205 790.78C155.205 778.277 159.373 758.6 178.244 758.6C197.115 758.6 201.064 778.277 201.064 790.78C201.064 797.871 197.519 806.341 178.244 806.341C158.969 806.341 155.205 797.871 155.205 790.78ZM183.756 776.026C183.756 771.102 181.252 765.624 178.446 765.624C174.799 765.624 172.614 770.547 172.614 776.026C172.614 778.765 174.9 780.546 178.446 780.546C181.571 780.546 183.756 778.698 183.756 776.026Z" fill="#DA544A"/>
<path d="M246.705 781.907V804.492C246.705 805.215 246.083 805.702 245.142 805.702H234.202C235.564 806.593 236.085 808.038 236.085 809.567C236.085 810.777 235.765 811.987 235.362 813.113C234.522 815.129 230.774 818.121 223.901 818.121H219.835C219.415 818.121 219.213 817.953 219.213 817.717C220.356 814.659 221.616 812.071 221.918 811.264C221.918 811.096 222.238 811.029 222.641 811.029C228.59 811.029 230.035 810.458 230.455 809.181C230.657 808.861 230.774 808.458 230.774 808.055C230.774 807.416 230.354 806.761 229.212 806.761C227.968 806.761 227.548 808.055 227.329 808.946C227.229 809.114 226.909 809.265 226.388 809.265H223.582C223.162 809.265 222.86 809.097 222.96 808.946C223.582 807.416 224.422 806.206 225.985 805.484C211.5 804.509 204.308 799.754 204.308 788.226C204.308 770.716 214.625 758.465 229.329 758.465C239.849 758.465 246.419 764.195 246.419 773.219C246.419 774.026 245.797 774.429 244.856 774.429H234.74C233.698 774.429 233.278 773.942 233.278 773.135C233.278 767.573 232.438 765.473 229.632 765.473C225.884 765.473 223.28 769.186 223.28 774.261C223.28 779.336 226.825 780.714 245.058 780.714C246.1 780.714 246.722 781.201 246.722 781.924L246.705 781.907Z" fill="#DA544A"/>
<path d="M269.542 758.432C274.449 758.432 275.692 760.045 275.692 761.019C275.692 760.045 276.113 758.6 277.877 758.6H292.581C293.942 758.6 294.866 759.087 294.866 759.81V804.492C294.866 805.215 293.925 805.702 292.581 805.702H280.078C278.616 805.702 277.675 805.215 277.675 804.492V803.047C276.633 804.341 274.23 805.702 270.164 805.702C261.089 805.702 250.99 801.266 250.99 782.798C250.99 772.396 256.418 758.432 269.542 758.432ZM275.692 766.43C275.692 765.859 275.172 765.54 274.23 765.54C271.945 765.54 267.038 769.002 267.038 773.287C267.038 778.933 270.164 780.714 273.609 780.714C275.071 780.714 275.692 780.227 275.692 779.269V766.43Z" fill="#DA544A"/>
<path d="M321.131 781.588C321.131 765.288 327.383 748.836 348.018 748.836C361.68 748.836 368.654 755.861 368.654 762.313C368.654 763.523 367.713 763.523 366.369 763.523H357.614C356.152 763.523 355.211 763.523 355.211 762.313C355.211 759.255 352.085 757.474 348.338 757.474C341.347 757.474 339.784 763.927 339.784 768.598C339.784 776.093 343.229 778.362 348.64 778.362C351.346 778.362 355.412 778.126 355.412 774.413C355.412 773.69 354.471 773.203 353.009 773.203H348.22C346.758 773.203 346.657 773.035 346.657 771.993V768.044C346.657 767.321 347.598 766.834 348.943 766.834H367.075C368.537 766.834 369.478 767.321 369.478 768.044V804.509C369.478 805.232 368.537 805.719 367.075 805.719H361.764C360.403 805.719 359.479 805.232 359.479 804.509V803.938C359.479 802.325 355.412 805.87 343.851 805.87C327.383 805.87 321.131 798.611 321.131 781.588Z" fill="#DA544A"/>
<path d="M375.124 754.802V750.449C375.124 749.727 375.746 749.24 376.687 749.24H391.794C392.735 749.24 393.357 749.727 393.357 750.449V754.802C393.357 755.524 392.735 756.012 391.794 756.012H376.687C375.746 756.012 375.124 755.524 375.124 754.802ZM375.124 804.492V759.81C375.124 759.087 375.746 758.6 376.687 758.6H391.794C392.735 758.6 393.357 759.087 393.357 759.81V804.492C393.357 805.215 392.735 805.702 391.794 805.702H376.687C375.746 805.702 375.124 805.215 375.124 804.492Z" fill="#DA544A"/>
<path d="M404.817 810.475C404.817 809.752 405.439 809.265 406.38 809.265C416.379 809.349 423.789 808.693 423.789 807.332C423.789 806.929 423.067 806.358 421.386 805.803C420.765 805.568 420.244 805.484 419.403 805.484C404.918 805.164 397.625 800.157 397.625 790.797C397.625 771.035 407.002 758.616 421.185 758.616H441.4C442.341 758.616 442.862 759.104 442.862 759.826V768.531C442.862 769.102 442.022 769.741 440.779 769.506H440.459C440.039 769.506 439.838 769.674 439.838 770.077C439.838 770.245 439.838 770.564 440.039 770.884C442.963 776.295 444.526 782.579 444.526 790.814C444.526 797.35 440.879 801.703 433.99 803.887C433.368 804.055 433.049 804.291 433.049 804.526C433.049 804.761 433.368 805.013 433.889 805.165C438.997 807.013 444.526 809.92 444.526 814.037C444.526 819.196 436.393 821.868 420.765 821.868H406.38C405.439 821.868 404.817 821.381 404.817 820.658V810.475ZM426.915 776.026C426.915 771.102 424.411 765.624 421.286 765.624C417.841 765.624 415.454 770.547 415.454 776.026C415.454 778.849 417.857 780.546 421.605 780.546C424.831 780.546 426.915 778.849 426.915 776.026Z" fill="#DA544A"/>
<path d="M466.624 758.432C471.531 758.432 472.774 760.045 472.774 761.019C472.774 760.045 473.194 758.6 474.959 758.6H489.663C491.024 758.6 491.948 759.087 491.948 759.81V804.492C491.948 805.215 491.007 805.702 489.663 805.702H477.16C475.698 805.702 474.757 805.215 474.757 804.492V803.047C473.715 804.341 471.312 805.702 467.245 805.702C458.171 805.702 448.072 801.266 448.072 782.798C448.072 772.396 453.5 758.432 466.624 758.432ZM472.774 766.43C472.774 765.859 472.253 765.54 471.312 765.54C469.027 765.54 464.12 769.002 464.12 773.287C464.12 778.933 467.245 780.714 470.69 780.714C472.152 780.714 472.774 780.227 472.774 779.269V766.43Z" fill="#DA544A"/>
<path d="M496.956 804.492V759.81C496.956 759.087 497.577 758.6 498.518 758.6H506.652C507.593 758.6 508.215 759.087 508.215 759.81V764.968C508.215 762.717 513.743 758.516 521.658 758.516C533.539 758.516 541.672 764.33 541.672 776.664V804.492C541.672 805.215 541.05 805.702 540.109 805.702H525.002C524.061 805.702 523.439 805.215 523.439 804.492V784.411C523.439 779.571 522.498 777.471 519.373 777.471C516.247 777.471 515.306 779.571 515.306 784.411V804.492C515.306 805.215 514.684 805.702 513.743 805.702H498.518C497.577 805.702 496.956 805.215 496.956 804.492Z" fill="#DA544A"/>
<path d="M547.604 797.082V768.934C547.604 768.212 546.982 767.724 546.041 767.724H543.235C542.294 767.724 541.672 767.237 541.672 766.514V759.826C541.672 759.104 542.294 758.616 543.235 758.616H546.041C546.982 758.616 547.604 758.129 547.604 757.406V750.466C547.604 749.744 548.226 749.256 549.167 749.256H563.871C564.812 749.256 565.433 749.744 565.433 750.466V757.406C565.433 758.129 566.055 758.616 566.996 758.616H575.432C576.373 758.616 576.995 759.104 576.995 759.826V766.514C576.995 767.237 576.373 767.724 575.432 767.724H566.996C566.055 767.724 565.433 768.212 565.433 768.934V776.916C565.433 779.504 568.139 780.546 575.432 780.546C576.373 780.546 576.995 781.033 576.995 781.756V797.569C576.995 803.534 571.265 806.038 561.989 806.038C552.713 806.038 547.604 802.896 547.604 797.082Z" fill="#DA544A"/>
<path d="M581.061 788.209C581.061 778.698 587.212 758.28 606.083 758.28C620.048 758.28 623.173 764.011 623.173 773.203C623.173 774.009 622.551 774.413 621.61 774.413H601.798C600.857 774.413 600.134 774.732 600.134 775.454C600.134 779.252 605.445 780.697 621.812 780.697C622.854 780.697 623.476 781.185 623.476 781.907V804.492C623.476 805.215 622.854 805.702 621.913 805.702H609.192C592.925 805.702 581.045 801.434 581.045 788.192L581.061 788.209ZM609.427 767.237C608.906 766.195 607.965 765.456 606.402 765.456C604.52 765.456 603.277 766.094 602.336 767.153C602.134 767.388 602.017 767.64 602.017 767.792C602.017 768.279 602.537 768.598 603.378 768.598H608.167C609.209 768.598 609.831 768.027 609.41 767.22L609.427 767.237Z" fill="#DA544A"/>
<path d="M651.001 804.492V750.449C651.001 749.727 651.623 749.24 652.564 749.24H668.713C690.29 749.24 695.6 763.927 695.6 778.042C695.6 790.78 693.516 805.719 668.495 805.719H652.547C651.606 805.719 650.984 805.232 650.984 804.509L651.001 804.492ZM679.989 765.624C679.989 760.146 675.2 757.39 672.595 757.39C671.654 757.39 670.931 757.793 670.931 758.6V772.48C670.931 773.774 671.553 774.261 672.914 774.261C677.821 774.177 680.006 769.018 680.006 765.624H679.989Z" fill="#DA544A"/>
<path d="M698.843 788.209C698.843 778.698 704.994 758.28 723.865 758.28C737.829 758.28 740.955 764.011 740.955 773.203C740.955 774.009 740.333 774.413 739.392 774.413H719.58C718.639 774.413 717.916 774.732 717.916 775.454C717.916 779.252 723.226 780.697 739.594 780.697C740.636 780.697 741.258 781.185 741.258 781.907V804.492C741.258 805.215 740.636 805.702 739.695 805.702H726.974C710.707 805.702 698.826 801.434 698.826 788.192L698.843 788.209ZM727.192 767.237C726.671 766.195 725.73 765.456 724.167 765.456C722.285 765.456 721.042 766.094 720.101 767.153C719.899 767.388 719.782 767.64 719.782 767.792C719.782 768.279 720.302 768.598 721.143 768.598H725.932C726.974 768.598 727.596 768.027 727.175 767.22L727.192 767.237Z" fill="#DA544A"/>
<path d="M768.783 804.492V750.449C768.783 749.727 769.405 749.24 770.346 749.24H785.352C786.192 749.24 786.814 749.475 787.117 750.214L797.014 771.354C797.216 771.841 797.636 772.077 797.955 772.077C798.376 772.077 798.796 771.757 798.796 771.102V750.449C798.796 749.727 799.417 749.24 800.358 749.24H811.298C812.239 749.24 812.861 749.727 812.861 750.449V804.492C812.861 805.215 812.239 805.702 811.298 805.702H796.292C795.452 805.702 794.83 805.467 794.527 804.728L784.63 781.571C784.428 781.084 784.008 780.849 783.689 780.849C783.268 780.849 782.848 781.168 782.848 781.739V804.492C782.848 805.215 782.227 805.702 781.286 805.702H770.346C769.405 805.702 768.783 805.215 768.783 804.492Z" fill="#DA544A"/>
<path d="M817.449 790.78C817.449 778.277 821.616 758.6 840.487 758.6C859.359 758.6 863.308 778.277 863.308 790.78C863.308 797.871 859.762 806.341 840.487 806.341C821.213 806.341 817.449 797.871 817.449 790.78ZM846.016 776.026C846.016 771.102 843.512 765.624 840.706 765.624C837.059 765.624 834.875 770.547 834.875 776.026C834.875 778.765 837.16 780.546 840.706 780.546C843.831 780.546 846.016 778.698 846.016 776.026Z" fill="#DA544A"/>
<path d="M873.222 804.66L861.022 759.978V759.658C861.022 759.02 861.543 758.616 862.484 758.616H875.205C876.045 758.616 876.667 759.02 876.869 759.658L882.918 780.395C883.019 780.714 883.759 780.714 883.859 780.395L889.909 759.658C890.111 759.02 890.632 758.616 891.573 758.616H904.293C905.235 758.616 905.755 759.188 905.537 759.994L891.993 804.677C891.791 805.316 891.27 805.719 890.329 805.719H874.903C873.962 805.719 873.441 805.316 873.239 804.677L873.222 804.66Z" fill="#DA544A"/>
<path d="M921.787 758.432C926.694 758.432 927.937 760.045 927.937 761.019C927.937 760.045 928.357 758.6 930.122 758.6H944.826C946.187 758.6 947.111 759.087 947.111 759.81V804.492C947.111 805.215 946.17 805.702 944.826 805.702H932.323C930.861 805.702 929.92 805.215 929.92 804.492V803.047C928.878 804.341 926.475 805.702 922.409 805.702C913.334 805.702 903.235 801.266 903.235 782.798C903.235 772.396 908.663 758.432 921.787 758.432ZM927.937 766.43C927.937 765.859 927.416 765.54 926.475 765.54C924.19 765.54 919.283 769.002 919.283 773.287C919.283 778.933 922.409 780.714 925.854 780.714C927.316 780.714 927.937 780.227 927.937 779.269V766.43Z" fill="#DA544A"/>
<path d="M981.812 804.492V777.874C981.812 777.303 981.812 776.984 981.493 776.429L968.99 750.618C968.889 750.382 968.889 750.214 968.889 750.046C968.889 749.559 969.41 749.24 970.251 749.24H985.778C986.618 749.24 987.24 749.475 987.542 750.214L992.97 762.717C993.289 763.288 993.693 763.523 994.214 763.523C994.735 763.523 995.256 763.288 995.457 762.717L1000.99 750.214C1001.31 749.492 1001.93 749.24 1002.75 749.24H1013.81C1014.95 749.24 1015.47 749.727 1015.05 750.618L1001.51 776.748C1001.31 777.236 1001.09 777.723 1001.09 778.278V804.492C1001.09 805.215 1000.46 805.702 999.524 805.702H983.375C982.434 805.702 981.812 805.215 981.812 804.492Z" fill="#DA544A"/>
<path d="M1007.88 790.78C1007.88 778.277 1012.04 758.6 1030.91 758.6C1049.79 758.6 1053.73 778.277 1053.73 790.78C1053.73 797.871 1050.19 806.341 1030.91 806.341C1011.64 806.341 1007.88 797.871 1007.88 790.78ZM1036.43 776.026C1036.43 771.102 1033.92 765.624 1031.12 765.624C1027.47 765.624 1025.28 770.547 1025.28 776.026C1025.28 778.765 1027.57 780.546 1031.12 780.546C1034.24 780.546 1036.43 778.698 1036.43 776.026Z" fill="#DA544A"/>
<path d="M1057.7 759.81C1057.7 759.087 1058.32 758.6 1059.26 758.6H1068.12C1069.06 758.6 1069.68 759.087 1069.68 759.81V763.927C1069.68 761.272 1075.83 758.6 1085.53 758.6C1086.57 758.6 1087.19 759.003 1087.19 759.81V767.153C1087.19 767.876 1086.77 768.447 1085.83 768.447C1079.06 768.447 1076.35 771.354 1076.35 776.916V804.509C1076.35 805.232 1075.73 805.719 1074.79 805.719H1059.26C1058.32 805.719 1057.7 805.232 1057.7 804.509V759.81Z" fill="#DA544A"/>
<path d="M1091.68 804.492V750.281C1091.68 749.559 1092.2 749.072 1093.14 749.072H1108.05C1108.89 749.072 1109.51 749.559 1109.51 750.281V774.244C1109.51 774.648 1110.03 774.883 1110.65 774.883C1111.17 774.883 1111.69 774.715 1111.89 774.396L1120.97 759.473C1121.39 758.902 1121.91 758.583 1122.73 758.583H1135.45C1136.6 758.583 1137.02 759.221 1136.6 760.028L1124.4 778.983C1124.2 779.219 1124.08 779.471 1124.08 779.706C1124.08 780.025 1124.4 780.193 1125.02 780.193C1130.33 780.193 1135.34 781.89 1135.34 785.755V804.476C1135.34 805.198 1134.82 805.685 1133.87 805.685H1118.55C1117.71 805.685 1117.09 805.198 1117.09 804.476V789.873C1117.09 788.024 1116.47 786.075 1113.34 786.075C1110.21 786.075 1109.49 788.007 1109.49 789.873V804.476C1109.49 805.198 1108.87 805.685 1108.03 805.685H1093.12C1092.18 805.685 1091.66 805.198 1091.66 804.476L1091.68 804.492Z" fill="#DA544A"/>
<path d="M0.0168044 129.511C0.0168044 83.0976 10.6036 0 94.0709 0C119.933 0 158.348 10.0154 158.348 61.2687V61.5712C158.348 64.2935 155.995 66.1252 152.466 66.1252H114.841C111.312 66.1252 108.96 64.3103 108.96 61.5712C108.96 39.7423 105.431 32.4492 95.2472 32.4492C80.745 32.4492 68.2089 48.2285 68.2089 71.8723C68.2089 92.1888 76.0398 100.994 90.5419 100.994C98.3728 100.994 106.993 98.5744 106.993 86.7441V86.4417C106.993 83.7194 109.346 81.8877 112.875 81.8877H153.626C157.154 81.8877 159.507 83.7026 159.507 86.4417V209.265C159.507 211.987 156.365 213.819 150.5 213.819H105.817C44.6828 213.819 0 207.45 0 129.511H0.0168044Z" fill="#58ABA9"/>
<path d="M183.033 209.265V6.06638C183.033 3.34407 186.562 1.51239 192.04 1.51239H248.469C253.561 1.51239 257.88 3.32727 257.88 6.06638V49.7409C257.88 52.4632 260.619 54.2949 266.114 54.2949H279.053C284.145 54.2949 287.674 52.48 287.674 49.7409V6.06638C287.674 3.34407 291.203 1.51239 296.681 1.51239H353.11C358.202 1.51239 361.731 3.32727 362.521 6.06638V209.265C362.521 211.987 358.992 213.819 353.513 213.819H296.681C291.186 213.819 287.674 212.004 287.674 209.265V90.3739C287.674 87.6516 284.145 85.8199 279.053 85.8199H266.114C260.636 85.8199 257.88 87.6348 257.88 90.3739V209.265C257.88 211.987 254.351 213.819 248.873 213.819H193.217C187.722 213.819 183.033 212.004 183.033 209.265Z" fill="#58ABA9"/>
<path d="M378.199 142.249C378.199 56.7147 416.614 0 474.219 0C531.825 0 565.921 54.5974 565.921 142.249C565.921 189.57 533.001 215.046 472.253 215.046C411.505 215.046 378.199 188.965 378.199 142.249ZM495.393 72.7965C495.393 49.4385 485.982 31.8611 474.236 31.8611C459.347 31.8611 449.55 48.8503 449.55 72.7965C449.55 85.2318 459.347 93.4155 474.236 93.4155C486.386 93.4155 495.393 85.2318 495.393 72.7965Z" fill="#58ABA9"/>
<path d="M581.599 5.7639C581.599 3.04159 583.952 1.20991 587.481 1.20991H658.815C734.452 1.20991 762.28 21.5264 762.28 51.2533C762.28 80.9803 734.452 95.5328 713.295 99.7843C710.153 100.389 708.976 101.297 708.976 101.902C708.976 102.507 710.539 103.112 714.068 103.717C745.022 109.48 757.575 115.547 757.575 132.839V209.265C757.575 211.987 755.222 213.819 751.693 213.819H690.559C687.03 213.819 684.677 212.004 684.677 209.265V131.024C684.677 121.63 674.494 119.193 665.873 119.193C659.992 119.193 656.463 120.403 656.463 123.445V209.282C656.463 212.004 654.11 213.836 650.581 213.836H587.481C583.952 213.836 581.599 212.021 581.599 209.282V5.7639ZM661.168 79.4679C671.351 79.4679 693.298 73.099 693.298 54.5974C693.298 38.5156 673.704 33.3735 663.117 33.3735C659.202 33.3735 656.463 33.9784 656.463 35.1883V77.9555C656.463 78.8629 658.429 79.4679 661.168 79.4679Z" fill="#58ABA9"/>
<path d="M781.084 209.265V6.06638C781.084 3.34407 783.436 1.51239 786.965 1.51239H848.486C852.015 1.51239 854.368 3.32727 854.368 6.06638V209.265C854.368 211.987 852.015 213.819 848.486 213.819H786.965C783.436 213.819 781.084 212.004 781.084 209.265Z" fill="#58ABA9"/>
<path d="M877.877 209.265V6.06638C877.877 3.34407 880.23 1.51239 883.759 1.51239H940.188C943.33 1.51239 945.683 2.41983 946.842 5.15894L984.081 84.6268C984.87 86.4417 986.433 87.3491 987.61 87.3491C989.172 87.3491 990.752 86.1392 990.752 83.7026V6.06638C990.752 3.34407 993.105 1.51239 996.634 1.51239H1037.79C1041.32 1.51239 1043.67 3.32727 1043.67 6.06638V209.265C1043.67 211.987 1041.32 213.819 1037.79 213.819H981.358C978.216 213.819 975.863 212.911 974.704 210.172L937.465 123.126C936.675 121.311 935.113 120.403 933.936 120.403C932.374 120.403 930.794 121.613 930.794 123.731V209.265C930.794 211.987 928.441 213.819 924.912 213.819H883.759C880.23 213.819 877.877 212.004 877.877 209.265Z" fill="#58ABA9"/>
<path d="M1179.65 213.819H1121.25C1087.16 213.819 1067.18 199.569 1067.18 172.883V6.06638C1067.18 3.34407 1070.71 1.51239 1076.19 1.51239H1176.51C1182 1.51239 1185.51 3.32727 1185.51 6.06638V28.2145C1185.51 30.9368 1181.99 32.7685 1176.51 32.7685H1150.65C1145.55 32.7685 1142.02 34.5834 1142.02 37.3225V50.0602C1142.02 52.7825 1145.55 54.6142 1150.65 54.6142H1167.89C1172.98 54.6142 1176.51 56.4291 1176.51 59.1682V81.3163C1176.51 84.0386 1172.98 85.8703 1167.89 85.8703H1150.65C1145.55 85.8703 1142.02 87.0802 1142.02 87.3827V96.7932C1142.02 99.5155 1145.55 101.347 1150.65 101.347H1179.65C1184.74 101.347 1188.27 103.162 1188.27 105.901V209.315C1188.27 212.038 1184.74 213.869 1179.65 213.869V213.819Z" fill="#58ABA9"/>
<path d="M11.0237 464.17V236.337C11.0237 232.606 14.2333 230.119 19.0562 230.119H105.246C110.069 230.119 113.278 232.606 113.278 236.337V360.202C113.278 363.932 116.488 366.419 121.311 366.419H161.994C166.817 366.419 170.027 368.906 170.027 372.637V513.894C170.027 517.625 166.817 520.112 161.994 520.112H84.9125C38.3476 520.112 11.0405 500.636 11.0405 464.187L11.0237 464.17Z" fill="#58ABA9"/>
<path d="M187.654 513.457L257.241 235.917C258.317 232.186 262.064 230.119 266.87 230.119H380.888C386.248 230.119 389.458 231.783 390.517 235.496L462.238 513.457V515.121C462.238 518.432 459.028 520.095 454.205 520.095H371.242C365.882 520.095 362.672 518.432 362.134 514.298L348.758 452.995C347.682 448.861 344.473 447.198 339.65 447.198H292.547C287.187 447.198 284.515 449.265 283.439 452.995L265.778 514.298C264.702 518.028 262.031 520.095 256.67 520.095H195.653C189.772 520.095 186.545 518.028 187.621 513.474L187.654 513.457ZM334.861 370.133L325.753 311.318C324.677 305.94 322.005 303.453 318.796 303.453C316.124 303.453 312.914 305.94 311.839 311.318L301.134 370.133V370.956C301.134 375.107 305.419 376.754 312.914 376.754H322.022C330.592 376.754 335.936 374.267 334.877 370.133H334.861Z" fill="#58ABA9"/>
<path d="M483.126 513.878V235.917C483.126 232.186 486.335 229.699 491.158 229.699H588.573C691.886 229.699 729.898 257.46 729.898 298.042C729.898 338.625 691.886 358.521 662.983 364.319C658.698 365.142 657.101 366.386 657.101 367.226C657.101 368.066 659.235 368.889 664.058 369.713C706.355 377.577 723.478 385.862 723.478 409.472V513.861C723.478 517.591 720.269 520.078 715.446 520.078H631.945C627.122 520.078 623.913 517.591 623.913 513.861V406.985C623.913 394.146 609.999 390.836 598.219 390.836C590.186 390.836 585.363 392.5 585.363 396.634V513.861C585.363 517.591 582.154 520.078 577.331 520.078H491.141C486.318 520.078 483.109 517.591 483.109 513.861L483.126 513.878ZM591.799 336.575C605.713 336.575 635.692 327.87 635.692 302.613C635.692 280.667 608.923 273.609 594.471 273.609C589.111 273.609 585.363 274.432 585.363 276.096V334.508C585.363 335.751 588.035 336.575 591.783 336.575H591.799Z" fill="#58ABA9"/>
<path d="M749.156 396.23C749.156 312.561 781.269 228.052 887.254 228.052C957.378 228.052 993.239 264.097 993.239 297.236C993.239 303.453 988.416 303.453 981.459 303.453H936.491C928.996 303.453 924.173 303.453 924.173 297.236C924.173 281.49 908.108 272.382 888.85 272.382C852.99 272.382 844.957 305.52 844.957 329.55C844.957 368.066 862.619 379.678 890.464 379.678C904.378 379.678 925.265 378.434 925.265 359.378C925.265 355.648 920.443 353.161 912.948 353.161H888.329C880.835 353.161 880.297 352.337 880.297 346.943V326.643C880.297 322.913 885.12 320.426 892.077 320.426H985.223C992.718 320.426 997.541 322.913 997.541 326.643V513.878C997.541 517.608 992.718 520.095 985.223 520.095H957.916C950.959 520.095 946.136 517.608 946.136 513.878V510.97C946.136 502.686 925.265 520.919 865.845 520.919C781.269 520.919 749.156 483.63 749.156 396.23Z" fill="#58ABA9"/>
<path d="M1183.28 520.095H1103.53C1056.96 520.095 1029.65 500.619 1029.65 464.17V236.337C1029.65 232.606 1034.48 230.119 1041.97 230.119H1179.01C1186.51 230.119 1191.33 232.606 1191.33 236.337V266.585C1191.33 270.315 1186.51 272.802 1179.01 272.802H1143.69C1136.73 272.802 1131.91 275.289 1131.91 279.02V296.412C1131.91 300.143 1136.73 302.63 1143.69 302.63H1167.25C1174.21 302.63 1179.03 305.117 1179.03 308.847V339.079C1179.03 342.809 1174.21 345.296 1167.25 345.296H1143.69C1136.73 345.296 1131.91 346.96 1131.91 347.363V360.202C1131.91 363.932 1136.73 366.419 1143.69 366.419H1183.3C1190.25 366.419 1195.08 368.906 1195.08 372.637V513.894C1195.08 517.625 1190.25 520.112 1183.3 520.112L1183.28 520.095Z" fill="#58ABA9"/>
</svg>
